<svg xmlns="http://www.w3.org/2000/svg" viewBox="0 0 1280 650"><style>.st0{fill:#61BB46;} .st1{fill:#FFD83E;} .st2{fill:#351101;} .st3{fill:#FFFFFF;} .st4{fill:#A5A4A4;} .st5{fill:#D1D1D1;} .st6{fill:#C3803A;} .st7{fill:#9B4E42;} .st8{fill:#873D42;} .st9{fill:#912813;} .st10{fill:#FFD33A;} .st11{fill:#529657;} .st12{fill:#3D7C35;} .st13{fill:#EA425B;} .st14{fill:#2D2E3A;} .st15{fill:#B5A596;} .st16{fill:#E8C3B8;} .st17{fill:#C4BCB5;} .st18{fill:#C9BFB5;} .st19{fill:#E0D9C6;} .st20{fill:#EDEBE6;} .st21{fill:#D0A3A4;} .st22{fill:#535250;} .st23{fill:#231F20;}</style><g id="_x34_04"><g id="XMLID_53_"><path id="XMLID_60_" class="st0" d="M425.5 443.3h45.4v34.8h-45.4V554h-44.3v-75.9H240V453l138.4-227.9h47v218.2zm-137.8 0h93.5V289.1l-1.4-.2-4.3 11.3-87.8 143.1z"/><path id="XMLID_57_" class="st0" d="M719.7 437.9c0 37.2-9.4 66.6-28.3 88.3-18.9 21.7-44.3 32.5-76.2 32.5-31.8 0-57.2-10.8-76.2-32.5s-28.6-51.1-28.6-88.3v-96.7c0-36.9 9.4-66.2 28.3-88.1 18.9-21.8 44.2-32.7 76-32.7 31.9 0 57.4 10.9 76.4 32.7 19 21.8 28.6 51.2 28.6 88.1v96.7zM675.3 332c0-23.6-5.3-42.3-15.8-56-10.5-13.7-25.4-20.6-44.7-20.6-19.1 0-33.9 6.9-44.3 20.6s-15.6 32.4-15.6 56v115c0 23.6 5.3 42.4 15.9 56.2 10.6 13.9 25.4 20.8 44.4 20.8 19.3 0 34.1-6.9 44.5-20.7 10.4-13.8 15.6-32.6 15.6-56.3V332z"/><path id="XMLID_54_" class="st0" d="M948.1 443.3h45.4v34.8h-45.4V554h-44.3v-75.9H762.7V453l138.4-227.9h47v218.2zm-137.8 0h93.5V289.1l-1.4-.2-4.3 11.3-87.8 143.1z"/></g><path id="XMLID_5_" class="st0" d="M632.3 541.9c.1.2.1.4.2.6.3.6.4.9.4 1 .2.4.3.8.4 1.3-.8-3-1.3-4.2-1.4-4.5.1.5.3 1 .4 1.6z"/><path id="XMLID_4_" class="st0" d="M592.5 520c-8.6-3.4-15.8-9-21.8-16.7-7.8-10.1-12.7-22.9-14.8-38.3-6 4.7-14.7 6.5-21.7 4.9-5.5-1.3-11-5.8-13.9-10.7-3-5.2-3.3-10.3-2.6-16-3.4-5.7-5.9-12.1-7.5-18.4V438c0 37.2 9.5 66.6 28.6 88.3 13.3 15.2 29.8 25.1 49.4 29.6-1.4-4.1-2.4-8.2-3.2-12.3-1.8-9.2 1-17.9 7.5-23.6z"/><path id="XMLID_3_" class="st0" d="M510.4 373.9V380c.3-1 .7-1.9 1-2.8-.3-1.1-.7-2.2-1-3.3z"/><g id="XMLID_1_"><g id="XMLID_105_"><circle id="XMLID_112_" class="st1" cx="1010.7" cy="181.7" r="6.5"/><circle id="XMLID_111_" class="st1" cx="1023.3" cy="185.4" r="6.5"/><path id="XMLID_110_" class="st1" d="M1012.61 175.48l12.366 3.668-3.726 12.56-12.367-3.67z"/><path id="XMLID_109_" class="st2" d="M1011.97 175.277l5.272 1.564-3.726 12.56-5.272-1.564z"/><path id="XMLID_108_" class="st2" d="M1020.05 177.648l5.274 1.563-3.725 12.56-5.274-1.563z"/><path id="XMLID_107_" class="st3" d="M1014.6 182.8s.6-11.2 10.7-12.2c10-1.1 6 17-10.7 12.2z"/><path id="XMLID_106_" class="st3" d="M1014.5 183s-5.6 9.7 2.3 16.1c7.9 6.3 14.4-11.1-2.3-16.1z"/></g><g id="XMLID_97_"><circle id="XMLID_104_" class="st1" cx="763.2" cy="276.1" r="6.5"/><circle id="XMLID_103_" class="st1" cx="750.4" cy="279.1" r="6.5"/><path id="XMLID_102_" class="st1" d="M764.65 282.504l-12.565 2.923-2.968-12.76 12.564-2.923z"/><path id="XMLID_101_" class="st2" d="M765.338 282.386l-5.357 1.247-2.967-12.76 5.357-1.246z"/><path id="XMLID_100_" class="st2" d="M757.08 284.173l-5.358 1.247-2.97-12.76 5.358-1.246z"/><path id="XMLID_99_" class="st3" d="M759.3 277.1s5 10-3.2 15.9c-8.3 5.9-13.7-11.9 3.2-15.9z"/><path id="XMLID_98_" class="st3" d="M759.3 276.9s.1-11.2-9.9-12.8-7.1 16.6 9.9 12.8z"/></g><g id="XMLID_89_"><circle id="XMLID_96_" class="st1" cx="999.8" cy="318.9" r="6.5"/><circle id="XMLID_95_" class="st1" cx="990.8" cy="328.4" r="6.5"/><path id="XMLID_94_" class="st1" d="M1004.476 323.42l-8.867 9.37-9.516-9.004 8.866-9.37z"/><path id="XMLID_93_" class="st2" d="M1004.93 322.916l-3.782 3.995-9.514-9.004 3.78-3.995z"/><path id="XMLID_92_" class="st2" d="M999.055 329.125l-3.78 3.995-9.516-9.003 3.78-3.996z"/><path id="XMLID_91_" class="st3" d="M997.1 321.9s9.7 5.6 6.1 15.1c-3.7 9.4-18-2.4-6.1-15.1z"/><path id="XMLID_90_" class="st3" d="M997 321.7s-6.1-9.4-15.4-5.2 3.3 17.8 15.4 5.2z"/></g><g id="XMLID_81_"><circle id="XMLID_88_" class="st1" cx="905" cy="210.2" r="6.5"/><circle id="XMLID_87_" class="st1" cx="915.5" cy="202.4" r="6.5"/><path id="XMLID_86_" class="st1" d="M901.103 204.91l10.345-7.706 7.826 10.505-10.345 7.705z"/><path id="XMLID_85_" class="st2" d="M900.515 205.375l4.41-3.286 7.825 10.506-4.41 3.285z"/><path id="XMLID_84_" class="st2" d="M907.35 200.39l4.41-3.285 7.827 10.505-4.41 3.285z"/><path id="XMLID_83_" class="st3" d="M908.1 207.8s-8.6-7.2-3.4-15.9c5.3-8.7 17.4 5.4 3.4 15.9z"/><path id="XMLID_82_" class="st3" d="M908.3 207.9s4.4 10.3 14.2 7.8-.2-18.1-14.2-7.8z"/></g></g></g><g id="chiken"><g id="XMLID_63_"><path id="XMLID_80_" class="st4" d="M391 217h1v8h-1z"/><path id="XMLID_79_" class="st4" d="M399 224.7c0 .2-.2.3-.4.3h-8.8c-.3 0-.8-.1-.8-.3v-.1c0-.2.5-.6.8-.6h8.8c.3 0 .4.4.4.6v.1z"/><path id="XMLID_78_" class="st4" d="M391.4 224c-.1-.4.2-.7.5-.8l7.7-1.7c.4-.1.7.2.8.5v.1c.1.4-.2.7-.5.8l-7.7 1.7c-.4.1-.7-.2-.8-.5v-.1z"/><path id="XMLID_77_" class="st4" d="M395 224.5c0 .3-.2.5-.5.5h-8.8c-.3 0-.5-.2-.5-.5s.2-.5.5-.5h8.8c.3 0 .5.2.5.5z"/><path id="XMLID_76_" class="st5" d="M393 217h1v11h-1z"/><path id="XMLID_75_" class="st6" d="M403.3 208s-4.6 5.5-9.8 8.1c-5.1 2.6-11.7-7-11.7-9.5s17-1.2 17-1.2l4.5 2.6z"/><path id="XMLID_74_" class="st7" d="M416.5 154c1.7 0 3.2 1.2 3.6 2.8.3-.2.7-.3 1.1-.3 1.1 0 2 .9 2 2s-.9 2-2 2c-.6 0-1.2-.3-1.6-.7-.7 1-1.8 1.7-3.2 1.7-2.1 0-3.8-1.7-3.8-3.8.2-2 1.8-3.7 3.9-3.7z"/><path id="XMLID_73_" class="st8" d="M424.2 170.6s4.7 4.2 2.1 6.1c-2.6 1.9-3.8-2.7-3.6-4.8.2-2.1 1.5-1.3 1.5-1.3z"/><path id="XMLID_72_" class="st7" d="M424 172.2s2.8 5.6-.3 6.4c-3.1.8-2.6-3.9-1.6-5.8 1-1.8 1.9-.6 1.9-.6z"/><path id="XMLID_71_" class="st9" d="M433 166.1l-7 2.6v-4.9z"/><path id="XMLID_70_" class="st10" d="M369.7 183.7c-2.2-3.9-.7-6.1-.7-6.1.8 2.7 1.4 2.4 1.4 2.4-2-3.2-1.1-7-1.1-7 7.2 11.4 17.7 8.2 17.7 8.2 0-.3 1.3-.6 2-.8 1-.5 2.4-.9 4.8-1 .6-.1 1.1-.1 1.7-.1 3.7-.4 6-1.2 7.3-1.9 6.5-4.5 11.2-13.9 11.2-13.9 1.1-2.3 3.4-3.9 6.1-3.9 3.7 0 6.8 3 6.8 6.7 0 2.8-1.7 5.1-4.1 6.2-4.3 4.4-5.3 22.8-5.3 22.8 0 8.9-9.3 16.1-20.8 16.1-5.1 0-9.7-1.4-13.3-3.7-9.2-4.9-15.2-26.1-15.2-26.1.9 2.2 1.5 2.1 1.5 2.1z"/><circle id="XMLID_69_" cx="422.4" cy="164.7" r="1.2"/><circle id="XMLID_68_" class="st3" cx="422.5" cy="163.9" r=".4"/><path id="XMLID_67_" class="st10" d="M405.9 209.8s-4.6 5.5-9.8 8.1c-5.1 2.6-11.7-7-11.7-9.5s17-1.2 17-1.2l4.5 2.6z"/><path id="XMLID_66_" class="st5" d="M402 228.5c0 .3-.2.5-.5.5h-9.1c-.3 0-.5-.2-.5-.5v-.1c0-.3.2-.5.5-.5h9.1c.3.1.5.3.5.6z"/><path id="XMLID_65_" class="st5" d="M393.1 228.6c-.1-.4.2-.7.5-.8l7.7-1.7c.4-.1.7.1.8.5v.1c.1.4-.2.7-.5.8l-7.7 1.7c-.4.1-.7-.2-.8-.5v-.1z"/><path id="XMLID_64_" class="st5" d="M399 228.5c0 .3-.2.5-.5.5h-9.1c-.3 0-.5-.2-.5-.5v-.1c0-.3.2-.5.5-.5h9.1c.3.1.5.3.5.6z"/></g></g><g id="berries"><g id="XMLID_114_"><path id="XMLID_119_" class="st11" d="M995.4 536.4c-.9-.1-14.6-1.3-24.6 8.3.8-13.8-9.1-23.5-9.8-24.1v-.1s-10.6 9.9-9.8 24.2c-10-9.6-23.8-8.4-24.6-8.3l-.1-.1s1.1 30.2 34.4 29.7h.1l.1-.1c33.2.6 34.3-29.6 34.3-29.5z"/><path id="XMLID_118_" class="st12" d="M995.4 536.4c-.9-.1-14.6-1.3-24.6 8.3.8-13.8-9.1-23.5-9.8-24.1v-.1V566l.1-.1c33.2.6 34.3-29.6 34.3-29.5z"/><circle id="XMLID_117_" class="st13" cx="942.8" cy="523.9" r="6.9"/><circle id="XMLID_116_" class="st13" cx="979.1" cy="523.9" r="6.9"/><circle id="XMLID_115_" class="st13" cx="960.8" cy="510.8" r="6.9"/></g></g><g id="cow"><g id="XMLID_6_"><path id="XMLID_52_" class="st14" d="M789.8 402.2S813 398 813 424v110.5s-.9 4.5-1.8-4.3c-.9-8.7-2.8-79.1-2.8-79.1s-.3-39-14.3-38.4"/><path id="XMLID_51_" class="st15" d="M769 575.3c0 4.1-3.6 7.7-7.8 7.7h-.5c-4.2 0-8.7-3.5-8.7-7.7v-76.8c0-4.1 4.6-7.5 8.7-7.5h.5c4.2 0 7.8 3.4 7.8 7.5v76.8z"/><circle id="XMLID_50_" class="st16" cx="761.3" cy="519.6" r="27"/><path id="XMLID_49_" class="st15" d="M611 572.7c0 4-3.6 7.3-8 7.3s-8-3.3-8-7.3v-77.4c0-4 3.6-7.3 8-7.3h.1c4.4 0 8 3.3 8 7.3v77.4z"/><path id="XMLID_48_" class="st17" d="M637 572.4c0 4.2-3.3 7.6-7.5 7.6h-.6c-4.2 0-7.9-3.3-7.9-7.6v-77c0-4.2 3.7-7.4 7.9-7.4h.6c4.2 0 7.5 3.2 7.5 7.4v77z"/><path id="XMLID_47_" class="st17" d="M802 485.7c0 15.2-13.7 27.3-30.8 27.3H611.4c-17.2 0-29.4-12.1-29.4-27.3v-66.1c0-15.2 12.2-29.6 29.4-29.6h159.7c17.2 0 30.8 14.4 30.8 29.6v66.1z"/><path id="XMLID_46_" class="st18" d="M763.4 509.8s8.6 12.4 19.2 18.2c10.6 5.7 15.6-5.8 15.6-5.8s-3.4-10.8 2.1-35c5.4-24.1-15.6-7.3-15.6-7.3L781 489l-17.6 19.4"/><circle id="XMLID_45_" class="st14" cx="620.1" cy="422.9" r="24.7"/><circle id="XMLID_44_" class="st14" cx="607.6" cy="447.6" r="11.6"/><circle id="XMLID_43_" class="st14" cx="782.4" cy="452.1" r="11.6"/><circle id="XMLID_42_" class="st14" cx="595" cy="472.8" r="8.9"/><path id="XMLID_41_" class="st14" d="M615.9 482.9c0 2.3-1.8 4.1-4.1 4.1s-4.1-1.8-4.1-4.1 1.8-4.1 4.1-4.1c2.2 0 4.1 1.8 4.1 4.1z"/><circle id="XMLID_40_" class="st14" cx="788.3" cy="439" r="4.1"/><circle id="XMLID_39_" class="st14" cx="669.5" cy="452.1" r="11.6"/><circle id="XMLID_38_" class="st14" cx="657.8" cy="409.9" r="11.6"/><circle id="XMLID_37_" class="st14" cx="757.1" cy="416" r="10.5"/><circle id="XMLID_36_" class="st14" cx="720.3" cy="439.3" r="7.8"/><circle id="XMLID_35_" class="st14" cx="754.9" cy="468.5" r="33.3"/><circle id="XMLID_34_" class="st14" cx="720.2" cy="478.6" r="15.1"/><path id="XMLID_33_" class="st18" d="M782.6 521.1v52.7c0 4.3 3.5 7.8 7.8 7.8s7.8-3.5 7.8-7.8v-51.9c-5.3-.3-10.4-.6-15.6-.8z"/><path id="XMLID_32_" class="st14" d="M557.8 366s-16.7 4-21.1-20h-1.6s-3.3 20.3 20.5 30.2c0 0 11.1-3.5 2.2-10.2z"/><path id="XMLID_31_" class="st14" d="M603.8 366s16.7 4 21.1-20h1.6s3.3 20.3-20.5 30.2c.1 0-11-3.5-2.2-10.2z"/><path id="XMLID_30_" class="st19" d="M551.7 383.5s-3.9-11.2-25.5-6.1c0 0-1.5 16 12.9 19.8 0 0 7.8 1.8 14-1.1 0 0 1.8-.1 1.8 2.1V388l-3.2-4.5z"/><path id="XMLID_29_" class="st20" d="M609 438.6c0 5.4-4.7 9.4-10.1 9.4h-35c-5.4 0-9-4-9-9.4v-61.3c0-5.4 3.6-9.3 9-9.3h35c5.4 0 10.1 3.9 10.1 9.3v61.3z"/><path id="XMLID_28_" class="st19" d="M608.2 380.5c0-4.3 1.2-14.5-5.9-14.5H559c-7.1 0-5.9 10.2-5.9 14.5 0 4.3-5.3 3-5.3 3l5.5 7.7c13.6 0 15.7 14.9 15.7 14.9v23h26v-23s.7-15 14.3-15l4.7-7.6c.1 0-5.8 1.3-5.8-3z"/><path id="XMLID_27_" class="st21" d="M580.6 425.2c-23.2 0-19.6 8.2-19.6 15.4s6.6 5.4 6.6 5.4c3.7 9.1 12.9 7.9 12.9 7.9s9 1.2 12.7-7.9c0 0 6.8 1.7 6.8-5.4s3.8-15.4-19.4-15.4z"/><path id="XMLID_26_" class="st22" d="M594 442c0 2.2-1.9 4-4.1 4h-20.7c-2.2 0-4.2-1.8-4.2-4v-9c0-2.2 1.9-4 4.2-4h20.7c2.2 0 4.1 1.7 4.1 4v9z"/><g id="XMLID_23_"><path id="XMLID_25_" class="st22" d="M572.4 434.1s.1 2.9 2.8 2.8"/><path id="XMLID_24_" class="st23" d="M575 438.6c-1.1 0-2-.3-2.7-1-1.4-1.2-1.5-3.1-1.5-3.4 0-.9.7-1.7 1.6-1.7.9-.1 1.7.6 1.7 1.5 0 .6.3 1.3 1.1 1.3.9-.1 1.7.6 1.7 1.5.1.9-.6 1.7-1.5 1.7-.2.1-.3.1-.4.1z"/></g><g id="XMLID_20_"><path id="XMLID_22_" class="st22" d="M587.2 434.1s-.1 2.9-2.8 2.8"/><path id="XMLID_21_" class="st23" d="M584.5 438.6h-.3c-.9 0-1.6-.8-1.5-1.7 0-.9.8-1.6 1.7-1.5.4 0 .6-.1.6-.2.3-.3.4-.9.4-1.1 0-.9.8-1.6 1.7-1.6.9 0 1.6.8 1.6 1.7 0 .2-.1 2.1-1.5 3.4-.7.6-1.6 1-2.7 1z"/></g><circle id="XMLID_19_" cx="560.5" cy="400.6" r="3.4"/><circle id="XMLID_18_" cx="603.1" cy="400.6" r="3.4"/><circle id="XMLID_17_" class="st3" cx="559.4" cy="399.4" r="1.3"/><circle id="XMLID_16_" class="st3" cx="602" cy="399.4" r="1.3"/><path id="XMLID_15_" class="st18" d="M527.6 379s21.5-6.9 23.8 13.2c-.1.1-19.5 11.5-23.8-13.2z"/><path id="XMLID_14_" class="st19" d="M549.5 381.1s1.6 2.2 2.7 1.9c1.1-.3.4 1 .4 1l-1 .6-.9-1-1.2-2.5"/><path id="XMLID_13_" class="st19" d="M612.4 381.1s-1.6 2.2-2.7 1.9c-1.1-.3-.4 1-.4 1l1 .6.9-1 1.2-2.5"/><path id="XMLID_12_" class="st16" d="M745 550.5c0 1.4-1.1 2.5-2.5 2.5s-2.5-1.1-2.5-2.5v-13c0-1.4 1.1-2.5 2.5-2.5s2.5 1.1 2.5 2.5v13z"/><path id="XMLID_11_" class="st16" d="M757 555.5c0 1.4-1.1 2.5-2.5 2.5s-2.5-1.1-2.5-2.5v-13c0-1.4 1.1-2.5 2.5-2.5s2.5 1.1 2.5 2.5v13z"/><path id="XMLID_10_" class="st16" d="M769 556.5c0 1.4.5 2.5-.9 2.5h-.6c-1.4 0-3.5-1.1-3.5-2.5v-14c0-1.4 2.1-2.5 3.5-2.5h.6c1.4 0 .9 1 .9 2.5v14z"/><path id="XMLID_9_" class="st16" d="M779 550.5c0 1.4-1.1 2.5-2.5 2.5s-2.5-1.1-2.5-2.5v-13c0-1.4 1.1-2.5 2.5-2.5s2.5 1.1 2.5 2.5v13z"/><path id="XMLID_8_" class="st19" d="M636 377.3c-21.6-5.1-25.1 6.1-25.1 6.1l-2.7 4.4v3.1h-.1v7.3l.2-.7V397.3l.1-.5c.3-1 1.2-1 1.2-1 6.2 2.9 13.3 1.1 13.3 1.1 14.4-3.7 13.1-19.6 13.1-19.6z"/><path id="XMLID_7_" class="st18" d="M634.3 379s-21.5-6.9-23.8 13.2c0 .1 19.5 11.5 23.8-13.2z"/></g></g><g id="_x30_"><path id="XMLID_2_" class="st0" d="M691.2 253.3c-19-21.8-44.5-32.7-76.4-32.7-31.8 0-57.1 10.9-76 32.7-18.8 21.7-28.2 50.8-28.3 87.4 3.2-4.4 7.9-7.9 12.9-9.6 12.6-4.1 24.4 4.8 28.5 16.2.4 1.1.7 2.2 1 3.3l2.1.6V332c0-23.6 5.2-42.3 15.6-56s25.1-20.6 44.3-20.6c19.3 0 34.2 6.9 44.7 20.6s15.8 32.4 15.8 56v115c0 23.8-5.2 42.6-15.6 56.3-4.5 6-9.8 10.6-16 14 2.8 2.9 5.2 6.5 5.7 9.9 1.4 8.9 1.9 18-.2 26.7 16.6-5.1 30.7-14.4 42.3-27.7 18.9-21.7 28.3-51.1 28.3-88.3v-96.7c-.2-36.7-9.7-66.1-28.7-87.9z"/></g></svg>