<svg xmlns="http://www.w3.org/2000/svg" width="85" height="85" viewBox="0 0 85 85"><path d="M42.5 84C65.38 84 84 65.38 84 42.5S65.38 1 42.5 1 1 19.62 1 42.5 19.62 84 42.5 84m0 1C19.03 85 0 65.97 0 42.5S19.03 0 42.5 0 85 19.03 85 42.5 65.97 85 42.5 85z" fill="#515151"/><path d="M69.34 46.49l-.57.78-.58-.78c-1.41-1.89-1.91-3.49-1.48-4.77.35-1.08 1.27-1.61 1.81-1.78-.01-3.17-.55-4.45-1.62-5.33-1.48-1.22-3.63-1.51-4.83-1.57.45.97.72 2.04.72 3.18v10.12c0 2.39-1.14 4.51-2.87 5.86v9.92c0 1.59-1.27 2.89-2.83 2.89-1.55 0-2.82-1.3-2.82-2.89v-8.39H33.93v8.39c0 1.59-1.27 2.89-2.83 2.89s-2.82-1.3-2.82-2.89V51.7c-1.4-1.35-2.29-3.25-2.29-5.36v-6.06h-.07c-2.66 0-4.83-2.18-4.83-4.86v-6.91c-1.6-.19-2.75-.77-3.42-1.71-.98-1.37-.56-2.98-.56-2.99l.08-.33.34-.01c2.13-.06 3.41.91 4.07 1.64.27-.54.65-1.03 1.11-1.45v-2.33c0-.74.6-1.34 1.33-1.34.74 0 1.33.6 1.33 1.34v1.13c.19-.03.37-.04.55-.04h3.29c.24 0 .48.03.74.07v-1.16c0-.74.6-1.34 1.33-1.34.74 0 1.33.6 1.33 1.34V23.84c.39.38.7.81.93 1.28.64-.71 1.86-1.65 3.9-1.65h.18l.33.01.09.33c.04.17.38 1.69-.56 2.99-.67.95-1.83 1.52-3.44 1.71v.32h21.51c2.46 0 4.64 1.27 5.95 3.19 1.1.11 3.91.57 5.85 2.17 1.26 1.02 1.89 2.59 1.89 5.79h-.12c.54.2 1.38.72 1.71 1.74.42 1.28-.08 2.88-1.49 4.77zM21.09 27.37c-.16-.33-.83-1.56-2.24-1.74-.24-.04-.41-.26-.38-.51.03-.24.26-.43.5-.39.73.1 1.31.4 1.75.76-.53-.49-1.43-1.06-2.8-1.12-.04.44-.02 1.23.47 1.91.51.71 1.42 1.15 2.7 1.32v-.23zm34.07 34.75c0 1.09.87 1.98 1.93 1.98 1.07 0 1.94-.89 1.94-1.98V52.8c-1.04.58-2.22.93-3.48.93h-.39v8.39zm.39-9.3c.75 0 1.46-.16 2.13-.41.22-.8.83-3.44-.22-4.94-.51-.73-1.39-1.1-2.61-1.1-2.63 0-3.82 1.27-4.35 2.34-.73 1.47-.54 3.22.06 4.11h4.99zm-26.38 9.3c0 1.09.87 1.98 1.93 1.98 1.07 0 1.93-.89 1.93-1.98v-8.41c-1.43-.04-2.75-.51-3.86-1.29v9.7zm-4.68-40.79c0-.24-.2-.44-.45-.44-.24 0-.44.2-.44.44v1.7c.28-.16.57-.28.89-.38v-1.32zm3.04 1.99h-1.61c-2.18 0-3.95 1.78-3.95 3.96v4.69h.11c1.99 0 3.48-.59 4.42-1.75 1.83-2.26 1.19-6.09 1.03-6.9zm4.2-1.99c0-.24-.2-.44-.45-.44-.24 0-.44.2-.44.44v1.38c.3.11.6.26.89.43v-1.81zm1.43 9.06c-.52.19-1.22.71-1.44 2.1-.08.49.02.89.29 1.19.3.33.76.51 1.15.57v-3.86zm0 4.77c-.42-.06-1.23-.24-1.8-.88-.46-.5-.64-1.17-.52-1.93.23-1.48.95-2.21 1.52-2.56.29-.18.58-.27.8-.33v-2.18c0-2.18-1.77-3.96-3.95-3.96h-.77c.23 1.21.74 5.01-1.25 7.46-1.12 1.39-2.84 2.09-5.1 2.09h-.12v2.55c0 2.19 1.77 3.96 3.95 3.96h3.29c2.18 0 3.95-1.77 3.95-3.96v-.26zm3.6-8.88c.49-.69.51-1.47.47-1.91-1.42.06-2.33.67-2.85 1.17.45-.38 1.05-.7 1.82-.81.26-.03.46.15.5.39.03.25-.15.47-.39.51-1.6.2-2.26 1.79-2.27 1.81v.17c1.3-.17 2.21-.62 2.72-1.33zm18 3.46H40.71c-.13 1.41-.15 6.72 6.86 8.69 1.93.55 3.5.34 4.66-.62 2.4-1.98 2.55-6.6 2.53-8.07zm7.13 6.48c0-3.54-2.79-6.41-6.25-6.47.03 1.61-.12 6.5-2.85 8.76-.9.74-2 1.12-3.26 1.12-.68 0-1.42-.11-2.2-.33-7.42-2.09-7.61-7.83-7.49-9.56h-5.8v5.68c0 2.68-2.16 4.86-4.83 4.86h-2.32v6.06c0 3.57 2.84 6.48 6.34 6.48h16.33c-.52-1.16-.63-2.93.16-4.51.52-1.06 1.89-2.84 5.13-2.84 1.52 0 2.64.5 3.33 1.48 1.04 1.48.8 3.67.53 4.96.44-.26.85-.54 1.21-.9 1.21-1.18 1.97-2.83 1.97-4.67V36.22zm6.88 4.41s-3.34.94 0 5.42c3.34-4.48 0-5.42 0-5.42zM39.2 49.09c-.17.02-.35.03-.54.03-1.58 0-3.14-.65-4.18-1.74-.78-.83-1.66-2.3-1.38-4.64.17-1.4.7-2.43 1.59-3.06 1.46-1.05 3.3-.61 3.37-.6l.04.01c4.19 1.48 6.53 3.8 6.24 6.2-.23 2-2.3 3.53-5.14 3.8zm-1.36-9.14c-.03 0-.34-.07-.78-.07-.51 0-1.25.1-1.87.54-.67.48-1.08 1.3-1.22 2.42-.18 1.58.21 2.93 1.14 3.91.99 1.04 2.53 1.58 4.01 1.45 2.41-.23 4.16-1.44 4.35-3.01.23-1.96-1.88-3.91-5.63-5.24zM28.86 28c0-.71.58-1.3 1.29-1.3.71 0 1.29.59 1.29 1.3 0 .72-.58 1.3-1.29 1.3-.71 0-1.29-.58-1.29-1.3zm1.69 0c0-.22-.18-.4-.4-.4-.23 0-.41.18-.41.4 0 .22.18.4.41.4.22 0 .4-.18.4-.4zm-.75 6.54c.12.01.23.07.3.17.07.1.1.21.08.33-.03.24-.26.43-.49.39-.01 0-.7-.08-1.07.24-.17.15-.25.37-.25.68 0 .25-.2.45-.44.45-.25 0-.45-.2-.45-.45 0-.58.19-1.04.56-1.36.64-.55 1.58-.48 1.76-.45zm-.02.2zm-3.03 2.06c-.25 0-.45-.2-.45-.45 0-.31-.08-.53-.25-.68-.37-.33-1.06-.24-1.06-.24-.26.02-.47-.15-.5-.39-.01-.12.02-.23.09-.33.07-.1.17-.16.29-.17.19-.03 1.13-.1 1.76.45.37.33.56.78.56 1.36 0 .25-.2.45-.44.45zm-1.86-7.5c-.71 0-1.29-.58-1.29-1.3 0-.71.58-1.3 1.29-1.3.71 0 1.29.59 1.29 1.3 0 .72-.58 1.3-1.29 1.3zm0-1.7c-.22 0-.4.18-.4.4 0 .22.18.4.4.4.22 0 .4-.18.4-.4 0-.22-.18-.4-.4-.4z" fill="#515151"/></svg>