<svg xmlns="http://www.w3.org/2000/svg" width="85" height="85" viewBox="0 0 85 85"><path d="M42.5 84C65.38 84 84 65.38 84 42.5S65.38 1 42.5 1 1 19.62 1 42.5 19.62 84 42.5 84m0 1C19.03 85 0 65.97 0 42.5S19.03 0 42.5 0 85 19.03 85 42.5 65.97 85 42.5 85z" fill="#515151"/><path d="M65.44 65.33c-4.51 1.78-13.23 2.66-21.94 2.66-8.72 0-17.43-.88-21.94-2.66-1.18-.47-1.69-1.96-1.56-4.56v-.17c.19-4.03.46-10.11 3.97-15.2.06-.08 1.13-1.49 3.62-2.42.09-.03 5.06-1.53 7.28-3.09.21-.15.51-.15.73.01 0 0 .71.51.94.64.01.01.03.02.05.03.2.1.34.31.34.54 0 .02-.1 5.8-.12 6.7l5.68 14.85-2.21-13.08c-.03-.19.04-.4.19-.53l1.9-1.81-2.25-3.39c-.15-.22-.14-.5.03-.71.16-.2.44-.29.69-.2.9.3 1.77.45 2.6.45h.27c.81-.04 1.63-.17 2.43-.41.25-.06.52.01.68.22.15.21.16.49.02.7l-2.23 3.34 1.92 1.81c.15.13.22.34.18.53l-2.19 13.06 5.66-14.83-.11-6.69c0-.2.1-.4.27-.51l1.07-.72c.21-.15.5-.15.71 0 2.23 1.57 7.19 3.06 7.24 3.07 2.52.95 3.61 2.35 3.65 2.41 3.52 5.12 3.8 11.2 3.98 15.22l.01.18c.12 2.62-.4 4.11-1.56 4.56zM44.95 44.49c-.4.06-.8.1-1.2.12h-.03-.28c-.46 0-.93-.04-1.41-.12l1.46 2.19 1.46-2.19zm-1.46 3.38l-1.92 1.83 1.93 11.47 1.93-11.47-1.94-1.83zm.01 16.4c-.17 0-.32-.06-.45-.14l.13.35c.1.26.53.25.64-.01l.13-.33c-.14.08-.28.13-.45.13zm22.26-3.44l-.01-.19c-.18-3.88-.45-9.75-3.76-14.56 0 0-.93-1.17-3.03-1.96-.16-.05-4.7-1.41-7.2-2.99l-.44.3.11 6.48c0 .07-.01.15-.04.22L44.98 64.9c-.24.61-.84 1.01-1.49 1.01s-1.25-.4-1.48-1.01L35.6 48.13c-.02-.07-.04-.15-.04-.22 0 0 .09-5.07.12-6.46-.13-.08-.28-.19-.46-.31-2.5 1.57-7.03 2.93-7.23 2.99-2.08.78-3 1.96-3 1.97-3.3 4.79-3.56 10.66-3.74 14.55l-.01.18c-.09 1.91.19 3.14.78 3.37 8.83 3.47 34.12 3.47 42.96 0 .27-.11.89-.65.78-3.37zm-11-34.89c.74.96.49 2.63.23 3.8-.21.91-.53 1.67-.91 2.13-.88 4.28-4.64 10.29-10.41 10.57-.09.01-.19.01-.29.01-4.58 0-9.56-5.02-10.47-10.59-.39-.47-.68-1.12-.86-1.94l.61-.12-.64-.01c-.26-1.16-.64-2.9.13-3.9.04-.04.07-.09.11-.13-.94-3.59-.37-5.81.06-6.84 2.54-5.93 7.79-8.24 14.03-6.19 2.24.73 4.79 1.67 6.66 3.62 3.31 3.43 2.22 7.31 1.6 9.42.07.07.11.12.15.17zm-2.65-8.75c-1.68-1.74-4.06-2.62-6.16-3.3-1.33-.44-2.62-.66-3.83-.66-3.83 0-6.93 2.15-8.65 6.15-.31.74-.92 2.83.09 6.42.07.24-.02.5-.23.65-.09.07-.14.12-.18.17-.43.56-.09 2.09.09 2.91l.03.14c.15.69.38 1.19.68 1.5.09.09.15.21.16.34.81 5.48 5.68 9.72 9.29 9.72.07 0 .14 0 .21-.01 5.16-.25 8.53-5.85 9.27-9.74.03-.12.08-.23.17-.31.22-.22.53-.83.72-1.69.4-1.79.19-2.54-.04-2.85-.02-.02-.09-.08-.14-.12-.01-.01-.12-.11-.13-.13-.16-.15-.21-.37-.15-.58l.09-.31c.62-2.13 1.56-5.35-1.29-8.3z" fill="#575757"/></svg>