<svg xmlns="http://www.w3.org/2000/svg" width="85" height="85" viewBox="0 0 85 85"><path d="M42.5 84C65.38 84 84 65.38 84 42.5S65.38 1 42.5 1 1 19.62 1 42.5 19.62 84 42.5 84m0 1C19.03 85 0 65.97 0 42.5S19.03 0 42.5 0 85 19.03 85 42.5 65.97 85 42.5 85z" fill="#515151"/><path d="M63.55 63.77c-.51.77-1.37 1.23-2.31 1.23H24.76c-.94 0-1.8-.46-2.31-1.23s-.59-1.73-.21-2.57l4.65-10.27c.26-.55.7-1.01 1.25-1.3l7.22-3.68c.3-.15.69-.12.96.08.67.5 1.4.89 2.15 1.23v-2.32c-2.44-1.48-4.25-4.14-4.87-7.3-.41 1.15-1.52 1.99-2.84 1.99-1.66 0-3.02-1.32-3.02-2.95v-5.37c0-1.6 1.3-2.89 2.92-2.95 1.5-5.38 6.53-9.36 12.5-9.36 6.01 0 11.07 4.04 12.53 9.48 1.25.36 2.18 1.48 2.18 2.83v5.37c0 1.53-1.21 2.79-2.74 2.93-.31.51-1.34 1.6-4.44 2.25-.84 1.25-1.89 2.31-3.12 3.06v2.32c.73-.33 1.45-.72 2.11-1.21.27-.2.66-.23.96-.08l7.22 3.68c.55.29 1 .75 1.25 1.31l4.65 10.26c.38.84.3 1.8-.21 2.57zM28.61 31.31v5.37c0 1.16.96 2.11 2.15 2.11s2.15-.95 2.15-2.11v-5.37c0-1.16-.96-2.11-2.15-2.11s-2.15.95-2.15 2.11zm14.55-11.46c-5.53 0-10.19 3.65-11.63 8.61 1.25.33 2.19 1.43 2.24 2.75.44-1.92 1.25-3.46 2.4-4.59 1.62-1.58 3.91-2.38 6.83-2.38s5.21.8 6.83 2.38c.98.96 1.7 2.22 2.18 3.76.39-1.14 1.46-1.97 2.75-2.01-1.48-4.92-6.11-8.52-11.6-8.52zm11.69 18.94c1.19 0 2.16-.95 2.16-2.11v-5.37c0-1.16-.97-2.11-2.16-2.11-1.18 0-2.15.95-2.15 2.11v5.37c0 1.16.97 2.11 2.15 2.11zm-.79.74c-.74-.2-1.37-.68-1.77-1.31-.23.93-.58 1.81-1 2.62 1.56-.42 2.37-.94 2.77-1.31zm-4.58 2.54c-1.11.17-2.44.27-4.01.3-.24.61-.83 1.05-1.54 1.05h-2.08c-.92 0-1.66-.73-1.66-1.63 0-.9.74-1.63 1.66-1.63h2.08c.82 0 1.47.6 1.61 1.36 1.91-.04 3.44-.2 4.63-.42 1.02-1.66 1.62-3.68 1.62-5.86 0-3.66-.87-6.36-2.57-8.02-1.45-1.42-3.54-2.13-6.22-2.13-2.68 0-4.77.71-6.22 2.13-1.7 1.66-2.57 4.36-2.57 8.02 0 5.59 3.94 10.15 8.79 10.15 2.57 0 4.87-1.29 6.48-3.32zm-5.55-1.06h-2.08c-.44 0-.8.35-.8.78 0 .43.36.78.8.78h2.08c.39 0 .69-.27.77-.63v-.3c-.08-.36-.38-.63-.77-.63zm-4.61 6.61c1.18.41 2.41.64 3.68.64 1.28 0 2.52-.23 3.71-.65v-2.22c-1.14.54-2.4.84-3.71.84-1.3 0-2.53-.29-3.66-.82v2.17c0 .01-.02.02-.02.04zm23.65 13.92l-4.65-10.26c-.18-.38-.48-.7-.86-.89l-7.22-3.69c-.01 0-.02 0-.04.01-2.11 1.57-4.6 2.39-7.2 2.39-2.6 0-5.09-.82-7.2-2.39-.01-.01-.02-.01-.03-.01h-.01l-7.22 3.69c-.38.19-.68.5-.86.89l-4.65 10.26c-.26.58-.21 1.24.14 1.77s.95.84 1.59.84h36.48c.64 0 1.24-.31 1.59-.84.35-.53.4-1.19.14-1.77z" fill="#515151"/></svg>