<svg xmlns="http://www.w3.org/2000/svg" width="85" height="85" viewBox="0 0 85 85"><path d="M42.5 84C65.38 84 84 65.38 84 42.5S65.38 1 42.5 1 1 19.62 1 42.5 19.62 84 42.5 84m0 1C19.03 85 0 65.97 0 42.5S19.03 0 42.5 0 85 19.03 85 42.5 65.97 85 42.5 85z" fill="#515151"/><path d="M73.97 58.37c-.08.25-.32.41-.58.41-.06 0-.12 0-.18-.02-2.8-.86-5.13-2.51-6.82-4.61h-4.02c-.31 3.83-3.59 6.85-7.59 6.85H29.15c-4.2 0-7.62-3.34-7.62-7.45 0-.56.07-1.11.19-1.64h-6.11c-.34 0-.61-.27-.61-.59V36.06c0-.32.27-.59.61-.59h3.16v-9.48c0-.33.27-.59.6-.59h16.5c.27 0 .5.17.58.42l2.57 8.29 6.94.68v-6.37c0-.32.27-.59.61-.59h.95v-6.24c0-.33.27-.59.61-.59.33 0 .6.26.6.59v6.24h.83c.34 0 .61.27.61.59v6.78l7.09.69c.31.03.54.29.54.59v6.18l5.63 3.48c-.05-1.48.15-2.99.63-4.48.09-.31.43-.48.75-.38.32.09.5.42.4.74-2.1 6.55 1.66 13.56 8.36 15.61.32.09.5.43.4.74zm-57.76-7.65h5.89c.85-2.01 2.58-3.58 4.72-4.26v-1.61H16.21v5.87zm0-7.05h10.61v-1.42H16.21v1.42zm3.02-7.02h-3.02v4.41h10.61v-.71l-7.59-3.7zm18.73-1.9l-2.54-8.17H19.98v9.12l7.71 3.75c.21.1.34.31.34.53v6.21c.36-.06.74-.09 1.12-.09h8.81V34.75zm11-5.73h-1.79v5.89l1.79.17v-6.06zm7.63 8l-17.42-1.71V46.1h15.61c.62 0 1.23.08 1.81.22v-9.3zm-1.81 10.27H29.15c-3.53 0-6.41 2.81-6.41 6.26 0 3.46 2.88 6.27 6.41 6.27h25.63c3.33 0 6.07-2.5 6.38-5.67h-1.94c-.34 0-.61-.27-.61-.6 0-.32.27-.59.61-.59h1.94c-.31-3.18-3.05-5.67-6.38-5.67zm8.78.33h-.01l-5.75-3.56v2.66c2.53 1.07 4.35 3.44 4.57 6.24h3.18c-1.04-1.61-1.72-3.44-1.99-5.34zm-9.35 9.18c-1.84 0-3.33-1.45-3.33-3.25 0-1.79 1.49-3.25 3.33-3.25 1.83 0 3.32 1.46 3.32 3.25 0 1.8-1.49 3.25-3.32 3.25zm0-5.31c-1.17 0-2.12.92-2.12 2.06 0 1.14.95 2.07 2.12 2.07 1.16 0 2.11-.93 2.11-2.07 0-1.14-.95-2.06-2.11-2.06zm-5.65 2.66h-13.2c-.34 0-.61-.27-.61-.6 0-.32.27-.59.61-.59h13.2c.34 0 .61.27.61.59 0 .33-.27.6-.61.6zM29.29 56.8c-1.83 0-3.32-1.45-3.32-3.25 0-1.79 1.49-3.25 3.32-3.25 1.84 0 3.33 1.46 3.33 3.25 0 1.8-1.49 3.25-3.33 3.25zm0-5.31c-1.16 0-2.11.92-2.11 2.06 0 1.14.95 2.07 2.11 2.07 1.17 0 2.12-.93 2.12-2.07 0-1.14-.95-2.06-2.12-2.06zm19.72-6.64c-.34 0-.61-.27-.61-.59 0-.33.27-.59.61-.59h5.77c.33 0 .6.26.6.59 0 .32-.27.59-.6.59h-5.77zm5.77-2.6h-5.77c-.34 0-.61-.27-.61-.6 0-.32.27-.59.61-.59h5.77c.33 0 .6.27.6.59 0 .33-.27.6-.6.6zm0-2.61h-5.77c-.34 0-.61-.26-.61-.59 0-.32.27-.59.61-.59h5.77c.33 0 .6.27.6.59 0 .33-.27.59-.6.59zM30.25 28.05h3.73c.27 0 .52.18.58.44L36.28 35c.01.05.02.1.02.15v9.07c0 .32-.28.59-.61.59h-5.44c-.33 0-.6-.27-.6-.59V28.64c0-.33.27-.59.6-.59zm.61 15.57h4.22v-7.88h-4.22v7.88zm0-9.06h4.05l-1.4-5.33h-2.65v5.33zm-3.38 2.48c-.08 0-.15-.01-.23-.04l-4.99-1.95c-.23-.09-.38-.31-.38-.55v-5.86c0-.33.27-.59.61-.59h4.99c.33 0 .6.26.6.59v7.81c0 .2-.1.38-.26.49-.1.07-.22.1-.34.1zm-.61-7.81h-3.78v4.87l3.78 1.47v-6.34z" fill="#515151"/></svg>