<svg xmlns="http://www.w3.org/2000/svg" width="50" height="50" viewBox="0 0 50 50"><circle cx="25" cy="25" r="25" fill="#32799D"/><path d="M25.44 34.97c-1.99 0-3.85-.88-5.11-2.4-.78.96-1.96 1.53-3.22 1.53-2.07 0-3.8-1.55-4.11-3.55-2.17.21-4-1.5-4-3.64 0-2.13 1.84-3.85 3.99-3.64.32-2.62 2.56-4.67 5.24-4.67.73 0 1.44.16 2.1.45.39-2.88 2.81-5.07 5.73-5.07 2.79 0 5.14 1.97 5.67 4.67 3.01-.4 5.6 1.81 5.92 4.68.23-.05.47-.07.71-.07 2.01 0 3.64 1.64 3.64 3.65 0 1.76-1.21 3.23-2.87 3.58-.28 2.06-2.02 3.61-4.12 3.61-.97 0-1.88-.33-2.61-.92-.97.78-2.24 1.1-3.5.82-1.05.64-2.23.97-3.46.97zm-5.13-3.46c.17 0 .33-.07.42.07 1.05 1.59 2.82 2.47 4.71 2.47 1.1 0 2.17-.36 3.1-.97.12-.08.26-.12.4-.09 1.16.32 2.31-.02 3.1-.83.19-.2.52-.2.71-.01.6.61 1.4.95 2.26.95 1.7 0 3.09-1.35 3.16-3.06 0-.26.2-.46.45-.49 1.36-.13 2.38-1.26 2.38-2.64 0-1.46-1.18-2.65-2.64-2.65-.34 0-.68.07-.99.2-.16.06-.34.04-.48-.06-.14-.09-.22-.26-.21-.43 0-2.75-2.47-4.9-5.26-4.24-.14.03-.28 0-.4-.08-.12-.09-.19-.22-.21-.36-.25-2.45-2.3-4.3-4.75-4.3-2.64 0-4.78 2.15-4.78 4.8 0 .19-.1.39-.26.47-.16.09-.35.12-.51.02-.68-.44-1.47-.67-2.28-.67-2.34 0-4.26 1.91-4.28 4.26 0 .16-.07.3-.2.4-.12.09-.28.12-.43.08-1.72-.46-3.32.88-3.32 2.56 0 1.69 1.55 3.04 3.32 2.56.15-.04.31 0 .43.09s.2.24.2.39c.02 1.74 1.44 3.14 3.16 3.14 1.15 0 2.21-.47 2.77-1.47.08-.16.24-.11.41-.11h.02z" fill="#FFF"/></svg>