<?xml version="1.0" encoding="utf-8"?>
<svg xmlns="http://www.w3.org/2000/svg"
	xmlns:xlink="http://www.w3.org/1999/xlink"
	width="110px" height="110px" viewBox="0 0 110 110">
<path fillRule="evenodd" d="M 55 110C 24.67 110-0 85.33-0 55-0 24.67 24.67-0 55-0 85.33-0 110 24.67 110 55 110 85.33 85.33 110 55 110ZM 55 2.16C 25.86 2.16 2.16 25.86 2.16 55 2.16 84.14 25.86 107.84 55 107.84 84.14 107.84 107.84 84.14 107.84 55 107.84 25.86 84.14 2.16 55 2.16ZM 82.55 84.02C 82.55 84.02 70.59 84.02 70.59 84.02 70.15 84.02 69.73 83.96 69.32 83.86 69.25 85.43 68.86 88.06 67.15 89.89 65.98 91.14 64.39 91.8 62.56 91.8 62.56 91.8 59.06 91.8 59.06 91.8 59.06 91.8 55.26 91.8 55.26 91.8 55.26 91.8 54.74 91.8 54.74 91.8 54.74 91.8 50.94 91.8 50.94 91.8 50.94 91.8 47.44 91.8 47.44 91.8 45.61 91.8 44.02 91.14 42.85 89.89 41.15 88.06 40.75 85.43 40.68 83.86 40.27 83.96 39.85 84.02 39.41 84.02 39.41 84.02 27.46 84.02 27.46 84.02 25.88 84.02 24.51 83.44 23.5 82.36 21.56 80.28 21.62 77 21.65 76.33 21.65 76.33 21.65 50.95 21.65 50.95 21.65 43.62 23.96 39.59 25.25 37.91 24.78 33.83 26.08 31.53 27.07 30.41 27.07 30.41 27.07 29.28 27.07 29.28 27.07 29.28 25.88 29.28 25.88 29.28 25.88 29.28 25.88 22.81 25.88 22.81 25.88 22.81 40.98 22.81 40.98 22.81 40.98 22.81 40.98 29.28 40.98 29.28 40.98 29.28 39.82 29.28 39.82 29.28 39.82 29.28 39.82 30.44 39.82 30.44 40.81 31.58 42.08 33.87 41.61 37.91 41.88 38.26 42.19 38.73 42.52 39.3 43.45 36.82 44.53 35.17 45.25 34.24 44.57 28.9 46.33 26.06 47.53 24.78 47.53 24.78 47.53 23.19 47.53 23.19 47.53 23.19 47.53 22.81 47.53 22.81 47.53 22.81 45.29 22.81 45.29 22.81 45.29 22.81 45.29 14.18 45.29 14.18 45.29 14.18 64.71 14.18 64.71 14.18 64.71 14.18 64.71 22.81 64.71 22.81 64.71 22.81 62.51 22.81 62.51 22.81 62.51 22.81 62.51 23.19 62.51 23.19 62.51 23.19 62.51 24.82 62.51 24.82 63.71 26.12 65.43 28.96 64.75 34.24 65.47 35.17 66.55 36.82 67.48 39.3 67.81 38.73 68.12 38.26 68.39 37.91 67.92 33.83 69.22 31.53 70.21 30.41 70.21 30.41 70.21 29.28 70.21 29.28 70.21 29.28 69.02 29.28 69.02 29.28 69.02 29.28 69.02 22.81 69.02 22.81 69.02 22.81 84.12 22.81 84.12 22.81 84.12 22.81 84.12 29.28 84.12 29.28 84.12 29.28 82.96 29.28 82.96 29.28 82.96 29.28 82.96 30.44 82.96 30.44 83.95 31.58 85.22 33.87 84.75 37.91 86.05 39.59 88.35 43.62 88.35 50.95 88.35 50.95 88.35 76.33 88.35 76.33 88.39 77 88.45 80.28 86.51 82.36 85.5 83.44 84.13 84.02 82.55 84.02ZM 38.82 24.96C 38.82 24.96 28.04 24.96 28.04 24.96 28.04 24.96 28.04 27.12 28.04 27.12 28.04 27.12 38.82 27.12 38.82 27.12 38.82 27.12 38.82 24.96 38.82 24.96ZM 39.33 38.58C 40.32 33.04 37.66 31.36 37.66 31.36 37.66 31.36 37.66 29.32 37.66 29.32 37.66 29.32 29.23 29.32 29.23 29.32 29.23 29.32 29.23 31.36 29.23 31.36 29.23 31.36 29.2 31.36 29.2 31.36 29.2 31.36 26.54 33.04 27.53 38.58 27.53 38.58 23.81 41.99 23.81 50.95 23.81 59.91 23.81 76.39 23.81 76.39 23.81 76.39 23.43 81.86 27.46 81.86 27.46 81.86 30.22 81.86 30.22 81.86 32.29 81.86 33.22 81.86 33.22 81.86 33.22 81.86 39.41 81.86 39.41 81.86 39.9 81.86 40.31 81.76 40.67 81.62 40.67 81.62 40.67 50.56 40.67 50.56 40.67 47.32 41.05 44.61 41.59 42.36 40.55 39.72 39.33 38.58 39.33 38.58ZM 62.55 20.65C 62.55 20.65 62.55 16.34 62.55 16.34 62.55 16.34 47.45 16.34 47.45 16.34 47.45 16.34 47.45 20.65 47.45 20.65 47.45 20.65 62.55 20.65 62.55 20.65ZM 67.17 82.73C 67.17 82.73 67.17 61.89 67.17 50.56 67.17 39.23 62.46 34.91 62.46 34.91 63.71 27.89 60.35 25.78 60.35 25.78 60.35 25.78 60.35 23.19 60.35 23.19 60.35 23.19 49.69 23.19 49.69 23.19 49.69 23.19 49.69 25.78 49.69 25.78 49.69 25.78 49.65 25.78 49.65 25.78 49.65 25.78 46.29 27.89 47.54 34.91 47.54 34.91 42.83 39.23 42.83 50.56 42.83 61.89 42.83 82.73 42.83 82.73 42.83 82.73 42.35 89.65 47.44 89.65 48.82 89.65 49.97 89.65 50.94 89.65 53.56 89.65 54.74 89.65 54.74 89.65 54.74 89.65 55.26 89.65 55.26 89.65 55.26 89.65 59.06 89.65 59.06 89.65 60.03 89.65 61.19 89.65 62.56 89.65 67.65 89.65 67.17 82.73 67.17 82.73ZM 81.96 24.96C 81.96 24.96 71.18 24.96 71.18 24.96 71.18 24.96 71.18 27.12 71.18 27.12 71.18 27.12 81.96 27.12 81.96 27.12 81.96 27.12 81.96 24.96 81.96 24.96ZM 86.19 76.39C 86.19 76.39 86.19 59.91 86.19 50.95 86.19 41.99 82.47 38.58 82.47 38.58 83.46 33.04 80.8 31.36 80.8 31.36 80.8 31.36 80.8 29.32 80.8 29.32 80.8 29.32 72.37 29.32 72.37 29.32 72.37 29.32 72.37 31.36 72.37 31.36 72.37 31.36 72.34 31.36 72.34 31.36 72.34 31.36 69.68 33.04 70.67 38.58 70.67 38.58 69.46 39.73 68.41 42.37 68.96 44.63 69.33 47.33 69.33 50.56 69.33 50.56 69.33 55.95 69.33 55.95 70.33 53.15 72.98 51.12 76.12 51.12 80.11 51.12 83.36 54.37 83.36 58.36 83.36 62.35 80.11 65.6 76.12 65.6 72.98 65.6 70.33 63.57 69.33 60.77 69.33 60.77 69.33 81.62 69.33 81.62 69.69 81.76 70.1 81.86 70.59 81.86 70.59 81.86 73.36 81.86 73.36 81.86 75.43 81.86 76.36 81.86 76.36 81.86 76.36 81.86 82.55 81.86 82.55 81.86 86.57 81.86 86.19 76.39 86.19 76.39ZM 71.04 58.36C 71.04 61.16 73.32 63.44 76.12 63.44 78.92 63.44 81.2 61.16 81.2 58.36 81.2 55.56 78.92 53.28 76.12 53.28 73.32 53.28 71.04 55.56 71.04 58.36ZM 54.43 68.79C 49.54 68.79 45.56 64.81 45.56 59.92 45.56 55.04 49.54 51.06 54.43 51.06 59.32 51.06 63.3 55.04 63.3 59.92 63.3 64.81 59.32 68.79 54.43 68.79ZM 54.43 53.22C 50.73 53.22 47.72 56.23 47.72 59.92 47.72 63.62 50.73 66.64 54.43 66.64 58.13 66.64 61.14 63.62 61.14 59.92 61.14 56.23 58.13 53.22 54.43 53.22ZM 32.98 65.6C 28.99 65.6 25.75 62.35 25.75 58.36 25.75 54.37 28.99 51.12 32.98 51.12 36.97 51.12 40.22 54.37 40.22 58.36 40.22 62.35 36.97 65.6 32.98 65.6ZM 32.98 53.28C 30.18 53.28 27.9 55.56 27.9 58.36 27.9 61.16 30.18 63.44 32.98 63.44 35.78 63.44 38.06 61.16 38.06 58.36 38.06 55.56 35.78 53.28 32.98 53.28Z" fill="rgb(97,187,69)"/></svg>