<svg xmlns="http://www.w3.org/2000/svg" viewBox="0 0 131 142"><style>.st0{fill-rule:evenodd;clip-rule:evenodd;fill:#F8B319;} .st1{fill:#FFFFFF;} .st2{fill-rule:evenodd;clip-rule:evenodd;fill:#62BC47;}</style><g id="cheese"><path class="st0" d="M83.3 27.8c-.8 4.6-4.9 8.1-9.8 8.1-5.4 0-9.8-4.3-9.9-9.6-27.5 2.9-49 26.1-49.2 54.6 0 5.5.8 10.9 2.4 15.9h.6c5.4 0 9.8 4.4 9.8 9.8 0 2.4-.9 4.6-2.3 6.3 9.1 12.6 23.5 21.1 39.8 22.5 4.2.5 13.2-.1 18.2-1.5 13.2-3.4 24.5-11.6 31.9-22.6-.7-1.3-1-2.7-1-4.2 0-4.5 3.2-8.3 7.5-9.1 1.8-5.4 2.7-11.1 2.7-17.1.1-25.5-17.2-46.9-40.7-53.1zM25.5 65.9c-2.9 0-5.3-2.3-5.3-5.2 0-2.9 2.4-5.3 5.3-5.3s5.2 2.3 5.2 5.3c.1 2.9-2.3 5.2-5.2 5.2zm86.7 18.5c-3.5 0-6.4-2.8-6.4-6.4 0-3.5 2.9-6.4 6.4-6.4 3.5 0 6.4 2.8 6.4 6.4 0 3.6-2.8 6.4-6.4 6.4z"/><path class="st1" d="M94.2 83.1c.9-2.6 1.4-6-.7-8.1-1.3-1.3-3.3-1.4-4.7-1.2.2-1.1.3-2.2.4-3.3.1-.9-1.9-.7-2.3-.6-1 .2-2 .8-2.1 1.7-.1 4.2-.9 8.4-1.8 12.4-.9.4-1.8.9-2.8 1.3-.5.2-1 .5-1.7.3-1.1-.3-1-2.1-1.1-3.1-.2-3.7.2-7.7 2.3-10.8.5-.7-.2-1.3-1.4-1.2-1.3.1-2.6.9-3 1.7-1.9 4.1-2.1 8.6-1.6 13.3.2 1.6.5 2.6 2.4 2.9 2.1.4 4.5-.9 6.2-1.8-.1.3-.1.6-.2.9-.9 3.8-1.9 7.6-3 11.4-.3.9.5.9 1 .8.6-.2 1.4-.8 1.7-1.7.9-2.6 1.8-5.2 2.6-7.8 1 .4 2.3.4 3.6-.1 3.2-1.2 5.2-4 6.2-7zM89 76c.1 0 .1 0 0 0zm-1.6 12.1zm.1-.2l-.2.2c-1.2-.4-1.5-1.7-1.2-2.7v-.3c.7-2.2 1.3-4.5 1.8-6.7 0 0 0-.1.1-.1.2-.7.4-1.4.9-2 .5.1.8.6 1 1.2.8 1.8.4 3.9 0 5.5s-1.1 3.6-2.4 4.9z"/><path class="st1" d="M69.1 74.1h-.5c-1 .1-1.9.4-2.6.9-.1-1.5-.3-3-.6-4.5-.1-.7-1.6-.2-2 0-1.1.6-2.1 1.5-2.2 2.5-.2 1.8-.6 3.7-.9 5.5-.3 1.5-.6 3-1 4.5-.2.6-.4 1.3-.6 1.9-.1.3-.2.5-.3.6-.8.9-1.9 1-3.1.7-1.2-.3-2.2-1.1-3-2-2.2-2.4-3.4-5.5-4-8.6-.3-1.6-.4-3.2-.1-4.9.1-.6.2-1.3.4-1.9.1-.4.2-.6.3-.8.1-.1.1-.3.2-.4l.1-.1s0-.1.1-.1l.1-.1s.1-.1.3-.2c.2-.1 1.1-.4 1.6-.4 2.8-.4 3.9 1.7 4.6 3.4.5 1.2 4.5-1.9 4.1-3.1-1-2.7-3.5-4.5-6.4-4.1-2.4.3-4.4 1.5-5.9 3.2-3.1 3.6-3.8 8.4-2.8 12.9.9 4 3.1 7.8 6.6 10.1 1.3.9 2.9 1.3 4.3 1 3.2-.7 5.4-4.4 6.6-7.3.1-.2.1-.3.1-.4 0-.1.1-.1.1-.2.2 2.8 2.2 5.9 5.1 5.8 3.2-.1 5.2-4.2 5.6-7.1.3-2.9-.8-6.4-4.2-6.8zm.6 10c-.1.2-.1.4-.2.6h-.4c-1.8.1-2.7-2.5-2.9-3.9 0-.2 0-.3-.1-.5v-.7c0-.6.1-1.1.2-1.7 0-.2.2-.4.3-.6h.2c2.1-.1 2.8 2.5 3 3.9.2 1 .1 2-.1 2.9z"/></g><g id="bubbles"><path class="st0" d="M42.9 13.7c0 3.9-3.2 7-7.1 7-3.9 0-7.1-3.2-7.1-7 0-3.9 3.2-7.1 7.1-7.1 3.9.1 7.1 3.2 7.1 7.1z"/><path class="st2" d="M43.2 37.4c0 5-4 9-9 9s-9.1-4-9.1-9 4.1-9.1 9.1-9.1c4.9.1 9 4.1 9 9.1zM19 23.5c0 3-2.4 5.4-5.4 5.4-3 0-5.4-2.4-5.4-5.4 0-3 2.4-5.4 5.4-5.4 3 0 5.4 2.4 5.4 5.4z"/></g></svg>