<svg id="Layer_1" xmlns="http://www.w3.org/2000/svg" viewBox="0 0 121 113"><style>.st0{fill:#ED145B;} .st1{fill:#FFFFFF;}</style><path class="st0" d="M87.9 23.2h-1.5C82.1 13.4 72.3 6.4 60.8 6.4c-11.5 0-21.3 6.9-25.7 16.8h-.8c-13.8 0-27 13.7-27 27.4 0 10.9 9 25.4 18.7 28.8 3.1-.9 7.7-2 13.6-3-6.6-2.3-7.1-6.8-7.2-7-.1-.5.4-1 .9-1.1.5-.1 1 .3 1.1.9 0 .2.7 5.2 10.4 6.3.1 0 .2.1.3.1 2.2-.3 4.6-.5 7.1-.7-2.2-2.8-3.2-7.7-3.4-8.3-.1-.5.2-1.1.8-1.2.5-.1 1.1.2 1.2.8.4 1.8 1.8 6.9 3.9 8.5.1 0 .1.1.1.1 7.4-.4 15.2-.2 24.1 1 .5-.2.8-.2 1-.2 8.5-1.8 9.1-6.1 9.1-6.3.1-.5.5-.9 1.1-.9.5 0 .9.5.9 1.1 0 .2-.4 4.6-7.3 7.1 4.2.7 8.6 1.6 13 2.9 9.4-3.6 17.8-17.7 17.8-28.3.1-13.8-12.8-28-26.6-28z"/><path class="st1" d="M20.5 65.3c2.1 3.8 6.4.6 6.8-2.8.6-4.9-2.6-9.9-5-14-.2-.4-1 .1-1.2.4-2.4 2.3-5.1 6.1-3.4 8.7.5.8 2.3-1.8 1.8-2.6-.9-1.4 1-3.3 2.1-4.3-.4.1-.8.2-1.2.4 1 1.7 2.1 3.3 3 5.1.5 1 .9 2.1 1.2 3.1.2.7.5 1.4.7 2-.7 3.3-1.7 4-3.1 1.9-.5-1.1-2.2 1.4-1.7 2.1z"/><path class="st1" d="M33.3 60.3c-.7 2.2-2-1.7-2.2-2.2-.3-.7-.7-1.6-1.3-2.1-1.4-1.2-2.9-.5-4.3.6.3 0 .6.1.9.1-.8-2.1-2.1-7.5 2.4-5.5.9.4 2.5-2.1 1.5-2.5-2.7-1.2-4.4-.3-6 2.1-1.6 2.5-.7 5.6.2 7.9.2.4.6.4.9.1 3.6-2.9 3.9 3.2 5.9 4.7 1.6 1.3 3.1-2.4 3.4-3.2.7-1.8-1-1.3-1.4 0zM42.3 59.2c.7 2.4 3.5 1.5 4.6-.3.9-1.4.7-2.7.7-4.2 0-2.2 0-4.3.8-6.5-.8.4-1.7.9-2.5 1.3.4 2.9.7 7.9 3.2 10.1 1.9 1.6 4.5-2.1 4.9-3.2.7-1.7-1.6-.6-1.9.3-.8 2.1-2-1-2.3-1.6-.8-2.3-1.2-4.8-1.5-7.2-.2-1.4-2.3.8-2.5 1.3-.5 1.5-.6 2.9-.7 4.4 0 .9 0 1.7.1 2.6 0 .5 0 .9.1 1.4.1 1.2-.9.4-1-.1-.3-1.1-2.2.9-2 1.7zM61 47.9c.2 3.4.5 6.9.4 10.3-.1 1.3 2-.4 2.2-1.2.3-2 .7-3.1 2.1-4.4 1.6-1.5 2.4-3.4 3.1-5.4.5-1.5-2-.2-2.3.6-1.1 2.6-1.1 5.7-.9 8.5 0 .7.1 1.9.7 2.4 1 .8 2.7-.5 3.4-1 1.3-1 .4-2.1-.9-1.1-1 .8-.9-3.3-.9-3.8.1-1.9.2-3.9 1-5.6-.8.2-1.6.4-2.3.6-.6 2.1-1.4 3.4-2.9 5-1.5 1.5-1.9 3.5-2.1 5.5.7-.4 1.4-.8 2.2-1.2.2-3.4 0-6.9-.1-10.3-.3-1.4-2.7.2-2.7 1.1zM77.8 57.9c-.2 2.5 2.2 3.5 4.3 2.2 2-1.2 2.9-3.5 3.3-5.6.3-1.7.7-4.3-1.1-5.6-.8-.6-2.3-.2-3.1.2-1.7.7-2.5 2.2-2.8 3.7-.2 1.2 2.5.1 2.7-.8.3-1.6 1.1-1.7 1.5-.2.3.9.2 1.9.2 2.8-.1 1.1-.4 2.2-.8 3.2-.2.4-.4.8-.7 1 .2-.2.1-.2-.3-.2-.7-.2-.8-.9-.8-1.6.4-1.1-2.3.1-2.4.9z"/><path class="st1" d="M78.8 47.9c.1 6.4-1.2 12.9-2.9 19.1-.3 1.2 2.1 0 2.4-.8 1.8-6.3 3.3-12.9 3.4-19.5 0-.9-2.9.3-2.9 1.2zM101.5 55.5c-1.3 2.2-2.4 4.5-3.1 7-.3 1-.5 2.5.3 3.4 1.1 1.2 3.1.8 4.4.2 1.8-.7-.1-1.6-1.4-1.1-.8.3-.7-1.9-.7-2.1.1-1.1.6-2.2 1.1-3.3.6-1.5 1.4-2.9 2.3-4.2.6-1-2.5-.6-2.9.1z"/><path class="st1" d="M93.4 62.5c0 2 2.1 2.4 3.7 1.9 2.3-.7 3.9-2.8 5-4.7.6-1.1-2.3-.6-2.7.2-.2.4.1 0 .3.1-.2 0-.4-.1-.5-.2-.5-.3-.6-.9-.6-1.3 0-.9.5-1.7 1-2.4.9-1.2 1.4.5 1.1 1.2-.5 1.2 2.5.7 2.8-.1.7-1.8-.5-3.2-2.7-3.2-2.5 0-4.3 2.4-4.8 4.3-.9 4 4.5 4.4 6.1 1.6-.9 0-1.8.1-2.7.2-.5 1-1.1 1.9-1.8 2.7-.7.7-1.5 0-1.4-.8-.1-1.3-2.8-.4-2.8.5zM60.8 56.6c-1.2 1.2-1.8-3.4-1.8-3.7-.2-1.9-.2-3.9-.2-5.9 0-1.3-2.4.5-2.4 1.3v5c0 .9-.1 1.8-.2 2.7-.2 1-.1 1.3-1 .8-2.3-1.4-1.5-6.9-1.1-9 .3-1.6-2.1 0-2.3.9-.4 2-1.2 11.3 3 10.5 4.9-.9 3.8-9 3.9-12.3-.8.4-1.6.9-2.4 1.3 0 3-.1 6.3 1 9.1.9 2.5 3 1.4 4.3.1 1.4-1 .4-2-.8-.8z"/><path class="st1" d="M93.5 61.4c-1.5.7-.5-3.8-.5-4.1.5-1.9 1.2-3.7 1.8-5.6.4-1.2-2.4-.4-2.6.4-.6 1.6-1.1 3.2-1.7 4.8-.3.8-.7 1.7-1.1 2.4-.5.9-.5 1.2-1.1.4-1.6-2 .9-7 2-8.8.8-1.4-2-.7-2.4.1-1 1.8-4.8 10.3-.8 10.9 4.8.7 6.5-7.2 7.7-10.3-.9.1-1.8.3-2.6.4-1 2.8-2.2 5.9-2.2 8.9 0 2.6 2.3 2.4 4.1 1.6 1.6-.5.9-1.8-.6-1.1zM76.9 49.5c.2-3.3-4.5-2.1-6-.5-1.9 2.1-2.2 5.1-2 7.7.3 2.5 2.2 3.4 4.4 1.8 2.8-1.9 2.9-6.1 3.6-9-.9.3-1.9.5-2.7.8-.3 1.9-2.6 11.6 2.8 9.2 1.3-.6 1.6-2.3-.2-1.5-.5.2-.6-2.7-.6-2.9-.1-1.8.3-3.7.7-5.6.2-1.2-2.6 0-2.7.8-.3 1.7-.6 3.5-1 5.2-.1.5-.5 1.8-.8 1.7-.5-.1-.7-.7-.8-1-.4-1.2-.3-2.7 0-3.9.1-.7.4-1.4.7-2.1.2-.3.3-.7.6-.9.6-.6 1.4.7 1.4 1-.3 1.3 2.5.1 2.6-.8z"/><g><path class="st1" d="M32.4 52.1c.7 2 1.4 11.2 5 9.8 4.3-1.7 2.5-9.6 2.2-12.8-.1-1.2-2.3.8-2.2 1.7.3 2.2.6 4.4.7 6.7 0 .8.3 2.5-.8 2.1-1.3-.5-1.6-3.3-1.8-4.4-.4-1.6-.6-3.3-1.1-4.9-.4-1.2-2.3 1-2 1.8z"/><path class="st1" d="M37.4 50.8c1 4.3 2.2 8.6 3.2 12.9.2.9 1.4 5.1-.2 4.9-2.7-.2.3-7.5.7-8.3.9-1.6-1-1.2-1.5-.1-1.5 2.9-2.8 6.6-1.3 9.8.6 1.4 2.3 1.3 3.1.3 1.7-1.9 1.7-4.4 1.4-7-.6-4.8-2.2-9.5-3.2-14.2-.3-1.2-2.4.9-2.2 1.7z"/></g><path class="st1" d="M82.3 50.3c2 2 4.6 2.6 7.1 1.4.3-.1 1-.6.7-1-.3-.4-1-.1-1.3.1-1.5.7-3.4-.6-4.4-1.6-.6-.7-2.7.6-2.1 1.1z"/><g><path class="st0" d="M96.8 102.8V81.6c-33.1-9.2-61.2-2.8-70.7 0v21.8c9.2-2.8 37.4-9.5 70.7-.6z"/><path class="st0" d="M29.4 104.5c5.3 1.5 16.5 4.2 31.4 4.2 15.1 0 27-3 32.6-4.7-28.8-7-53.3-2.3-64 .5z"/></g></svg>