<svg xmlns="http://www.w3.org/2000/svg" preserveAspectRatio="xMidYMid" width="76.969" height="32.969" viewBox="0 0 76.969 32.969"><defs><style>.lsv_logo_svg { fill: #61bb46; fill-rule: evenodd; }</style></defs><path d="M76.276 25.482c-.535 1.942-1.354 3.855-2.69 5.3-1.08 1.175-3.254 2.526-5.095 1.774-3.756-1.53-2.855-6.78-2.103-9.823.784-3.16 3.252-8.944 7.608-7.373 3.983 1.437 3.143 7.015 2.28 10.122zm-4.31-7.432c-.22.282-.428.62-.61.938-.687 1.283-1.13 2.748-1.405 4.204-.26 1.418-.415 2.922-.188 4.426.094.61.33 1.943 1 2.362.222-.286.435-.628.613-.96.68-1.287 1.085-2.793 1.365-4.224.436-2.195.887-4.866-.775-6.746zm-9.788-1.968c1.28.012 2.51.6 3.038 2.06 1.112 3.03.025 6.506-1.96 8.968-1.507 1.867-4.343 3.348-6.635 2.06-1.395-.782-1.86-2.96-1.965-4.886-1.904 1.77-4.273 3.17-6.88 3.523-2.092.29-3.34-.863-4.004-2.466-2.538 1.525-6.195 2.942-8.8 1.37-1.946-1.17-2.448-3.932-2.558-6.112-.178-3.388.152-7.263 2.74-9.82.902-.892 2.995-2.14 4.524-1.446 1.63.742 2.238 2.155 2.658 3.582.396 1.335-3.29 3.664-3.747 2.236-.23-.755-.664-2.307-1.7-2.716-.064.143-.13.303-.19.453-.22.595-.38 1.204-.474 1.818-.304 1.977-.415 4.097.04 6.06.302 1.315.89 3.036 2.59 3.372 1.48.29 3.052-.19 4.34-.964-.267-1.82-.138-3.774-.004-4.933.23-2.145.884-4.36 2.283-6.04 1.423-1.713 4.12-3.024 6.213-1.85 2.43 1.362 1.57 4.635.274 6.565-1.44 2.14-2.997 4.02-4.803 5.89.222.675.567 1.41 1.065 1.734 2.23 1.466 5.087-1.894 6.44-3.502v-.063c.154-3.8.756-7.5 1.82-11.19.82-2.83 2.44-5.712 5.203-7.057 1.91-.935 5.698-.788 5.845 1.984.15 2.892-1.432 5.686-3.033 8.074-.736 1.09-1.502 2.225-2.32 3.296zm-12.903-.78c.105-.78-.072-2.124-1.118-2.397-.005.005-.01.016-.013.02-.3.47-.516 1.04-.682 1.556-.496 1.464-.694 3.05-.708 4.588-.002.248-.005.52.005.805 1.212-1.392 2.294-2.955 2.515-4.572zm9.258 7.724c.09.868.147 3.19 1.24 3.725.15.076.29.09.39.09.15-.205.347-.542.43-.71.74-1.532 1.45-3.74 1.038-5.538-.214-.946-.89-2.177-1.85-1.55-.45.52-.91 1.032-1.375 1.53.005.825.048 1.647.128 2.454zM62.7 4.93c-.03.018-.04.034-.065.06-.43.49-.783 1.036-1.085 1.598-.805 1.477-1.406 3.05-1.845 4.663-.418 1.576-.77 3.21-1.003 4.866 1.18-1.597 2.213-3.352 3.144-5.015.985-1.75 2.53-4.308.855-6.17zM25.07 28.012c-1.83.128-2.94-1.023-3.643-2.585-.744 1.795-1.822 3.388-3.338 3.68-2.064.388-3.473-1.253-4.288-2.83-1.114-2.15-1.856-4.478-2.352-6.845-.1 1.62-.33 3.245-.748 4.84-.872 3.287-2.457 7.534-6.058 8.577-2.273.65-4.27-1.275-4.642-3.383-.155-.898.574-2.118 1.28-2.803.513-.498 1.532-1.015 1.673-.092.124.882.607 1.72 1.387 2.15.486.282 1.575.74 2.18.15.948-.895 1.17-2.89 1.335-4.01.26-1.663.368-3.316.343-4.947-.108-6.066-1.093-12.63 2.154-18.163.555-.94 3.58-2.916 3.207-.838 0 .012-.06.46-.083.796-.034.462-.055.918-.068 1.39-.016 1.166 0 2.343.08 3.483.195 2.826.473 5.72.965 8.458.475 2.57 1.183 5.126 2.15 7.56.407 1.014 1.543 3.148 3.005 3.013.166-.01.365-1.25.443-1.87.177-1.477.237-2.69.257-4.237-.02-.417-.016-.892.007-1.39v-.003c.103-3.258 1.243-7.962 5.245-8.392 4.21-.45 5.024 5.493 5.055 8.393.028 2.014-.227 4.125-1.118 6.047-.72 1.54-2.416 3.706-4.43 3.853zm1.924-9.017c-.19-2.157-.594-4.633-2.632-5.924-.14.357-.248.762-.322 1.124-.315 1.494-.326 3.03-.182 4.51.147 1.426.413 2.89 1.053 4.183.262.523.856 1.648 1.627 1.754.14-.364.246-.78.32-1.166.295-1.472.26-3.043.137-4.482z" class="lsv_logo_svg"/></svg>