<svg xmlns="http://www.w3.org/2000/svg" xmlns:xlink="http://www.w3.org/1999/xlink" viewBox="0 0 128 135"><style>.st0{fill:#B82927;} .st1{fill:#FFFFFF;} .st2{fill:#FFFFFF;stroke:#010101;stroke-width:1.0201;stroke-miterlimit:10;} .st3{clip-path:url(#SVGID_2_);} .st4{fill-rule:evenodd;clip-rule:evenodd;fill:#B82927;} .st5{fill-rule:evenodd;clip-rule:evenodd;fill:#62BC47;}</style><g id="meat"><path class="st0" d="M122.9 78.8c0-18.1-9.1-33.3-22.6-43.4-4.7-3.5-24-9.2-37.3 7.9-11.1 14.2-49 8.6-49 35.5 0 30.1 24.4 54.4 54.4 54.4 30.1.1 54.5-24.3 54.5-54.4z"/><path class="st1" d="M54.6 77.4c-.5-.2-1-.1-1.4 0 .5-1.5.9-3.1 1.3-4.7.4-2 1.2-5.1 0-7.1-1.3-2.2-3.7.1-4.6 1.6-1.2 2-1.5 4.5-1.6 6.7-.2.3-.3.6-.4.9-.3 1.1-.5 2-1.6 2-.5 0-.9-.1-1.3-.4-.1 0-.2-.1-.3-.1-.5-.4-1.1-.6-1.8-.6h-.5c-3.4 1-3.6 5.9-3.2 8.6 0 .3.1.6.2.9-.3.4-.6.9-.7 1.2-.7 1.8-3.1 2.3-4.7 1.4-2.7-1.5-1.4-5.1-.2-7.3 1.5-2.8 3.9-8 1.2-11-1-1.1-2.8-1.4-4.3-1-2.1.5-3.6 2.2-4.8 3.9-.7.9-1.6 2.6-1 3.7.7 1 2.2-.4 2.6-1 .4-.5.7-.9.9-1.1.5-.4 1.5-.3 2.1-.2 1.3.3 1.8 1.4 1.7 2.6-.1 2.2-1.6 4.2-2.3 6.2-.8 2-1.1 4.1-.8 6.1.4 2.4 2.3 4.1 4.6 4.3 2.8.2 5.3-2.1 6.9-4.5.7 1.4 1.8 2.5 3.3 2.3 1.5-.2 2.5-2.1 2.9-3.4.5-1.6.5-3.3.3-4.9-.1-.8-.3-2-.6-3.1.7-.3 1.3-.9 1.9-1.5.2 2.4.6 4.7 1.2 6.9.4 1.6 1.2 4.8 3.3 4.4 2.1-.4 3.3-2.9 3.6-4.8.2-1.9.5-6.2-1.9-7zm-9.8 9.4c0 .3-.1.5-.1.8 0 .1-.1.2-.1.4-1.7.4-2.7-3.4-2.9-4.4-.3-1.2-.4-2.4-.3-3.7 0-.4.1-.8.2-1.2 1.8-.2 2.7 3.4 2.9 4.5.2 1.2.4 2.5.3 3.6zm5.9-12.2c0-2 .1-4.2.8-6.3 0-.1.1-.2.1-.3.5.1.7.8.8 1.3.4 1.9-.2 4.3-.6 6.1-.2 1-.5 2.1-.8 3.1-.3-1.4-.3-2.6-.3-3.9zm3.4 8.8c.1 1 0 1.9-.2 2.9 0 .1 0 .1-.1.2h-.3c-1.2-.2-1.8-3.4-2-4.3V82v-.1c.2-.5.4-1 .6-1.4.3-.5.6-.4 1.1 0 .8.6.8 2 .9 2.9zM110.5 91.3c-.3-.4-.9-.4-1.4-.2-1-.3-.6-2.5-.5-3.1.2-2.2.7-4.3 1.3-6.5v-.1c.3-1.6-1-2.8-2.8-2.9-1.8-.1-3.2.7-4.3 1.8-1.9 1.9-2.7 4.9-2.8 7.6-.4.1-.8.2-1 .4-.8.5-.8-.3-.8-1-.1-1.1 0-2.1.2-3.2.2-1.6.5-3.4 1.2-5.1.3-.5.5-1 .7-1.5.3-.6 0-1.1-.8-1.1-.8.1-1.7.6-2 1.2-.4.6-.6 1.3-.9 1.9-.4.7-.8 1.3-1.3 1.9-.5.5-.9.6-1.5 1.1l-.1.1c.2-2.2.4-4.5.6-6.9.1-1.6-2.9-.1-3 .9-.2 2.8-.3 5.4-.6 8l-.2.2c-.5.7-1.3 1.2-2.2 1.4-.9.2-1.1-2.2-1.2-2.6-.3-2.9.3-6 .8-9.1.1-.8-.7-.8-1.3-.6-.7.3-1.5.9-1.6 1.7-.4 2.4-.6 4.7-1.1 7-.2 1-.5 2-.9 2.9 0 0 0 .1-.1.1-.2 0-.4-.2-.5-.2-1.4-.8-1.1-3.7-1-5v-.3c.1-.1.1-.3 0-.4.2-1.7.6-3.5 1.2-5.2.2-.6-.1-1.1-.8-.9-.7.2-1.6.8-1.8 1.5-.6 1.8-1.1 3.7-1.3 5.6-.9.8-1.7 1.7-2.5 2.6 0-1.4.1-2.9.1-4.4.1-1.7.1-3.5.2-5.3 0-1-1-.7-1.8 0-.4-.4-.8-.6-1.4-.7h-.5c-3.5.2-4.6 5-4.8 7.7-.1 1.1 0 2.8.3 4.2-.3.2-.6.5-.7.7h-.2c-.2 0-.3-.1-.4-.2-.4-.3-.5-.7-.7-1.2-.4-1.3-.5-2.7-.5-4.1v-.4-.1c0-1.1 0-2.2.1-3.3V76v-.1c.1-.7.1-1.5.2-2.2.1-.8-.8-.6-1.3-.4-.1 0-.2.1-.2.1-.7-.4-1.7-.3-2.7.3-2.6 1.5-3.3 5-2.9 7.5.3 1.5 1.5 2.7 3.1 2.4.3 0 .5-.1.7-.2-.1.7-.3 1.4-.6 2-.3.7-1.4-.3-1.6-.8-.4-1.1-2.7 1.1-2.3 2.1.9 2.4 3.5 1.4 4.8 0 .2-.2.4-.5.6-.8.2.5.5 1 .8 1.4 1.5 1.7 3.5.2 4.5-1 .5.8 1.2 1.3 2.2 1.4.4 0 .8-.1 1.2-.2-1.5 1.8-2.7 3.8-3.4 6.1-.4 1.5-.8 4.2.4 5.4 2 1.9 4.6-1.6 5.4-3.5 1.1-2.7 1.1-5.7 1.2-8.4v-1.3c.6-.6 1.2-1.2 1.7-1.8l.7-.7c0 1.8.3 4.3 2.3 4.7 1.5.3 2.7-.4 3.6-1.5.1.2.1.4.2.6 1 2.6 3.5 1.5 5.6.1-.1.5-.2.9-.3 1.4-.1.7.7.7 1.2.6.7-.2 1.5-.8 1.7-1.5.3-1.1.7-2.3 1.4-3.3.4-.5.6-.6 1.4-1h.1c-.2 1.1-.3 2.2-.3 3.2-.1 1.1-.1 2.2.3 3.3.6 1.5 3.7.2 4.5-.3 0 0 .1 0 .1-.1.2.6.4 1.2 1 1.7 1.2.9 3 .4 4.1-.2.1 0 .1-.1.2-.1 0 .5.1 1.1.5 1.5 1 1.1 2.5.7 3.6.3.4-.3 1.3-.9.9-1.4zM61.6 79.6c-.3-.9-.2-2.9.3-3.7-.1.1.3 0 .6.1.5.3.7.8.7 1.3-.1 1.2-.1 2.5-.1 3.7-.7 0-1.2-.6-1.5-1.4zm6.1 5.9c.1-.1.1-.1 0 0zm3-5.3c0-1.2.1-2.5.4-3.6.1-.4.2-.7.4-1.1 1.8.2 2 3.9 2 5.1 0 1.2-.1 2.4-.4 3.6-.1.2-.2.5-.2.7 0 0-.1.2-.2.3-1.8 0-2-3.9-2-5zm1.7 16.4zm0-.1s0 .1-.1.1h-.4s-.2-.1-.3-.1c0 0-.1-.1-.2-.1-.1-.1-.2-.3-.3-.4-.4-.7-.2-1.9-.1-2.7.4-1.7 1.3-3.3 2.3-4.6v.5c.1 2.3.2 5.1-.9 7.3zm10.3-10.7zm21.5 3.7c-.1 0-.3 0-.4-.1-.5-.3-.6-1.2-.7-1.7-.2-1.9.3-3.9 1.1-5.5.3-.5.8-1.3 1.1-1.6h.1c.1 0 .3.1.5.1.7.2 1 .8.8 1.3-.7 2.4-1 4.9-2.2 7-.1.1-.2.3-.3.5z"/><g><defs><path id="SVGID_1_" d="M56.2 123.2c-.3 0-.6 0-.9-.1h-.2c-.6-.1-.8-.5-1-.8 0-.1-.1-.1-.1-.2v-.1c-.8-.2-.7-.9-.7-1.2v-.1c0-1.4-.1-2.9-.4-4.7-.1-.3-.1-.7 0-1-.2-.1-.6-.2-.6-.8 0-2.2-.2-4.4-.4-6.5-.1-.6-.1-1.3-.2-1.9-.1-1.8.6-3 2.2-3.8h.2c.7-.2 1.4-.3 2.1-.3.3 0 .6 0 .9-.1h1c.5 0 1.1.1 1.6.2.8.2 1.7.2 2.4.2H66.5c.9-.1 1.8-.1 2.7-.2h.2c.4 0 1.4-.1 1.8-.2.5-.1.9-.1 1.1-.1.8 0 1.9-.1 2.9-.1s1.4.1 1.7.2H79.5c.9 0 1.7 0 2.4-.1.1 0 .3 0 .5-.1.2 0 .3 0 .5-.1.5-.1 1-.3 1.5-.4l.3-.1c.9-.3 1.6-.3 2.3.1.4.2.7.2 1.2-.1.2-.1.4-.2.6-.2.2 0 .4.1.6.3.1.2.1.4.1.6-.1.3-.3.5-.5.6-.6.4-1.2.6-1.8.5.4.7.7 1.4.9 2.2.2.6.5 1.2.9 1.8l.3.6c.4.7.3 1.4-.2 2.1-.1.2-.4.5-.9.5-.1 0-.3 0-.4-.1-.3.3-.7.4-1.1.3-.1 0-.3-.1-.4-.3-.4-.5-.9-.6-1.6-.6-.3 0-.4-.1-.5-.1h-.1c-.2-.1-.3-.2-.5-.3-.1.1-.3.2-.5.4l-.3.2c-.4.3-.8.7-1.1 1.1 0 .1-.1.2-.3.4-.5.5-.9 1.1-1.3 1.9-.8 1.4-2 1.9-3 2.2-.3.1-.5.1-.8.2l-.3.1v.1c0 .3 0 .5-.1.8-.1.4-.2.7-.2 1.1l-.3 1.2c-.2.8.1 1.5.7 2.2.2.2.6.6.4 1.1-.2.3-.5.5-.9.5v.2c0 .2-.2.6-.8.7-.6.1-1.2 0-1.8-.1-.4-.1-.6-.3-.7-.7 0-.1-.1-.2-.2-.3-.5-.3-.5-.8-.5-1.1 0-.3 0-.6.1-.8 0-.5.1-.9.1-1.3v-.3c0-.2 0-.4-.1-.5V117.7c-.1-.5-.1-1.1-.1-1.7v-.9s0-.1-.1-.1h-.7c-2.1 0-4.2 0-6.3-.4-.6-.1-.6-.1-.8-.2h-.1c-1.2-.3-2.3-.7-3.3-1.2-1 1.8-1.1 3.5-.2 5.2.4.7.8 1.3 1.3 2l.4.5.1.1c.2.2.6.7.3 1.2-.2.5-.8.5-1 .5h-.1l-.2-.5v.5h-.3c-.8 0-1-.4-1.3-1.1-.1-.2-.1-.2-.2-.2-.3 0-.5-.1-.5-.2-.1-.1-.2-.3-.2-.6.1-.8-.3-1.4-.8-2.1-.1-.2-.3-.5-.4-.7-.1-.1-.2-.3-.3-.4-.2-.2-.4-.5-.6-.7-.1.3-.2.6-.3.7v.1c-.1.7-.1 1.4-.1 2 0 .3.1.5.2.7l.2.2 1.2 1.2c.2.2.5.5.3 1s-.7.5-.9.5c-.5.1-.6.1-.7.1zm-2.3-15.7l.3 1c.3 1 .6 2 .9 2.9.1.3.1.5.2.8 0 .5-.1.9-.3 1.3l-.2.4c-.1.1-.1.1-.1.2-.1.2-.3.4-.5.6-.4.3-.5.6-.3 1.3.3 1.9.4 3.4.4 4.8v.4c.4.1.6.4.7.6v.1c.1.2.2.3.2.3h.2c.2 0 .5.1.7.1L55 121s-.1-.1-.1-.2c-.2-.3-.3-.7-.3-1.1 0-.8 0-1.5.1-2.2v-.1c.1-.6.6-1.7.8-1.9.2-.2.3-.5.7-.5l.7-.2-.1.7c-.1.5.1.9.4 1.2.2.2.4.4.5.7.1.2.3.4.4.6.4.7.9 1.5.9 2.5.6.1.7.7.8.9.1.2.1.4.2.4h.8l-.1-.1c-.1-.1-.1-.1-.1-.2l-.4-.5c-.5-.7-1-1.4-1.4-2.1-1.1-2-1-4.1.2-6.2.1-.1.3-.6.8-.6.2 0 .4.1.6.2.9.5 1.9.9 3.1 1.1l.2.1c.1 0 .1 0 .6.1 2 .3 4.1.3 6.1.4h1.3l.1.1c.3.2.3.4.3.6h.1v1.4c0 .6 0 1.1.1 1.6v.2c.1.3.1.5.1.7v.2c0 .5 0 1-.1 1.5 0 .2 0 .5-.1.7v.3c.3.1.5.4.7.7.3.1.6.2.9.2-.2-.1-.4-.3-.5-.6l-.2-.4.6-.4h.2l.4.1c.2 0 .3.1.5.1-.8-.9-1-1.8-.8-2.9l.3-1.2c.1-.4.2-.7.2-1.1.1-.3.1-.5.1-.7v-.2c.1-.7.6-.8.8-.8l.4-.1c.2 0 .5-.1.7-.2 1.2-.4 2-.9 2.4-1.8.5-.9 1-1.6 1.5-2.1l.1-.1s0-.1.1-.1c.4-.5.9-1 1.4-1.3l.3-.2c.2-.2.6-.5 1-.6h.2c.3 0 .5.2.7.3l.1.1c.1 0 .1.1.2.1h.4c.9 0 1.6.3 2.1.9v-.7l.7.3c.2.1.3.1.4.2l.1-.1c.3-.4.3-.7.1-1l-.3-.6c-.4-.6-.7-1.3-1-2-.2-.9-.6-1.7-1.1-2.5-.2-.2-.4-.5-.3-1v-.1c-.2 0-.4.1-.6.1l-.3.1c-.5.2-1.1.4-1.7.5l-.5.1c-.2 0-.3.1-.5.1-.7.1-1.5.1-2.5.1h-3l-.1-.1c-.1 0-.4-.1-1.2-.1-.9 0-2.1.1-2.8.1h-.1c-.1 0-.3 0-.9.1h-.1c-.4 0-1.4.1-1.8.2h-.2c-.9.1-1.8.2-2.7.2h-4.5c-.8 0-1.7 0-2.6-.2-.7-.2-1.4-.2-2.1-.1h-.3c-.3 0-.6.1-.9.1-.6 0-1.2.1-1.8.3h-.2c-1.2.6-1.7 1.5-1.5 2.8 0 .5.1 7.3.2 7.8l.4-5.5.6-.6zm0 3.4c0 .9-.1 1.8-.2 2.8l.1-.1c.1-.1.1-.2.2-.2v-.1c.1-.3.2-.6.2-.9 0-.2 0-.3-.1-.6 0-.4-.1-.6-.2-.9z"/></defs><use xlink:href="#SVGID_1_" overflow="visible" fill="#FFF"/><clipPath id="SVGID_2_"><use xlink:href="#SVGID_1_" overflow="visible"/></clipPath></g></g><g id="bubbles"><path class="st4" d="M42.3 11.3c0 3.9-3.2 7-7 7-3.9 0-7.1-3.2-7.1-7 0-3.9 3.2-7.1 7.1-7.1 3.9 0 7 3.2 7 7.1z"/><path class="st5" d="M42.6 35c0 5-4 9-9 9s-9.1-4-9.1-9 4.1-9.1 9.1-9.1c5 .1 9 4.1 9 9.1zM18.4 21.1c0 3-2.4 5.4-5.4 5.4-3 0-5.4-2.4-5.4-5.4 0-3 2.4-5.4 5.4-5.4 3 0 5.4 2.4 5.4 5.4z"/></g></svg>