<?xml version="1.0" encoding="utf-8"?>
<svg xmlns="http://www.w3.org/2000/svg"
	xmlns:xlink="http://www.w3.org/1999/xlink"
	width="124px" height="117px" viewBox="0 0 124 117">
<path fillRule="evenodd" d="M 108.74 48.55C 109.84 52.86 110.46 57.36 110.46 62 110.46 92.33 85.69 117 55.23 117 24.78 117-0 92.33-0 62-0 31.68 24.78 7.01 55.23 7.01 63.04 7.01 70.47 8.66 77.21 11.58 81.75 4.62 89.61 0 98.55 0 112.58 0 124 11.37 124 25.34 124 35.7 117.71 44.62 108.74 48.55ZM 55.23 9.17C 25.97 9.17 2.17 32.87 2.17 62 2.17 91.14 25.97 114.84 55.23 114.84 84.49 114.84 108.3 91.14 108.3 62 108.3 57.63 107.72 53.39 106.71 49.32 104.15 50.19 101.41 50.68 98.55 50.68 96.51 50.68 94.54 50.42 92.64 49.96 92.64 49.96 95.56 60.63 95.56 60.63 95.56 60.63 89.96 62.15 89.96 62.15 89.96 62.15 91.65 68.33 91.65 68.33 91.65 68.33 86.61 69.7 86.61 69.7 86.61 69.7 88.13 75.27 88.13 75.27 88.13 75.27 25.41 92.26 25.41 92.26 25.41 92.26 16.33 59.02 16.33 59.02 16.33 59.02 21.37 57.65 21.37 57.65 21.37 57.65 19.85 52.08 19.85 52.08 19.85 52.08 25.44 50.56 25.44 50.56 25.44 50.56 23.75 44.38 23.75 44.38 23.75 44.38 73.72 30.84 73.72 30.84 73.33 29.07 73.1 27.23 73.1 25.34 73.1 21.04 74.19 17 76.09 13.45 69.68 10.71 62.64 9.17 55.23 9.17ZM 30.45 82.67C 30.45 82.67 88.99 66.82 88.99 66.82 88.99 66.82 87.87 62.71 87.87 62.71 87.87 62.71 32.83 77.62 32.83 77.62 32.83 77.62 26.01 52.64 26.01 52.64 26.01 52.64 22.51 53.59 22.51 53.59 22.51 53.59 30.45 82.67 30.45 82.67ZM 21.94 59.73C 21.94 59.73 18.99 60.53 18.99 60.53 18.99 60.53 26.93 89.61 26.93 89.61 26.93 89.61 85.48 73.76 85.48 73.76 85.48 73.76 84.52 70.26 84.52 70.26 84.52 70.26 28.93 85.32 28.93 85.32 28.93 85.32 21.94 59.73 21.94 59.73ZM 34.35 74.97C 34.35 74.97 92.9 59.12 92.9 59.12 92.9 59.12 90.2 49.25 90.2 49.25 82.64 46.63 76.68 40.56 74.27 32.93 74.27 32.93 26.41 45.89 26.41 45.89 26.41 45.89 34.35 74.97 34.35 74.97ZM 98.55 2.16C 85.71 2.16 75.27 12.56 75.27 25.34 75.27 38.13 85.71 48.53 98.55 48.53 111.39 48.53 121.83 38.13 121.83 25.34 121.83 12.56 111.39 2.16 98.55 2.16ZM 110.84 38.71C 110.84 38.71 98.72 26.64 98.72 26.64 98.72 26.64 86.6 38.71 86.6 38.71 86.6 38.71 85.07 37.18 85.07 37.18 85.07 37.18 97.19 25.12 97.19 25.12 97.19 25.12 85.08 13.06 85.08 13.06 85.08 13.06 86.61 11.53 86.61 11.53 86.61 11.53 98.72 23.59 98.72 23.59 98.72 23.59 110.84 11.53 110.84 11.53 110.84 11.53 112.37 13.05 112.37 13.05 112.37 13.05 100.25 25.12 100.25 25.12 100.25 25.12 112.37 37.19 112.37 37.19 112.37 37.19 110.84 38.71 110.84 38.71ZM 61.54 55.2C 61.54 55.2 56.63 56.53 56.63 56.53 56.63 56.53 57.12 58.35 57.12 58.35 57.12 58.35 62.92 56.78 62.92 56.78 62.92 56.78 63.49 58.86 63.49 58.86 63.49 58.86 57.69 60.43 57.69 60.43 57.69 60.43 58.73 64.26 58.73 64.26 58.73 64.26 56.64 64.82 56.64 64.82 56.64 64.82 55.6 61 55.6 61 55.6 61 53.71 61.51 53.71 61.51 53.71 61.51 53.14 59.43 53.14 59.43 53.14 59.43 55.03 58.92 55.03 58.92 55.03 58.92 54.54 57.1 54.54 57.1 54.54 57.1 52.65 57.61 52.65 57.61 52.65 57.61 52.08 55.53 52.08 55.53 52.08 55.53 53.97 55.02 53.97 55.02 53.97 55.02 50.79 43.4 50.79 43.4 50.79 43.4 52.82 42.85 52.82 42.85 52.82 42.85 52.8 42.79 52.8 42.79 52.8 42.79 57.2 41.59 57.2 41.59 57.49 41.5 60.66 40.5 62.97 41.39 65.55 42.4 66.85 46.26 66.95 48.69 67.07 51.58 64.79 54.32 61.54 55.2ZM 62.18 43.4C 60.84 42.88 58.58 43.41 57.82 43.66 57.82 43.66 53.43 44.85 53.43 44.85 53.43 44.85 56.06 54.45 56.06 54.45 56.06 54.45 60.97 53.12 60.97 53.12 63.54 52.43 64.85 50.36 64.78 48.77 64.7 46.68 63.56 43.94 62.18 43.4Z" fill="rgb(97,187,69)"/></svg>