<svg xmlns="http://www.w3.org/2000/svg" width="50" height="50" viewBox="0 0 50 50"><circle cx="25" cy="25" r="25" fill="#379C18"/><path d="M36.76 36.82c-.1.14-.26.33-.31.41.01.11.06.34.1.51.19.73.46 1.85-.23 2.96-.62 1-1.37 1.46-2.38 1.46-.51 0-1.05-.12-1.57-.25-.13.09-.34.33-.48.48-.46.51-1.03 1.14-1.91 1.14-1.04 0-1.71-.89-2.13-1.57-.46-.75-.78-1.03-.92-1.13-.04.06-.09.11-.16.18l-.72.67c-.03.03-.06.04-.09.06v8.24h-.94v-8.1c-.17-.05-.33-.14-.45-.28l-.57-.67c-.02-.02-.04-.04-.05-.06-.17.13-.46.42-.87 1.09-.42.68-1.09 1.57-2.12 1.57-.89 0-1.45-.63-1.9-1.14-.14-.15-.35-.39-.47-.48-.55.13-1.06.25-1.56.25-1.01 0-1.76-.46-2.38-1.46-.69-1.11-.41-2.23-.22-2.97.04-.16.09-.38.11-.49-.07-.11-.22-.29-.32-.42-.51-.64-1.21-1.52-.99-2.5.09-.38.36-.91 1.12-1.28.77-.37 1.32-.89 1.38-1.3.04-.24-.12-.51-.46-.82-.03-.02-.05-.05-.08-.07-.1-.12-.37-.43-.64-.84-.06-.06-.1-.13-.12-.2-.4-.66-.75-1.53-.55-2.34.16-.66.65-1.16 1.36-1.44.11-.04.18-.07.22-.1-.05-.15-.2-.42-.29-.6-.23-.4-.47-.82-.48-1.31-.02-.83.28-1.63.84-2.19.66-.66 1.61-.99 2.84-.99.15 0 .31 0 .47.01.02 0 .03.01.04.01-.08-.16-.17-.32-.23-.44-.28-.5-.53-.94-.54-1.41-.03-1.05.51-2.34 3.24-2.55.41-.03.52-.19.59-.33.13-.32.02-.73-.06-.82-.65-.71-1.69-3.21-1.35-5.45.22-1.48 1-2.65 2.21-3.36.8-.53 1.63-1.31 1.71-1.61.05-.51.49-.92 1.01-.92.53 0 .97.39 1.01.91.08.3.94 1.08 1.74 1.59 1.24.74 2.02 1.91 2.24 3.39.34 2.24-.69 4.74-1.34 5.45-.09.09-.2.5-.06.82.06.14.18.3.58.33 2.73.21 3.27 1.5 3.25 2.55-.02.47-.26.91-.55 1.41-.06.12-.15.28-.23.44.01 0 .03-.01.04-.01.17-.01.32-.01.47-.01 1.23 0 2.18.33 2.84.99.56.56.87 1.36.85 2.19-.01.49-.25.91-.48 1.31-.1.18-.25.45-.3.6.04.03.11.06.22.1.72.28 1.2.78 1.36 1.44.36 1.44-1.03 3.07-1.31 3.38-.02.02-.05.05-.08.07-.34.31-.49.58-.46.82.06.41.61.93 1.38 1.3.77.37 1.03.9 1.12 1.28.23.98-.47 1.86-.99 2.5zM25.02 5.84c-.63.77-1.72 1.48-1.72 1.48-3.24 1.93-1.29 6.64-.67 7.32.63.68.64 2.67-1.2 2.81-1.84.14-2.33.74-2.31 1.53.01.46.76 1.37.91 2.05.76.55 2.9 1.99 4.99 2.39V5.84zm0 18.59c-2.38-.4-4.75-1.99-5.59-2.6-.11.02-.24.03-.38.03-.08 0-.18-.01-.27-.01-.15-.01-.28-.02-.41-.02-2.31 0-2.69 1.41-2.67 2.17.02.79 1.83 2.24-.09 2.96-1.2.45-.78 1.59-.28 2.38.93.6 6.84 4.32 9.69 5.01v-9.92zm0 10.93c-2.16-.44-5.94-2.56-8.3-3.98.21 1.05-.75 1.99-1.92 2.55-1.59.77.48 2.32.71 3.01.24.7-.76 2.01.01 3.25.45.74.91.97 1.51.97.39 0 .85-.1 1.41-.24.07-.01.13-.02.18-.02.9 0 1.48 1.64 2.34 1.64.35 0 .76-.29 1.25-1.09.81-1.31 1.41-1.67 1.83-1.67.5 0 .73.51.73.51l.25.29v-5.22zm3.7 6.09c.49.8.9 1.09 1.26 1.09.86 0 1.45-1.64 2.35-1.64.06 0 .12.01.18.02.56.14 1.02.24 1.43.24.59 0 1.06-.23 1.51-.97.77-1.24-.22-2.55.02-3.25.18-.52 1.39-1.52 1.3-2.32-1.25.88-6.15 4.26-9.27 5.41.35.24.75.65 1.22 1.42zM27.68 7.32s-1.06-.68-1.72-1.43v11.66c.01 0 .02-.01.04-.01.75-.1 1.65-.75 2.09-1.12-.23-.64-.08-1.4.26-1.78.63-.68 2.58-5.39-.67-7.32zm4.93 14.51c-.12 0-.26.01-.4.02-.1 0-.19.01-.28.01-2.23 0-.09-2.11-.07-2.88.02-.79-.47-1.39-2.31-1.53-.34-.02-.6-.13-.82-.26-.45.38-1.53 1.2-2.6 1.33-.03.01-.05.01-.07.01-.03 0-.07-.01-.1-.02v5.32c.03.07.04.14.04.22-.01.04-.03.07-.04.11v5.32c.02 0 .03-.01.04-.01 2.02-.23 7.26-3.67 9.13-4.99.09-.18.15-.34.15-.48.02-.76-.36-2.17-2.67-2.17zm2.42 8.36s2.27-2.5.35-3.23c-.6-.22-.84-.52-.88-.84-2.12 1.42-6.36 4.1-8.38 4.34h-.06c-.03 0-.07-.01-.1-.02v4.33c.03.07.04.14.04.22-.01.04-.03.07-.04.11v4.33c.02 0 .03-.01.04-.01 2.43-.29 8.49-4.42 10.09-5.54-1.55-.78-2.7-2.23-1.06-3.69z" fill="#FFF"/></svg>