<svg xmlns="http://www.w3.org/2000/svg" width="50" height="50" viewBox="0 0 50 50"><circle cx="25" cy="25" r="25" fill="#FCCC37"/><path d="M40.9 24.44c.06 0 .1.18.1.41 0 .24-.04.42-.1.42h-5.25c-.15 2.46-1.18 4.68-2.78 6.36l3.82 3.82c.04.04-.07.2-.23.37-.16.16-.33.26-.36.22l-3.83-3.82c-1.7 1.52-3.91 2.48-6.35 2.58v5.1c0 .06-.19.1-.42.1-.23 0-.42-.04-.42-.1v-5.1c-2.43-.1-4.64-1.07-6.34-2.59l-3.84 3.83c-.03.04-.2-.06-.36-.22-.16-.17-.27-.33-.23-.37l3.83-3.83c-1.59-1.68-2.62-3.89-2.77-6.35H10.1c-.06 0-.1-.18-.1-.42 0-.23.04-.41.1-.41h5.24c.06-2.52 1.03-4.81 2.6-6.56l-3.63-3.62c-.04-.04.07-.2.23-.37.16-.16.33-.26.36-.22l3.62 3.61c1.73-1.63 4.02-2.68 6.56-2.79V9.1c0-.06.19-.1.42-.1.23 0 .42.04.42.1v5.39c2.54.1 4.84 1.15 6.57 2.78l3.61-3.6c.03-.04.2.06.36.22.16.17.27.33.23.37l-3.62 3.61c1.57 1.76 2.55 4.04 2.6 6.57h5.23zm-15.39-9.13c-5.15 0-9.34 4.19-9.34 9.34 0 5.14 4.19 9.33 9.34 9.33 5.15 0 9.34-4.19 9.34-9.33 0-5.15-4.19-9.34-9.34-9.34z" fill="#FFF"/></svg>