<svg id="Layer_1" xmlns="http://www.w3.org/2000/svg" viewBox="0 0 55.3 33.2" class="lsv-vacancies__category-img"><style>path{ fill: #515151; }</style><g class="office"><path d="M13.7 4.5c-4.1.4-5.2 5.8-5.5 9-.2 2.9-.2 10 4 10.3 4 .2 5.5-5.4 5.7-8.4.2-2.9.2-10.5-4-10.9-1-.1-2.7 2.2-1.8 2.3 2.5.2 3.1 3.7 3.3 5.7.2 1.7.7 8.2-1.6 8.9-4 1.3-4.7-14.2-1.4-14.5.9-.1 2.6-2.5 1.3-2.4zM48.8 11.8c-.6-2-1.9-3.6-3.9-2-1.9 1.5-2.4 4.3-2.4 6.6 0 1.9 0 4.7 1.8 5.8 1.8 1.2 3.8.1 5.2-1.2 1.3-1.2.2-2.3-1.1-1.1-2.3 2.2-3.5-2.3-3.6-3.7-.1-1.2 0-2.5.3-3.6.1-.5.2-.9.4-1.4v.4c.6.4.8 1.3 1 1.9.3 1.2 2.6-.7 2.3-1.7z"/><path d="M42.7 19c-.5.5-1.5 1.4-2.3 1-.6-.3-.8-1.8-.9-2.4-.4-2.6-.2-5.4-.1-8 .1-1.3-2.3.4-2.4 1.3-.1 2-.1 4-.3 6-.1.9-.2 1.9-.5 2.8-.3.8-.4 1-1 .2-1.9-2.3-1-7-.3-9.7.4-1.6-2-.2-2.3.8-.6 2.4-2.5 11.8 2.1 11.7 5.3-.1 4.5-9.9 4.7-13-.8.4-1.6.9-2.4 1.3-.1 2.2-.2 4.5 0 6.7.1 1.3.1 2.9.9 4 1.5 2.3 4.5-.2 5.8-1.5 1.3-1.4.3-2.4-1-1.2zM26 13.6c-.4-2.6-2.1-5-4.6-2.8-1.6 1.5-2.1 3.9-2.2 6.1-.1 1.9 0 4.7 1.6 6.1 2.2 1.8 4.6-1 5.2-3 .5-1.6-2-.2-2.3.8-.3 1.2-1.5-.8-1.7-1.2-.4-1.1-.5-2.3-.5-3.5 0-1.1.1-2.3.4-3.3.3-.8.2-.8.6-.1.6.9.9 1.7 1.1 2.8.2.9 2.5-.9 2.4-1.9z"/><path d="M23.7 20.8c.2 2.8 2.8 3.3 4.7 1.5 1.9-1.7 2.2-4.5 2.1-6.9-.1-1.6-.4-4.9-2.3-5.5-2.8-.9-4.6 3.2-4.6 5.3 0 1.4 2.4-.3 2.4-1.3 0-.7 0-1.8.7-1.5.3.1.5.7.7 1 .5 1 .6 2.2.7 3.3.1 1.1.1 2.4-.2 3.5-.1.3-.3 1-.4 1-.7.3-1.4-1.1-1.4-1.6-.1-1.5-2.4.3-2.4 1.2z"/><path d="M23.2 9.9c.9 6.9.8 14.1.1 21-.1 1.3 2.3-.3 2.4-1.3.7-7.1.8-14.4-.1-21.5-.2-1-2.6.7-2.4 1.8z"/></g></svg>