<svg id="Layer_1" xmlns="http://www.w3.org/2000/svg" viewBox="0 0 122.9 51"><style>path{ fill: #515151; }</style><path d="M8.9 17c1 5.3.4 11.1.4 16.5 0 1.4 2.3-.4 2.4-1.3.1-2.7.3-5.4.9-8 .3-1.4.7-5 1.9-6.1.7-.6.4-1 1.2-.2.4.4.6 1.4.7 1.9.4 1.7.3 3.6.3 5.4-.1 4.2-.4 11.4 5.5 7.5 1.2-.8 1.2-2.7-.5-1.6-3.9 2.5-2.7-7.2-2.7-9.1 0-2 .1-6.6-2.7-6.9-2.1-.2-3.6 2.3-4.3 3.9-2.1 4.5-2.7 9.7-2.8 14.5.8-.4 1.6-.9 2.4-1.3 0-5.6.6-11.5-.5-17-.1-1-2.4.8-2.2 1.8zM57.9 25.7c1.4-1.6 2.2 4.4 1.3 5.1-1.3 1-1.6-2.1-1.8-2.7-.5-2.9-.5-6-.1-8.8.1-.6.4-4.5 1.6-3.7.5.3-.3 3.3-.3 3.4-.7 2.8-1.9 5.5-3.4 8.1-1 1.7 1.5.8 2-.2 1.1-2 7.2-13.4 2.6-14.4-5.1-1.1-5.3 11.3-5.2 13.6.1 1.9-.1 6.5 2.1 7.4 1.7.8 3.5-1.1 4.2-2.4.9-1.8 1.7-5.9.1-7.5-1.7-1.6-3.7.4-4.8 1.7-1.2 1.4.8 1.4 1.7.4zM101.8 26.1c1.3-1.6 2.2 4.4 1.3 5.1-1.3 1-1.6-2.1-1.8-2.7-.5-2.9-.5-6-.1-8.8.1-.6.4-4.5 1.6-3.7.5.3-.3 3.3-.3 3.4-.7 2.8-1.9 5.5-3.4 8.1-1 1.7 1.5.8 2-.2 1.1-2 7.2-13.4 2.6-14.4-5.1-1.1-5.3 11.3-5.2 13.6.1 1.9-.1 6.5 2.1 7.4 1.7.8 3.5-1.1 4.2-2.4.9-1.8 1.7-5.9.1-7.5-1.7-1.6-3.7.4-4.8 1.7-1.3 1.5.7 1.5 1.7.4zM85.8 22.9c-.6-2-1.9-3.6-3.9-2-1.9 1.5-2.4 4.3-2.4 6.6 0 1.9 0 4.7 1.8 5.8 1.8 1.2 3.8.1 5.2-1.2 1.3-1.2.2-2.3-1.1-1.1-2.3 2.2-3.5-2.3-3.6-3.7-.1-1.2 0-2.5.3-3.6.1-.5.2-.9.4-1.4v.4c.6.4.8 1.3 1 1.9.3 1.1 2.6-.7 2.3-1.7z"/><path d="M21.8 30.7c.2 2.8 2.7 3.3 4.7 1.6 1.9-1.7 2.2-4.5 2.1-6.9-.1-1.6-.4-4.9-2.3-5.5-2.8-.9-4.5 3.2-4.6 5.3 0 1.4 2.4-.3 2.4-1.3 0-.7-.1-1.8.7-1.5.3.1.5.7.7 1 .5 1 .6 2.2.7 3.3.1 1.1.1 2.4-.2 3.5-.1.3-.3 1-.4 1-.7.2-1.4-1.1-1.4-1.6-.1-1.5-2.4.2-2.4 1.1z"/><path d="M21.2 19.8c.9 6.9.8 14.1.1 21-.1 1.3 2.3-.3 2.4-1.3.7-7.1.8-14.4-.1-21.5-.2-.9-2.5.8-2.4 1.8zM86.5 21.9c.3 3.7 0 7.5 0 11.2 0 1.4 2.3-.4 2.4-1.3.1-2.6.3-5.3 1-7.8.1-.4.3-.8.4-1.2.1-.2.1-.3.2-.4.3-.4.1-.4-.6.1 0 .1.5 1.2.5 1.4.7 3 .4 6.3.2 9.3.8-.4 1.6-.9 2.4-1.3 0-2.9.3-6.1 1.3-8.9.1-.2.2-.5.3-.7.2-.5.1-.3-.4.4 0 .2.3 1 .4 1.2.3 1.3.3 2.6.3 3.9 0 1.4-.5 4.2.6 5.3 1 1.1 2.7-.4 3.4-1.1 1.3-1.2.3-2.3-1.1-1.1-.6.5-.6-2-.6-2.4 0-1.4 0-2.7-.1-4-.1-1.2 0-4.5-1.9-4.5-1.7 0-2.7 2.5-3.2 3.7-1.1 2.9-1.4 6.3-1.4 9.4 0 1.4 2.3-.4 2.4-1.3.1-2.4.2-4.9 0-7.4-.1-1.1 0-3.9-1.4-4.4-1.5-.5-2.9 1.7-3.3 2.8-1.4 3.1-1.6 6.9-1.7 10.2.8-.4 1.6-.9 2.4-1.3 0-3.7.3-7.5 0-11.2-.2-1.2-2.6.5-2.5 1.4zM66.7 20.2c-3 .3-4.1 4.1-4.3 6.6-.2 2.1-.1 6.8 2.9 7 3 .2 4.2-3.9 4.4-6.2.2-2 .1-7.1-2.8-7.4-1-.1-2.7 2.2-1.8 2.3 1.6.1 2 2.4 2.1 3.7.1 1 .1 2.1 0 3.1-.1.5-.2 1.1-.3 1.6-.1.6-.3.5-.1.5-1.6.1-1.9-2.9-2-3.9-.1-1 0-2 .1-3 .1-.5.2-.9.3-1.4.1-.6.4-.5.1-.5 1.1-.1 2.7-2.5 1.4-2.4zM110.8 20.5c-3 .3-4.1 4.1-4.3 6.6-.2 2.1-.1 6.8 2.9 7 3 .2 4.2-3.9 4.4-6.2.2-2 .1-7.1-2.8-7.4-1-.1-2.7 2.2-1.8 2.3 1.6.1 2 2.4 2.1 3.7.1 1 .1 2.1 0 3.1-.1.5-.2 1.1-.3 1.6-.1.6-.3.5-.1.5-1.6.1-1.9-2.9-2-3.9-.1-1 0-2 .1-3 .1-.5.2-.9.3-1.4.1-.6.4-.5.1-.5 1-.1 2.7-2.6 1.4-2.4zM33.4 19.8c-3 .3-4.1 4.1-4.3 6.6-.2 2.1-.1 6.8 2.9 7 3 .2 4.2-3.9 4.4-6.2.2-2 .1-7.1-2.8-7.4-1-.1-2.7 2.2-1.8 2.3 1.6.1 2 2.4 2.1 3.7.1 1 .1 2.1 0 3.1-.1.5-.2 1.1-.3 1.6-.1.6-.3.5-.1.5-1.6.1-1.9-2.9-2-3.9-.1-1 0-2 .1-3 .1-.5.2-.9.3-1.4.1-.6.4-.5.1-.5 1.1-.1 2.7-2.5 1.4-2.4zM75 20.1c-3 .3-4.1 4.1-4.3 6.6-.2 2.1-.1 6.8 2.9 7 3 .2 4.2-3.9 4.4-6.2.2-2 .1-7.1-2.8-7.4-1-.1-2.7 2.2-1.8 2.3 1.6.1 2 2.4 2.1 3.7.1 1 .1 2.1 0 3.1-.1.5-.2 1.1-.3 1.6-.1.6-.3.5-.1.5-1.6.1-1.9-2.9-2-3.9-.1-1 0-2 .1-3 .1-.5.2-.9.3-1.4.1-.6.4-.5.1-.5 1-.1 2.7-2.5 1.4-2.4z"/><path d="M75.7 21.9c0 4.8.3 9.6.2 14.4 0 .8 0 6.2-1.5 5.2-2.8-1.8 1.9-7.4 2.9-8.7 1.3-1.6-.7-1.5-1.6-.5-1.8 2.1-6.1 7.4-4.1 10.6.8 1.3 2.2 1.2 3.4.5 2.4-1.3 3-4.5 3.2-7 .3-5.2-.2-10.6-.2-15.8 0-1.3-2.3.4-2.3 1.3z"/><g><path d="M48.9 30.8c4.2-.6 5.2-6.1 4.6-9.5-.2-1.3-.9-3-2.5-2.8-2.5.3-3.7 3.1-3.8 5.3 0 1.4 2.4-.3 2.4-1.3 0-.9 0-2.4 1-1.2.5.6.6 1.6.7 2.3.1 1.1.1 4.6-1 4.8-1 .2-2.7 2.6-1.4 2.4z"/><path d="M52.8 30.6c-3 1.9-6.9 6.3-6 10.3.8 3.3 4.5 1.3 5.8-.5 2-2.9 3.5-15-3-11.8-1 .5-1.9 2.9-.2 2 3.2-1.6 2.6 6.2 2.2 7.5-.3 1-.9 3.3-2.3 1.8-1.8-2 1.7-6.3 3.2-7.3 1.1-.5 2-3 .3-2z"/></g><path d="M48.4 29.4c-.5.5-1.5 1.4-2.3 1-.6-.3-.8-1.8-.9-2.4-.4-2.6-.2-5.4-.1-8 .1-1.3-2.3.4-2.4 1.3-.1 2-.1 4-.3 6-.1.9-.2 1.9-.5 2.8-.3.8-.4 1-1 .2-1.9-2.3-1-7-.3-9.7.4-1.6-2-.2-2.3.8-.6 2.4-2.5 11.8 2.1 11.7 5.3-.1 4.5-9.9 4.7-13-.8.4-1.6.9-2.4 1.3-.1 3-.9 8 .9 10.7 1.5 2.3 4.5-.2 5.8-1.5 1.4-1.4.3-2.4-1-1.2z"/></svg>