<svg xmlns="http://www.w3.org/2000/svg" preserveAspectRatio="xMidYMid" width="19.032" height="22" viewBox="0 0 19.032 22"><defs><style>.youtube-icon { fill: #c6c6c6; fill-rule: evenodd; }</style></defs><path d="M15.918 22H3.126c-1.712 0-3.11-1.274-3.11-2.83v-6.488c0-1.557 1.398-2.83 3.11-2.83h12.792c1.71 0 3.11 1.273 3.11 2.83v6.488c0 1.556-1.4 2.83-3.11 2.83zM5.565 12.028l-4.228-.006v.995l1.32.004v6.854H3.98V13.04h1.585v-1.012zm3.17 2.03H7.41v3.65c0 .528.034.79 0 .884-.11.283-.59.584-.78.03-.032-.095-.005-.388-.005-.89L6.62 14.06H5.307l.004 3.617c0 .554-.014.968.005 1.156.032.333.02.72.34.94.594.413 1.734-.062 2.02-.653l-.004.755h1.064V14.06zm4.225 1.14c-.002-1.156-.9-1.85-2.12-.913l.007-2.26-1.32.004-.008 7.794 1.085-.015.1-.487c1.387 1.228 2.26.387 2.257-1.085l-.002-3.04zm4.14 2.636l-.99.006c-.003.037-.004.08-.004.13v.533c0 .285-.245.517-.542.517h-.194c-.297 0-.543-.232-.543-.517V17.1h2.27v-.824c0-.602-.016-1.204-.066-1.55-.162-1.087-1.747-1.26-2.548-.703-.25.175-.443.407-.555.72-.112.314-.168.74-.168 1.286v1.81c0 3.01 3.792 2.585 3.34-.006zm-1.658-3.01h.08c.324 0 .59.256.59.567l-.013.702h-1.254l.006-.7c0-.312.265-.568.59-.568zm-4.04 4.09c-.318 0-.578-.205-.578-.457v-3.41c0-.25.26-.458.577-.458.32 0 .58.206.58.457v3.41c0 .252-.26.458-.58.458zm2.35-10.99c-.102.203-.225.355-.372.457-.147.104-.315.153-.506.153-.218 0-.4-.048-.54-.145-.146-.097-.25-.228-.32-.386-.067-.163-.11-.33-.125-.504-.017-.175-.027-.522-.027-1.04V2.38h1.21v4.704c0 .255.218.463.483.463.266 0 .484-.208.484-.463V2.38h1.16v6.044h-1.474l.025-.5zm-3.083.025c-.148.226-.337.394-.567.502-.233.11-.5.162-.8.162-.336 0-.62-.044-.852-.14-.233-.09-.414-.23-.542-.417-.13-.187-.222-.413-.277-.677-.055-.265-.08-.663-.08-1.19V4.587c0-.58.05-1.032.15-1.36.1-.325.28-.586.54-.784.26-.198.594-.297 1-.297.34 0 .632.065.876.19.246.128.435.292.566.496.134.205.224.415.273.63.05.218.074.546.074.99V5.98c0 .56-.025.974-.07 1.235-.044.263-.14.506-.29.734zM9.873 3.77c0-.342-.263-.62-.585-.62-.323 0-.587.278-.587.62v3.216c0 .343.264.622.586.622.32 0 .584-.28.584-.622V3.772zm-3.86 4.84h-1.39V3.98L2.873 0H4.38l.885 2.957.874-2.95h1.52l-1.643 3.97-.002 4.636z" class="youtube-icon"/></svg>