<?xml version="1.0" encoding="utf-8"?>
<!-- Generator: Adobe Illustrator 19.0.0, SVG Export Plug-In . SVG Version: 6.00 Build 0)  -->
<svg version="1.1" id="Layer_1" xmlns="http://www.w3.org/2000/svg" xmlns:xlink="http://www.w3.org/1999/xlink" x="0px" y="0px"
	 viewBox="0 0 392.6 280.5" style="enable-background:new 0 0 392.6 280.5;" xml:space="preserve">
<style type="text/css">
	.st0{fill-rule:evenodd;clip-rule:evenodd;fill:#FFFFFF;}
	.st1{fill:none;}
</style>
<g id="XMLID_2_">
	<g id="XMLID_61_">
		<path id="XMLID_35_" class="st0" d="M100.5,52.8l1-0.3c-8.1,0.6-16.2,1.6-16.2,1.6s0-7.6-1.3-10.7c-1.3-3.1-5.1-0.3-7.9,1.2
			c-2.8,1.5-4.4,0.7-5.3,3.5c-0.9,2.8-3.9,2.3-5.2,2.4c-1.3,0.1-2.9-2.7-4.1-3.1c-1.2-0.4-7.1-0.8-9.8,3.1c-2.7,3.9-2,5.1-3.2,6.6
			c-1.2,1.5-2.5,4-4.8,8.7c-2.3,4.7-1.9,7.2-2.7,8.8c-0.8,1.6-1.9,2.3-2.3,6.8c-0.4,4.5-11.2,25.1-11.6,25.8
			c-0.4,0.7-1.6,2.7-1.9,4.9c-0.3,2.3,0.4,4.5,4,7.1c3.6,2.5,5.5,1.7,5.5,1.7s1.5,0.9,4.1,1.3c2.7,0.4,3.7-0.3,7.5-2.7
			c3.7-2.4,6.2-2.5,10.8-2.7c4.7-0.1,4.9-2.4,8.2-3.2c3.2-0.8,2,0.3,6.6-0.1c4.5-0.4,5.2-3.7,6.6-3.6c1.3,0.1,1.2,0.1,4.3,2.5
			c1.9,1.5,4.4,2.2,7.9,4.3C110.2,82.8,100.6,53.1,100.5,52.8z"/>
	</g>
	<path id="XMLID_60_" class="st1" d="M326.8,200.4c-0.5-3.8-1.1-6.9-1.3-6.4c-0.1,0.2-1,2.8-2,6.5
		C324.5,200.4,325.7,200.4,326.8,200.4z"/>
	<g id="XMLID_57_">
		<path id="XMLID_33_" class="st0" d="M166.1,126.2c5.2-16.6,6-32.2,5.4-44.5c-1-18.5-5.6-32.7-7.6-38.1c-6.4-0.7-11.6-1-13.9-0.8
			c-6.8,0.8-13.4,2.7-20.5,6.6c-7.1,3.9-8.3,2.5-17.1,2.5c-2.7,0-6.2,0.2-9.9,0.5c0.9,2.8,9,32.2-10.3,65.4l-0.9-0.5
			c1.9,1.2,4,2.8,6.4,5.2c7.5,7.4,9.2,11,11,15.6c0.6,1.5,1.3,2.5,2.2,3.2l-0.3-0.9C110.9,140.3,131.6,132.9,166.1,126.2z"/>
	</g>
	<g id="XMLID_54_">
		<path id="XMLID_31_" class="st0" d="M119,147.6c5.2,5.5,7.4,9.1,14.6,12.3c6.2,2.8,11.1,3.3,12.9,4.1c9.1-11.8,15.1-23.9,19-35.6
			c-30.5,6-49.9,12.5-53.6,13.8C113.6,143.3,116,144.4,119,147.6z"/>
	</g>
	<g id="XMLID_51_">
		<path id="XMLID_34_" class="st0" d="M246.3,75.5c2,0.8,4.2,2,6.9,3.3c9.5,4.9,22.6,11.7,35.1,6c0.5-0.4,6.3-5.3,3.2-22.4
			c-2.4-13.5-6.3-18.6-8.1-20.3c-8.8,2.3-20.6,4.2-25.4,4.4c-6.4,0.3-18.5,1.6-31,1.6c-0.6,0-1.3,0-1.9,0c1.1,3.9,3.7,13.4,5.3,26.8
			C233,74.2,239,72.6,246.3,75.5z"/>
	</g>
	<g id="XMLID_48_">
		<path id="XMLID_32_" class="st0" d="M327,202.4c0.1,1.4,0.3,2.9,0.3,4.3c0.3,6-3.2,24.2-3.7,26.2c-0.5,2-3.2,8.2-4.9,11.1
			c-1.7,2.9-2.3,5.6-1.7,7.1c0.5,1.5,7.8,0.9,11.9,0.3c4.1-0.7,4.9-1.6,6.8-4.1c1.9-2.5,0.4-2.8-0.3-4.8c-0.7-2,1.6-3.2,1.9-4.1
			c0.3-0.9,1.9-1.3,2.9-2c1.1-0.7,0.4-2.8-1.2-6.2c-1.6-3.3-0.7-4.7-0.7-9.2c0-4.5-0.5-3.3-0.7-9.2c0-1.7,0.2-5.1,0.6-9.2l-0.4,1
			C335.4,202.7,331.4,202.4,327,202.4z"/>
	</g>
	<g id="XMLID_45_">
		<path id="XMLID_30_" class="st0" d="M307.4,208.7c-0.5,6.8-4.4,25.7-4.7,26.5c-0.3,0.8-1.9,2-4.9,4.9c-3.1,2.9-6.6,6.3-7.4,7.5
			c-0.8,1.2,0.5,1.2,0.9,2.4c0.4,1.2,3.2,1.6,6.7,1.3c3.5-0.3,10.8-1.1,12.8-2c2-0.9,1.5-3.2,1.7-5.2c0.3-2,1.9-0.9,2.7-1.9
			c0.8-0.9-0.3-0.7,1.2-0.7c1.5,0,1.2-2.8,1.2-5.9c0-3.1-0.7-6,0.1-12.7c0.5-4,3-13.5,5-20.5c-6.1,0.1-12.2,0.6-15.3,0.9
			C307.6,205.2,307.5,207,307.4,208.7z"/>
	</g>
	<g id="XMLID_42_">
		<path id="XMLID_29_" class="st0" d="M344,134.6l-0.6,0.8c-15.1-11.3-43,0.7-49.3,3.6c1.7,1.8,4,4.4,4.9,5.8
			c1.5,2.1,0.8,9.6,3.6,16c2.8,6.4,4,26.6,4.3,28.9c0.2,1.5,0.5,6.5,0.6,11.6c3.2-0.3,9.5-0.8,15.8-0.9c1.1-3.6,1.9-6.2,2-6.5
			c0.3-0.4,0.9,2.6,1.3,6.4c4.6,0,8.8,0.3,11.5,1.1c0.7-7.1,1.7-15.7,2.3-20.5c-0.1-2.3,0.4-3.6,0.4-3.6s-0.2,1.4-0.4,3.6
			c0.1,1.1,0.2,2.4,0.7,3.9c1.5,4.7,2.5,5.8,4,9.8c1.5,4-0.9,13.1-0.9,13.1s1.1-1.9,3.2-6.2c2.1-4.3,0.8-6.4-0.3-16.8
			c-1.1-10.4,1.9-6.4,1.9-16.6c0-10.2,0.3-13.9-2.7-20.3C345.2,144.9,344.5,140.4,344,134.6z"/>
	</g>
	<g id="XMLID_39_">
		<path id="XMLID_28_" class="st0" d="M289.4,86.6l-0.1,0.1c-1,0.5-2,0.8-3,1.1c1.1,4.8,6.5,29.2,7.1,49.3c2.9-1.3,9.8-4.4,18-6.4
			c13.9-3.5,25.1-2.6,32.6,2.6c-0.5-6.6-0.6-14.9-0.9-24.6c-0.5-19,8.3-37.7,8-46.8c-0.3-9.1-10.7-23-16.8-25.3
			c-6.2-2.3-14.3-1.3-16.7-1.1c-2.4,0.3-4.1-0.3-8.7-0.9c-4.5-0.7-10.4,1.6-17.8,4.9c-1.4,0.6-3.3,1.3-5.4,1.9
			c2.3,2.6,5.7,8.4,7.9,20.6C297,81.4,289.7,86.4,289.4,86.6z"/>
	</g>
	<g id="XMLID_36_">
		<path id="XMLID_27_" class="st0" d="M167.6,127.9c-4,12.3-10.3,25.2-20,37.7c0.7,2.4,1.3,7.6,1.7,12.7c0.5,6.6,2.5,13.4,4.7,18.1
			c0.6,1.3,1,2.7,1.2,4c1-0.3,6.6-1.6,13.9,0c0.2-5.2,0.6-9.5,1.1-10.4c1.2-2.4-0.5-8-0.1-11.8c0.4-3.7,1.7-25.7,1.7-25.7
			s8.6-1.7,11.5-2.3c2.9-0.5,9.4,2.8,20.9,4.8c11.5,2,34.9,5.3,34.9,5.3s2.1,1.3,2.7,2.9c0.5,1.6,0.8,2.3,2,3.9
			c1.2,1.6,1.7,0.3,2.7,2.1c0.9,1.9,1.5-1.2,2.3-3.2c0.8-2,1.6-4.3,2.7-4.7c1.1-0.4,4.8-3.6,17-7.5c10.1-3.2,19.9-12.6,23.1-15.8
			c-0.1-6.6-0.8-13.7-1.7-20.5C241.1,116.5,198.8,121.9,167.6,127.9z"/>
	</g>
	<g id="XMLID_21_">
		<path id="XMLID_26_" class="st0" d="M252.3,80.6c-2.6-1.3-4.8-2.5-6.7-3.2c-7.2-2.8-13.1-1-14.9-0.3c1.3,11.2,1.9,24.9,0.7,40.2
			c18-1.4,37.4-2.1,58-1.6c-1.8-12.9-4.3-24.2-5-27.3c-2.1,0.5-4.1,0.7-6.2,0.7C268.6,89,259.5,84.3,252.3,80.6z"/>
	</g>
	<g id="XMLID_18_">
		<path id="XMLID_24_" class="st0" d="M223.1,48.2c-9.9,0.2-15,0.9-22.8,0c-5.6-0.7-21.5-3-34.2-4.3c2.2,6.1,6.4,20,7.4,37.8
			c0.7,12.2-0.1,27.6-5.1,44.1c17.3-3.3,37.9-6.4,61.1-8.3C232.3,81.4,224.9,54.3,223.1,48.2z"/>
	</g>
	<g id="XMLID_3_">
		<path id="XMLID_22_" class="st0" d="M155.6,202.3l-0.3-1c0.3,3.1-0.2,6.1-1,9.1c-1.3,4.5-0.8,11.7-1.5,13.2
			c-0.7,1.5-3.5,5.8-3.9,6.2c-0.4,0.4-1.1,1.1-2.5,1.7c-1.3,0.7-5.4,7.9-5.6,8.6c-0.2,0.7,0.8,0.8,2.3,0.9c1.5,0.1,4.3,0.6,6.2,0.3
			s4.1-3,4.1-3s0.7-0.2,0,0.9s-2,2.7-3.1,3.8c-1.1,1.1-2.1,2.3-2.4,2.7c-0.3,0.5-0.7,2.3,0.1,2.9c0.9,0.6,4.1,1.5,6.6,1.1
			c2.4-0.5,7-2,7-2s2.5-0.9,3.7-2.1c1.2-1.2,0.7-4.3,0.5-6.3c-0.1-2,2.3-4.5,3.2-4.7c0.9-0.1,1.5-0.7,2.3-3.7
			c0.8-3.1-1.3-5.9-2.3-10.2c-0.5-2.5-0.5-11.6-0.2-19.3l-0.2,1C161.4,200.7,155.7,202.3,155.6,202.3z"/>
	</g>
</g>
</svg>
