<?xml version="1.0" encoding="utf-8"?>
<!-- Generator: Adobe Illustrator 19.0.0, SVG Export Plug-In . SVG Version: 6.00 Build 0)  -->
<svg version="1.1" xmlns="http://www.w3.org/2000/svg" xmlns:xlink="http://www.w3.org/1999/xlink" x="0px" y="0px"
	 viewBox="0 0 230 291" style="enable-background:new 0 0 230 291;" xml:space="preserve">
<style type="text/css">
	.st0{fill:#F2F2F2;}
	.st1{fill:#FFFFFF;}
	.st2{fill:#54A4AF;}
	.st3{fill:#519E38;}
	.st4{fill:#EFEFEF;}
	.st5{fill:none;stroke:#FFFFFF;stroke-width:4;stroke-miterlimit:10;}
</style>
<g id="drop">
	<path id="XMLID_11_" class="st0" d="M115.1,91.7L115.1,91.7L115.1,91.7c-0.2-0.4-0.3-0.7-0.5-1.1l-9.4-19.1l-9.5,19.2
		c-0.2,0.3-0.4,0.7-0.5,1l0,0h0c-0.6,1.3-0.9,2.7-0.9,4.3c0,6,4.9,10.8,10.8,10.8c6,0,10.8-4.9,10.8-10.8
		C116,94.5,115.7,93,115.1,91.7z"/>
	<ellipse id="XMLID_10_" class="st1" cx="100.5" cy="93.4" rx="2.9" ry="3"/>
	<path id="XMLID_2_" class="st2" d="M759.3,636.7"/>
</g>
<g id="test-tube">
	<g id="XMLID_36_">
		<polygon id="XMLID_38_" class="st3" points="143.1,79.3 136.2,60.6 104.4,28.9 103.5,27.9 101.5,30.5 130.6,59.2 134.1,61.5 
			140.6,81.9 		"/>
		<path id="XMLID_37_" class="st3" d="M201,66.1L201,66.1c-0.7-0.5-1.3-0.8-1.3-0.8l-52.3-17.7l-29.8-29.9l-1.2-1l-1.3,1.3l0.2,1.9
			l30.7,30.3l25.1,8.2l19.4,9.7l0.7,7.7l-12.1,14.3l-5.8,5.3c0,0-19.4,19.8-18.2,20.9c0.4,0.3,0.8,0.5,1.3,0.5l0,0
			c0,0,1.7,1.9,5.4-1.9c3.8-3.8,33.7-33.7,33.7-33.7l2-3.3l1.9-1.9l-1.3,2.1l5-4.1C206.3,69.4,201,66.1,201,66.1z"/>
	</g>
	<path id="XMLID_35_" class="st3" d="M203.3,70.2c1.1,1.1,1.1,2.9,0,3.9l-42.8,42.8c-1.1,1.1-2.9,1.1-3.9,0l0,0
		c-1.1-1.1-1.1-2.9,0-3.9l42.8-42.8C200.5,69.1,202.2,69.1,203.3,70.2L203.3,70.2z"/>
	<path id="XMLID_34_" class="st3" d="M114.5,15.8l-12.9,12.9c-0.7,0.7-0.7,1.9,0,2.6c0.7,0.7,1.9,0.7,2.6,0l12.9-12.9
		c0.7-0.7,0.7-1.9,0-2.6C116.4,15.1,115.2,15.1,114.5,15.8z"/>
	<g id="XMLID_31_">
		<g id="XMLID_32_">
			<path id="XMLID_33_" class="st1" d="M172.9,59.6L142.6,90l8.2,23.5c1.3,3.7,4.6,4.6,7.4,1.8l40-40c2.8-2.8,1.9-6.1-1.8-7.4
				L172.9,59.6z"/>
		</g>
	</g>
	<g id="XMLID_28_">
		<g id="XMLID_29_">
			<polygon id="XMLID_30_" class="st4" points="143.6,89.2 172.1,60.6 164.5,57.9 140.8,81.7 			"/>
		</g>
	</g>
	<g id="XMLID_23_">
		<g id="XMLID_24_">
			<path id="XMLID_25_" class="st1" d="M112.6,19.2l31.9,31.9c0.3,0.3,0.6,0.4,1,0.5c0.4,0.1,0.8,0.2,1.1,0.3l26.3,9c0,0,0,0,0,0
				c0,0,0,0,0,0l24,8.2c1.2,0.4,2,1.1,2.2,1.9c0.2,0.8-0.2,1.7-1.1,2.6L156.6,115c-0.9,0.9-1.9,1.3-2.6,1.1c-0.8-0.2-1.5-1-1.9-2.2
				l-8.2-24c0,0,0,0,0,0c0,0,0,0,0,0l-9-26.3c-0.1-0.4-0.2-0.7-0.3-1.1c-0.1-0.4-0.2-0.7-0.5-1l-31.9-31.9L112.6,19.2L112.6,19.2z
				 M112.6,16.6L99.6,29.6l33.2,33.2c0.1,0.5,0.2,1,0.4,1.4l9,26.3c0,0,0,0,0,0l0,0l8.2,24c1.3,3.8,4.7,4.6,7.5,1.8l41.4-41.4
				c2.8-2.8,2.1-6.2-1.8-7.5l-24-8.2l0,0c0,0,0,0,0,0l-26.3-9c-0.4-0.2-0.9-0.3-1.4-0.4L112.6,16.6L112.6,16.6z"/>
		</g>
	</g>
	<path id="XMLID_22_" class="st4" d="M112,16.1L99.1,29c-0.7,0.7-0.7,1.9,0,2.6c0.7,0.7,1.9,0.7,2.6,0l12.9-13
		c0.7-0.7,0.7-1.9,0-2.6C113.9,15.4,112.7,15.4,112,16.1z"/>
	<path id="XMLID_21_" class="st1" d="M143.3,70.9c-0.2,0.2-0.4,0.3-0.6,0.4c-0.9,0.3-1.9-0.1-2.2-1l-2.7-6.9c-0.3-0.9,0.1-1.9,1-2.2
		c0.9-0.3,1.9,0.1,2.2,1l2.7,6.9C143.9,69.8,143.7,70.5,143.3,70.9z"/>
	<path id="XMLID_20_" class="st1" d="M136,57c-0.6,0.6-1.6,0.6-2.2,0l-24.6-24.6c-0.6-0.6-0.6-1.6,0-2.2c0.6-0.6,1.6-0.6,2.2,0
		L136,54.8C136.6,55.4,136.6,56.4,136,57z"/>
	<path id="XMLID_19_" class="st2" d="M159.1,15.7"/>
</g>
<g id="bath">
	<rect id="XMLID_9_" x="31.7" y="154.7" class="st3" width="5.3" height="105.1"/>
	<path id="XMLID_8_" class="st3" d="M214.8,154.7l-0.1,104.8c0,0,1.3,11.2-7.7,11.2H39.7c0,0-5-0.3-5-5.8c0-5.5,166.2-2.7,166.2-2.7
		l7-18.8l1.4-70.8l0.3-18.1H214.8z"/>
	<path id="XMLID_7_" class="st3" d="M218.7,152c0,2.2-1.8,4-4,4h-183c-2.2,0-4-1.8-4-4l0,0c0-2.2,1.8-4,4-4h183
		C216.9,148,218.7,149.8,218.7,152L218.7,152z"/>
	<path id="XMLID_6_" class="st5" d="M209.7,261.3c0,2-1.6,3.7-3.7,3.7H35.4c-2,0-3.7-1.6-3.7-3.7V154.7c0-2,1.6-3.7,3.7-3.7H206
		c2,0,3.7,1.6,3.7,3.7V261.3z"/>
	<rect id="XMLID_5_" x="31.7" y="200.8" class="st1" width="177.7" height="64.1"/>
	<path id="XMLID_4_" class="st4" d="M215.7,149c0,2.2-1.8,4-4,4h-183c-2.2,0-4-1.8-4-4l0,0c0-2.2,1.8-4,4-4h183
		C213.9,145,215.7,146.8,215.7,149L215.7,149z"/>
	<path id="XMLID_3_" class="st1" d="M48.5,186.9c0,1.7-1.4,3.1-3.1,3.1l0,0c-1.7,0-3.1-1.4-3.1-3.1v-22.8c0-1.7,1.4-3.1,3.1-3.1l0,0
		c1.7,0,3.1,1.4,3.1,3.1V186.9z"/>
</g>
</svg>
