<?xml version="1.0" encoding="utf-8"?>
<!-- Generator: Adobe Illustrator 19.0.0, SVG Export Plug-In . SVG Version: 6.00 Build 0)  -->
<svg version="1.1" id="Layer_1" xmlns="http://www.w3.org/2000/svg" xmlns:xlink="http://www.w3.org/1999/xlink" x="0px" y="0px"
	 viewBox="0 0 282 240" style="enable-background:new 0 0 282 240;" xml:space="preserve">
<style type="text/css">
	.st0{fill:#F9DB6C;}
	.st1{fill:#FFFFFF;}
	.st2{fill-rule:evenodd;clip-rule:evenodd;fill:#F8A671;}
	.st3{fill-rule:evenodd;clip-rule:evenodd;fill:#62BA47;}
	.st4{fill:#62BA47;}
	.st5{fill:#62BA46;}
	.st6{fill:#F8A671;}
</style>
<circle class="st0" cx="141.2" cy="120.3" r="78.2"/>
<circle class="st1" cx="141.8" cy="120" r="40.8"/>
<g>
	<g>
		<path class="st2" d="M147,99.7c-0.3,1.8-1.9,3.2-3.8,3.2c-2.1,0-3.8-1.7-3.9-3.7c-10.7,1.1-19,10.1-19.1,21.2
			c0,2.2,0.3,4.2,0.9,6.2c0.1,0,0.2,0,0.2,0c2.1,0,3.8,1.7,3.8,3.8c0,0.9-0.3,1.8-0.9,2.4c3.5,4.9,9.1,8.2,15.4,8.7
			c1.6,0.2,5.1,0,7.1-0.6c5.1-1.3,9.5-4.5,12.4-8.8c-0.3-0.5-0.4-1-0.4-1.6c0-1.8,1.3-3.2,2.9-3.5c0.7-2.1,1.1-4.3,1.1-6.6
			C162.8,110.4,156.1,102.1,147,99.7z M124.6,114.5c-1.1,0-2-0.9-2-2c0-1.1,0.9-2,2-2c1.1,0,2,0.9,2,2
			C126.6,113.6,125.7,114.5,124.6,114.5z M158.2,121.6c-1.4,0-2.5-1.1-2.5-2.5c0-1.4,1.1-2.5,2.5-2.5c1.4,0,2.5,1.1,2.5,2.5
			C160.7,120.5,159.6,121.6,158.2,121.6z"/>
		<g>
			<g>
				<g>
					<path class="st1" d="M151.2,117.4c0.4-1,0.5-2.3-0.3-3.2c-0.5-0.5-1.3-0.5-1.8-0.5c0.1-0.4,0.1-0.8,0.1-1.3
						c0-0.4-0.7-0.3-0.9-0.2c-0.4,0.1-0.8,0.3-0.8,0.7c0,1.6-0.3,3.2-0.7,4.8c-0.3,0.2-0.7,0.3-1.1,0.5c-0.2,0.1-0.4,0.2-0.7,0.1
						c-0.4-0.1-0.4-0.8-0.4-1.2c-0.1-1.4,0.1-3,0.9-4.2c0.2-0.3-0.1-0.5-0.5-0.5c-0.5,0.1-1,0.3-1.2,0.6c-0.8,1.6-0.8,3.3-0.6,5.2
						c0.1,0.6,0.2,1,0.9,1.1c0.8,0.1,1.7-0.3,2.4-0.7c0,0.1-0.1,0.2-0.1,0.3c-0.4,1.5-0.7,3-1.2,4.4c-0.1,0.3,0.2,0.4,0.4,0.3
						c0.2-0.1,0.5-0.3,0.7-0.6c0.4-1,0.7-2,1-3c0.4,0.1,0.9,0.1,1.4-0.1C150,119.6,150.8,118.5,151.2,117.4z M149.1,114.6
						C149.2,114.6,149.2,114.6,149.1,114.6L149.1,114.6z M148.5,119.3C148.5,119.3,148.5,119.3,148.5,119.3L148.5,119.3z
						 M148.5,119.2C148.5,119.2,148.5,119.3,148.5,119.2C148.5,119.3,148.5,119.3,148.5,119.2c-0.6-0.1-0.7-0.6-0.6-1
						c0,0,0-0.1,0-0.1c0.3-0.9,0.5-1.7,0.7-2.6c0,0,0,0,0-0.1c0.1-0.3,0.2-0.5,0.3-0.8c0,0,0,0,0,0c0,0,0,0,0,0
						c0.2,0,0.3,0.2,0.4,0.5c0.3,0.7,0.2,1.5,0,2.1C149.3,118,149,118.7,148.5,119.2z"/>
					<path class="st1" d="M141.4,113.9c0,0-0.1,0-0.1,0c0,0-0.1,0-0.1,0c-0.4,0-0.7,0.2-1,0.4c0-0.6-0.1-1.2-0.2-1.7
						c-0.1-0.3-0.6-0.1-0.8,0c-0.4,0.2-0.8,0.6-0.9,1c-0.1,0.7-0.2,1.4-0.4,2.1c-0.1,0.6-0.2,1.2-0.4,1.8c-0.1,0.3-0.1,0.5-0.2,0.7
						c0,0.1-0.1,0.2-0.1,0.2c-0.3,0.3-0.8,0.4-1.2,0.3c-0.5-0.1-0.8-0.4-1.2-0.8c-0.8-0.9-1.3-2.1-1.5-3.3c-0.1-0.6-0.1-1.2-0.1-1.9
						c0-0.2,0.1-0.5,0.2-0.7c0.1-0.2,0.1-0.2,0.1-0.3c0-0.1,0.1-0.1,0.1-0.2c0,0,0,0,0,0c0,0,0,0,0-0.1c0,0,0,0,0,0c0,0,0,0,0,0
						c0,0,0,0,0.1-0.1c0.1,0,0.4-0.1,0.6-0.2c1.1-0.2,1.5,0.7,1.8,1.3c0.2,0.5,1.8-0.7,1.6-1.2c-0.4-1-1.3-1.7-2.5-1.6
						c-0.9,0.1-1.7,0.6-2.3,1.2c-1.2,1.4-1.5,3.3-1.1,5c0.3,1.6,1.2,3,2.5,3.9c0.5,0.3,1.1,0.5,1.7,0.4c1.3-0.3,2.1-1.7,2.6-2.8
						c0-0.1,0-0.1,0-0.2c0,0,0-0.1,0-0.1c0.1,1.1,0.8,2.3,2,2.3c1.3,0,2-1.6,2.2-2.8C143.2,115.4,142.7,114,141.4,113.9z
						 M141.7,117.8c0,0.1-0.1,0.2-0.1,0.2c0,0-0.1,0-0.1,0c-0.7,0-1-1-1.1-1.5c0-0.1,0-0.1,0-0.2c0,0,0,0,0,0c0-0.1,0-0.2,0-0.3
						c0-0.2,0-0.4,0.1-0.7c0-0.1,0.1-0.2,0.1-0.2c0,0,0,0,0.1,0c0.8,0,1.1,1,1.2,1.5C141.8,117,141.7,117.4,141.7,117.8z"/>
				</g>
			</g>
			<g>
				<path class="st1" d="M155.9,130.3c-0.1-0.2-0.3-0.1-0.5-0.1c-0.3-0.1,0-0.9,0-1.1c0.2-0.8,0.5-1.5,0.8-2.2c0,0,0,0,0,0
					c0.2-0.5-0.2-0.9-0.8-1c-0.6-0.1-1.1,0.2-1.5,0.5c-0.7,0.6-1,1.4-1.2,2.3c-0.2,0.2-0.5,0.3-0.7,0.3c0,0,0,0,0-0.1
					c0-0.2,0-0.4,0.1-0.6c0.2-1,0.7-2.1,0.6-3.1c-0.1-0.8-1-0.4-1.5,0.1c0-0.3,0-0.5-0.2-0.8c-0.2-0.3-0.6-0.2-0.8-0.1
					c-0.2,0.1-0.3,0.2-0.5,0.3c0-0.1,0-0.3,0.1-0.4c0.1-0.5-1-0.1-1,0.3c-0.1,0.8-0.2,1.6-0.4,2.4c-0.3,0.3-0.6,0.6-1.1,0.8
					c-0.1,0-0.1,0-0.1,0c0,0,0,0,0,0c0,0,0-0.1,0-0.1c-0.1-0.5,0.1-1.1,0.2-1.7c0.1-0.6,0.1-1.1,0.1-1.7c0-0.3-0.2-0.8-0.7-0.7
					c-0.4,0.1-0.7,0.3-1,0.6c0-0.3-0.1-0.5-0.3-0.7c-0.2-0.2-0.6-0.1-0.8,0c-0.2,0.1-0.3,0.2-0.4,0.4c0-0.1,0-0.2,0-0.4
					c0-0.1,0-0.1,0-0.2c0,0-0.1,0-0.1-0.1c0,0-0.1,0-0.1,0c-0.2,0-0.3,0.1-0.4,0.3c-0.1,0.1-0.2,0.2-0.2,0.3
					c-0.2,0.3-0.4,0.2-0.7,0.1c-0.2-0.1-0.3-0.2-0.4-0.3c-0.1-0.2-0.3-0.4-0.6-0.5c0,0-0.1,0-0.1,0c0,0,0,0-0.1,0
					c-1.2,0.2-1.4,1.7-1.4,2.6c0,0.4,0,0.9,0.1,1.4c0,0,0,0.1,0,0.1c0,0,0,0,0,0c-0.1,0-0.1,0-0.2,0c-0.1,0-0.2,0-0.3,0
					c-0.3-0.2-0.3-0.9-0.3-1.2c-0.1-0.9,0-1.8,0.1-2.7c0-0.3-0.3-0.2-0.4-0.1c-0.2,0.1-0.4,0.4-0.5,0.6c0,0,0,0.2-0.1,0.3
					c0,0.1-0.1,0.3-0.1,0.5c0,0-0.1,0-0.1,0c-0.2,0-0.3-0.1-0.5-0.2c-0.3-0.2-0.4-0.6-0.4-0.9c0-0.2-0.1-0.3-0.3-0.2
					c-0.2,0.1-0.5,0.4-0.6,0.6c0,0.1,0,0.3,0,0.4c0,0,0,0.1,0,0.1c0,1-0.3,2-0.6,3c0,0.1-0.1,0.2-0.1,0.2c0,0,0,0,0,0
					c-0.2,0-0.3-0.4-0.3-0.6c-0.2-0.5-0.3-1.1-0.4-1.6c0-0.2,0-0.3-0.1-0.5c0-0.2,0-0.4-0.1-0.6c0,0,0,0,0,0
					c-0.1-0.6-0.6-0.7-1.2-0.5c-0.5,0.2-0.8,0.7-1,1.2c-0.2,0.7-0.2,1.5,0,2.2c-0.1,0.3-0.2,0.5-0.3,0.8c0,0.1-0.1,0.2-0.2,0.3
					c0,0,0,0,0,0.1c0,0,0,0-0.1,0c-0.5,0-0.7-1.3-0.8-1.6c-0.2-0.5-0.4-1-0.9-1.1c-0.4-0.1-0.8,0-1.1,0.3c-0.2-0.7-0.4-1.4-0.2-2.1
					c0.2-0.8,1-0.5,1.5-0.3c0.3,0.2,1-0.8,0.6-1c-0.5-0.3-1.1-0.5-1.6-0.2c-0.5,0.3-0.8,0.7-1,1.2c0,0.1-0.1,0.2-0.1,0.3
					c-0.2-0.5-0.5-1-0.7-1.5c-0.1-0.2-0.4,0-0.5,0.1c-0.9,0.8-2.4,2.5-1.5,3.8c0.2,0.3,0.9-0.7,0.7-1c-0.4-0.5,0.2-1.2,0.6-1.7
					c0.6,1.1,1.1,2.3,1.6,3.5c0.3,0.7,0.6,1.6,0.3,2.3c-0.2,0.7-1.2,0.3-1.4-0.3c-0.2-0.5-0.8,0.5-0.7,0.8c0.1,0.4,0.4,0.7,0.9,0.9
					c0.4,0.1,0.8-0.1,1.1-0.3c0.7-0.6,1-1.6,0.9-2.5c0-0.4-0.1-0.8-0.2-1.2c0.3-0.1,0.6,0,0.8,0.3c0.4,0.6,0.5,1.4,0.9,2
					c0.4,0.6,1,0.2,1.3-0.2c0.2-0.3,0.3-0.5,0.4-0.8c0.1,0.3,0.4,0.7,0.7,0.8c0.4,0.1,0.9-0.3,1.1-0.7c0,0,0,0,0-0.1
					c0.4,0.9,1.2,0.3,1.6-0.3c0.4-0.7,0.6-1.5,0.7-2.2c0-0.1,0-0.1,0-0.2c0.4,0.3,0.9,0.2,1.3,0c0,0,0,0,0.1,0c0,0.7,0,1.4,0.2,2
					c0.1,0.5,0.3,0.7,0.8,0.7c0.4,0,0.7-0.2,1-0.4c0.1,0.2,0.3,0.4,0.6,0.4c0.5,0,0.9-0.5,1.1-1c0.2-0.5,0.3-1.1,0.4-1.7
					c0-0.2,0-0.4,0-0.7c0.3,0,0.6-0.1,0.8-0.3c0,1.1-0.1,2.3-0.2,3.4c0,0.5,0.8-0.1,0.9-0.4c0.1-1,0.3-2,0.6-3
					c0-0.1,0.1-0.2,0.1-0.2c0,0,0,0,0,0c0.2,0.6,0.1,1.3,0,1.9c0,0.3,0,0.5-0.1,0.8c-0.1,0.4-0.1,0.7-0.1,1.1c0,0.5,0.9-0.1,0.9-0.4
					c0-0.3,0.1-0.5,0.1-0.8c0.1-0.4,0.2-0.9,0.3-1.3c0.1-0.4,0.2-0.7,0.4-1.1c0,0.2,0.1,0.3,0.1,0.5c0,0.6,0,1.2-0.1,1.7
					c-0.1,0.5-0.4,1.9,0.5,1.8c0.5-0.1,1-0.3,1.4-0.7c-0.1,0.3-0.1,0.5-0.1,0.8c-0.1,0.5,0.8,0,0.9-0.3c0.2-1,0.6-2,1-2.9
					c0-0.1,0.1-0.1,0.1-0.2c0,0,0,0,0,0c0.1,0.6-0.1,1.3-0.2,1.8c-0.1,0.3-0.1,0.6-0.2,0.8c-0.1,0.3-0.2,0.7-0.3,1
					c-0.1,0.5,0.8,0.1,0.9-0.3c0.1-0.4,0.2-0.7,0.3-1.1c0.2-0.7,0.5-1.4,1-2c0,0.1,0,0.1,0,0.1c0,0.5-0.1,1-0.2,1.5
					c-0.1,0.5-0.3,1-0.4,1.6c0,0.3-0.1,0.6,0.1,0.8c0.1,0.2,0.5,0.1,0.7,0c0.2,0,0.5-0.1,0.7-0.3c0,0.3,0,0.5,0.2,0.7
					c0.3,0.3,0.9,0.2,1.3,0c0,0,0,0,0.1,0c0,0.2,0,0.4,0.1,0.5c0.2,0.4,0.8,0.3,1.1,0.2C155.6,130.7,156,130.5,155.9,130.3z
					 M134.5,128c0,0-0.1,0-0.1,0c-0.2,0-0.3-0.3-0.4-0.5c-0.1-0.2-0.2-0.5-0.3-0.8c0,0,0-0.1,0-0.1c-0.1-0.4-0.1-0.8-0.1-1.1
					c0-0.2,0.1-0.6,0.1-0.7c0,0,0,0,0,0c0,0,0.1,0,0.1,0c0.2-0.1,0.4,0.1,0.4,0.3c0.1,0.9,0.3,1.8,0.3,2.7
					C134.5,127.8,134.5,127.9,134.5,128z M141.5,127.4C141.5,127.4,141.5,127.4,141.5,127.4L141.5,127.4z M141.7,127
					c0,0.1-0.1,0.2-0.1,0.3c-0.2-0.1-0.3-0.4-0.4-0.5c0-0.1,0-0.1-0.1-0.2c0,0,0-0.1,0-0.1c-0.1-0.3-0.1-0.6-0.1-0.9
					c0-0.4,0-0.8,0.1-1.2c0-0.1,0.1-0.2,0.1-0.3c0.1,0,0.1,0.1,0.2,0.1c0,0.1,0,0.1,0.1,0.2c0,0,0,0,0.1,0.1
					c0.2,0.4,0.2,1.1,0.2,1.4C141.8,126.1,141.8,126.6,141.7,127z M153.9,129.6c0,0-0.1,0-0.1-0.1c-0.1-0.1-0.1-0.4-0.1-0.6
					c0-0.7,0.3-1.4,0.7-1.9c0.1-0.2,0.3-0.4,0.4-0.5c0,0,0,0,0,0c0,0,0.1,0,0.1,0c0.2,0.1,0.3,0.3,0.2,0.5c-0.3,0.8-0.6,1.7-1.1,2.4
					C154,129.4,154,129.5,153.9,129.6z"/>
			</g>
		</g>
		<path class="st2" d="M131.3,94.2c0,1.5-1.2,2.7-2.7,2.7c-1.5,0-2.7-1.2-2.7-2.7c0-1.5,1.2-2.7,2.7-2.7
			C130.1,91.5,131.3,92.7,131.3,94.2L131.3,94.2z"/>
		<path class="st3" d="M131.4,103.4c0,1.9-1.6,3.5-3.5,3.5s-3.5-1.6-3.5-3.5c0-1.9,1.6-3.5,3.5-3.5S131.4,101.5,131.4,103.4
			L131.4,103.4z"/>
		<path class="st3" d="M122,98c0,1.1-0.9,2.1-2.1,2.1c-1.2,0-2.1-0.9-2.1-2.1c0-1.2,0.9-2.1,2.1-2.1C121.1,95.9,122,96.9,122,98
			L122,98z"/>
		<g>
			<circle class="st4" cx="159.7" cy="100.9" r="11.8"/>
			<g>
				<path class="st1" d="M156.7,99.2c-1,0.1-1.2,1.3-1.3,2.1l0,0v0c0,0.1,0,0.2,0,0.3c0,0.4,0,0.7-0.1,1c0,0.2-0.1,0.5-0.1,0.5
					c-0.4,0-0.6-0.5-0.7-0.7c-0.2-0.6-0.4-1.2-0.5-1.9c-0.1-0.7-0.2-1.4-0.2-2.1c0-0.3,0-0.6,0-0.9c0-0.1,0-0.2,0-0.3
					c0-0.1,0-0.2,0-0.2c0.1-0.5-0.6,0-0.8,0.2c-0.8,1.4-0.5,3-0.5,4.5c0,0.4,0,0.8-0.1,1.2c0,0.3-0.1,0.8-0.3,1
					c-0.1,0.1-0.4,0-0.5,0c-0.2-0.1-0.3-0.3-0.3-0.5c0-0.2-0.3-0.1-0.4,0c-0.2,0.2-0.3,0.5-0.3,0.7c0.1,0.5,0.6,1,1.1,0.8
					c0.9-0.3,1.3-1.3,1.5-2.1c0.1-0.4,0.2-0.8,0.2-1.2c0.1,0.6,0.3,1.2,0.6,1.7c0.2,0.4,0.5,0.8,1,0.7c0.4-0.1,0.6-0.5,0.8-0.9
					c0.2,0.4,0.4,0.7,0.9,0.6c0.5,0,0.9-0.6,1.1-0.9c0.2-0.5,0.3-1,0.3-1.5C157.9,100.5,157.7,99.1,156.7,99.2z M157,102.6
					c0,0.1,0,0.2-0.1,0.3c-0.2,0-0.3-0.3-0.4-0.4c-0.2-0.3-0.2-0.7-0.3-1c0-0.4,0-0.7,0-1.1c0-0.1,0-0.2,0.1-0.3
					c0.5,0.3,0.6,0.9,0.6,1.5C157.1,101.8,157.1,102.2,157,102.6z"/>
				<path class="st1" d="M168.4,100.6c-1.1-0.4-1.6,1-1.8,1.8c-0.2,0.7-0.4,2,0.5,2.4c0.4,0.2,1-0.1,1.2-0.4
					c0.3-0.4,0.5-0.8,0.6-1.3C169.2,102.3,169.4,100.9,168.4,100.6z M167.8,104c0,0.1-0.1,0.2-0.1,0.2c-0.2-0.1-0.2-0.4-0.2-0.6
					c-0.1-0.4,0-0.7,0-1.1c0.1-0.4,0.2-0.7,0.3-1c0-0.1,0.1-0.2,0.1-0.2c0.4,0.5,0.3,1.1,0.2,1.7C168.1,103.3,168,103.6,167.8,104z"
					/>
				<path class="st1" d="M165.6,100.8c0.2-0.3,0.4-0.5,0.6-0.8c0.4-0.6,0.8-1.3,0.7-2c0-0.7-1-0.7-1.4-0.5c-0.7,0.3-1.1,1-1.3,1.7
					c-0.3,0.9-0.4,1.8-0.4,2.8v0c-0.3,0.4-1,1.2-1.6,0.9c-0.1-0.1-0.2-0.3-0.3-0.4c0.4-0.5,0.8-0.9,1.2-1.5c0.3-0.5,0.5-1.3-0.1-1.6
					c-0.5-0.3-1.2,0-1.5,0.5c-0.3,0.4-0.5,1-0.6,1.5c0,0.3-0.1,0.8,0,1.2c-0.3,0.2-0.7,0.3-1,0.2c-0.4-0.1-0.6-0.5-0.6-0.8
					c-0.1-0.5-0.1-1,0-1.5c0-0.1,0.1-0.3,0.1-0.4c0,0,0-0.1,0-0.1c0.3,0.1,0.4,0.5,0.4,0.7c0.1,0.4,1-0.2,0.9-0.6
					c-0.1-0.4-0.2-0.7-0.6-0.9c-0.4-0.2-0.9,0.1-1.1,0.4c-0.6,0.6-0.7,1.6-0.7,2.4c0,0.5,0.1,1.2,0.6,1.5c0.6,0.4,1.5,0,2.1-0.3
					c0.2,0.4,0.5,0.7,1,0.6c0.6-0.1,1.2-0.4,1.7-0.9c0,0.5,0.1,1,0.5,1.2c0.6,0.3,1.2,0,1.6-0.5c0.5-0.6,0.7-1.5,0.5-2.2
					C166.2,100.9,165.9,100.8,165.6,100.8z M162,100.4c0-0.1,0.1-0.3,0.2-0.4c0,0,0,0,0,0c0.3,0.1,0.3,0.4,0.3,0.6
					c-0.1,0.4-0.3,0.8-0.6,1.1c0-0.1,0-0.1,0-0.2C161.9,101.1,161.9,100.7,162,100.4z M165.4,98.4c0.1-0.1,0.2-0.3,0.3-0.4
					c0,0,0,0,0,0c0.4,0.5,0,1.1-0.2,1.5c-0.2,0.4-0.5,0.8-0.8,1.2c0.1-0.4,0.1-0.8,0.2-1.2C165.1,99.2,165.2,98.8,165.4,98.4z
					 M165.2,103.2c0,0-0.1,0.1-0.1,0.2c0,0-0.1,0-0.1,0c-0.3-0.1-0.3-0.7-0.3-0.9c0-0.2,0-0.4,0-0.6c0.1-0.1,0.2-0.2,0.3-0.4
					c0.2-0.2,0.4,0.1,0.4,0.4C165.5,102.3,165.4,102.9,165.2,103.2z"/>
			</g>
		</g>
		<g>
			<path class="st5" d="M115.5,111.3c-0.1,0-0.2-0.2-0.3-0.2c-0.5-0.2-0.8,0.1-1.2,0.1c-1,0-1.4,0-2.6-0.4c0-1.1,0.6-1.7,0.9-2.5
				c0.3-0.7-0.1-1.6-0.1-2.4c0-0.5,0-1,0-1.5c-0.4,0.3-0.2,1.3-0.2,1.8c-0.2-0.6-0.1-1.5-0.3-2c-0.2,0.6,0,1.4,0,2
				c-0.2-0.6-0.2-1.2-0.4-1.8c-0.3,0.6,0.2,1.4,0.1,1.9c-0.2-0.5-0.3-1.1-0.6-1.6c-0.1,0.7,0.2,1.2,0.2,1.7
				c-0.2-0.4-0.3-0.9-0.6-1.2c0,0.4,0.3,1,0.4,1.4c-0.3-0.1-0.4-0.5-0.7-0.6c0.1,0.3,0.3,0.5,0.4,0.8c-0.2-0.1-0.3-0.3-0.5-0.4
				c0,0.3,0.3,0.4,0.3,0.7c-0.1-0.1-0.3-0.2-0.4-0.3c0,0.2,0.3,0.4,0.3,0.5c0,0-0.2-0.1-0.2,0c0.1,0,0.3,0.2,0.1,0.2
				c-0.1,0-0.2,0-0.2,0c0,0.2,0.2,0.1,0.1,0.3c-0.1,0-0.1-0.1-0.1,0c0,0.1,0.1,0.1,0.1,0.2c-0.9,0.9-0.4,1.9-0.5,2.9
				c0.1-0.1-0.7-0.3-1.3-0.5c-0.3-0.1-0.4-0.5-0.6-0.6c0-0.1,0.1,0,0.1-0.1c-0.1,0-0.2-0.1-0.2-0.2c0.1,0,0.3,0.1,0.3,0
				c-0.2-0.1-0.6-0.2-0.5-0.3c0.2,0,0.4,0.1,0.6,0.1c-0.3-0.1-0.7-0.3-0.7-0.5c0.2,0.1,0.5,0.3,0.8,0.2c-0.4-0.2-0.9-0.5-1-0.8
				c0.3,0.1,0.6,0.5,0.9,0.4c-0.4-0.1-0.8-0.6-1.2-0.6c0.2,0.4,0.8,0.6,1,0.9c-0.3-0.2-0.7-0.4-1-0.5c0.1,0.4,0.6,0.5,0.9,0.8
				c-0.3,0-0.5-0.2-0.8-0.2c0.1,0.3,0.6,0.3,0.8,0.5c-0.1-0.1-0.4,0-0.5,0c0,0.2,0.4,0.2,0.5,0.3c-0.2,0-0.4,0-0.4,0.1
				c0.1,0.1,0.4,0.1,0.4,0.2c-0.1,0-0.2,0-0.2,0.1c0,0.1,0.3,0,0.3,0.1c-0.1,0-0.1,0.1-0.1,0.1c0.1,0,0.2,0,0.2,0
				c-0.1,0-0.1,0.1-0.1,0.1c0.5,0.3,0.7,1,1.4,1.2c-0.4,0.3,0.3,0.5-3.8,1.9c0.1,0,1.8-0.4,2.3-0.6c0.5-0.2,1-0.3,1.5-0.5
				c0.1,0,0.2-0.1,0.4-0.1c0.9-0.1,1.6,0.1,2.4-0.5c-0.6,0.1-1.7,0.2-2.2-0.1c0.6-0.9,0.2-3.1,0.6-3.6c0.5-0.4,1.1-1.9,2-0.6
				c0.1,0.2,0.2,0.5-0.1,1c-0.4,0.6-0.6,0.9-0.5,2.2c0,0.3,0,0.6-0.4,0.6c1.8,0.4,2.3,0.2,3.3,0c0.3,0,0.8-0.3,0.9,0
				c0,0.1-0.3,0.1-0.6,0.1c-0.5,0,0.2,0.2,0.5,0.2c0.1,0,1-0.1,1.6-0.2C116.1,111.4,115.8,111.4,115.5,111.3z"/>
			<path class="st5" d="M110.3,102.2c-4.1,0-7.4,3.3-7.4,7.4c0,4.1,3.3,7.4,7.4,7.4c4.1,0,7.4-3.3,7.4-7.4
				C117.7,105.5,114.4,102.2,110.3,102.2 M110.3,102.5c3.9,0,7.1,3.2,7.1,7.1c0,3.9-3.2,7.1-7.1,7.1c-3.9,0-7.1-3.2-7.1-7.1
				C103.2,105.7,106.4,102.5,110.3,102.5"/>
		</g>
	</g>
	<g>
		<g>
			<path class="st4" d="M131.3,139.3c0-3.7-3-6.7-6.7-6.7c-3.7,0-6.7,3-6.7,6.7c0,3.7,3,6.7,6.7,6.7
				C128.3,146,131.3,143,131.3,139.3z"/>
		</g>
		<g>
			<path class="st1" d="M120.4,138.2c0.3-0.7,0.8-0.2,1,0.1c0.3,0.5,0,1.1-0.3,1.5c-0.3,0.4-0.6,0.7-1,0.9c-0.2,0.1-0.4,0.2-0.5,0.4
				c0,0.1-0.1,0.2,0,0.3c0.3,0.2,0.8,0.2,1.1,0.2c0.6,0,1.2,0,1.7-0.3c0.3-0.1,0.6-0.9,0-0.6c-0.4,0.2-0.9,0.2-1.4,0.2
				c-0.2,0-0.7,0-0.9-0.1c0,0.1,0,0.2,0,0.3c-0.3,0.4-0.1,0.2,0.1,0.1c0.2-0.1,0.3-0.2,0.5-0.4c0.3-0.2,0.5-0.5,0.8-0.8
				c0.5-0.6,0.8-1.3,0.6-2c-0.3-1.7-2.1-0.4-2.5,0.5C119.5,138.9,120.3,138.4,120.4,138.2L120.4,138.2z"/>
			<path class="st1" d="M123.9,138.2c0.3-0.7,0.8-0.2,1,0.1c0.3,0.5,0,1.1-0.3,1.5c-0.3,0.4-0.6,0.7-1,0.9c-0.2,0.1-0.4,0.2-0.5,0.4
				c0,0.1-0.1,0.2,0,0.3c0.3,0.2,0.8,0.2,1.1,0.2c0.6,0,1.2,0,1.7-0.3c0.3-0.1,0.6-0.9,0-0.6c-0.4,0.2-0.9,0.2-1.4,0.2
				c-0.2,0-0.7,0-0.9-0.1c0,0.1,0,0.2,0,0.3c-0.3,0.4-0.1,0.2,0.1,0.1c0.2-0.1,0.3-0.2,0.5-0.4c0.3-0.2,0.5-0.5,0.8-0.8
				c0.5-0.6,0.8-1.3,0.6-2c-0.3-1.7-2.1-0.4-2.5,0.5C123,138.9,123.8,138.4,123.9,138.2L123.9,138.2z"/>
			<g>
				<path class="st1" d="M129.3,137.6c-0.8,1.3-1.8,2.5-2.7,3.7c-0.4,0.5,0.2,0.5,0.5,0.2c1-1.3,2-2.5,2.8-3.9
					C130.2,137,129.4,137.3,129.3,137.6L129.3,137.6z"/>
				<path class="st1" d="M127.8,137.2c-0.5,0-0.8,0.5-0.9,0.9c-0.1,0.4,0.2,0.8,0.6,0.8C128.4,138.9,128.9,137.2,127.8,137.2
					c-0.2,0-0.6,0.5-0.3,0.5c0.2,0,0.3,0.2,0.4,0.4c0,0.1,0,0.2,0,0.3c0,0.1,0,0,0,0c0,0-0.1,0-0.1,0c-0.2,0-0.4-0.2-0.4-0.4
					c0-0.1,0-0.2,0-0.3c0-0.1,0,0,0,0c0,0,0.1,0,0.1,0C127.8,137.7,128.1,137.2,127.8,137.2z"/>
				<path class="st1" d="M129.2,140c-0.5,0-0.8,0.5-0.9,0.9c-0.1,0.4,0.2,0.8,0.6,0.8C129.8,141.7,130.2,140,129.2,140
					c-0.2,0-0.6,0.5-0.3,0.5c0.2,0,0.3,0.2,0.4,0.4c0,0.1,0,0.2,0,0.3c0,0.1,0,0,0,0c0,0-0.1,0-0.1,0c-0.2,0-0.4-0.2-0.4-0.4
					c0-0.1,0-0.2,0-0.3c0-0.1,0,0,0,0c0,0,0.1,0,0.1,0C129.1,140.5,129.5,139.9,129.2,140z"/>
			</g>
		</g>
	</g>
	<g>
		<circle class="st6" cx="152.4" cy="149" r="7.3"/>
	</g>
	<path class="st6" d="M104,131.7c-0.4,0-0.7,0-1.1,0.1c1.5,4.9,3.9,9.5,6.9,13.5c1.4-1.4,2.2-3.4,2.2-5.6
		C112,135.3,108.4,131.7,104,131.7z"/>
	<circle class="st6" cx="176.3" cy="117.7" r="5.4"/>
	<path class="st6" d="M174.1,139.6c0,1.4,0.4,2.7,1,3.8c2.3-3.4,4.2-7.2,5.5-11.2C177,132.6,174.1,135.8,174.1,139.6z"/>
	<path class="st6" d="M141.5,79.1c-1.6,0-3.2,0.1-4.7,0.2c0,0.1,0,0.1,0,0.2c0,4.5,3.7,8.2,8.2,8.2c4.2,0,7.6-3.1,8.1-7.1
		C149.4,79.6,145.5,79.1,141.5,79.1z"/>
</g>
</svg>
