<?xml version="1.0" encoding="utf-8"?>
<!-- Generator: Adobe Illustrator 19.0.0, SVG Export Plug-In . SVG Version: 6.00 Build 0)  -->
<svg version="1.1" xmlns="http://www.w3.org/2000/svg" xmlns:xlink="http://www.w3.org/1999/xlink" x="0px" y="0px"
	 viewBox="0 0 131 142" style="enable-background:new 0 0 131 142;" xml:space="preserve">
<style type="text/css">
	.st0{fill-rule:evenodd;clip-rule:evenodd;fill:#F8B319;}
	.st1{fill:#FFFFFF;}
	.st2{fill-rule:evenodd;clip-rule:evenodd;fill:#62BC47;}
</style>
<g id="cheese">
	<path class="st0" d="M83.3,27.8c-0.8,4.6-4.9,8.1-9.8,8.1c-5.4,0-9.8-4.3-9.9-9.6c-27.5,2.9-49,26.1-49.2,54.6
		c0,5.5,0.8,10.9,2.4,15.9c0.2,0,0.4,0,0.6,0c5.4,0,9.8,4.4,9.8,9.8c0,2.4-0.9,4.6-2.3,6.3c9.1,12.6,23.5,21.1,39.8,22.5
		c4.2,0.5,13.2-0.1,18.2-1.5c13.2-3.4,24.5-11.6,31.9-22.6c-0.7-1.3-1-2.7-1-4.2c0-4.5,3.2-8.3,7.5-9.1c1.8-5.4,2.7-11.1,2.7-17.1
		C124.1,55.4,106.8,34,83.3,27.8z M25.5,65.9c-2.9,0-5.3-2.3-5.3-5.2c0-2.9,2.4-5.3,5.3-5.3c2.9,0,5.2,2.3,5.2,5.3
		C30.8,63.6,28.4,65.9,25.5,65.9z M112.2,84.4c-3.5,0-6.4-2.8-6.4-6.4c0-3.5,2.9-6.4,6.4-6.4c3.5,0,6.4,2.8,6.4,6.4
		C118.6,81.6,115.8,84.4,112.2,84.4z"/>
	<g>
		<g>
			<path class="st1" d="M94.2,83.1c0.9-2.6,1.4-6-0.7-8.1c-1.3-1.3-3.3-1.4-4.7-1.2c0.2-1.1,0.3-2.2,0.4-3.3
				c0.1-0.9-1.9-0.7-2.3-0.6c-1,0.2-2,0.8-2.1,1.7C84.7,75.8,83.9,80,83,84c-0.9,0.4-1.8,0.9-2.8,1.3c-0.5,0.2-1,0.5-1.7,0.3
				c-1.1-0.3-1-2.1-1.1-3.1c-0.2-3.7,0.2-7.7,2.3-10.8c0.5-0.7-0.2-1.3-1.4-1.2c-1.3,0.1-2.6,0.9-3,1.7c-1.9,4.1-2.1,8.6-1.6,13.3
				c0.2,1.6,0.5,2.6,2.4,2.9c2.1,0.4,4.5-0.9,6.2-1.8c-0.1,0.3-0.1,0.6-0.2,0.9c-0.9,3.8-1.9,7.6-3,11.4c-0.3,0.9,0.5,0.9,1,0.8
				c0.6-0.2,1.4-0.8,1.7-1.7c0.9-2.6,1.8-5.2,2.6-7.8c1,0.4,2.3,0.4,3.6-0.1C91.2,88.9,93.2,86.1,94.2,83.1z M89,76
				C89.1,76,89.1,76,89,76L89,76z M87.4,88.1C87.4,88.1,87.4,88.1,87.4,88.1L87.4,88.1z M87.5,87.9c-0.1,0.1-0.1,0.1-0.2,0.2
				c0,0,0,0,0,0c-1.2-0.4-1.5-1.7-1.2-2.7c0-0.1,0-0.2,0-0.3c0.7-2.2,1.3-4.5,1.8-6.7c0,0,0-0.1,0.1-0.1c0.2-0.7,0.4-1.4,0.9-2
				c0,0,0,0,0,0c0,0,0,0,0,0c0.5,0.1,0.8,0.6,1,1.2c0.8,1.8,0.4,3.9,0,5.5C89.5,84.6,88.8,86.6,87.5,87.9z"/>
			<path class="st1" d="M69.1,74.1c-0.1,0-0.2,0-0.3,0c-0.1,0-0.1,0-0.2,0c-1,0.1-1.9,0.4-2.6,0.9c-0.1-1.5-0.3-3-0.6-4.5
				c-0.1-0.7-1.6-0.2-2,0c-1.1,0.6-2.1,1.5-2.2,2.5c-0.2,1.8-0.6,3.7-0.9,5.5c-0.3,1.5-0.6,3-1,4.5c-0.2,0.6-0.4,1.3-0.6,1.9
				c-0.1,0.3-0.2,0.5-0.3,0.6c-0.8,0.9-1.9,1-3.1,0.7c-1.2-0.3-2.2-1.1-3-2c-2.2-2.4-3.4-5.5-4-8.6c-0.3-1.6-0.4-3.2-0.1-4.9
				c0.1-0.6,0.2-1.3,0.4-1.9c0.1-0.4,0.2-0.6,0.3-0.8c0.1-0.1,0.1-0.3,0.2-0.4c0,0,0,0,0,0c0,0,0.1-0.1,0.1-0.1c0,0,0-0.1,0.1-0.1
				c0,0,0,0,0.1-0.1c0,0,0.1-0.1,0.3-0.2c0.2-0.1,1.1-0.4,1.6-0.4c2.8-0.4,3.9,1.7,4.6,3.4c0.5,1.2,4.5-1.9,4.1-3.1
				c-1-2.7-3.5-4.5-6.4-4.1c-2.4,0.3-4.4,1.5-5.9,3.2c-3.1,3.6-3.8,8.4-2.8,12.9c0.9,4,3.1,7.8,6.6,10.1c1.3,0.9,2.9,1.3,4.3,1
				c3.2-0.7,5.4-4.4,6.6-7.3c0.1-0.2,0.1-0.3,0.1-0.4c0-0.1,0.1-0.1,0.1-0.2c0.2,2.8,2.2,5.9,5.1,5.8c3.2-0.1,5.2-4.2,5.6-7.1
				C73.6,78,72.5,74.5,69.1,74.1z M69.7,84.1c-0.1,0.2-0.1,0.4-0.2,0.6c-0.1,0-0.2,0-0.4,0c-1.8,0.1-2.7-2.5-2.9-3.9
				c0-0.2,0-0.3-0.1-0.5c0,0,0,0,0,0c0-0.2,0-0.5,0-0.7c0-0.6,0.1-1.1,0.2-1.7c0-0.2,0.2-0.4,0.3-0.6c0.1,0,0.1,0,0.2,0
				c2.1-0.1,2.8,2.5,3,3.9C70,82.2,69.9,83.2,69.7,84.1z"/>
		</g>
	</g>
</g>
<g id="bubbles">
	<path class="st0" d="M42.9,13.7c0,3.9-3.2,7-7.1,7c-3.9,0-7.1-3.2-7.1-7c0-3.9,3.2-7.1,7.1-7.1C39.7,6.7,42.9,9.8,42.9,13.7
		L42.9,13.7z"/>
	<path class="st2" d="M43.2,37.4c0,5-4,9-9,9c-5,0-9.1-4-9.1-9c0-5,4.1-9.1,9.1-9.1C39.1,28.4,43.2,32.4,43.2,37.4L43.2,37.4z"/>
	<path class="st2" d="M19,23.5c0,3-2.4,5.4-5.4,5.4c-3,0-5.4-2.4-5.4-5.4c0-3,2.4-5.4,5.4-5.4C16.6,18.1,19,20.5,19,23.5L19,23.5z"
		/>
</g>
</svg>
