<?xml version="1.0" encoding="utf-8"?>
<!-- Generator: Adobe Illustrator 19.0.0, SVG Export Plug-In . SVG Version: 6.00 Build 0)  -->
<svg version="1.1" xmlns="http://www.w3.org/2000/svg" xmlns:xlink="http://www.w3.org/1999/xlink" x="0px" y="0px"
	 viewBox="-358 229.3 124 137" style="enable-background:new -358 229.3 124 137;" xml:space="preserve">
<style type="text/css">
	.st0{opacity:0.65;}
	.st1{fill:#F19A67;}
	.st2{fill:#FFFFFF;}
	.st3{fill:#62BC47;}
</style>
<g id="Layer_1">
	<g id="chiken" class="st0">
		<path class="st1" d="M-348.1,306.6c0-18.3,1.2-43.1,16-51.7c12-7,29-1.3,44.7,15.7c12.4,13.4,49.6,8.7,49.6,35.9
			c0,30.5-24.7,55.1-55.1,55.1C-323.4,361.7-348.1,337.1-348.1,306.6z"/>
		<g>
			<path class="st2" d="M-273,290.8c-0.1-0.1-0.2-0.1-0.3-0.2c-0.1,0-0.1-0.1-0.2-0.1c-3.4-1-5.5,2.7-6.4,5.4
				c-0.1,0.1-0.1,0.2-0.1,0.3c-0.6,1.7-1.8,3.6-3.1,4.2c-0.1,0.1-0.1,0-0.6,0.1c-0.4,0-0.8,0-1.2-0.1c-0.7-0.3-1.1-0.9-1.4-1.7
				c-0.1-0.3-0.2-0.6-0.2-1c0-0.1,0-0.3,0-0.4c-0.1-1.4,0.2-2.9,0.5-4.3c0.2-1,0.6-2.2,1.2-3.1c0.1,0.1,0.2,0.2,0.3,0.4
				c0.5,0.6,0.5,1.5,0.6,2.2c0.1,1.3,3.2-0.1,3.1-1.3c-0.1-1.5-0.4-3.6-2.4-3.8c-1.9-0.2-3.8,1.4-4.7,2.7c-1.6,2.6-1.8,5.3-1.8,8.4
				c-1,0.8-2.1,1.4-2.8,0.1c-0.6-1.2-0.6-3-0.5-4.3c0-0.4,0-0.9,0-1.3c0,0,0,0,0-0.1s0-0.1,0-0.2c0.1-1.1,0.2-2.2,0.4-3.3
				c0-0.1,0-0.2,0.1-0.2v-0.1c0.1-0.7,0.3-1.5,0.4-2.2c0.2-0.8-0.9-0.7-1.4-0.5c-0.1,0-0.2,0.1-0.2,0.1c-0.7-0.4-1.8-0.5-2.8,0.1
				c-2.7,1.4-3.5,4.9-3.1,7.7c0.3,1.6,1.5,2.9,3,2.7c0.2,0,0.5-0.1,0.7-0.2c-0.1,0.7-0.4,1.5-0.7,2.1c-0.3,0.7-1.3-0.4-1.4-0.9
				c-0.3-0.9-1.5,0.1-2.1,1.1c-0.8,0.2-1.5-2.4-1.7-3c-0.6-2-1-4.1-1.4-6.1c-0.6-3.3-1.1-6.6-0.9-9.8c0-0.6-0.7-0.6-1.3-0.4
				c-0.9,0.3-1.6,1-2,1.7c-1.1,2.4-1.3,5.3-1.4,8v0.1c-0.1-0.2-0.1-0.5-0.2-0.7c-0.5-2.2-0.9-4.3-1.3-6.5c-0.2-1.3-0.5-3.1-0.4-4.2
				c0.2-1.8-2.3,0-2.7,0.8c-2.4,5-0.7,10.7,0.1,15.9c0.2,1.4,0.3,2.8,0.3,4.2c0,0.9,0.1,2.6-0.4,3.4c-0.4,0.5-1.2,0.1-1.6-0.1
				c-0.7-0.4-1.2-1-1.4-1.8c-0.2-0.8-1-0.3-1.4,0.1c-0.5,0.6-1,1.6-0.8,2.4c0.6,1.8,2.7,3.4,4.3,2.7c2.6-1.1,3.1-5,3.3-7.6
				c0.1-1.7,0.1-3.5-0.1-5.2c0.9,3.2,1.7,6.3,2.6,9.5c0.4,1.7,2.1-1.1,2.1-2c-0.1-2.9-0.1-5.8,0-8.8c0.2,0.9,0.4,1.8,0.6,2.6
				c0.5,2.2,1.1,4.4,2.2,6.3c0.4,0.8,1,1.7,1.9,1.6c0.7-0.1,1.4-0.4,1.9-0.9c1.1,1.2,2.9,0.4,3.9-0.8c0.2-0.2,0.4-0.5,0.6-0.7
				c0.2,0.9,0.6,1.7,1.3,2.1c0.6,0.4,1.6,0.1,2.3-0.1c0.8-0.3,1.6-0.7,2.3-1.2c0.9,2.5,3.5,3,5.5,2.2c1-0.4,1.8-0.9,2.7-1.6
				c-0.2,1.8,0,3.4,1.3,4.1c1.3,0.6,3.1-0.5,4.2-1.5c1.3-1.2,2.3-2.8,3-4.4C-271.5,296.7-270.1,292.6-273,290.8z M-297.1,292.6
				c-0.3-1-0.2-3.1,0.4-3.8c-0.1,0.1,0.3,0,0.6,0.1c0.5,0.3,0.6,0.9,0.7,1.4c-0.1,1.3-0.2,2.6-0.2,3.8
				C-296.4,294.1-296.9,293.4-297.1,292.6z M-278.1,303.1C-278.1,303.2-278.1,303.2-278.1,303.1L-278.1,303.1z M-277.2,302
				c-0.2,0.3-0.4,0.6-0.6,0.8c-0.5-0.4-0.5-1.5-0.5-2c0-1.3,0.3-2.5,0.7-3.8c0.4-1.2,0.9-2.5,1.5-3.6c0.2-0.3,0.4-0.5,0.6-0.8
				c1.2,1,0.2,4.7-0.1,5.7C-276,299.7-276.5,300.9-277.2,302z"/>
		</g>
		<g>
			<g>
				<path class="st2" d="M-265.7,322.2c-0.4,0.1-0.8,0.3-1.2,0c-0.6-0.4-0.3-1.7-0.1-2.4c0.5-2.8,1.4-5.7,3.2-7.9
					c0.4-0.5,0.1-1-0.6-1c-0.8,0-1.7,0.3-2,0.9c-2,2.9-2.9,6.2-3.4,9.8c-0.2,1.2-0.1,2.1,1.1,2.6c0.5,0.2,0.9,0.1,2.4-0.6
					C-265.5,323.2-264.8,321.9-265.7,322.2z"/>
				<path class="st2" d="M-270.7,312.1c-0.1,0-0.1-0.1-0.2-0.1h-0.1c-0.7-0.1-1.3-0.1-1.8,0.1c0.3-1.1,0.5-2.3,0.6-3.5
					c0.1-0.5-0.9-0.5-1.1-0.4c-0.7,0.2-1.4,0.7-1.7,1.3c-0.5,1.3-1.1,2.6-1.7,3.8c-0.5,1-1.1,2-1.7,3c-0.3,0.4-0.6,0.8-0.9,1.2
					c-0.3,0.3-0.5,0.5-0.6,0.6c-0.1,0.1-0.2,0.1-0.3,0.2c-0.2,0-0.2-0.1-0.3-0.4c-0.1-0.5-0.2-1.1-0.2-1.7c-0.1-1.9,0.1-3.8,0.4-5.7
					c0.3-1.1,0.5-2.1,0.8-3.1c0.2-0.7-0.8-0.7-1.3-0.5c-0.8,0.2-1.5,0.8-1.7,1.5c-0.2,0.8-0.4,1.6-0.6,2.5c-0.4,1.9-1,3.8-1.8,5.5
					c-0.1,0.3-0.3,0.6-0.4,0.8c-0.2,0.3-0.2,0.3-0.3,0.4l0,0c-0.2,0-0.3,0.1-0.5,0.1c-0.3-0.1-0.4-0.8-0.4-1.8
					c0.1-0.2,0.2-0.5,0-0.7c0.2-2.8,0.8-5.7,1-8.4c0.1-1.4-2.7,0.2-2.7,1.1c-0.1,2.6-0.5,5.3-0.6,7.9c0,0.1,0,0.3,0,0.5
					c-0.6,0.6-1.3,1.2-2,1.2c-0.1,0-0.1,0-0.2,0c0,0-0.1,0-0.1-0.2c-0.2-0.4-0.3-1-0.4-1.5c-0.3-1.9-0.5-3.9-0.4-6
					c0.1-1.1,0.2-2.3,0.3-3.3c0.1-0.7-0.8-0.6-1.2-0.4c-0.7,0.3-1.2,1-1.3,1.7c-0.1,0.8-0.2,1.6-0.2,2.4c-0.2,2-0.4,4-0.9,5.9
					c-0.1,0.3-0.2,0.6-0.3,0.9c-0.1,0.3-0.2,0.4-0.2,0.4l0,0c-0.1,0.1-0.3,0.1-0.4,0.1c-0.5,0-0.7-1.5-0.8-3.4
					c0-0.2,0.1-0.5,0.1-0.7c0-0.2,0-0.3-0.1-0.4c0-2.2,0.1-4.4,0-6.5c-0.1-1.4-2.7,0.6-2.5,1.5c0.3,2.2,0.3,4.5,0.3,6.8
					c0,0,0,0,0,0.1c0,1.1-0.4,2.1-1.5,2.7c-0.1,0.1-0.2,0.1-0.3,0.1l0,0c-0.3-0.2-0.4-0.7-0.5-1c-0.5-1.5-0.4-3.2-0.7-4.7
					c-0.2-1.4-0.5-2.9-1.2-4.2c-1.2-2.3-3.5-0.1-4.3,1.6c-0.3-0.7-0.7-1.3-1.3-1.6c-0.7-0.4-1.7,0.2-2.2,0.8
					c-0.4,0.4-0.6,0.9-0.8,1.3c-0.1-0.3-0.2-0.7-0.3-1c-0.4-1.4-2.5,1.1-2.2,2c0.7,2.1,1.3,4.4,1.8,6.6c-0.4,0.8-0.5,1.8-1,2.6
					c-0.5,0.9-1.1,0.9-1.7,0.1c-0.9-1.2-1.1-2.9-1.5-4.3c-0.4-1.4-0.8-2.9-1.6-4.1c-0.6-0.9-1.5-1.3-2.6-0.8
					c-1.2,0.7-1.8,2.1-2.1,3.3c-0.3-0.6-0.7-1.3-1.1-1.9c-0.6-0.9-2.6,1.9-2,2.7c1,1.4,1.6,3,2.3,4.5c0.8,1.9,1.6,3.9,2.3,5.9
					c0.5,1.3,2.2-1.3,1.8-2.2c-0.7-2-1.2-4-1.4-6.1c-0.1-1.1-0.2-2.5,0-3.6h0.1c0.5,0.1,0.8,0.6,1,1c0.8,1.2,1.2,2.7,1.6,4
					c0.5,1.9,1.4,5.1,3.4,4.8c1.3-0.2,2.3-1.8,2.9-3.3c0.1,0.6,0.3,1.1,0.4,1.7c0.4,1.4,2-1,1.8-1.9c-0.5-2.8-0.9-5.6-0.7-8.4
					c0-0.2,0-0.5,0.1-0.7c0,0,0,0.1,0.1,0.1c0.9,1.4,1.2,3.2,1.5,4.8c0.2,0.7,0.3,1.5,0.4,2.2c0.1,1,0.3,2,0.5,2.9
					c0.3,1.4,2.1-0.9,2-1.8c-0.1-0.7-0.2-1.5-0.3-2.2c-0.1-1.2-0.2-2.5-0.1-3.7c0-1.1,0.1-2.2,0.4-3.2c0.2,0.3,0.3,0.7,0.4,1
					c0.6,1.5,0.8,3,1,4.6c0.2,1.3,0.3,5.5,2.7,4.6c1.1-0.4,2-1.1,2.8-2c0.3,1.1,0.8,1.9,1.9,1.7c1.5-0.3,2.4-1.5,3.1-2.8
					c0.1,0.5,0.2,1,0.4,1.5c0.7,2.4,2.9,0.9,4.7-0.5c0.1,1,0.5,1.9,1.6,1.8c1.5-0.1,2.7-1.1,3.7-2.3c0,0.7,0.1,1.3,0.3,2
					c0.3,0.9,1.1,1,1.9,0.9c0,0.1,0,0.2,0,0.3c-0.1,0.5-0.1,0.9-0.2,1.4c-0.2,1.4,2.4,0,2.5-0.9c0.1-0.7,0.3-1.4,0.4-2.1
					c0.9-0.7,1.6-1.6,2.3-2.5c-0.5,1.9-0.3,4.8,1.8,5.5c2.3,0.7,4.5-2,5.3-4.1C-268.6,316-268.5,313.2-270.7,312.1z M-272.4,319.7
					c-0.1,0.2-0.2,0.3-0.3,0.4c0,0-0.1,0-0.3,0c-1.3-0.3-1.3-2.5-1.1-3.5c0-0.1,0-0.2,0.1-0.4l0,0c0-0.2,0.1-0.4,0.1-0.5
					c0.1-0.4,0.3-0.8,0.5-1.2c0.1-0.1,0.2-0.3,0.3-0.4h0.1c1.4,0.4,1.3,2.5,1.2,3.6C-271.8,318.3-272,319.1-272.4,319.7z"/>
			</g>
		</g>
		<path class="st2" d="M-299.4,350.4c-3.9-1.7-6-4.8-5.9-9c0-0.7,0-1.5,0.1-2.2c0.1-2.2,0.2-4.5-0.2-6.7c-0.1,0.1-0.2,0.2-0.3,0.2
			h-0.2c-0.3,0-0.5-0.2-0.7-0.5c-0.3-0.4-0.4-0.6-0.2-1.3c0.1-0.4,0.3-0.7,0.6-0.9c-0.3-0.4-0.9-0.6-1.7-0.6c-0.2,0-0.4,0-0.5,0
			h-0.8l0.5-0.7c0.9-1.1,1.9-1.8,2.9-2.4h-0.5v-0.2c0-0.7,0.6-1.1,1.2-1.1c0.4,0,0.7,0.1,1,0.3c0.1,0,0.2,0.1,0.3,0.1
			c0.4-0.3,0.8-0.5,1.1-0.5c0.7,0,1.1,0.6,1.4,1.1c0,0,0.1,0,0.2,0c0.4,0,0.9,0.1,1.2,1c0,0.1,0,0.6-0.3,1l2.2,4.6
			c0.2,0.4,0.4,0.8,0.6,1.1c0.6,1.1,1.5,1.7,2.8,1.7c1.9,0,3.6,0.1,5.1,0.3c1.1,0.1,2.2,0.4,3.2,0.9c0.8,0.4,1.3,0.3,1.9-0.4
			c0.8-0.9,1.6-1.8,2.4-2.7l2.1-2.4l0.3,0.4c0.7,0.9,0.6,1.8,0.4,2.6l0.5-0.5l0.2,0.4c0,0.1,0.1,0.2,0.1,0.3
			c0.2,0.2,0.3,0.5,0.3,0.8c0,0.6-0.1,1.2-0.2,1.7c0,0.1,0,0.2,0,0.4c0.1,0.1,0.1,0.1,0.2,0.2c0.2,0.2,0.5,0.5,0.5,0.8v0.3
			c0,0.7-0.1,1.4-0.4,2c-1.3,2.3-3,5-4.8,7.6c-0.6,0.9-1.6,1.7-2.7,2.2c-2.5,1.1-5,1.6-7.4,1.6l0,0
			C-295.2,351.8-297.3,351.3-299.4,350.4z M-279.3,335c-0.1,0.1-0.2,0.2-0.3,0.4c0,0.1-0.1,0.1-0.1,0.2l-0.9,1.3l0.2-1.6
			c0-0.4,0.2-0.7,0.3-1.1c0.2-0.7,0.4-1.3,0.1-2l-1.5,1.7c-0.8,0.9-1.6,1.8-2.4,2.7c-0.8,0.9-1.7,1.1-2.8,0.6c-0.9-0.4-2-0.7-3-0.8
			c-1.5-0.2-3.1-0.3-5-0.3c-1.6,0-2.7-0.7-3.5-2.1c-0.2-0.4-0.4-0.8-0.6-1.2l-2.5-5.3l0.4-0.1c0.1-0.1,0.2-0.3,0.2-0.3l0,0
			c-0.1-0.4-0.2-0.4-0.4-0.4c-0.2,0-0.4,0-0.6-0.1l-0.1-0.1v-0.1c-0.4-0.7-0.7-0.8-0.8-0.8c-0.2,0-0.5,0.1-0.8,0.4l-0.2,0.1
			l-0.2-0.1c-0.2-0.1-0.3-0.1-0.5-0.2c-0.3-0.1-0.5-0.3-0.8-0.2c0,0-0.3,0.1-0.3,0.2l0.8,0.7l-0.6,0.3c-0.9,0.5-1.7,1-2.4,1.7
			c0.8,0,1.7,0.3,2.3,1.3l0.1,0.2l0.4,1.2l0.1,0.2c0,0.2,0.1,0.3,0.1,0.5c0.5,2.4,0.4,4.8,0.3,7.1c0,0.7-0.1,1.4-0.1,2.2
			c-0.1,3.9,1.8,6.8,5.5,8.3c4.1,1.8,8.7,1.7,13.3-0.3c0.9-0.4,1.8-1.1,2.4-1.9c1.8-2.6,3.4-5.3,4.8-7.6c0.3-0.4,0.3-1.1,0.3-1.7
			v-0.2c0,0-0.2-0.2-0.2-0.3c-0.1-0.1-0.2-0.2-0.3-0.3l-0.1-0.1v-0.2c0-0.2,0-0.3,0.1-0.5c0.1-0.5,0.1-1.1,0.1-1.6
			c0-0.1-0.1-0.2-0.2-0.4C-279,334.8-279.2,334.9-279.3,335z M-305.8,330.7c-0.3,0.2-0.3,0.3-0.4,0.5c-0.1,0.4-0.1,0.5,0.1,0.6
			l0.1,0.1c0.4,0.1,0.3-0.2,0.4-0.4L-305.8,330.7L-305.8,330.7z M-294.9,348.2c-3-0.6-4.8-1.8-5.4-3.6c-0.9-2.6,1.3-5.4,1.4-5.5
			l0.2-0.2l11.1,5.7c1.8,0.5,2.5,1,2.5,1.5c0,0.7-1.1,0.9-2,1c-3.4,1-6.2,1.1-7.3,1.1C-294.7,348.3-294.8,348.3-294.9,348.2z
			 M-287.9,345.3l-10.6-5.4c-0.5,0.7-1.7,2.7-1.1,4.5c0.5,1.5,2.2,2.5,4.8,3.1c0,0,0.1,0,0.4,0c1,0,3.8-0.1,7.1-1.1
			c0.5-0.1,1.1-0.2,1.3-0.4C-286.1,346-286.5,345.7-287.9,345.3z"/>
	</g>
	<g id="bubbles" class="st0">
		<path class="st3" d="M-318.9,239.5c0,3.9-3.2,7-7,7c-3.9,0-7.1-3.2-7.1-7c0-3.9,3.2-7.1,7.1-7.1S-318.9,235.6-318.9,239.5
			L-318.9,239.5z"/>
		<path class="st3" d="M-342.8,249.3c0,3-2.4,5.4-5.4,5.4s-5.4-2.4-5.4-5.4s2.4-5.4,5.4-5.4S-342.8,246.3-342.8,249.3L-342.8,249.3z
			"/>
	</g>
</g>
<g id="soon">
	<path class="st3" d="M-236.2,266.7c0,16.3-13.4,29.3-29.3,29.3c-16.3,0-29.8-13.4-29.8-29.3c0-16.3,13.4-29.8,29.8-29.8
		C-249.2,236.9-236.2,250.3-236.2,266.7L-236.2,266.7z"/>
	<g>
		<path class="st2" d="M-279.7,268.2L-279.7,268.2c0,1.2-0.3,2.1-1,2.7c-0.7,0.6-1.6,0.9-2.9,0.9c-1.3,0-2.3-0.4-3.1-1.2
			c-0.8-0.8-1.2-1.8-1.2-3.1v-2.1c0-1.3,0.4-2.3,1.1-3c0.7-0.8,1.7-1.2,2.9-1.2c1.3,0,2.3,0.3,3,0.9s1.1,1.5,1,2.6l0,0h-2.3
			c0-0.6-0.1-1.1-0.4-1.4c-0.3-0.3-0.7-0.4-1.3-0.4c-0.5,0-0.9,0.2-1.2,0.6c-0.3,0.4-0.4,1-0.4,1.7v2.2c0,0.7,0.2,1.3,0.5,1.7
			s0.8,0.6,1.4,0.6c0.5,0,0.9-0.1,1.2-0.4s0.4-0.7,0.4-1.4H-279.7z"/>
		<path class="st2" d="M-275.3,267.5h-0.7v4.1h-2.4v-10.3h2.4v4h0.5l2.3-4h3l-3.2,4.7l3.5,5.6h-3.1L-275.3,267.5z"/>
		<path class="st2" d="M-260.8,267.4c0,1.3-0.4,2.3-1.2,3.1c-0.8,0.8-1.9,1.2-3.1,1.2c-1.3,0-2.4-0.4-3.2-1.2
			c-0.8-0.8-1.2-1.9-1.2-3.1v-1.8c0-1.3,0.4-2.3,1.2-3.1c0.8-0.8,1.9-1.2,3.2-1.2c1.3,0,2.3,0.4,3.1,1.2c0.8,0.8,1.2,1.9,1.2,3.1
			V267.4z M-263.2,265.5c0-0.7-0.2-1.3-0.5-1.8c-0.3-0.5-0.8-0.7-1.5-0.7c-0.6,0-1.1,0.2-1.5,0.7c-0.3,0.5-0.5,1.1-0.5,1.8v1.9
			c0,0.7,0.2,1.4,0.5,1.8c0.3,0.5,0.8,0.7,1.5,0.7c0.6,0,1.1-0.2,1.5-0.7s0.5-1.1,0.5-1.8V265.5z"/>
		<path class="st2" d="M-257,268.1v3.5h-2.4v-10.3h3.9c1.2,0,2.2,0.3,2.9,0.9c0.7,0.6,1.1,1.4,1.1,2.4s-0.4,1.8-1.1,2.4
			c-0.7,0.6-1.7,0.9-2.9,0.9H-257z M-257,266.3h1.5c0.5,0,0.9-0.1,1.2-0.4c0.3-0.3,0.4-0.7,0.4-1.1c0-0.5-0.1-0.8-0.4-1.1
			c-0.3-0.3-0.7-0.4-1.2-0.4h-1.5V266.3z"/>
		<path class="st2" d="M-241.6,267.4c0,1.3-0.4,2.3-1.2,3.1c-0.8,0.8-1.9,1.2-3.1,1.2c-1.3,0-2.4-0.4-3.2-1.2
			c-0.8-0.8-1.2-1.9-1.2-3.1v-1.8c0-1.3,0.4-2.3,1.2-3.1c0.8-0.8,1.9-1.2,3.2-1.2c1.3,0,2.3,0.4,3.1,1.2c0.8,0.8,1.2,1.9,1.2,3.1
			V267.4z M-244,265.5c0-0.7-0.2-1.3-0.5-1.8s-0.8-0.7-1.5-0.7c-0.6,0-1.1,0.2-1.5,0.7c-0.3,0.5-0.5,1.1-0.5,1.8v1.9
			c0,0.7,0.2,1.4,0.5,1.8s0.8,0.7,1.5,0.7c0.6,0,1.1-0.2,1.5-0.7c0.3-0.5,0.5-1.1,0.5-1.8V265.5z"/>
	</g>
</g>
</svg>
