<?xml version="1.0" encoding="utf-8"?>
<!-- Generator: Adobe Illustrator 19.0.0, SVG Export Plug-In . SVG Version: 6.00 Build 0)  -->
<svg version="1.1" xmlns="http://www.w3.org/2000/svg" xmlns:xlink="http://www.w3.org/1999/xlink" x="0px" y="0px"
	 viewBox="-358 229.3 124 137" style="enable-background:new -358 229.3 124 137;" xml:space="preserve">
<style type="text/css">
	.st0{opacity:0.61;}
	.st1{fill:#FFCA59;}
	.st2{fill:#FFFFFF;}
	.st3{fill:#62BC47;}
</style>
<g id="Layer_1">
	<g id="honey" class="st0">
		<path class="st1" d="M-345.7,307.3c0-6,0-11.9,0-17.9c0-7.1,3.1-12.3,9.2-15.9c9.8-5.7,19.5-11.4,29.2-17.3c7.4-4.6,14.5-4.6,22,0
			c9.7,6,19.6,11.7,29.4,17.4c6,3.5,9.1,8.8,9.1,15.7c0,11.8,0,23.6,0,35.5c0,7.4-3.2,13-9.7,16.6c-9.7,5.4-19.3,11-28.8,16.7
			c-7.2,4.3-13.8,4.9-21.3,0.1c-9.4-6-19.4-11.2-29.1-16.7c-6.8-3.8-10.1-9.3-9.9-17.1C-345.5,318.8-345.7,313.1-345.7,307.3
			L-345.7,307.3z"/>
		<g>
			<g>
				<path class="st2" d="M-266.3,310.9c-1.3,0-2.5,0.5-3,1.3c-0.2,0.3-1,1-1.5,1.3c-0.6,0.5-1.3,1-2,1.5c0.3-1.1,0.7-2.2,1-3.3
					c0.7-2.4,1.4-4.8,2.2-7.2c0.4-1.1-1.3-1.3-2.7-0.9c-0.5-0.6-1.1-1.2-1.9-1.5c-0.1-0.1-0.2-0.1-0.4-0.2c-0.1,0-0.2,0-0.3-0.1
					c-4.3-0.9-7.5,2.7-8.7,6.4v0.1c-0.2,0.5-0.3,1-0.4,1.4c-0.6,1.8-1.8,3.3-3.7,4.4c-1.1,0.7-3,1.4-4.2,0.9c-0.7-0.3-1.1-1-1.4-1.8
					c2.4-2.5,4.7-5.1,6.3-8.1c0.9-1.8,1.1-5-2.2-5.7c-3.1-0.7-5.5,1.5-6.7,3.3c-1.3,2.2-1.7,4.7-1.7,7.2c0,1.4,0.1,3,0.5,4.5
					c-0.5,0.4-1.1,0.6-1.6,0.4c-0.1-0.1-0.3-0.1-0.4-0.1c-0.9-0.7-1.5-2.2-1.8-3c-0.9-2.4-1.3-5-1.6-7.6c-0.5-4.2-0.7-8.6-0.1-12.8
					c0.1-0.7-1-0.8-1.7-0.5c-1.2,0.4-2.4,1.2-2.8,2c-1.6,3-2.3,6.3-2.8,9.9v0.1c-0.1-0.3-0.1-0.6-0.2-0.9c-0.5-2.7-1-5.3-1.4-8
					c-0.2-1.6-0.6-3.8-0.2-5.1c0.5-2.2-3.6,0-4.2,1c-3.4,6-2,12.6-1.2,19.7c0.2,1.7,0.2,3.4,0.2,5.2c-0.1,1.2-0.1,3.3-0.9,4.3
					c-0.6,0.7-1.8,0.2-2.4,0c-0.9-0.4-1.6-1.2-1.8-2.2c-0.3-1-1.4-0.3-2,0.3c-0.8,0.8-1.6,2.2-1.3,3.1c0.7,2.2,3.5,4,6,3.1
					c3.7-1.4,4.8-6.2,5.4-9.8c0.4-2.1,0.4-4.3,0.4-6.5c1,3.9,2,7.9,3,11.8c0.5,2,3.5-1.4,3.5-2.6c0-2.8,0.2-5.7,0.6-8.5
					c0.6,3.7,1.8,10.9,6.7,10.8c0.1,0,0.2,0,0.2,0c1.2-0.1,2.3-1,3.4-2c0,0,0,0,0,0.1c2.5,4.5,9.1,0.1,11.9-1.7
					c0.2,2.4,1.1,4.7,3.4,5.4c0.7,0.2,1.4,0.2,2.1,0c-0.4,0.4-0.8,0.8-1.2,1.2c-1.8,1.9-3.4,3.9-4.6,6.2c-0.8,1.5-1.5,3.4-0.8,5
					c1.4,3.1,4.9,0.8,6.3-0.8c2.2-2.6,3.3-6.1,4.2-9.3c0.3-1.1,0.7-2.2,1-3.3c1.4-1.1,2.9-2.1,4.4-3.1c1.8-1.2,3.9-2.3,5.2-4
					C-263.7,311.4-265.6,310.9-266.3,310.9z M-293.7,306c0.1-0.8,0.4-1.6,0.7-2.4c0.1-0.3,0.3-0.6,0.5-0.9l0,0
					c0.1,0,0.2,0.1,0.4,0.1c0.8,0.3,1,1.2,1.1,1.8c0,2.1-1.5,4-2.8,5.7C-294.1,308.8-294,307.4-293.7,306z M-280,310.4
					c0.1-0.5,0.2-1,0.3-1.5c0.2-0.5,0.4-1,0.5-1.5v-0.1c0.2-0.5,0.4-1,0.7-1.4s0.5-0.8,0.9-1.2c2.6,0.9,1.8,5.8,1.5,7.3
					c-0.3,1.5-0.8,3.1-1.6,4.5c-0.2,0.3-0.4,0.6-0.5,0.8c0,0.1-0.2,0.2-0.3,0.4c0,0,0,0-0.1,0C-280.9,316.9-280.3,311.8-280,310.4z
					 M-280.9,330c-0.2,0.4-0.4,0.9-0.7,1.2c0,0,0,0,0,0.1c0,0,0,0-0.1-0.1c-0.1-0.1-0.3-0.2-0.4-0.3c-0.1-0.1-0.1-0.1-0.1-0.1
					s0,0-0.1-0.1c-0.7-1.1,0.3-2.8,0.8-3.7c0.8-1.3,1.7-2.4,2.7-3.5c-0.1,0.5-0.2,1-0.4,1.4C-279.6,326.7-280.1,328.4-280.9,330z"/>
				<path class="st2" d="M-295.5,297.3c1.1,0.3,2.5-0.6,3.2-1.2c0.9-0.9,1.9-2,2-3.2c0.1-1-1.3-0.9-2.2-0.6
					c-1.1,0.4-2.5,1.3-2.5,2.3c0,0.1,0,0.2,0,0.3v0.1l0,0c0,0.1-0.1,0.3-0.2,0.4c-0.1,0.1-0.1,0.2-0.2,0.3s-0.1,0.1-0.1,0.1
					C-296,296.2-296.4,297.1-295.5,297.3z"/>
				<path class="st2" d="M-288.9,296.8c1.5,0.1,2.7-0.7,3.6-1.4c0.8-0.7,1.4-1.5,1.7-2.4c0.3-1-1.6-1-2.5-0.8
					c-1.3,0.3-2.7,1.1-2.9,2.1c0,0.1,0,0.2-0.1,0.2l0,0l0,0c0,0.1-0.1,0.2-0.2,0.3c-0.1,0.1-0.2,0.2-0.3,0.3
					C-290,295.7-290.2,296.8-288.9,296.8z"/>
			</g>
		</g>
		<g>
			<path class="st2" d="M-300.1,353.3c-1.1-0.2-2.1-0.4-3.2-0.6c-0.2,0-0.4-0.1-0.6-0.2c-0.1,0-0.2-0.1-0.3-0.1c0,0-0.1,0-0.2,0
				s-0.3-0.1-0.3-0.1c-0.2-0.4-0.5-0.5-0.9-0.5c-0.2,0-0.3,0-0.5-0.1c-0.5-0.2-0.9-0.5-1.3-0.8c-0.5-0.3-0.9-0.6-1.3-0.9l-0.4-0.3
				c-0.1-0.1-0.2-0.1-0.2-0.2c0-0.5-0.3-0.9-0.6-1.2c-0.1-0.2-0.3-0.4-0.4-0.6c-0.1-0.2-0.2-0.4-0.3-0.5l-0.3-0.4
				c-0.1-0.1-0.2-0.3-0.2-0.4c-0.2-0.6-0.5-1.2-0.6-1.8c0-0.2,0-0.3,0-0.5c0-0.1,0-0.2,0-0.3s0-0.2-0.1-0.3
				c-0.1-0.3-0.3-0.6-0.4-0.9c-0.3-0.6-0.6-1.2-0.8-1.9c-0.2-0.6-0.4-1.4-0.2-2.2c0.1-0.4,0-0.9-0.1-1.4v-0.3
				c-0.1-0.5-0.2-1-0.4-1.6c-0.2-0.5-0.4-1-0.8-1.6c-0.1-0.2-0.3-0.4-0.5-0.7c-0.1-0.1-0.2-0.2-0.3-0.4l-0.1-0.1h0.5
				c0.2,0,0.4,0,0.5,0c1.1-0.1,2-0.5,2.7-1.1c0.1-0.1,0.2-0.1,0.2-0.1c0.1,0,0.1,0,0.2-0.1c0.2-0.1,0.4-0.3,0.6-0.5l0.4-0.2
				c0.3-0.1,0.6-0.2,0.9-0.4c0.1,0,0.3-0.1,0.4-0.1s0.2,0,0.3-0.1c0.2-0.1,0.5-0.2,0.7-0.3l0.3-0.1c0.1,0,0.1-0.1,0.2-0.1
				c0.1-0.1,0.3-0.1,0.4-0.1h0.2c1-0.1,1.9-0.1,2.5-1c0.1-0.1,0.2-0.1,0.3-0.1h0.1c0.2-0.1,0.3-0.1,0.5-0.2c0.4-0.2,0.7-0.3,1.1-0.4
				c0.4,0,0.8-0.2,1.2-0.4c0.4-0.2,0.9-0.4,1.4-0.4c0.2,0,0.4,0,0.6,0.1h0.1c0.3-0.2,0.6-0.2,1-0.2c0.2,0,0.5,0,0.7,0.1
				c0.2,0,0.5,0.1,0.7,0.1c0.1,0,0.2,0,0.3,0h0.1c0.3,0.2,0.7,0.4,1.1,0.5c0.6,0.2,1.1,0.4,1.5,0.9c0.2,0.1,0.5,0.2,0.7,0.3
				c0.5,0.3,1.1,0.5,1.6,0.9c0.3,0.2,0.5,0.4,0.7,0.6c0.2,0.2,0.4,0.4,0.6,0.6c1.2,0.8,2,2,2.6,3.5c0.1,0.3,0.1,0.6,0.1,0.9
				c0,0.1,0,0.2,0,0.3c0,0.1,0,0.1,0,0.2s0,0.1,0,0.2c0.5,0.7,0.4,1.4,0.3,2.1c0,0.3-0.1,0.6,0,0.8v0.2c0,1,0.1,2.2-0.6,3.1
				c-0.8,1.1-1.7,1.6-2.8,1.8c-0.2,0-0.5,0-0.7,0.1h-0.1c0.7,0.2,3,1,4.9,1.6c0.2,0,0.6,0.1,0.9,0.1c0.5,0.1,1,0.1,1.4,0.2
				c0.4,0.1,0.6,0.2,0.8,0.4c0.1,0.2,0.2,0.5,0,1l-1-0.2l-3-0.8c-1.1-0.3-2.2-0.6-3.3-0.9c-0.1,0-0.3-0.1-0.5-0.2
				c-0.3-0.1-0.7-0.3-0.9-0.3c-0.1,0-0.2,0-0.3-0.1c-0.2,0-0.4-0.1-0.5-0.1c-0.4,0.4-0.6,0.9-0.7,1.4c-0.1,0.4-0.1,0.8-0.1,1.3
				s-0.1,1-0.2,1.5c-0.1,0.5-0.4,0.9-0.7,1.3c-0.3,0.3-0.5,0.6-0.7,0.8c-0.2,0.2-0.3,0.3-0.5,0.5c-0.1,0.1-0.2,0.3-0.4,0.4
				c-0.4,0.5-0.7,1-1.6,1c-0.5,0-1,0.2-1.5,0.5c-0.2,0.1-0.5,0.2-0.7,0.3h-0.1C-299.9,353.2-300,353.3-300.1,353.3L-300.1,353.3z
				 M-301.6,352.3v0.1c0.4,0.3,0.7,0.4,1.1,0.4c0.5,0,0.9-0.3,1.3-0.7c0.3-0.4,0.5-0.7,0.6-1.1c0.4-1.3,0.8-2.6,1.2-3.7
				c0.1-0.4,0.3-1.1,0.4-1.6v-0.1c-0.8,0.4-1.4,0.7-1.7,0.9c-0.3,0.2-0.6,0.6-0.8,0.9c-0.2,0.4-0.3,0.9-0.4,1.3
				c-0.2,0.5-0.3,1-0.5,1.5c-0.2,0.5-0.5,1-0.8,1.4c-0.1,0.2-0.2,0.4-0.4,0.5C-301.6,352.3-301.6,352.3-301.6,352.3z M-303.1,351.4
				l-0.3,0.6c0.3,0.4,0.5,0.5,0.8,0.5c0.2,0,0.5-0.1,0.9-0.4V352c0-0.1,0.1-0.2,0.2-0.3c0.7-1.1,1.1-2.3,1.5-3.6
				c0.1-0.4,0.2-0.7,0.3-1.1c-0.2,0.1-0.3,0.1-0.4,0.2c-0.4,0.2-0.7,0.4-1.1,0.5c-0.5,0.2-0.8,0.5-1,1.1l-0.1,0.3
				c-0.1,0.3-0.1,0.5-0.2,0.8c-0.1,0.4-0.3,0.7-0.4,1.1L-303.1,351.4L-303.1,351.4z M-296.6,345.5c-0.4,2.2-1.1,4.9-2.4,7.1
				c0.6-0.2,1.3-0.4,1.9-0.7c0.2-0.1,0.2-0.4,0.3-0.6c0-0.1,0.1-0.2,0.1-0.3c0.2-0.5,0.6-2.2,1-3.8c0.2-1,0.5-1.8,0.6-2.2
				c0-0.1,0-0.1,0-0.1C-295.1,344.8-296.4,345.3-296.6,345.5L-296.6,345.5z M-305.3,351.3L-305.3,351.3c0.3,0.1,0.6,0.2,0.7,0.3
				c0.1,0.2,0.3,0.3,0.4,0.3c0.1,0,0.3-0.1,0.5-0.3l0.5-0.4l0.9-3.2c-0.1,0.1-0.3,0.2-0.5,0.2c-0.7,0.2-1.3,0.3-1.6,0.9
				L-305.3,351.3L-305.3,351.3z M-296.6,351.4c0.2-0.2,0.4-0.5,0.6-0.7c0.2-0.3,0.5-0.6,0.8-0.8c0.5-0.4,0.6-0.9,0.5-1.5
				c0-0.1,0-0.3,0-0.4v-0.2l0.2-0.1l0.3,1.3c0.1-0.2,0.1-0.4,0.2-0.6c0-0.1,0.1-0.2,0.1-0.3s0.1-0.8,0.2-1.4
				c0.1-0.8,0.2-1.6,0.3-1.8l0.1-0.3l-0.4,0.5l-0.2-0.1l0,0v-0.1l0.6-0.8l-0.5,0.2l-0.1-0.1l0,0l0,0l0,0c-0.2,0.1-0.4,0.2-0.7,0.4
				L-296.6,351.4z M-306.8,349.2l-2,0.2c0.4,0.5,0.8,1,1.5,1c0.1,0,0.2,0.1,0.3,0.2c0.2,0.4,0.4,0.6,0.8,0.6c0.3,0,0.7-0.2,0.9-0.6
				c0.1-0.2,0.3-0.5,0.4-0.7l0.2-0.3V349L-306.8,349.2z M-298,342c-0.1,0-0.2,0-0.3,0c-1.7,0.7-3.4,1.4-5.1,2.1l-1.5,0.7
				c-0.1,0.1-0.3,0.2-0.4,0.3l-0.5,0.5c-1.1,1-2.2,2.1-3.8,2.4c0.4,0.7,0.9,1.1,1.8,1.1c0.1,0,0.2,0,0.3,0c2.4-0.1,4.7-0.8,7.1-2
				c0.6-0.3,2-1,3.3-1.6c1-0.5,2-0.9,2.5-1.2h0.1l0,0l0.3-0.2l0.3-0.1l-1.2-0.6c-0.2-0.2-0.5-0.3-0.8-0.4c-0.2-0.1-0.5-0.2-0.7-0.4
				c0,0-0.1-0.1-0.2-0.1s-0.3-0.1-0.4-0.2C-297.4,342.1-297.7,342-298,342z M-310.6,346c0.1,0.2,0.2,0.3,0.2,0.5
				c0.1,0.1,0.1,0.2,0.2,0.3c0.1,0.1,0.2,0.3,0.3,0.4c0.1,0.3,0.2,0.3,0.4,0.3c0.1,0,0.1,0,0.2,0c1.4-0.3,2.3-1.2,3.2-2.1
				c-1.1,0.4-2.2,0.5-3,0.5c-0.5,0-1.1,0-1.6-0.1L-310.6,346z M-311.7,342.4c0.1,0.3,0.3,0.5,0.4,0.8c0,0.1,0.1,0.4,0.1,0.6
				c-0.1,0.2,0,0.6,0.3,1c0.2,0.3,0.5,0.6,0.7,0.6c0.4,0.1,0.8,0.1,1.2,0.1c1.4,0,2.7-0.5,3.7-0.9c1.7-0.7,3.5-1.5,5.2-2.3l1.5-0.6
				c0.1,0,0.1-0.1,0.2-0.1l0.2-0.1c-0.3,0-0.5-0.2-0.8-0.3c-0.6-0.3-1.1-0.5-1.7-0.8c-0.2-0.1-0.5-0.2-0.7-0.2
				c-0.2,0-0.5,0.1-0.7,0.2l-0.1-0.1l0.4-0.5c-0.2,0-0.4-0.1-0.6-0.2c-0.4-0.2-0.9-0.4-1.3-0.7c-0.3-0.2-0.6-0.3-0.9-0.3
				c-0.3,0-0.6,0.1-0.9,0.3l-0.1-0.1l0.6-0.6l-0.6-0.3c-0.6-0.3-1.2-0.7-1.7-1c-0.1,0-0.2-0.1-0.3-0.1s-0.2,0-0.2,0
				c-0.8,0.4-1.7,0.6-2.7,0.6h-0.2c-0.3,0-0.5,0-0.8,0h-1.3v0.1c0,0.1,0,0.2,0,0.3c-0.2,1.1,0,1.2,1.1,1.5c0.2,0,0.3,0,0.5,0.1
				c0.2,0,0.4,0,0.6,0c1.7,0,3.4-0.4,5.1-0.8l0.1,0.1c-0.1,0-0.1,0.1-0.2,0.1c-0.1,0.1-0.2,0.2-0.4,0.2l-0.6,0.1
				c-1.2,0.3-2.4,0.6-3.7,0.6c-0.7,0-1.3-0.1-1.9-0.3c-0.1,0-0.2,0-0.2,0c-0.1,0-0.2,0-0.3,0.1c0,0.1-0.1,0.2,0,0.3l0.1,0.2
				c0.2,0.6,0.4,1.3,1.1,1.6c0.7,0.3,1.4,0.5,2.2,0.5c0.6,0,1.2-0.1,1.8-0.2c1-0.2,2-0.5,3-0.8c0.4-0.1,0.9-0.3,1.3-0.4v0.1
				l-0.7,0.3c-1.7,0.7-3.5,1.4-5.4,1.4c-0.9,0-1.8-0.2-2.6-0.5L-311.7,342.4z M-292,343.1h0.1c0.1,0.1,0.2,0.1,0.3,0.2
				c0.1,0,0.2,0,0.2,0h0.4c1.6-0.4,2.8-1.5,3.4-3c0.2-0.4,0.2-0.9,0.2-1.4c0-0.2,0-0.4,0-0.6h-0.1l-0.2,0.2l-0.4,0.3
				c0,0,0.2-0.6,0.3-0.8c0.2-0.4,0.3-0.9,0.4-1.3c0-0.1,0-0.2,0-0.3h-0.1c-0.1,0-0.2,0-0.3,0.1l-0.1-0.1c0.3-0.6,0.3-1.3,0.3-1.9
				l-0.4,0.3l-2.6,1.2l0.2-0.6c0.1-0.3,0.2-0.6,0.3-0.8c0.1-0.2,0.1-0.5,0-0.6c-0.7-0.7-0.7-1.5-0.8-2.4v-0.4
				c-0.1-0.8-0.2-1.6-1.2-1.9c-0.4-0.1-0.8-0.5-1.1-0.8c-0.1-0.1-0.3-0.3-0.4-0.4l-0.6-0.3c-0.5-0.3-1-0.5-1.6-0.8
				c-0.2-0.1-0.4-0.1-0.6-0.1c0,0-0.2,0-0.3,0s-0.5,0-0.5,0h-0.8c-0.8,0-1.7,0-2.5,0c-0.1,0-0.1,0-0.2,0.1c0,0-0.1,0.1-0.2,0.1
				l-0.9,0.3c-0.7,0.2-1.3,0.5-1.9,0.7c-0.1,0.1-0.3,0.2-0.4,0.3c-0.1,0.1-0.1,0.1-0.2,0.2l-0.9,0.5c-0.2,0.4-0.5,0.4-0.7,0.4
				c-0.1,0-0.2,0-0.3,0c-0.1,0-0.2,0-0.3,0c-0.2,0-0.3,0-0.4,0.1l0.6,1.3l-0.1,0.1l-1-1.4l-0.7,0.3l-0.7,0.2h0.1l0.1,0.5h-0.1
				l-0.4-0.6c0,0.1-0.1,0.1-0.2,0.1c-0.2,0.1-0.3,0.2-0.5,0.2c-0.4,0.1-0.6,0.1-0.6,0.2c0,0.1,0.1,0.3,0.3,0.7l-0.1,0.1
				c-0.3-0.2-0.5-0.3-0.7-0.3c-0.3,0-0.5,0.1-0.6,0.4l0.4,0.5l0.1,0.1l0,0c0.1,0.1,0.2,0.3,0.3,0.4c0.2,0.3,0.4,0.7,0.5,1
				c0.2,1,0.8,1.4,1.6,1.8c0.2,0.1,0.4,0.2,0.6,0.3l-0.6-2.3h0.1l0.8,2.2v0.1c0,0.1,0.1,0.3,0.1,0.3c0.7,0.4,1.3,0.8,2,1.1l0.6,0.4
				v-0.1l-1.4-3h0.1l1.5,3l0.1,0.1c0.1,0.1,0.1,0.3,0.2,0.3c0.7,0.4,1.5,0.8,2.3,1.2l0.7,0.4l-0.5-1.3h0.1l0.2,0.3
				c0.2,0.3,0.3,0.5,0.5,0.8l0.1,0.1c0.1,0.1,0.2,0.3,0.3,0.4c0.7,0.4,1.4,0.7,2.2,1.1l0.8,0.4v-0.2c0-0.2-0.1-0.4-0.1-0.6
				c-0.1-0.4-0.3-0.8-0.4-1.2l-0.2-0.5h0.1c0.1,0.2,0.2,0.4,0.3,0.7c0.2,0.5,0.5,1,0.6,1.6c0.1,0.5,0.5,0.7,0.9,0.8
				c0.2,0.1,0.4,0.2,0.6,0.3c0.3,0.2,0.7,0.3,1,0.5c0,0,0.1,0,0.2,0h0.1l-0.1,0.1l1.4,0.4l-0.1-0.2v-0.4h0.2h0.1l0.3,0.7l0.2-0.6
				h0.1l0.1,0.6l0.7-0.5L-292,343.1C-292.1,343.1-292,343.1-292,343.1z M-312.2,337.3c0.1,0,0.3,0,0.4,0c0.3,0,0.7,0,1,0
				c0.9,0,2-0.1,3.1-0.7l-0.7-0.3c-0.5-0.3-1-0.6-1.5-0.9c-0.1-0.1-0.3-0.1-0.5-0.1c-0.1,0-0.1,0-0.2,0c-0.6,0.1-1.2,0.3-1.8,0.4
				l-0.7,0.2l0.4,1.4C-312.5,337.3-312.4,337.3-312.2,337.3z M-313.9,333.4c0.3,0.4,0.5,0.8,0.6,1.3c0.2,0.7,0.3,0.9,0.6,0.9
				c0.2,0,0.4-0.1,0.8-0.1c0.3-0.1,0.6-0.2,0.9-0.2l0.3-0.1l-3.5-2.1C-314.1,333.1-314,333.2-313.9,333.4z M-288.5,333.1
				c-0.2,0.2-0.4,0.3-0.6,0.5c-0.1,0-0.1,0.1-0.2,0.1c-0.1,0.1-0.2,0.1-0.2,0.2c-0.1,0.3-0.2,0.6-0.3,1l-0.1,0.4
				c0.2-0.1,1.3-0.4,1.7-0.8C-287.7,334.1-288.2,333.2-288.5,333.1L-288.5,333.1z M-310.9,334.1l0.6,0.3v-0.1l-0.8-2.1
				c-0.3-0.2-0.6-0.3-0.9-0.3c-0.4,0-0.8,0.2-1.2,0.3c-0.3,0.1-0.5,0.2-0.8,0.3L-310.9,334.1z M-290.4,331c-0.4,1-0.1,2,0.7,2.7
				C-289.1,332-289.2,331.5-290.4,331z M-289.1,332.4l-0.1,0.9l0.8-0.5c0-0.4-0.2-0.5-0.5-0.7c-0.1,0-0.2-0.1-0.2-0.1V332.4z"/>
			<path class="st2" d="M-283.9,345.5c-0.8-0.1-1.9-0.3-2.4-0.3c0,0-5.2-1.6-5.2-1.7c0.3,0,0.7,0,1-0.1c1.2-0.1,2.1-0.8,2.8-1.7
				c0.7-1,0.6-2.2,0.6-3.3c0-1,0.4-2-0.3-2.9c-0.1-0.1,0.1-0.3,0-0.4c0-0.4,0-0.8-0.1-1.2c-0.5-1.4-1.4-2.6-2.6-3.5
				c-0.5-0.3-0.8-0.9-1.3-1.2c-0.7-0.5-1.6-0.8-2.3-1.2c0.5,0.4,1,1,1.6,1.2c1,0.4,1.2,1.2,1.2,2c0.1,1,0,2,0.8,2.8
				c0.1,0.1,0.1,0.5,0,0.7c-0.1,0.4-0.3,0.8-0.4,1.3c1-0.5,2-0.9,2.9-1.4c0,0.6,0,1.3-0.3,1.9c0.4-0.3,0.6-0.2,0.5,0.2
				c-0.1,0.7-0.4,1.3-0.6,1.9c0.2-0.1,0.3-0.3,0.5-0.4c0.1,0,0.1,0,0.2,0.1c0,0.7,0.1,1.5-0.2,2.1c-1.1,2.6-3.5,3-3.5,3
				c-0.2,0-0.4,0-0.7,0c-0.2,0-0.3-0.2-0.5-0.3c0-0.1,0.1-0.3,0.2-0.4c-0.2,0.1-0.4,0.3-0.6,0.5v-0.7h-0.1c-0.1,0.2-0.2,0.4-0.3,0.7
				c-0.1-0.3-0.2-0.5-0.3-0.8h-0.1c0,0.2,0,0.4,0.1,0.7c-0.5-0.2-1-0.3-1.4-0.5l0,0c-0.1,0-0.1,0-0.2-0.1c-0.5-0.3-1-0.5-1.6-0.8
				l0,0c-0.4-0.1-0.8-0.3-1-0.9c-0.2-0.8-0.6-1.5-0.9-2.3c0.2,0.5,0.4,1.1,0.5,1.6c0.1,0.3,0.1,0.5,0.2,0.9c-1.1-0.5-2.1-1-3.1-1.5
				c-0.2-0.1-0.3-0.3-0.4-0.5c-0.2-0.4-0.4-0.8-0.7-1.1c0.1,0.4,0.3,0.8,0.5,1.4c-1.2-0.6-2.2-1.1-3.2-1.6c-0.1-0.1-0.2-0.3-0.3-0.5
				c-0.5-1-1-2-1.5-3c0.5,1,0.9,2,1.4,3l-0.1,0.1c-0.9-0.5-1.8-1-2.6-1.5c-0.1-0.1-0.2-0.3-0.2-0.5c-0.3-0.7-0.5-1.5-0.8-2.2
				c0.2,0.8,0.4,1.5,0.6,2.5c-1-0.6-2.2-0.8-2.4-2.2c-0.1-0.5-0.5-0.9-0.8-1.4l0,0c0.3,0.7,0.6,1.5,0.9,2.2l-0.1,0.1
				c-0.2-0.1-0.4-0.2-0.6-0.3c-1-0.5-2.1-1-3.2-1.6c1.1-0.2,2-1.2,3-0.3l0,0l0,0l0,0c-0.1-0.2-0.3-0.4-0.5-0.7
				c0.3-0.5,0.8-0.6,1.5-0.2c-0.5-0.8-0.5-0.8,0.4-1c0.2,0,0.5-0.2,0.7-0.3c0.1,0.2,0.3,0.4,0.4,0.6c0-0.2-0.1-0.4-0.1-0.6
				c0.4-0.2,0.9-0.3,1.4-0.5c0.3,0.4,0.6,0.9,1,1.4c-0.2-0.5-0.4-0.9-0.6-1.4c0.6-0.3,1.3,0.3,1.7-0.5c0.3-0.2,0.6-0.3,0.9-0.5
				c0.2-0.2,0.4-0.4,0.6-0.5c0.9-0.4,1.9-0.7,2.8-1c0.1,0,0.2-0.2,0.4-0.2c1.1,0,2.2,0,3.3-0.1c0.2,0,0.4,0,0.7,0
				c0.2,0,0.5,0,0.7,0.1c0.7,0.4,1.5,0.8,2.2,1.1c-0.7-0.8-1.8-0.9-2.6-1.5c0,0,0,0-0.1,0c-0.8,0.1-1.7-0.4-2.5,0.1
				c-0.1,0-0.2,0-0.3,0c-1.2-0.5-2.1,0.6-3.3,0.7c-0.5,0-1.1,0.4-1.6,0.6c-0.1,0-0.3,0-0.4,0.1c-0.7,0.9-1.7,1-2.7,1
				c-0.2,0-0.4,0.2-0.6,0.2c-0.3,0.1-0.6,0.3-1,0.4c-0.2,0.1-0.5,0.1-0.7,0.2c-0.4,0.2-0.8,0.3-1.3,0.5c-0.2,0.2-0.4,0.4-0.6,0.5
				c-0.1,0.1-0.3,0.1-0.4,0.2c-0.8,0.7-1.7,1.1-2.7,1.2c-0.3,0-0.5,0-0.9,0.1c0.4,0.4,0.7,0.7,0.9,1.1c0.3,0.5,0.6,1,0.8,1.6
				c0.2,0.5,0.3,1.1,0.4,1.6c0.1,0.6,0.2,1.2,0.1,1.8c-0.2,0.8,0,1.5,0.2,2.2c0.3,1,0.8,1.8,1.2,2.8c0,0.1,0.1,0.2,0.1,0.4
				c0,0.3-0.1,0.5,0,0.8c0.2,0.6,0.4,1.2,0.6,1.8c0.1,0.2,0.2,0.3,0.3,0.5c0.2,0.3,0.4,0.5,0.5,0.8c0.3,0.6,1,1,0.9,1.8
				c0,0.1,0.1,0.1,0.2,0.2c0.5,0.4,1.1,0.8,1.6,1.2c0.4,0.3,0.9,0.6,1.3,0.8c0.5,0.2,1.1,0,1.4,0.7c0,0.1,0.3,0.1,0.4,0.1
				c0.3,0.1,0.6,0.2,0.9,0.3c1.1,0.2,2.1,0.4,3.2,0.6c0.1,0,0.3-0.1,0.4-0.1c0.7-0.3,1.5-0.7,2.2-0.7c1.1,0,1.3-0.9,1.9-1.4
				c0.4-0.4,0.8-0.8,1.2-1.2c0.3-0.4,0.7-0.8,0.8-1.3c0.2-0.9,0.2-1.9,0.3-2.8c0.1-0.5,0.3-1,0.6-1.4c0.1-0.1,0.6,0.1,1,0.1
				c0.2,0,1.1,0.4,1.4,0.5c1.5,0.4,3,0.8,4.6,1.3c0.9,0.2,1.8,0.5,2.7,0.7C-283,346.1-283.2,345.7-283.9,345.5z M-290.5,331
				c1.3,0.5,1.4,1,0.7,2.8C-290.6,333-290.9,332-290.5,331z M-288.1,334.5c-0.5,0.4-1.8,0.8-1.8,0.7c0.2-0.5,0.3-0.9,0.5-1.4
				c0.1-0.1,0.3-0.2,0.4-0.3c0.2-0.2,0.5-0.4,0.7-0.6l0,0c-0.3,0.2-0.5,0.3-0.9,0.5c0.1-0.6,0.1-1,0.2-1.4c0.4,0.3,0.8,0.3,0.8,0.9
				l0,0l0,0C-288.4,332.9-287.5,334-288.1,334.5z M-300.3,340.2c0.9,0.4,1.8,0.9,2.7,1.3c0,0,0,0.1-0.1,0.1
				c-0.9-0.4-1.8-0.9-2.7-1.3C-300.3,340.2-300.3,340.2-300.3,340.2z M-313.4,334.6c-0.2-0.6-0.6-1.2-1-1.9c1.2,0.8,2.5,1.5,3.8,2.3
				c-0.5,0.1-0.9,0.2-1.3,0.4C-313,335.7-313,335.6-313.4,334.6z M-313.1,335.9c0.8-0.2,1.7-0.4,2.5-0.6c0.2,0,0.5,0,0.7,0.1
				c0.7,0.4,1.4,0.8,2.2,1.3c-1.7,1-3.4,0.7-5,0.7C-312.9,336.8-313,336.4-313.1,335.9z M-311.3,343.8c0.1-0.2,0-0.4-0.1-0.5
				c-0.2-0.4-0.4-0.7-0.6-1.2c3.2,1.3,6,0,8.8-1.1c-1.4,0.4-2.9,0.9-4.3,1.2c-1.4,0.3-2.7,0.4-4.1-0.2c-0.8-0.4-1-1.1-1.2-1.9
				c-0.1-0.3,0.2-0.5,0.6-0.4c2.1,0.6,4.2,0,6.2-0.5c0.2,0,0.4-0.2,0.5-0.3c-1.9,0.4-3.7,0.8-5.7,0.7c-0.2,0-0.4,0-0.5-0.1
				c-1.1-0.2-1.3-0.4-1.1-1.5c0-0.2,0-0.3,0-0.5c0.7,0,1.4,0,2.1,0c1,0,2-0.1,2.9-0.6c0.2-0.1,0.4-0.1,0.6,0
				c0.8,0.4,1.6,0.9,2.4,1.3c-0.2,0.2-0.4,0.4-0.6,0.6c0.6-0.4,1.2-0.4,1.8,0c0.6,0.4,1.2,0.6,1.9,1c-0.2,0.2-0.3,0.4-0.4,0.5
				c0.5-0.3,0.9-0.3,1.4,0c0.8,0.4,1.6,0.8,2.4,1.2c-0.2,0.1-0.3,0.2-0.4,0.2c-2.2,1-4.5,1.9-6.7,2.9c-1.6,0.7-3.2,1.2-5,0.8
				C-310.9,345.4-311.5,344.3-311.3,343.8z M-310,347.2c-0.1-0.3-0.3-0.5-0.5-0.7c-0.1-0.2-0.2-0.4-0.4-0.8c1.8,0.1,3.4,0.2,5-0.5
				c-1,1-1.9,2.1-3.4,2.3C-309.6,347.6-309.8,347.6-310,347.2z M-293.7,343.8c-0.3,0.2-0.5,0.3-0.7,0.4l0,0l0,0l0.1,0.1
				c-0.1,0,0.5-0.2,0.4-0.1c0.2-0.1,0.4-0.1,0.7-0.2c-0.3,0.4-0.5,0.7-0.7,0.9l0.1,0.1c0.2-0.2,0.3-0.3,0.6-0.6
				c-0.1,0.3-0.1,0.4-0.1,0.5c-0.1,0.4-0.4,2.9-0.5,3.1c-0.1,0.4-0.2,0.8-0.4,1.1c-0.1-0.5-0.2-0.9-0.3-1.4c-0.1,0-0.1,0-0.2,0
				c0,0.2,0.1,0.4,0.1,0.6c0,0.6,0,1.1-0.5,1.5c-0.5,0.5-0.9,1.1-1.5,1.7l1.9-7.1c0,0-0.2,0.1-0.3,0.1c0,0,0,0.1-0.1,0.2
				c-0.3,1.1-1.3,5.2-1.6,6c-0.1,0.3-0.2,0.8-0.4,1c-0.6,0.4-1.3,0.6-2,0.8c1.3-2.1,2-4.9,2.4-7.2c-0.1,0-0.1,0-0.3,0.1
				c-0.1,0.5-0.3,1.3-0.5,1.8c-0.4,1.2-0.8,2.5-1.2,3.7c-0.1,0.4-0.4,0.8-0.6,1.1c-0.7,0.9-1.6,1-2.4,0.4c-0.1,0,0-0.2,0-0.3l0,0
				l0,0l0,0c-0.9,0.6-1.1,0.5-1.8-0.1c0.1-0.2,0.2-0.5,0.3-0.7l0,0l0,0l0,0c-0.2,0.1-0.3,0.3-0.5,0.4c-0.3,0.3-0.6,0.5-1-0.1
				c-0.1-0.2-0.5-0.3-0.7-0.4c0.2-0.6,0.6-1.5,0.9-2c-0.2,0.3-0.5,1-0.7,1.3c-0.5,0.9-1.4,0.9-1.8,0c0-0.1-0.2-0.2-0.2-0.2
				c-0.8,0-1.2-0.6-1.5-1.1c1.3-0.1,2.7-0.3,4.1-0.4c0,0.2,0,0.5,0,0.7c0.4-1.1,1.4-1.1,2.4-1.4c-0.3,1.1-0.6,2.2-0.9,3.2l0,0
				c0.2-0.5,0.4-1,0.6-1.5c0.1-0.4,0.2-0.7,0.3-1.1c0.1-0.6,0.5-0.9,1-1.1c0.5-0.2,1-0.5,1.6-0.8c-0.6,1.7-0.9,3.4-1.9,4.8
				c-0.1,0.1-0.1,0.3-0.2,0.5l0,0c0.4-0.7,0.9-1.3,1.2-2c0.4-0.9,0.6-1.9,1-2.8c0.1-0.4,0.5-0.7,0.8-0.9c0.6-0.4,3.7-1.8,4.7-2.3
				c-0.1,0-0.3,0.1-0.4,0.1c0,0,0-0.1-0.1-0.1c-1.2,0.6-4.6,2.2-5.8,2.8c-2.3,1.1-4.6,1.9-7.2,2c-1,0.1-1.7-0.1-2.1-1.2
				c1.8-0.3,3-1.6,4.2-2.8c0.1-0.1,0.3-0.2,0.4-0.3c2.2-1,4.4-1.9,6.6-2.8c0.5-0.2,1.1,0.2,1.5,0.3l0,0c0.1,0,0.1,0,0.2,0.1
				c0.4,0.3,1.1,0.4,1.4,0.8l0,0c0.2,0.1,0.4,0.2,0.6,0.3C-294.2,343.5-294,343.6-293.7,343.8z"/>
			<path class="st2" d="M-304.4,329h-0.1c-0.1,0-0.2,0-0.3,0c-0.1,0-0.2,0-0.3,0.1l0,0l0,0l0,0c0.1-0.1,0.3-0.2,0.4-0.3
				c0.2-0.1,0.3-0.3,0.5-0.4l0.4-0.2l0.1,0.1c-0.4,0.5-0.2,0.9,0,1.3c0.1,0.2,0.3,0.4,0.3,0.7v0.2L-304.4,329z"/>
			<path class="st2" d="M-303.6,330.1c-0.3-0.4-0.6-0.7-0.8-1.1c-0.3-0.1-0.4-0.2-0.8,0c0.3-0.2,0.6-0.5,0.9-0.7
				c0.1-0.1,0.2-0.1,0.4-0.2C-304.6,329-303.6,329.4-303.6,330.1z"/>
			<path class="st2" d="M-294.2,339.5c-1.8-4.2-4-8.9-6.4-12.8l0.1-0.1c0.1,0.1,0.1,0.1,0.1,0.1s0-0.1,0.1-0.1c0,0,0.1,0,0.2,0.1
				s0.3,0.4,0.5,0.7c0.4,0.6,1,1.5,1.1,1.6l0.1-2.2h-0.6l-0.6-0.1v-0.1c0.4,0,0.7-0.1,1.2-0.1c0.5-0.1,1-0.2,1.5-0.2
				c0.7,0,1.3,0.2,1.7,0.6l0.2,0.1h-0.2h-0.1c-0.1,0-0.3,0-0.3,0l-0.1,0.6c-0.2,0.9-0.4,1.7-0.6,2.6c-0.1,0.2-0.1,0.4-0.2,0.5
				c-0.7,0.8-0.4,1.6,0.1,2.5c0.2,0.3,0.3,0.6,0.5,1c0.1,0.1,0.1,0.3,0.2,0.4c0.7-1.5,1.1-2.9,1.4-4.4c0.1-0.4,0.1-0.7,0.1-1.1
				c0-0.2,0-0.4,0-0.6c0.1-0.5,0-0.9-0.4-1.1l-0.1-0.1v-0.1l1.2,0.6c0,0.1-0.1,0.2-0.1,0.2c-0.1,0.1-0.2,0.1-0.2,0.2
				c-0.1,2-0.6,4.1-1.6,6.6c-0.1,0.2-0.1,0.4,0,0.5c0.3,0.8,0.7,1.5,1,2.4l0.3,0.7l0.2-0.4c0.2-0.3,0.3-0.7,0.5-1
				c1-2.2,1.9-4.5,1.7-7.1c0-0.2-0.1-0.3-0.1-0.5l-0.1-0.2l0.7,0.1c0,0.1,0,0.2-0.1,0.2c-0.1,0.1-0.2,0.2-0.2,0.3
				c0.1,1.9-0.3,3.7-1.2,6.1c-0.1,0.3-0.3,0.6-0.4,1c-0.2,0.4-0.4,0.8-0.5,1.2c-0.1,0.3-0.2,0.6-0.3,0.9c0,0.1-0.1,0.6-0.1,0.6
				L-294.2,339.5z M-297.6,326.8c-0.3,0-0.4,0.1-0.5,0.2c-0.1,0.1-0.1,0.2-0.1,0.4c0.1,0.4,0.1,0.9-0.1,1.3c-0.4,0.9,0,1.5,0.4,2.3
				c0.1,0.2,0.3,0.4,0.4,0.7c0.7-1.2,0.9-2.5,1.1-3.6c0.1-0.5,0.1-0.9,0-1c-0.1-0.1-0.3-0.2-0.8-0.2
				C-297.3,326.8-297.4,326.8-297.6,326.8z"/>
			<path class="st2" d="M-295.4,327c-0.2,0-0.4,0-0.5,0c-0.3,1.1-0.5,2.2-0.8,3.2c0,0.2-0.1,0.3-0.2,0.5c-0.7,0.9-0.4,1.7,0.1,2.6
				c0.3,0.4,0.4,0.9,0.7,1.5c0.7-1.5,1.2-3,1.4-4.5c0.1-0.6,0.1-1.1,0.2-1.7c0.1-0.5,0-1-0.6-1.3c0.4,0.2,0.8,0.4,1.2,0.6
				c-0.1,0.1-0.3,0.2-0.3,0.3c-0.1,2.3-0.7,4.5-1.6,6.6c-0.1,0.2-0.1,0.4,0,0.6c0.4,1,0.9,2,1.4,3.2c0.3-0.6,0.5-1,0.7-1.5
				c1-2.3,1.9-4.6,1.7-7.1c0-0.2-0.1-0.5-0.1-0.7c0.3,0.1,0.6,0.1,0.8,0.2c-0.1,0.2-0.3,0.3-0.3,0.5c0.1,2.1-0.4,4.1-1.2,6.1
				c-0.3,0.7-0.7,1.4-0.9,2.2c-0.2,0.4-0.2,0.9-0.4,1.4c-1.8-4.1-4-8.9-6.4-12.8c0.2,0.3,0.1-0.2,0.3,0.1c0.2,0.3,1.5,2.4,1.6,2.3
				c0.1-0.7,0.1-1.5,0.2-2.2c-0.4,0-1-0.1-1.3-0.1C-298.3,326.7-296.7,326-295.4,327z M-297.5,331.6c0.8-1.2,1-2.4,1.2-3.6
				c0.2-1.2,0-1.3-1.3-1.3c-0.5,0-0.7,0.2-0.6,0.7c0,0.4,0.1,0.9-0.1,1.2C-298.9,329.8-298,330.6-297.5,331.6z"/>
			<path class="st2" d="M-298.5,338.4c-0.1-0.1-0.2-0.2-0.2-0.3c-0.5-0.9-1.5-2.4-2.4-3.9c-1-1.6-2-3.2-2.6-4.3
				c-0.1-0.1,0-0.2,0-0.2l0.1-0.1c0.2,0.3,0.7,1,1.3,1.8c0.5,0.7,1.1,1.5,1.4,1.9c0-1.8-1.6-4.6-2.1-5.5l0.1-0.1
				c0.9,1,2.3,3.5,2.3,4.9c0,0.9,0.3,1.7,0.7,2.5c0.4,0.8,0.8,1.6,1.2,2.4c0.2,0.3,0.3,0.7,0.5,1l-0.1,0.1L-298.5,338.4z"/>
			<path class="st2" d="M-298.3,338.5c-0.1-0.2-0.3-0.3-0.4-0.5c-1.1-2-3.9-6.2-5-8.2c-0.1-0.1,0.1-0.1,0-0.3
				c0.4,0.5,2.3,3.2,2.8,3.8c0.1-1.7-1.4-4.4-2.1-5.7c0.9,1,2.3,3.5,2.3,4.9c0,0.9,0.3,1.7,0.8,2.5
				C-299.4,336.2-298.9,337.4-298.3,338.5z"/>
			<path class="st2" d="M-304.5,333.6c-0.1-0.1-0.1-0.1-0.2-0.2c-0.2-0.1-0.3-0.3-0.4-0.4c-0.3-0.5-0.6-1-0.9-1.5l-0.3-0.6l0.1-0.1
				L-304.5,333.6L-304.5,333.6z"/>
			<path class="st2" d="M-304.5,333.5c-0.2-0.2-0.5-0.4-0.6-0.6c-0.4-0.7-0.8-1.4-1.2-2.1C-305.7,331.7-305.1,332.6-304.5,333.5z"/>
			<polygon class="st2" points="-305.4,351.3 -305.5,350.9 -304.6,348.8 -304.4,349.2 -305.3,351.4 			"/>
			<polygon class="st2" points="-305.4,350.9 -304.6,348.9 -304.5,349.3 -305.4,351.3 			"/>
			<path class="st2" d="M-303.3,352.4c-0.1,0-0.6-0.2-0.7-0.3l-0.1-0.1h0.1c0,0,0.7-0.3,1.1-1.9l0.1-0.2l0.1,0.5
				c-0.3,0.9-0.6,1.8-0.6,1.9V352.4z"/>
			<path class="st2" d="M-304,352c0,0,0.7-0.2,1.2-2l0.1,0.3c0,0-0.7,1.8-0.5,1.9C-303.2,352.4-304,352-304,352z"/>
			<path class="st2" d="M-302.1,352.5c0-0.1,0.5-0.6,1.3-2.2h0.1l-0.1,0.6c-0.4,0.7-0.9,1.5-0.8,1.6l0.1,0.1L-302.1,352.5z"/>
			<path class="st2" d="M-302,352.4c0,0,0.6-0.5,1.3-2.1l-0.1,0.6c0,0-1,1.5-0.8,1.6L-302,352.4z"/>
			<path class="st2" d="M-294.7,348l-0.5-2.3l0.1-0.4h0.1l0.6,2.8c0.1,0.4,0.2,0.8,0.2,0.8l0.1-0.2v0.2v0.3l-0.5,0.4L-294.7,348z"/>
			<path class="st2" d="M-294.7,347.9l-0.5-2.3l0.1-0.4l0.6,2.8c0,0,0.2,1,0.3,0.8v0.3l-0.4,0.3L-294.7,347.9z"/>
			<path class="st2" d="M-310.3,334.5c-0.1-0.1-0.3-1.8-1.2-2.5l-0.3-0.5l0.5-0.3l0.1-0.1v0.1c0,0-0.1,0.3,0.1,0.6l0.6,0.9l0.3,0.8
				l0.3,1H-310.3z"/>
			<path class="st2" d="M-310.3,334.4c0,0-0.3-1.8-1.2-2.5l-0.3-0.5l0.5-0.2c0,0-0.1,0.4,0.1,0.7l0.6,0.9l0.3,0.8l0.3,0.9
				L-310.3,334.4z"/>
			<polygon class="st2" points="-295.1,344.5 -295,344.4 -294.1,343.9 -293.7,344 -293.6,344 -294.7,344.6 -294.8,344.9 -295.1,345 
				-295.2,345 			"/>
			<polygon class="st2" points="-295,344.5 -295.1,345 -294.9,344.9 -294.8,344.5 -293.8,344.1 -294.1,344 -294.9,344.4 			"/>
			<path class="st2" d="M-295,346l1.2-1.5l0,0c0.1,0,0.1,0,0.1,0.1c0,0.1,0,0.2,0,0.2l-1.3,1.6V346z"/>
			<path class="st2" d="M-293.8,344.6l-1.2,1.4l0.1,0.2L-293.8,344.6C-293.7,344.7-293.6,344.6-293.8,344.6z"/>
			<path class="st2" d="M-293.3,343c-0.1-1.3-1.2-4.3-1.2-4.3v-0.1l0.4,0.2c1,2.2,1.2,4.2,1.3,4.3v0.1L-293.3,343z"/>
			<path class="st2" d="M-294.4,338.7c0,0,1.1,3,1.2,4.3l0.4,0.1c0,0-0.3-2.1-1.2-4.2L-294.4,338.7z"/>
			<path class="st2" d="M-292.8,342.8c0-0.1,2.1-6.4,2.5-7.6l0.3-0.1c0,0.4-2.3,7.6-2.5,8v0.1L-292.8,342.8z"/>
			<path class="st2" d="M-292.8,342.8c0,0,2.1-6.4,2.5-7.5h0.3c0,0-2.3,7.5-2.6,7.9L-292.8,342.8z"/>
			<path class="st2" d="M-297.7,341.1c-0.1-1.3-2-4.8-2.1-4.9l0.3-0.2c1.5,2.6,2.2,4.9,2.2,4.9L-297.7,341.1L-297.7,341.1
				L-297.7,341.1z"/>
			<path class="st2" d="M-299.8,336.2c0,0,1.9,3.5,2.1,4.9l0.3-0.1c0,0-0.6-2.3-2.1-4.8H-299.8z"/>
			<path class="st2" d="M-292.7,343.1l0.1-0.1c0,0,3.5-2.6,5.1-6.1h0.1v1.2c0,0-1.2,1.8-4.7,5l0,0H-292.7z"/>
			<path class="st2" d="M-292.6,343.1c0,0,3.5-2.5,5.1-6.1v1.2c0,0-1.2,1.8-4.6,5L-292.6,343.1z"/>
			<path class="st2" d="M-301.2,339.4c-0.1-0.1-4.6-7.5-6.1-9.9l0.4-0.1c0.1,0.1,4.3,6.4,6.1,10.1l0.1,0.1L-301.2,339.4z"/>
			<path class="st2" d="M-301.2,339.4c0,0-4.5-7.5-6-9.9h0.4c0,0,4.3,6.3,6,10L-301.2,339.4z"/>
			<path class="st2" d="M-306.3,342.1c-0.2-0.1-0.2-0.2-0.2-0.2l0,0h0.1c0.1,0,3.2-0.9,4.6-1.9l1,0.5v0.1c0,0-0.3-0.1-0.6-0.1
				c-0.2,0-0.4,0.1-0.6,0.2C-301.9,340.5-303.9,341.4-306.3,342.1L-306.3,342.1L-306.3,342.1z"/>
			<path class="st2" d="M-306.3,341.9c0,0,3.1-0.9,4.6-1.9l1,0.5c0,0-0.7-0.3-1.2,0.1c0,0-2,0.9-4.3,1.6
				C-306.2,342.1-306.6,341.9-306.3,341.9z"/>
		</g>
	</g>
	<g id="bubbles" class="st0">
		<path class="st3" d="M-341.7,257.5c0-1.1,0-2.2,0-3.4c0-1.3,0.6-2.3,1.7-3c1.8-1.1,3.7-2.1,5.5-3.2c1.4-0.9,2.7-0.9,4.1,0
			c1.8,1.1,3.7,2.2,5.5,3.3c1.1,0.7,1.7,1.6,1.7,3c0,2.2,0,4.4,0,6.7c0,1.4-0.6,2.4-1.8,3.1c-1.8,1-3.6,2.1-5.4,3.1
			c-1.3,0.8-2.6,0.9-4,0c-1.8-1.1-3.6-2.1-5.5-3.1c-1.3-0.7-1.9-1.7-1.9-3.2C-341.7,259.7-341.8,258.6-341.7,257.5L-341.7,257.5z"/>
		<path class="st3" d="M-356.2,248.9c0-0.6,0-1.2,0-1.8c0-0.7,0.3-1.2,0.9-1.6c1-0.6,1.9-1.1,2.9-1.7c0.7-0.5,1.4-0.5,2.2,0
			c1,0.6,2,1.2,2.9,1.7c0.6,0.4,0.9,0.9,0.9,1.6c0,1.2,0,2.4,0,3.5c0,0.7-0.3,1.3-1,1.7c-1,0.5-1.9,1.1-2.9,1.7
			c-0.7,0.4-1.4,0.5-2.1,0c-0.9-0.6-1.8-1.1-2.8-1.7c-0.7-0.4-1-0.9-1-1.7C-356.2,250.1-356.2,249.5-356.2,248.9L-356.2,248.9z"/>
		<path class="st1" d="M-335.6,239.3c0-0.8,0-1.6,0-2.3c0-0.9,0.4-1.6,1.2-2.1c1.3-0.7,2.5-1.5,3.8-2.2c1-0.6,1.9-0.6,2.9,0
			c1.3,0.8,2.5,1.5,3.8,2.3c0.8,0.5,1.2,1.1,1.2,2c0,1.5,0,3.1,0,4.6c0,1-0.4,1.7-1.3,2.2c-1.3,0.7-2.5,1.4-3.7,2.2
			c-0.9,0.6-1.8,0.6-2.8,0c-1.2-0.8-2.5-1.5-3.8-2.2c-0.9-0.5-1.3-1.2-1.3-2.2C-335.6,240.8-335.6,240.1-335.6,239.3L-335.6,239.3z"
			/>
	</g>
</g>
<g id="soon">
	<path class="st3" d="M-236.2,266.7c0,16.3-13.4,29.3-29.3,29.3c-16.3,0-29.8-13.4-29.8-29.3c0-16.3,13.4-29.8,29.8-29.8
		C-249.2,236.9-236.2,250.3-236.2,266.7L-236.2,266.7z"/>
	<g>
		<path class="st2" d="M-279.7,268.2L-279.7,268.2c0,1.2-0.3,2.1-1,2.7c-0.7,0.6-1.6,0.9-2.9,0.9c-1.3,0-2.3-0.4-3.1-1.2
			c-0.8-0.8-1.2-1.8-1.2-3.1v-2.1c0-1.3,0.4-2.3,1.1-3c0.7-0.8,1.7-1.2,2.9-1.2c1.3,0,2.3,0.3,3,0.9s1.1,1.5,1,2.6l0,0h-2.3
			c0-0.6-0.1-1.1-0.4-1.4c-0.3-0.3-0.7-0.4-1.3-0.4c-0.5,0-0.9,0.2-1.2,0.6c-0.3,0.4-0.4,1-0.4,1.7v2.2c0,0.7,0.2,1.3,0.5,1.7
			s0.8,0.6,1.4,0.6c0.5,0,0.9-0.1,1.2-0.4s0.4-0.7,0.4-1.4H-279.7z"/>
		<path class="st2" d="M-275.3,267.5h-0.7v4.1h-2.4v-10.3h2.4v4h0.5l2.3-4h3l-3.2,4.7l3.5,5.6h-3.1L-275.3,267.5z"/>
		<path class="st2" d="M-260.8,267.4c0,1.3-0.4,2.3-1.2,3.1c-0.8,0.8-1.9,1.2-3.1,1.2c-1.3,0-2.4-0.4-3.2-1.2
			c-0.8-0.8-1.2-1.9-1.2-3.1v-1.8c0-1.3,0.4-2.3,1.2-3.1c0.8-0.8,1.9-1.2,3.2-1.2c1.3,0,2.3,0.4,3.1,1.2c0.8,0.8,1.2,1.9,1.2,3.1
			V267.4z M-263.2,265.5c0-0.7-0.2-1.3-0.5-1.8c-0.3-0.5-0.8-0.7-1.5-0.7c-0.6,0-1.1,0.2-1.5,0.7c-0.3,0.5-0.5,1.1-0.5,1.8v1.9
			c0,0.7,0.2,1.4,0.5,1.8c0.3,0.5,0.8,0.7,1.5,0.7c0.6,0,1.1-0.2,1.5-0.7s0.5-1.1,0.5-1.8V265.5z"/>
		<path class="st2" d="M-257,268.1v3.5h-2.4v-10.3h3.9c1.2,0,2.2,0.3,2.9,0.9c0.7,0.6,1.1,1.4,1.1,2.4s-0.4,1.8-1.1,2.4
			c-0.7,0.6-1.7,0.9-2.9,0.9H-257z M-257,266.3h1.5c0.5,0,0.9-0.1,1.2-0.4c0.3-0.3,0.4-0.7,0.4-1.1c0-0.5-0.1-0.8-0.4-1.1
			c-0.3-0.3-0.7-0.4-1.2-0.4h-1.5V266.3z"/>
		<path class="st2" d="M-241.6,267.4c0,1.3-0.4,2.3-1.2,3.1c-0.8,0.8-1.9,1.2-3.1,1.2c-1.3,0-2.4-0.4-3.2-1.2
			c-0.8-0.8-1.2-1.9-1.2-3.1v-1.8c0-1.3,0.4-2.3,1.2-3.1c0.8-0.8,1.9-1.2,3.2-1.2c1.3,0,2.3,0.4,3.1,1.2c0.8,0.8,1.2,1.9,1.2,3.1
			V267.4z M-244,265.5c0-0.7-0.2-1.3-0.5-1.8s-0.8-0.7-1.5-0.7c-0.6,0-1.1,0.2-1.5,0.7c-0.3,0.5-0.5,1.1-0.5,1.8v1.9
			c0,0.7,0.2,1.4,0.5,1.8s0.8,0.7,1.5,0.7c0.6,0,1.1-0.2,1.5-0.7c0.3-0.5,0.5-1.1,0.5-1.8V265.5z"/>
	</g>
</g>
</svg>
