<?xml version="1.0" encoding="utf-8"?>
<!-- Generator: Adobe Illustrator 19.0.0, SVG Export Plug-In . SVG Version: 6.00 Build 0)  -->
<svg version="1.1" xmlns="http://www.w3.org/2000/svg" xmlns:xlink="http://www.w3.org/1999/xlink" x="0px" y="0px"
	 viewBox="0 0 143 145" style="enable-background:new 0 0 143 145;" xml:space="preserve">
<style type="text/css">
	.st0{fill:#87D3E0;}
	.st1{fill-rule:evenodd;clip-rule:evenodd;fill:#87D3E0;}
	.st2{fill-rule:evenodd;clip-rule:evenodd;fill:#62BC47;}
	.st3{fill:#FFFFFF;}
</style>
<g id="milk">
	<circle class="st0" cx="77.5" cy="83" r="55"/>
	<path class="st1" d="M51.4,15.6c0,3.9-3.2,7-7,7c-3.9,0-7.1-3.2-7.1-7c0-3.9,3.2-7.1,7.1-7.1C48.2,8.5,51.4,11.7,51.4,15.6
		L51.4,15.6z"/>
	<path class="st2" d="M51.7,39.3c0,5-4,9-9,9c-5,0-9.1-4-9.1-9c0-5,4.1-9.1,9.1-9.1C47.6,30.3,51.7,34.3,51.7,39.3L51.7,39.3z"/>
	<path class="st2" d="M27.5,25.4c0,3-2.4,5.4-5.4,5.4c-3,0-5.4-2.4-5.4-5.4c0-3,2.4-5.4,5.4-5.4C25.1,20,27.5,22.4,27.5,25.4
		L27.5,25.4z"/>
	<path class="st3" d="M118.1,82.5c-4.4-1.5-6.9,4.1-7.7,7.5c0,0.1,0,0.2-0.1,0.2l0,0c-0.8,3.3-2,4.9-2.3,4.8c-1-0.4-0.7-1.8-0.6-2.7
		c0.1-1.5,0.2-3-0.6-4.4c-0.6-1-1.8-1.3-3-1.3c0.1-0.2,0.1-0.4,0.2-0.5c0.1-0.2,0.2-0.4,0.3-0.7c0.5-1.1,1.2-2.2,2.1-3
		c0,0,0,0,0.1,0c0,0,0.1,0,0.1,0c0.5,0.2,1,0.8,1.2,1c1.2,1.2,4.8-0.7,3.8-1.9c-1.4-1.7-3.1-2-4.7-1.7c-1.1,0.2-2.1,0.7-3,1.4
		c-0.2,0.1-0.3,0.3-0.5,0.4c0.2-1.9,0.2-3.8-0.1-5.7c-0.1-1.1-2.4-0.5-3.5,0.5c-0.2,0.1-0.4,0.3-0.5,0.6c0,0,0,0,0,0v0
		c-0.4,1.3-2.8,2-4.8,0.3c0,0,0,0,0,0c-0.5-0.4-1.1-0.7-1.9-0.8c-4.5-0.4-6.2,4.8-6.7,8.4l0,0c-0.2,2.3-1.6,5.4-2.9,5.9
		c-0.3-0.3-0.5-0.6-0.6-1c-0.5-1.1-0.7-2.4-0.8-3.6c-0.3-3.3-0.4-6.7-0.3-10.1c0-0.7-0.6-0.9-1.3-0.7c-1.2,0.3-2.1,1.1-2.5,2
		c-1.4,3-2.1,6.3-2.5,9.5c-0.1,0.9-0.2,1.8-0.3,2.7c0,0.3-0.1,0.7-0.1,1.1c-0.7,0-1.3-0.8-1.3-1.3c0-1.2-1.5-0.6-2.5,0.3
		c0.6-1.7,0.8-3.5,0.8-5.2c0-3-0.8-9-4.9-8.7c-4.3,0.3-5.4,5.9-5.5,9.3c-0.1,3.3-0.3,6.1-0.5,6.7c-1.9,0.3-3-1.9-3.4-2.9
		c-0.9-2.3-1.4-4.7-1.7-7.1c-0.4-4.1-0.7-8.2-0.5-12.2c0-0.7-0.8-0.7-1.4-0.4c-0.9,0.4-1.7,1.2-2.1,2c-1.3,3-1.6,6.3-1.9,9.5
		c0,0,0,0.1,0,0.1c-0.1-0.3-0.1-0.6-0.1-0.8c-0.4-2.5-0.8-5.1-1.1-7.7c-0.2-1.5-0.5-3.6-0.2-4.9c0.4-2.1-2.7,0-3.2,0.9
		c-2.9,5.8-2,12.2-1.8,18.9c0.1,1.6,0,3.3-0.3,5c-0.2,1.1-0.4,3.2-1.3,4.1c-0.6,0.6-1.7,0.1-2.2-0.1c-0.8-0.4-1.3-1.3-1.4-2.2
		c-0.1-0.9-1.2-0.4-1.7,0.1c-0.7,0.7-1.4,1.9-1.3,2.9c0.4,2.2,2.3,4.2,4.7,3.5c3.8-1.2,5.4-5.7,6.2-9.2c0.5-2.1,0.6-4.2,0.6-6.2
		c0.8,3.8,1.5,7.5,2.3,11.3c0.4,2,3.2-1.4,3.2-2.6c0-2.7,0.1-5.4,0.4-8.2c0.5,3.2,1.3,10.7,6.2,9.9c2-0.3,3.1-1.8,3.8-3.5
		c0.7,1.5,1.8,2.6,3.5,2.5c1.6-0.1,3-1.5,4-2.8c0.2,1.3,1,2.3,2.5,2.3c1.9,0.1,3.7-1.1,4.8-2.5c0.5-0.6,0.8-1.3,1-2
		c0.1,0.3,0.1,0.7,0.2,1c0.2,1.1,0.6,2.4,1.5,3.2c1,0.9,2.6,0.3,3.5-0.4c1.1-0.7,1.9-1.8,2.6-3c0.3,2.2,1.2,4.2,3.4,4.6
		c2,0.3,4-1.4,5-2.8c1.2-1.7,1.7-3.8,2-5.8c0.2-1.2,0.3-3.4-0.1-5.4c1.5,0,2.5-0.5,3.2-1.1c-0.2,5.3-1.1,10.5-2,15.8
		c-0.2,0.9,0.9,1,1.5,0.8c0.9-0.2,1.9-0.9,2.1-1.8c0.4-1.6,0.9-3.2,1.4-4.7c1.9,2.2,0.2,5.3,1.6,7.4c0.8,1.1,3.2,1.1,4.4,0.4
		c0.5-0.3,0.9-0.6,1.2-0.9c0.3,1.7,1,3.1,2.6,3.7c1.9,0.8,4.1-0.6,5.2-1.8c1.4-1.5,2.2-3.4,2.7-5.4
		C121.2,89.7,122.1,83.9,118.1,82.5z M68,89.7c-0.1,0.4-0.2,0.8-0.3,1.2c-0.8-0.1-1.4-1.3-1.6-1.8c-0.6-1.3-0.9-2.8-1-4.3
		c-0.1-1.5-0.1-3.1,0.3-4.6c0.1-0.4,0.2-0.8,0.3-1.1c1.9,0.4,2.4,4.9,2.5,6.1C68.3,86.6,68.3,88.2,68,89.7z M92,90.5
		c-0.1,0.4-0.3,0.8-0.5,1.1c-0.7-0.3-1.2-1.6-1.3-2.2c-0.4-1.5-0.5-3-0.4-4.5c0.1-1.5,0.3-3.1,0.9-4.5c0.1-0.4,0.3-0.7,0.5-1.1
		c1.8,1.6,1.8,4.3,1.7,6.6C92.7,87.5,92.5,89.1,92,90.5z M115.4,96.5c-0.2,0.3-0.4,0.7-0.6,1c-0.7-0.4-0.9-1.8-1-2.4
		c-0.2-1.5,0-3.1,0.2-4.5c0.3-1.5,0.7-3,1.4-4.3c0.2-0.3,0.4-0.7,0.6-1c1.4,2.1,1.2,4.6,0.7,6.9C116.4,93.6,116,95.2,115.4,96.5z"/>
</g>
<g id="bubbles">
</g>
</svg>
