<svg xmlns="http://www.w3.org/2000/svg" width="85" height="85" viewBox="0 0 85 85"><path d="M42.5 84C65.38 84 84 65.38 84 42.5S65.38 1 42.5 1 1 19.62 1 42.5 19.62 84 42.5 84m0 1C19.03 85 0 65.97 0 42.5S19.03 0 42.5 0 85 19.03 85 42.5 65.97 85 42.5 85z" fill="#515151"/><path d="M63.86 50.28c-.53-.17-.91-.88-1.4-1.06-2.05-.73-3.56.45-5.48.49-4.57.1-6.21.04-11.68-1.65-.17-4.79 2.7-7.64 3.97-11.31 1.14-3.27-.44-7.04-.66-10.86-.13-2.24.15-4.46 0-6.82-1.6 1.44-.83 5.81-1.1 7.89-.69-2.82-.46-6.54-1.54-8.96-.69 2.7.09 6.45 0 8.96-.78-2.53-1.02-5.57-1.99-7.89-1.25 2.55.78 6.39.45 8.74-1-2.24-1.46-4.99-2.65-7.04-.39 3.08.97 5.59.88 7.68-.92-1.81-1.43-4.02-2.87-5.33-.09 1.96 1.25 4.32 1.99 6.18-1.3-.67-1.7-2.2-3.09-2.78.23 1.57 1.24 2.36 1.76 3.63-.92-.52-1.34-1.55-2.42-1.92.02 1.47 1.26 1.77 1.55 2.99-.65-.44-1.22-.97-1.99-1.28.01 1.07 1.52 1.78 1.32 2.35-.13-.13-1.05-.51-1.1 0 .24.14 1.14.7.66.85-.38.01-.69-.05-.88-.21-.12.75.78.51.66 1.27-.28-.01-.3-.27-.66-.21-.17.65.61.41.44 1.06-3.94 4.07-1.79 8.5-2.2 13.22.25-.67-3.22-1.4-5.91-2.47-1.46-.59-1.74-2.3-2.9-2.86 0-.28.38-.2.43-.43-.43-.21-.94-.36-1.09-.84.45-.14 1.44.25 1.53-.22-.69-.4-2.55-.79-2.2-1.49.97.08 1.87.58 2.65.42-1.14-.54-3.08-1.43-3.09-2.34.93.38 2.43 1.34 3.52.84-1.63-.83-3.94-2.13-4.4-3.4 1.21.61 2.73 2.05 3.97 1.92-2.03-.6-3.57-2.8-5.51-2.77.87 1.79 3.75 2.77 4.41 4.05-1.42-.91-3.07-1.59-4.63-2.34.66 1.91 2.74 2.45 4.19 3.62-1.41-.14-2.27-.79-3.75-.85.43 1.49 2.74 1.18 3.52 2.34-.47-.39-1.61-.14-2.42-.21.22.99 1.73.74 2.42 1.27-.84-.03-1.6.01-1.98.43.46.48 1.62.29 1.98.85-.55-.03-1.07-.03-1.1.44.16.41 1.23-.06 1.33.42-.29.08-.46.27-.44.64.32.04.81-.08.88.21-.25.05-.34.24-.44.43 2.1 1.13 3.23 4.55 6.16 5.53C31.32 52.61 34.47 53.61 16 60c.65 0 8.08-1.84 10.37-2.61 2.26-.77 4.56-1.45 6.76-2.13.56-.17 1-.37 1.61-.43 3.86-.37 7.26.33 11-2.08-2.9.44-7.73 1.01-9.69-.65 2.56-3.89.77-13.74 2.71-15.97 2.08-1.96 5.11-8.39 8.99-2.93.62.88.73 2.13-.66 4.42-1.69 2.8-2.74 4.08-2.41 10.08.06 1.21.21 2.56-1.9 2.5 8 1.7 10.38.87 15.09.2 1.54-.22 3.76-1.41 3.96.08.09.59-1.53.57-2.86.57-2.23.01.95.78 2.04.73.48.02 4.74-.49 6.99-.95-1.76-.14-2.76-.12-4.14-.55z" fill="#515151"/></svg>