<svg xmlns="http://www.w3.org/2000/svg" width="85" height="85" viewBox="0 0 85 85"><path d="M42.5 84C65.38 84 84 65.38 84 42.5S65.38 1 42.5 1 1 19.62 1 42.5 19.62 84 42.5 84m0 1C19.03 85 0 65.97 0 42.5S19.03 0 42.5 0 85 19.03 85 42.5 65.97 85 42.5 85z" fill="#515151"/><path d="M48.87 43.3c-.87.44-1.7.85-2.29 1.31-1.11.84-1.58 2.21-1.58 4.59v.92h-7.64v-.98c.05-7.94 3.12-9.8 5.59-11.28.61-.37 1.23-.68 1.84-.97 1.92-.94 3.32-1.62 3.32-3.74 0-3.03-1.93-4.56-5.73-4.56-2.7 0-5.59 1.68-5.63 4.79l-.01.63H29v-.65c.03-3.96 1.45-7.21 4.13-9.39 2.38-1.94 5.62-2.97 9.35-2.97 4.33 0 8.03 1.32 10.41 3.71 2.12 2.13 3.17 4.99 3.11 8.5 0 6.48-4.12 8.57-7.13 10.09zm3.09-17.68c-2.14-2.15-5.5-3.33-9.48-3.33-5.69 0-11.78 2.76-12.15 10.43h5.15c.18-1.52.96-2.88 2.21-3.86 1.27-.99 2.98-1.56 4.69-1.56 4.54 0 7.04 2.08 7.04 5.85 0 2.93-2.06 3.93-4.05 4.9-.58.28-1.17.57-1.74.91-2.38 1.44-4.84 2.92-4.96 9.87h5.03c.05-2.6.68-4.18 2.07-5.24.7-.53 1.57-.97 2.5-1.44 3.01-1.52 6.42-3.25 6.42-8.95.05-3.17-.87-5.71-2.73-7.58zM41.41 53.04c2.53 0 5.1 1.72 5.1 5 0 3.26-2.57 4.96-5.1 4.96-2.54 0-5.1-1.7-5.1-4.96 0-3.28 2.56-5 5.1-5zm0 8.67c1.82 0 3.79-1.15 3.79-3.67 0-2.55-1.97-3.71-3.79-3.71-1.83 0-3.79 1.16-3.79 3.71 0 2.52 1.96 3.67 3.79 3.67z" fill="#515151"/></svg>