<svg xmlns="http://www.w3.org/2000/svg" width="85" height="85" viewBox="0 0 85 85"><path d="M70.7 52.99v.16h-.92v.01l-1.2-.01h-1.7-.18c.11.93-.06 1.87-.53 2.7-.76 1.33-2.18 2.16-3.71 2.16-.75 0-1.49-.2-2.14-.58-.99-.58-1.7-1.51-1.99-2.63-.05-.18-.07-.36-.09-.54h-.67-7.26c-.05.01-.1.03-.16.03-.05 0-.1-.02-.15-.03H37.8h-.38c-.09.4-.23.8-.44 1.17-.76 1.34-2.19 2.17-3.72 2.17-.74 0-1.48-.2-2.13-.58-.99-.58-1.7-1.51-2-2.63-.01-.05-.01-.09-.02-.13h-.29-8.55-1.2v-.9h-3.08V42.63c0-.7.26-1.29.74-1.7.61-.52 1.48-.67 2.2-.69v-.87h.14v-9.44c0-1.62 1.3-2.94 2.91-2.94h39.75c1.61 0 2.91 1.32 2.91 2.94v1.65l1.59 8.56 3.2 3.28.35.36v3.26h.13c1.16 0 2.1.96 2.1 2.13v1.85c0 .89-.54 1.65-1.31 1.97zM19.07 42.46h-.14v-1.01c-.53.02-1.09.12-1.43.41-.21.18-.31.42-.31.77v9.52h1.88v-9.69zm41.85 13.92c.49.28 1.02.42 1.54.42 1.06 0 2.1-.56 2.67-1.56.85-1.49.35-3.4-1.12-4.26-.49-.28-1.02-.42-1.54-.42-1.07 0-2.1.56-2.68 1.56-.85 1.49-.34 3.4 1.13 4.26zm-10.17-3.34h6.82l.12-.2c.29-.51.58-1.03.88-1.54-.06-.09-.1-.2-.1-.31V31.67H55.5c-.07 0-2.39-.18-3.74 1.08-.67.62-1.01 1.52-1.01 2.65v17.64zm-19.02 2.93c.48.28 1.01.41 1.53.41 1.07 0 2.11-.56 2.68-1.55.85-1.49.34-3.4-1.13-4.26-.48-.29-1.01-.42-1.54-.42-1.06 0-2.1.56-2.67 1.56-.85 1.49-.34 3.4 1.13 4.26zm31.71-26.04c0-.95-.76-1.73-1.71-1.73H21.98c-.94 0-1.71.78-1.71 1.73v10.65h-.08l-.06.34v.33h.14v11.79h8.55l.02-.6c.11-2.09 2.28-3.72 4.34-3.72 2.07 0 4.48 1.63 4.6 3.72l.02.6h11.75V35.4c0-1.49.47-2.69 1.4-3.55 1.75-1.62 4.49-1.4 4.6-1.39h7.89v-.53zm5.14 14.35l-3.46-3.55-1.68-9.04v-.02h-3.77v18.18c.75-.64 1.72-1.02 2.75-1.02.85 0 1.66.25 2.34.74.57.4 1.36 1.09 1.82 1.79v-.34-1.33-.52c0-1.14.89-2.06 2-2.12v-2.77zm0 4c-.45.05-.8.42-.8.89v2.77h.8v-3.66zm2.23.89c0-.51-.41-.91-.9-.91h-.13v3.67h.13c.49 0 .9-.41.9-.91v-1.85zm-23.02 1.08h-8.54c-.34 0-.61-.28-.61-.61 0-.34.27-.61.61-.61h8.54c.33 0 .6.27.6.61 0 .33-.27.61-.6.61zm0-2.85h-8.54c-.34 0-.61-.27-.61-.6 0-.34.27-.61.61-.61h8.54c.33 0 .6.27.6.61 0 .33-.27.6-.6.6zm-5.08-8.87c0 3.55-2.85 6.43-6.36 6.43-3.51 0-6.36-2.88-6.36-6.43s2.85-6.43 6.36-6.43c.31 0 .62.03.92.07.69-.83 1.71-1.36 2.86-1.36 2.07 0 3.75 1.7 3.75 3.79 0 1.13-.49 2.14-1.27 2.83.06.36.1.72.1 1.1zm-6.11-5.19c-.08-.01-.16-.03-.25-.03-2.85 0-5.16 2.34-5.16 5.22s2.31 5.22 5.16 5.22 5.16-2.34 5.16-5.22c0-.13-.03-.26-.04-.39-.42.16-.87.26-1.34.26-2.07 0-3.76-1.7-3.76-3.8 0-.44.09-.86.23-1.26zm1.2.21c-.14.32-.23.68-.23 1.05 0 1.43 1.15 2.59 2.56 2.59.4 0 .77-.1 1.1-.27-.52-1.62-1.8-2.89-3.43-3.37zm4.88 1.05c0-1.42-1.14-2.58-2.55-2.58-.57 0-1.09.19-1.51.51 1.63.63 2.94 1.92 3.61 3.54.28-.41.45-.92.45-1.47zM26.91 50.25h-4.18c-.34 0-.6-.28-.6-.61 0-.34.26-.61.6-.61h4.18c.33 0 .6.27.6.61 0 .33-.27.61-.6.61zm0-2.85h-4.18c-.34 0-.6-.27-.6-.6 0-.34.26-.61.6-.61h4.18c.33 0 .6.27.6.61 0 .33-.27.6-.6.6zm6.36 3.76c.74 0 1.44.4 1.81 1.05.28.49.36 1.06.21 1.61-.14.55-.49 1-.97 1.28-.32.19-.68.29-1.05.29-.75 0-1.44-.41-1.81-1.06-.58-1.01-.24-2.31.76-2.89.32-.19.68-.28 1.05-.28zm-.77 2.56c.16.29.46.45.77.45.15 0 .3-.04.44-.12.43-.25.58-.8.33-1.23-.16-.29-.46-.45-.77-.45-.15 0-.31.04-.45.12-.42.25-.57.8-.32 1.23zm22.08-20.25c1.56 0 2.82 1.28 2.82 2.84v3.82c0 1.57-1.26 2.84-2.82 2.84-1.55 0-2.81-1.27-2.81-2.84v-3.82c0-1.56 1.26-2.84 2.81-2.84zm-1.61 6.66c0 .9.72 1.63 1.61 1.63.89 0 1.62-.73 1.62-1.63v-3.82c0-.9-.73-1.63-1.62-1.63-.89 0-1.61.73-1.61 1.63v3.82zm9.49 11.43c.75 0 1.44.4 1.82 1.06.28.49.35 1.06.21 1.6-.15.55-.5 1.01-.98 1.29-.32.18-.68.28-1.05.28-.74 0-1.44-.4-1.81-1.06-.57-1.01-.23-2.3.77-2.89.32-.18.68-.28 1.04-.28zm-.77 2.57c.17.29.47.45.77.45.16 0 .31-.04.45-.12.43-.25.57-.8.33-1.24-.17-.28-.47-.45-.78-.45-.15 0-.3.04-.44.12-.43.25-.57.8-.33 1.24z" fill="#515151"/><path d="M42.5 84C65.38 84 84 65.38 84 42.5S65.38 1 42.5 1 1 19.62 1 42.5 19.62 84 42.5 84m0 1C19.03 85 0 65.97 0 42.5S19.03 0 42.5 0 85 19.03 85 42.5 65.97 85 42.5 85z" fill="#515151"/></svg>