<svg xmlns="http://www.w3.org/2000/svg" width="85" height="85" viewBox="0 0 85 85"><path d="M42.5 84C65.38 84 84 65.38 84 42.5S65.38 1 42.5 1 1 19.62 1 42.5 19.62 84 42.5 84m0 1C19.03 85 0 65.97 0 42.5S19.03 0 42.5 0 85 19.03 85 42.5 65.97 85 42.5 85z" fill="#515151"/><path d="M59.15 35.25V62H36.41h-8.07-4.41V35.25H19L26.92 23h28.16L63 35.25h-3.85zM35.58 61.17V48.69h-6.41v12.48h6.41zm-10.83 0h3.59V47.86h8.07v13.31h21.92V35.39H47.22c-.17 3.28-2.86 5.91-6.17 5.91s-6-2.63-6.16-5.91H24.75v25.78zm21.67-26.09c0-2.98-2.41-5.4-5.37-5.4s-5.37 2.42-5.37 5.4c0 2.97 2.41 5.4 5.37 5.4s5.37-2.43 5.37-5.4zm8.21-11.25H27.37l-6.85 10.59h14.4c.33-3.12 2.94-5.57 6.13-5.57 3.2 0 5.8 2.45 6.13 5.57h14.3l-6.85-10.59zM42.19 47.86h14.18v4.11c0 .53-.36.97-.86 1.23v5.95H39.22v-6.06c-.39-.27-.66-.66-.66-1.12v-4.11h3.63zm10.48.83h-1.98v3.28c0 .35.45.65.99.65s.99-.3.99-.65v-3.28zm2.88 3.28v-3.28h-1.99v3.28c0 .35.45.65.99.65s1-.3 1-.65zm-4.99 6.35h4.12v-4.89c-.04 0-.08.02-.13.02-.6 0-1.1-.25-1.43-.62-.33.37-.84.62-1.44.62-.43 0-.81-.13-1.12-.34v5.21zm-.7-9.63h-1.98v3.28c0 .35.45.65.99.65s.99-.3.99-.65v-3.28zm-4.72 9.63h4.6v-5.07c-.26.12-.55.2-.87.2-.58 0-1.07-.23-1.41-.58-.33.35-.82.58-1.4.58-.34 0-.65-.09-.92-.23v5.1zm-.08-6.35c0 .35.46.65 1 .65s.99-.3.99-.65v-3.28h-1.99v3.28zm-.88-3.28h-1.99v3.28c0 .35.46.65 1 .65s.99-.3.99-.65v-3.28zm-4.13 9.63h4.27V53.1c-.31.21-.7.35-1.13.35-.58 0-1.08-.23-1.41-.58-.33.35-.83.58-1.4.58-.12 0-.22-.04-.33-.05v4.92zm-.67-6.35c0 .35.46.65 1 .65.53 0 .99-.3.99-.65v-3.28h-1.99v3.28z" fill="#515151"/></svg>