<svg xmlns="http://www.w3.org/2000/svg" width="85" height="85" viewBox="0 0 85 85"><path d="M42.5 84C65.38 84 84 65.38 84 42.5S65.38 1 42.5 1 1 19.62 1 42.5 19.62 84 42.5 84m0 1C19.03 85 0 65.97 0 42.5S19.03 0 42.5 0 85 19.03 85 42.5 65.97 85 42.5 85z" fill="#515151"/><path d="M40.5 47C47.39 47 53 41.39 53 34.5S47.39 22 40.5 22 28 27.61 28 34.5 33.61 47 40.5 47m0 1C33.04 48 27 41.96 27 34.5S33.04 21 40.5 21 54 27.04 54 34.5 47.96 48 40.5 48z" fill="#515151"/><path d="M51.5 57C58.39 57 64 51.39 64 44.5S58.39 32 51.5 32 39 37.61 39 44.5 44.61 57 51.5 57m0 1C44.04 58 38 51.96 38 44.5S44.04 31 51.5 31 65 37.04 65 44.5 58.96 58 51.5 58z" fill="#515151"/><path d="M35.5 61C42.39 61 48 55.39 48 48.5S42.39 36 35.5 36 23 41.61 23 48.5 28.61 61 35.5 61m0 1C28.04 62 22 55.96 22 48.5S28.04 35 35.5 35 49 41.04 49 48.5 42.96 62 35.5 62z" fill="#515151"/></svg>