<svg xmlns="http://www.w3.org/2000/svg" width="85" height="85" viewBox="0 0 85 85"><path d="M42.5 84C65.38 84 84 65.38 84 42.5S65.38 1 42.5 1 1 19.62 1 42.5 19.62 84 42.5 84m0 1C19.03 85 0 65.97 0 42.5S19.03 0 42.5 0 85 19.03 85 42.5 65.97 85 42.5 85z" fill="#515151"/><path d="M67.54 47.97l-.98.19c-.14.61-.33 1.21-.59 1.8l.73.76c.64.67.66 1.7.07 2.4l-1.4 1.64c-.35.4-.86.64-1.39.64-.36 0-.71-.11-1.01-.3l-.91-.6c-.55.34-1.13.63-1.73.86l-.03 1.1c-.03.91-.75 1.66-1.67 1.74l-2.16.18c-.05.01-.1.01-.15.01-.87 0-1.62-.61-1.79-1.45l-.24-1.14c-.57-.13-1.13-.31-1.69-.55l-.83.78c-.34.31-.78.49-1.25.49-.43 0-.84-.15-1.17-.43l-1.66-1.38c-.7-.59-.85-1.61-.34-2.38l.64-.95c-.31-.48-.57-.98-.79-1.49l-1.14-.03c-.92-.03-1.68-.74-1.76-1.65l-.18-2.14c-.07-.92.55-1.74 1.46-1.92l1.03-.21c.12-.61.3-1.2.54-1.78l-.73-.77c-.64-.66-.66-1.69-.06-2.4l1.39-1.64c.35-.41.86-.64 1.39-.64.36 0 .71.1 1.01.3l.81.53c.57-.38 1.19-.7 1.83-.96l.03-.93c.03-.91.75-1.66 1.67-1.74l2.16-.18c.05-.01.1-.01.15-.01.87 0 1.62.61 1.79 1.45l.19.92c.66.14 1.3.34 1.91.61l.67-.62c.33-.31.78-.49 1.24-.49.43 0 .85.15 1.18.43l1.65 1.38c.72.6.86 1.62.33 2.39l-.53.79c.33.52.62 1.07.85 1.64l.97.03c.93.03 1.68.74 1.76 1.66l.19 2.14c.07.91-.56 1.73-1.46 1.92zm.26-3.98c-.04-.4-.37-.71-.78-.73l-1.66-.05-.12-.32c-.26-.72-.61-1.4-1.04-2.03l-.19-.28.91-1.36c.23-.34.17-.79-.14-1.05l-1.66-1.38c-.14-.12-.33-.19-.52-.19-.2 0-.4.08-.55.21l-1.17 1.09-.31-.15c-.72-.35-1.5-.59-2.31-.74l-.34-.06-.32-1.58c-.08-.39-.45-.67-.86-.64l-2.16.18c-.41.04-.72.37-.74.77l-.05 1.61-.33.12c-.79.28-1.53.66-2.2 1.14l-.28.21-1.39-.91c-.13-.09-.29-.14-.45-.14-.23 0-.46.11-.61.29l-1.4 1.64c-.26.31-.25.77.03 1.06l1.19 1.26-.14.3c-.31.7-.54 1.44-.66 2.19l-.06.34-1.71.35c-.4.08-.68.44-.65.85l.19 2.13c.03.4.37.72.77.73l1.82.06.12.31c.25.65.58 1.28.99 1.87l.19.28-1.01 1.52c-.23.34-.16.79.15 1.05L50 55.32c.15.12.33.19.52.19.21 0 .4-.08.55-.22l1.34-1.24.31.15c.68.31 1.39.54 2.1.68l.34.06.36 1.8c.08.39.45.67.86.64l2.16-.18c.41-.04.72-.37.74-.77l.06-1.78.32-.12c.75-.26 1.46-.61 2.11-1.05l.28-.19 1.48.97c.13.08.29.13.45.13.23 0 .46-.1.61-.28l1.4-1.64c.26-.31.25-.76-.03-1.06l-1.2-1.26.15-.31c.34-.71.58-1.45.71-2.19l.06-.34 1.66-.33c.4-.08.67-.45.64-.85l-.18-2.14zm-10.79 6.66c-.14.01-.27.01-.41.01-2.45 0-4.53-1.89-4.73-4.31-.11-1.25.28-2.47 1.1-3.43.83-.96 1.97-1.55 3.24-1.65.13-.01.27-.02.4-.02 2.45 0 4.53 1.89 4.73 4.31.11 1.25-.28 2.47-1.1 3.43-.82.97-1.97 1.55-3.23 1.66zm-.4-8.39c-.1 0-.21 0-.32.01-.99.08-1.89.55-2.54 1.3-.64.76-.95 1.72-.87 2.7.16 1.9 1.8 3.39 3.72 3.39.11 0 .21-.01.32-.02 1-.08 1.9-.54 2.54-1.3.65-.75.96-1.71.87-2.69-.16-1.9-1.79-3.39-3.72-3.39zm-9.19-5.1l-1.53.17c-.24.77-.55 1.52-.95 2.24l1.01 1.26c.57.72.52 1.76-.14 2.42l-2.22 2.19c-.35.34-.81.53-1.3.53-.41 0-.82-.14-1.14-.39l-1.3-1.02c-.74.39-1.51.7-2.3.92l-.2 1.65c-.1.92-.89 1.61-1.82 1.61h-3.14c-.93 0-1.71-.69-1.82-1.61l-.21-1.73c-.73-.23-1.44-.52-2.11-.88l-1.35 1.05c-.32.26-.73.4-1.14.4-.49 0-.95-.19-1.3-.53l-2.22-2.2c-.65-.66-.71-1.7-.14-2.42l1.08-1.34c-.34-.64-.62-1.31-.85-2l-1.7-.19c-.93-.11-1.63-.89-1.63-1.81v-3.1c0-.93.7-1.7 1.63-1.81l1.59-.18c.21-.77.51-1.51.88-2.23l-1-1.25c-.58-.73-.52-1.76.14-2.42l2.22-2.19c.35-.35.81-.53 1.3-.53.41 0 .82.14 1.14.39l1.18.92c.77-.43 1.59-.77 2.44-1.02l.17-1.45c.11-.92.9-1.61 1.83-1.61h3.14c.93 0 1.71.69 1.82 1.61l.17 1.45c.83.24 1.62.57 2.37.98l1.13-.88c.32-.25.73-.4 1.14-.4.49 0 .95.19 1.3.54l2.21 2.19c.66.66.72 1.69.14 2.41l-.93 1.16c.38.71.68 1.45.91 2.21l1.5.17c.93.11 1.63.88 1.63 1.81v3.1c0 .92-.7 1.7-1.63 1.81zm.61-4.91c0-.42-.31-.76-.73-.81l-2.18-.25-.09-.34c-.24-.89-.6-1.76-1.07-2.59l-.17-.3 1.35-1.68c.26-.32.23-.79-.06-1.08l-2.21-2.19c-.29-.28-.77-.31-1.09-.06l-1.67 1.31-.3-.18c-.86-.5-1.79-.88-2.76-1.14l-.33-.09-.25-2.12c-.05-.41-.4-.72-.81-.72h-3.14c-.42 0-.77.31-.81.72l-.25 2.12-.34.09c-.99.26-1.94.66-2.83 1.18l-.3.18-1.72-1.35c-.32-.25-.8-.22-1.09.06l-2.22 2.2c-.29.29-.32.75-.06 1.07l1.42 1.78-.16.29c-.47.83-.82 1.71-1.05 2.62l-.08.34-2.29.26c-.41.05-.72.4-.72.81v3.1c0 .41.31.76.72.81l2.38.27.09.32c.25.84.59 1.65 1.02 2.4l.17.3-1.5 1.87c-.26.32-.23.79.06 1.08l2.22 2.19c.15.16.36.24.58.24.18 0 .36-.06.51-.18l1.88-1.47.3.17c.79.45 1.64.8 2.52 1.05l.33.09.28 2.39c.05.41.4.72.81.72h3.14c.41 0 .76-.31.81-.72l.27-2.32.34-.09c.94-.24 1.85-.6 2.7-1.08l.3-.16 1.83 1.43c.32.25.8.22 1.09-.06l2.22-2.2c.29-.29.32-.75.06-1.08l-1.43-1.79.17-.3c.49-.84.87-1.72 1.11-2.62l.09-.33 2.22-.25c.41-.05.72-.4.72-.81v-3.1zm-13.94 7.14c-3.14 0-5.7-2.53-5.7-5.64 0-3.1 2.56-5.63 5.7-5.63s5.7 2.53 5.7 5.63c0 3.11-2.56 5.64-5.7 5.64zm0-10.27c-2.58 0-4.68 2.08-4.68 4.63 0 2.56 2.1 4.63 4.68 4.63 2.58 0 4.68-2.07 4.68-4.63 0-2.55-2.1-4.63-4.68-4.63zM30.23 55.4l.57-.06c.14-.44.32-.88.55-1.31l-.36-.46c-.57-.72-.5-1.75.16-2.39l.96-.93c.34-.33.79-.51 1.27-.51.42 0 .83.14 1.15.4l.39.32c.47-.24.96-.44 1.47-.59l.06-.48c.11-.9.89-1.57 1.8-1.57l1.36.01c.92.01 1.7.7 1.79 1.62l.05.48c.48.16.95.36 1.4.6l.37-.27c.32-.25.71-.38 1.11-.38.5 0 .96.19 1.31.54l.93.94c.64.66.69 1.69.11 2.4l-.32.39c.2.42.38.85.51 1.3l.52.07c.92.11 1.6.89 1.59 1.81l-.02 1.32c-.01.91-.71 1.68-1.63 1.77l-.54.06c-.15.45-.34.89-.58 1.31l.36.45c.56.73.49 1.76-.17 2.4l-.95.92c-.34.33-.79.51-1.27.51-.42 0-.83-.14-1.15-.4l-.48-.38c-.44.21-.9.39-1.37.53l-.07.61c-.12.89-.89 1.57-1.81 1.57l-1.35-.01c-.93-.01-1.7-.71-1.8-1.62l-.07-.67c-.42-.14-.83-.32-1.23-.53l-.51.39c-.33.25-.71.38-1.12.38-.49 0-.96-.19-1.3-.54l-.93-.95c-.65-.65-.7-1.68-.11-2.39l.42-.51c-.19-.38-.35-.77-.48-1.17l-.65-.08c-.92-.12-1.61-.9-1.59-1.81l.01-1.32c.01-.91.71-1.68 1.64-1.77zm.07 3.9l1.31.17.09.32c.15.55.37 1.08.65 1.57l.17.3-.85 1.03c-.26.32-.24.77.05 1.06l.93.94c.15.16.35.24.57.24.18 0 .35-.06.5-.17l1.05-.8.3.17c.52.31 1.07.54 1.63.71l.33.09.14 1.34c.04.4.38.71.79.71l1.34.01c.4 0 .74-.29.8-.69l.16-1.29.34-.08c.61-.15 1.21-.38 1.77-.68l.3-.16 1 .79c.31.26.78.23 1.07-.04l.95-.92c.29-.29.32-.74.07-1.06l-.77-1 .18-.29c.32-.54.57-1.11.74-1.7l.1-.33 1.21-.12c.41-.04.72-.38.72-.78l.02-1.32c0-.41-.3-.75-.7-.8l-1.2-.16-.08-.33c-.16-.6-.38-1.17-.68-1.7l-.16-.3.75-.91c.25-.31.23-.76-.05-1.05l-.93-.94c-.16-.16-.36-.24-.58-.24-.18 0-.35.05-.49.16l-.91.7-.3-.18c-.56-.34-1.16-.59-1.79-.77l-.33-.09-.12-1.16c-.04-.4-.38-.71-.79-.71l-1.33-.02c-.42 0-.76.3-.81.7l-.15 1.15-.33.08c-.65.17-1.28.42-1.86.75l-.3.18-.93-.75c-.31-.25-.78-.23-1.07.04l-.95.93c-.3.28-.33.74-.08 1.06l.77.98-.17.29c-.31.56-.55 1.13-.7 1.7l-.09.34-1.27.13c-.41.04-.72.38-.72.78l-.01 1.32c-.01.41.29.75.7.8zm8.52-5.39h.05c1.06.01 2.05.43 2.79 1.18.74.75 1.14 1.74 1.13 2.79-.03 2.14-1.81 3.88-3.97 3.88h-.05c-2.18-.02-3.94-1.81-3.92-3.97.03-2.14 1.81-3.88 3.97-3.88zm-.04 6.84h.04c1.61 0 2.93-1.29 2.95-2.88.01-.78-.29-1.52-.84-2.08-.55-.55-1.29-.87-2.07-.88h-.04c-1.61 0-2.93 1.3-2.95 2.89-.02 1.61 1.29 2.93 2.91 2.95z" fill="#515151"/></svg>