<svg xmlns="http://www.w3.org/2000/svg" preserveAspectRatio="xMidYMid" width="19.031" height="19.031" viewBox="0 0 19.031 19.031"><defs><style>.cart-icon { fill: #c6c6c6; fill-rule: evenodd; }</style></defs><path d="M18.613 1.145l-2 .5-1.72 10.9v.006l-.004.016c-.01.032-.025.06-.036.093-.012.034-.018.068-.035.1-.02.035-.05.06-.074.09-.023.024-.038.053-.06.073-.033.026-.07.044-.108.06-.024.016-.044.033-.07.045-.067.023-.137.037-.21.037H3.142l.297 1.19H15.49c.33 0 .594.266.594.595 0 .328-.265.595-.594.595H2.972c-.073 0-.145-.017-.212-.04-.023-.01-.04-.023-.064-.035-.04-.023-.08-.047-.113-.08-.02-.02-.04-.036-.06-.06-.025-.032-.05-.066-.07-.107-.013-.026-.027-.052-.036-.08-.006-.016-.018-.03-.02-.048l-.596-2.38L.013 5.472c-.02-.08-.02-.163-.008-.244.003-.02.014-.038.02-.058.017-.058.035-.114.067-.163.004-.006.004-.012.007-.017.015-.02.038-.03.055-.05.032-.038.067-.072.107-.1.03-.022.06-.033.095-.048.03-.01.056-.032.09-.04.015-.004.027 0 .04-.004.013-.002.022-.008.033-.01l14.676-1.76.302-1.91c.038-.234.213-.426.445-.484l2.385-.596c.32-.078.642.116.72.433.082.32-.112.643-.432.725zM3.178 5.618l-1.848.22 1.51 6.036h1.234l-.896-6.256zm3.04-.364l-1.856.22.916 6.4h1.244l-.303-6.62zm1.188-.142l.31 6.762H8.96l.305-6.986-1.857.224zm3.055-.366l-.307 7.128h1.235l.92-7.35-1.847.222zm3.068-.37l-.94 7.498h1.187l1.02-7.65-1.267.152zM5.356 16.634c.66 0 1.192.535 1.192 1.192 0 .656-.532 1.19-1.192 1.19-.657 0-1.192-.53-1.192-1.19 0-.657.535-1.192 1.192-1.192zm7.75 0c.658 0 1.193.535 1.193 1.192 0 .656-.536 1.19-1.193 1.19-.66 0-1.192-.53-1.192-1.19 0-.657.532-1.192 1.192-1.192z" class="cart-icon menu-icon"/></svg>