<svg xmlns="http://www.w3.org/2000/svg" viewBox="-358 229.3 124 137"><style>.st0{opacity:0.65;} .st1{fill:#F19A67;} .st2{fill:#FFFFFF;} .st3{fill:#62BC47;}</style><g id="Layer_1"><g id="chiken" class="st0"><path class="st1" d="M-348.1 306.6c0-18.3 1.2-43.1 16-51.7 12-7 29-1.3 44.7 15.7 12.4 13.4 49.6 8.7 49.6 35.9 0 30.5-24.7 55.1-55.1 55.1-30.5.1-55.2-24.5-55.2-55z"/><path class="st2" d="M-273 290.8c-.1-.1-.2-.1-.3-.2-.1 0-.1-.1-.2-.1-3.4-1-5.5 2.7-6.4 5.4-.1.1-.1.2-.1.3-.6 1.7-1.8 3.6-3.1 4.2-.1.1-.1 0-.6.1-.4 0-.8 0-1.2-.1-.7-.3-1.1-.9-1.4-1.7-.1-.3-.2-.6-.2-1v-.4c-.1-1.4.2-2.9.5-4.3.2-1 .6-2.2 1.2-3.1.1.1.2.2.3.4.5.6.5 1.5.6 2.2.1 1.3 3.2-.1 3.1-1.3-.1-1.5-.4-3.6-2.4-3.8-1.9-.2-3.8 1.4-4.7 2.7-1.6 2.6-1.8 5.3-1.8 8.4-1 .8-2.1 1.4-2.8.1-.6-1.2-.6-3-.5-4.3V293v-.1-.2c.1-1.1.2-2.2.4-3.3 0-.1 0-.2.1-.2v-.1c.1-.7.3-1.5.4-2.2.2-.8-.9-.7-1.4-.5-.1 0-.2.1-.2.1-.7-.4-1.8-.5-2.8.1-2.7 1.4-3.5 4.9-3.1 7.7.3 1.6 1.5 2.9 3 2.7.2 0 .5-.1.7-.2-.1.7-.4 1.5-.7 2.1-.3.7-1.3-.4-1.4-.9-.3-.9-1.5.1-2.1 1.1-.8.2-1.5-2.4-1.7-3-.6-2-1-4.1-1.4-6.1-.6-3.3-1.1-6.6-.9-9.8 0-.6-.7-.6-1.3-.4-.9.3-1.6 1-2 1.7-1.1 2.4-1.3 5.3-1.4 8v.1c-.1-.2-.1-.5-.2-.7-.5-2.2-.9-4.3-1.3-6.5-.2-1.3-.5-3.1-.4-4.2.2-1.8-2.3 0-2.7.8-2.4 5-.7 10.7.1 15.9.2 1.4.3 2.8.3 4.2 0 .9.1 2.6-.4 3.4-.4.5-1.2.1-1.6-.1-.7-.4-1.2-1-1.4-1.8-.2-.8-1-.3-1.4.1-.5.6-1 1.6-.8 2.4.6 1.8 2.7 3.4 4.3 2.7 2.6-1.1 3.1-5 3.3-7.6.1-1.7.1-3.5-.1-5.2.9 3.2 1.7 6.3 2.6 9.5.4 1.7 2.1-1.1 2.1-2-.1-2.9-.1-5.8 0-8.8.2.9.4 1.8.6 2.6.5 2.2 1.1 4.4 2.2 6.3.4.8 1 1.7 1.9 1.6.7-.1 1.4-.4 1.9-.9 1.1 1.2 2.9.4 3.9-.8.2-.2.4-.5.6-.7.2.9.6 1.7 1.3 2.1.6.4 1.6.1 2.3-.1.8-.3 1.6-.7 2.3-1.2.9 2.5 3.5 3 5.5 2.2 1-.4 1.8-.9 2.7-1.6-.2 1.8 0 3.4 1.3 4.1 1.3.6 3.1-.5 4.2-1.5 1.3-1.2 2.3-2.8 3-4.4 1.2-2.7 2.6-6.8-.3-8.6zm-24.1 1.8c-.3-1-.2-3.1.4-3.8-.1.1.3 0 .6.1.5.3.6.9.7 1.4-.1 1.3-.2 2.6-.2 3.8-.8 0-1.3-.7-1.5-1.5zm19 10.5c0 .1 0 .1 0 0zm.9-1.1c-.2.3-.4.6-.6.8-.5-.4-.5-1.5-.5-2 0-1.3.3-2.5.7-3.8.4-1.2.9-2.5 1.5-3.6.2-.3.4-.5.6-.8 1.2 1 .2 4.7-.1 5.7-.4 1.4-.9 2.6-1.6 3.7zM-265.7 322.2c-.4.1-.8.3-1.2 0-.6-.4-.3-1.7-.1-2.4.5-2.8 1.4-5.7 3.2-7.9.4-.5.1-1-.6-1-.8 0-1.7.3-2 .9-2 2.9-2.9 6.2-3.4 9.8-.2 1.2-.1 2.1 1.1 2.6.5.2.9.1 2.4-.6.8-.4 1.5-1.7.6-1.4z"/><path class="st2" d="M-270.7 312.1c-.1 0-.1-.1-.2-.1h-.1c-.7-.1-1.3-.1-1.8.1.3-1.1.5-2.3.6-3.5.1-.5-.9-.5-1.1-.4-.7.2-1.4.7-1.7 1.3-.5 1.3-1.1 2.6-1.7 3.8-.5 1-1.1 2-1.7 3l-.9 1.2-.6.6c-.1.1-.2.1-.3.2-.2 0-.2-.1-.3-.4-.1-.5-.2-1.1-.2-1.7-.1-1.9.1-3.8.4-5.7.3-1.1.5-2.1.8-3.1.2-.7-.8-.7-1.3-.5-.8.2-1.5.8-1.7 1.5-.2.8-.4 1.6-.6 2.5-.4 1.9-1 3.8-1.8 5.5-.1.3-.3.6-.4.8-.2.3-.2.3-.3.4-.2 0-.3.1-.5.1-.3-.1-.4-.8-.4-1.8.1-.2.2-.5 0-.7.2-2.8.8-5.7 1-8.4.1-1.4-2.7.2-2.7 1.1-.1 2.6-.5 5.3-.6 7.9v.5c-.6.6-1.3 1.2-2 1.2h-.2s-.1 0-.1-.2c-.2-.4-.3-1-.4-1.5-.3-1.9-.5-3.9-.4-6 .1-1.1.2-2.3.3-3.3.1-.7-.8-.6-1.2-.4-.7.3-1.2 1-1.3 1.7-.1.8-.2 1.6-.2 2.4-.2 2-.4 4-.9 5.9l-.3.9c-.1.3-.2.4-.2.4-.1.1-.3.1-.4.1-.5 0-.7-1.5-.8-3.4 0-.2.1-.5.1-.7 0-.2 0-.3-.1-.4 0-2.2.1-4.4 0-6.5-.1-1.4-2.7.6-2.5 1.5.3 2.2.3 4.5.3 6.8v.1c0 1.1-.4 2.1-1.5 2.7-.1.1-.2.1-.3.1-.3-.2-.4-.7-.5-1-.5-1.5-.4-3.2-.7-4.7-.2-1.4-.5-2.9-1.2-4.2-1.2-2.3-3.5-.1-4.3 1.6-.3-.7-.7-1.3-1.3-1.6-.7-.4-1.7.2-2.2.8-.4.4-.6.9-.8 1.3-.1-.3-.2-.7-.3-1-.4-1.4-2.5 1.1-2.2 2 .7 2.1 1.3 4.4 1.8 6.6-.4.8-.5 1.8-1 2.6-.5.9-1.1.9-1.7.1-.9-1.2-1.1-2.9-1.5-4.3-.4-1.4-.8-2.9-1.6-4.1-.6-.9-1.5-1.3-2.6-.8-1.2.7-1.8 2.1-2.1 3.3-.3-.6-.7-1.3-1.1-1.9-.6-.9-2.6 1.9-2 2.7 1 1.4 1.6 3 2.3 4.5.8 1.9 1.6 3.9 2.3 5.9.5 1.3 2.2-1.3 1.8-2.2-.7-2-1.2-4-1.4-6.1-.1-1.1-.2-2.5 0-3.6h.1c.5.1.8.6 1 1 .8 1.2 1.2 2.7 1.6 4 .5 1.9 1.4 5.1 3.4 4.8 1.3-.2 2.3-1.8 2.9-3.3.1.6.3 1.1.4 1.7.4 1.4 2-1 1.8-1.9-.5-2.8-.9-5.6-.7-8.4 0-.2 0-.5.1-.7 0 0 0 .1.1.1.9 1.4 1.2 3.2 1.5 4.8.2.7.3 1.5.4 2.2.1 1 .3 2 .5 2.9.3 1.4 2.1-.9 2-1.8-.1-.7-.2-1.5-.3-2.2-.1-1.2-.2-2.5-.1-3.7 0-1.1.1-2.2.4-3.2.2.3.3.7.4 1 .6 1.5.8 3 1 4.6.2 1.3.3 5.5 2.7 4.6 1.1-.4 2-1.1 2.8-2 .3 1.1.8 1.9 1.9 1.7 1.5-.3 2.4-1.5 3.1-2.8.1.5.2 1 .4 1.5.7 2.4 2.9.9 4.7-.5.1 1 .5 1.9 1.6 1.8 1.5-.1 2.7-1.1 3.7-2.3 0 .7.1 1.3.3 2 .3.9 1.1 1 1.9.9v.3c-.1.5-.1.9-.2 1.4-.2 1.4 2.4 0 2.5-.9.1-.7.3-1.4.4-2.1.9-.7 1.6-1.6 2.3-2.5-.5 1.9-.3 4.8 1.8 5.5 2.3.7 4.5-2 5.3-4.1.9-2 1-4.8-1.2-5.9zm-1.7 7.6c-.1.2-.2.3-.3.4h-.3c-1.3-.3-1.3-2.5-1.1-3.5 0-.1 0-.2.1-.4 0-.2.1-.4.1-.5.1-.4.3-.8.5-1.2.1-.1.2-.3.3-.4h.1c1.4.4 1.3 2.5 1.2 3.6 0 .6-.2 1.4-.6 2zM-299.4 350.4c-3.9-1.7-6-4.8-5.9-9 0-.7 0-1.5.1-2.2.1-2.2.2-4.5-.2-6.7-.1.1-.2.2-.3.2h-.2c-.3 0-.5-.2-.7-.5-.3-.4-.4-.6-.2-1.3.1-.4.3-.7.6-.9-.3-.4-.9-.6-1.7-.6h-1.3l.5-.7c.9-1.1 1.9-1.8 2.9-2.4h-.5v-.2c0-.7.6-1.1 1.2-1.1.4 0 .7.1 1 .3.1 0 .2.1.3.1.4-.3.8-.5 1.1-.5.7 0 1.1.6 1.4 1.1h.2c.4 0 .9.1 1.2 1 0 .1 0 .6-.3 1l2.2 4.6c.2.4.4.8.6 1.1.6 1.1 1.5 1.7 2.8 1.7 1.9 0 3.6.1 5.1.3 1.1.1 2.2.4 3.2.9.8.4 1.3.3 1.9-.4l2.4-2.7 2.1-2.4.3.4c.7.9.6 1.8.4 2.6l.5-.5.2.4c0 .1.1.2.1.3.2.2.3.5.3.8 0 .6-.1 1.2-.2 1.7v.4l.2.2c.2.2.5.5.5.8v.3c0 .7-.1 1.4-.4 2-1.3 2.3-3 5-4.8 7.6-.6.9-1.6 1.7-2.7 2.2-2.5 1.1-5 1.6-7.4 1.6-2.3-.1-4.4-.6-6.5-1.5zm20.1-15.4c-.1.1-.2.2-.3.4 0 .1-.1.1-.1.2l-.9 1.3.2-1.6c0-.4.2-.7.3-1.1.2-.7.4-1.3.1-2l-1.5 1.7-2.4 2.7c-.8.9-1.7 1.1-2.8.6-.9-.4-2-.7-3-.8-1.5-.2-3.1-.3-5-.3-1.6 0-2.7-.7-3.5-2.1l-.6-1.2-2.5-5.3.4-.1c.1-.1.2-.3.2-.3-.1-.4-.2-.4-.4-.4s-.4 0-.6-.1l-.1-.1v-.1c-.4-.7-.7-.8-.8-.8-.2 0-.5.1-.8.4l-.2.1-.2-.1c-.2-.1-.3-.1-.5-.2-.3-.1-.5-.3-.8-.2 0 0-.3.1-.3.2l.8.7-.6.3c-.9.5-1.7 1-2.4 1.7.8 0 1.7.3 2.3 1.3l.1.2.4 1.2.1.2c0 .2.1.3.1.5.5 2.4.4 4.8.3 7.1 0 .7-.1 1.4-.1 2.2-.1 3.9 1.8 6.8 5.5 8.3 4.1 1.8 8.7 1.7 13.3-.3.9-.4 1.8-1.1 2.4-1.9 1.8-2.6 3.4-5.3 4.8-7.6.3-.4.3-1.1.3-1.7v-.2s-.2-.2-.2-.3l-.3-.3-.1-.1v-.2c0-.2 0-.3.1-.5.1-.5.1-1.1.1-1.6 0-.1-.1-.2-.2-.4-.3.4-.5.5-.6.6zm-26.5-4.3c-.3.2-.3.3-.4.5-.1.4-.1.5.1.6l.1.1c.4.1.3-.2.4-.4l-.2-.8zm10.9 17.5c-3-.6-4.8-1.8-5.4-3.6-.9-2.6 1.3-5.4 1.4-5.5l.2-.2 11.1 5.7c1.8.5 2.5 1 2.5 1.5 0 .7-1.1.9-2 1-3.4 1-6.2 1.1-7.3 1.1-.3.1-.4.1-.5 0zm7-2.9l-10.6-5.4c-.5.7-1.7 2.7-1.1 4.5.5 1.5 2.2 2.5 4.8 3.1h.4c1 0 3.8-.1 7.1-1.1.5-.1 1.1-.2 1.3-.4-.1 0-.5-.3-1.9-.7z"/></g><g id="bubbles" class="st0"><path class="st3" d="M-318.9 239.5c0 3.9-3.2 7-7 7-3.9 0-7.1-3.2-7.1-7 0-3.9 3.2-7.1 7.1-7.1s7 3.2 7 7.1zM-342.8 249.3c0 3-2.4 5.4-5.4 5.4s-5.4-2.4-5.4-5.4 2.4-5.4 5.4-5.4 5.4 2.4 5.4 5.4z"/></g></g><g id="soon"><path class="st3" d="M-236.2 266.7c0 16.3-13.4 29.3-29.3 29.3-16.3 0-29.8-13.4-29.8-29.3 0-16.3 13.4-29.8 29.8-29.8 16.3 0 29.3 13.4 29.3 29.8z"/><path class="st2" d="M-279.7 268.2c0 1.2-.3 2.1-1 2.7-.7.6-1.6.9-2.9.9-1.3 0-2.3-.4-3.1-1.2-.8-.8-1.2-1.8-1.2-3.1v-2.1c0-1.3.4-2.3 1.1-3 .7-.8 1.7-1.2 2.9-1.2 1.3 0 2.3.3 3 .9s1.1 1.5 1 2.6h-2.3c0-.6-.1-1.1-.4-1.4-.3-.3-.7-.4-1.3-.4-.5 0-.9.2-1.2.6-.3.4-.4 1-.4 1.7v2.2c0 .7.2 1.3.5 1.7s.8.6 1.4.6c.5 0 .9-.1 1.2-.4s.4-.7.4-1.4h2.3zM-275.3 267.5h-.7v4.1h-2.4v-10.3h2.4v4h.5l2.3-4h3l-3.2 4.7 3.5 5.6h-3.1l-2.3-4.1zM-260.8 267.4c0 1.3-.4 2.3-1.2 3.1-.8.8-1.9 1.2-3.1 1.2-1.3 0-2.4-.4-3.2-1.2-.8-.8-1.2-1.9-1.2-3.1v-1.8c0-1.3.4-2.3 1.2-3.1.8-.8 1.9-1.2 3.2-1.2 1.3 0 2.3.4 3.1 1.2.8.8 1.2 1.9 1.2 3.1v1.8zm-2.4-1.9c0-.7-.2-1.3-.5-1.8s-.8-.7-1.5-.7c-.6 0-1.1.2-1.5.7-.3.5-.5 1.1-.5 1.8v1.9c0 .7.2 1.4.5 1.8.3.5.8.7 1.5.7.6 0 1.1-.2 1.5-.7s.5-1.1.5-1.8v-1.9zM-257 268.1v3.5h-2.4v-10.3h3.9c1.2 0 2.2.3 2.9.9.7.6 1.1 1.4 1.1 2.4s-.4 1.8-1.1 2.4c-.7.6-1.7.9-2.9.9h-1.5zm0-1.8h1.5c.5 0 .9-.1 1.2-.4.3-.3.4-.7.4-1.1 0-.5-.1-.8-.4-1.1-.3-.3-.7-.4-1.2-.4h-1.5v3zM-241.6 267.4c0 1.3-.4 2.3-1.2 3.1-.8.8-1.9 1.2-3.1 1.2-1.3 0-2.4-.4-3.2-1.2-.8-.8-1.2-1.9-1.2-3.1v-1.8c0-1.3.4-2.3 1.2-3.1.8-.8 1.9-1.2 3.2-1.2 1.3 0 2.3.4 3.1 1.2.8.8 1.2 1.9 1.2 3.1v1.8zm-2.4-1.9c0-.7-.2-1.3-.5-1.8s-.8-.7-1.5-.7c-.6 0-1.1.2-1.5.7-.3.5-.5 1.1-.5 1.8v1.9c0 .7.2 1.4.5 1.8s.8.7 1.5.7c.6 0 1.1-.2 1.5-.7.3-.5.5-1.1.5-1.8v-1.9z"/></g></svg>