<svg xmlns="http://www.w3.org/2000/svg" width="49" height="49" viewBox="0 0 49 49"><path d="M24.5 48C37.46 48 48 37.46 48 24.5S37.46 1 24.5 1 1 11.54 1 24.5 11.54 48 24.5 48m0 1C10.97 49 0 38.03 0 24.5S10.97 0 24.5 0 49 10.97 49 24.5 38.03 49 24.5 49z" fill="#FFF"/><path d="M29.33 39h-8.66c-.92 0-1.67-.77-1.67-1.72V23.21c0-2.76.19-3.93 1.49-6.96 1.08-2.51 1.36-5.22 1.41-5.96l-.3-.28c-.01 0-.01-.01-.02-.02h-.01c-.07-.08-.11-.18-.11-.28v-2.3c0-.22.18-.41.4-.41h6.28c.22 0 .4.19.4.41v2.3c0 .1-.04.2-.11.28h-.01c0 .01-.01.02-.02.02l-.3.28c.05.74.33 3.45 1.41 5.96 1.3 3.03 1.49 4.2 1.49 6.96v14.07c0 .95-.75 1.72-1.67 1.72zM27.75 7.82h-5.49v1.47h5.49V7.82zm-.46 2.31v-.02h-4.58v.02c0 .09-.08 1.51-.49 3.34h5.56c-.41-1.83-.49-3.25-.49-3.34zm2.92 13.08c0-2.66-.17-3.72-1.43-6.63-.33-.77-.59-1.55-.79-2.29H22.1c-.03 0-.06-.01-.09-.01-.2.74-.46 1.53-.79 2.3-1.26 2.91-1.42 3.97-1.42 6.63v14.07c0 .5.39.9.87.9h8.66c.48 0 .88-.4.88-.9V23.21zm-7.95 12.33c-.28 0-.5-.23-.5-.51V24.32c0-.28.22-.51.5-.51.27 0 .49.23.49.51v10.71c0 .28-.22.51-.49.51z" fill="#FFF"/></svg>