<svg xmlns="http://www.w3.org/2000/svg" width="39" height="42" viewBox="0 0 39 42"><path d="M34.19 37.2c-3.7 3.04-8.38 4.76-13.27 4.76C9.39 41.96 0 32.55 0 20.98S9.39 0 20.92 0c5.67 0 10.98 2.24 14.95 6.3.93.95.91 2.48-.04 3.41-.95.93-2.47.91-3.4-.04-3.05-3.12-7.14-4.85-11.51-4.85-8.88 0-16.11 7.25-16.11 16.16s7.23 16.13 16.11 16.13c3.49 0 6.84-1.11 9.59-3.2h-1.93c-1.33 0-2.41-1.08-2.41-2.41s1.08-2.41 2.41-2.41h8.01c1.33 0 2.41 1.13 2.41 2.46v8.04c0 1.33-1.08 2.41-2.4 2.41-1.33 0-2.41-1.08-2.41-2.41V37.2z" fill="#EEE"/></svg>