<svg xmlns="http://www.w3.org/2000/svg" viewBox="0 0 125 135"><style>.st0{fill:#EB2046;} .st1{fill:#FFFFFF;} .st2{fill-rule:evenodd;clip-rule:evenodd;fill:#63BA46;} .st3{fill-rule:evenodd;clip-rule:evenodd;fill:#EB2046;}</style><g id="fruits_2"><path class="st0" d="M122.7 79.8c0 22-12.9 41.1-31.6 49.9C84 133.1 76 131 67.6 131c-7.6 0-14.8 2.4-21.4-.4-19.8-8.4-33.7-28-33.7-50.8 0-19.5 10.1-36.6 25.3-46.4 8.6-5.5 18.8.5 29.8.5 10.7 0 20.6-6.2 29.1-.9 15.6 9.7 26 27 26 46.8z"/><path class="st1" d="M110.5 90.6c-.7-.5-1.9-.2-2.4.1-.2.1-.7.2-.7.3 0 0 0-.1-.1-.1-.1-.3 0-.7 0-1 .1-1.1.4-2.2.7-3.3.6-2.1 1.4-4.3 2.8-6.1l.3-.3c0-.1.1-.1.1-.2 0 0 .1-.1.1-.2.5-.5.1-1.1-.7-1.2-1-.1-2 .3-2.5.9-.1.1-.3.3-.4.5-1.1.8-4.4-.3-5.8-.8 0 0-.1 0-.1-.1h-.2c-.8-.2-1.5-.2-2.2 0 .3-1.2.6-2.4.8-3.6v-.1-.1c.1-.8-1.5-.5-1.8-.4-.5.2-1 .5-1.3.9-.1.1-.2.3-.2.4-.7 2.8-1.8 5.3-3.4 7.7-.3.5-.8 1.1-1.3 1.5-.1.1-.3.2-.4.3 0 0 0-.1-.1-.1-.1-.1-.1-.3-.1-.5-.2-1.5.3-2.9.6-4.3s.5-2.9.6-4.3c.1-1 .2-2.4-.6-3.3-.8-.9-2.5-.3-3.3.1-.6.3-1 .7-1.4 1.1-.1-.8-.3-1.6-.9-2.2-.7-.7-2.2-.5-2.9-.1-.6.3-1.1.7-1.5 1.1V72c.1-.4-.1-.5-.4-.6-.1 0-.3-.1-.5 0-.2 0-.5.1-.6.1-.5.2-1 .5-1.3.8-.3.3-.5.6-.5.9-.8 2.8-1.7 5.5-3 8.2-.3.7-.8 1.4-1.2 2-.3-.4-.3-1-.4-1.4-.1-.9-.2-1.8-.5-2.7-.5-1.7-1.7-2.2-3.1-1.9 0-.1.1-.2.1-.4.3-1.2.7-2.5 1.5-3.6.4.1.8.3 1.1.5 1.1.8 3.9-1.5 2.9-2.3-1.5-1.2-3-1.1-4.2-.3-.9.4-1.7 1.2-2.3 2-.1-1.6-.4-3.1-.8-4.7-.4-1.2-3.4 1-3 2.1 0 .1.1.2.1.3v.1c-.8 2.7-2 5.3-3.3 7.9-.1-2.5-.3-5-.5-7.5 0-.4-.2-.6-.6-.5-.3 0-.7.1-1 .3-.8.4-1.5 1.2-1.5 2 0 3.1-.1 6.2-.5 9.2l-.3 1.2c0 .1-.1.3-.2.4-.1 0-.3.1-.5.1-2.5-.3-2.3-8.8-2.4-11.5v-.1-.3c-.3-1.4-2.8.4-3.1 1.6l-.1.1c-.2.2-.4.3-.7.5-1.4.9-2.8.6-4-.1-.4-.3-.8-.6-1.3-.7-1.3-.3-2.5.5-3.4 1.4-.3-.9-.6-1.7-1-2.6-.3-.7-1.5.3-1.7.6-.3.3-.5.7-.7 1.1-.1-.7-.3-1.3-.5-1.9-.7-2.1-1.8-4.8-4.2-5.2-1.3-.2-2.7.8-3.6 1.8-.4-.8-.8-1.7-1.2-2.5-.4-.7-1.6.5-1.9.8-.5.7-1 1.6-.7 2.3-.9.5-1.7 1.4-2.2 2.1-1.4 2.2-1.3 5-.5 7.4.8 2.2 2.1 4.4 4.3 5.4.9.4 2.1.2 3.1-.3.4-.2.7-.5 1-.8.9 2.8 1.8 5.7 2.5 8.6.2.8 1 .3 1.4-.1.5-.6 1-1.5.8-2.3-.5-2.3-1.1-4.6-1.7-6.9 1-.4 2-1.3 2.7-2.3.9-1.4 1.1-3.1 1-4.6 1.7 4.3 3 8.6 4.1 13 .9 3.5 1.7 7.1 2.3 10.7.1.8.8.4 1.2 0 .5-.5.9-1.4.8-2.2-.4-2.7-.9-5.4-1.5-8.1.9-.3 1.9-1 2.5-2 1.5-2.3 1.5-5.3.8-7.9-.1-.4-.2-.9-.4-1.4 1.1-.3 2.1-.9 3.1-1.7.3 2.2.3 4.5.7 6.7.3 1.8.9 4.8 3.7 4.2 1.2-.3 2.2-.9 2.9-1.8-.9 1.9-1.7 3.9-2.4 5.9-.5 1.6-1 3.3-.8 5 .3 2.1 2.7 2.8 4.3 1.6 1.5-1.1 2.3-3.1 2.4-4.9.3-3.2 0-6.5-.3-9.8l3.9-7.8c.3 3.5.2 7 .2 10.4 0 1.6 2.6-.5 2.7-1.5.1-1.3.2-2.7.5-4 1.4 1.6.8 7 4.1 5.7 1.8-.7 3.1-2.8 4.1-4.4-.2 1.5-.3 3-.4 4.5-.1 1.6 2.9-.1 3-1.2.5-3.2 1.2-6.2 2.5-9.1.1-.2.2-.5.4-.7v.1c.5 1.8.2 3.9 0 5.7-.1.9-.2 1.7-.3 2.6-.2 1.1-.4 2.1-.5 3.2-.2 1.6 3 0 3.2-1 .2-1 .4-1.9.6-2.9.6-2.4 1.5-4.6 2.7-6.7.3 1.1.1 2.3.1 3.4-.1 1.5-.4 3-.7 4.5-.2 1.1-.4 2.4 0 3.5.4 1 1.2 1.2 2.1.9 1.6-.2 3-1.5 4.1-2.6-.2 1.9.4 4 2.4 4.6 2.9 1 5.5-1.8 6.5-4.2.4-1 .6-2.4.5-3.7.7.1 1.5.1 2.2 0-1 2.1-1.7 4.4-2.1 6.6-.2 1.1-.6 2.4-.2 3.5.7 2.1 4.7.2 5.7-.3-.1-.3 1-1 .2-1.5zm-79.3-9.3c-.6-.1-1.2-.4-1.6-.8-1.3-1.1-2-2.6-2.5-4-.4-1.2-.8-2.6-.5-4 .1 0 .2 0 .4.1 1.4.3 2.3 1.5 2.8 2.5.8 1.9 1.5 3.9 2.2 5.9v.2s-.1 0-.1.1h-.7zm5.5-2zm-.1-.2c0 .1 0 .2-.1.2-1.1.5-2-.1-2.3-1-.7-2.1-1.3-4.2-2.2-6.3-.2-.5-.3-1-.3-1.6h.1c.4-.2.8 0 1.3.2 1.4.8 2.1 2.4 2.7 3.7.6 1.5 1.1 3.2.8 4.8zm6.8-2.7zm3.8 9.5zm0-.2c0 .1 0 .2-.1.2-1 .4-1.8-.5-2-1.3 0-.1 0-.1-.1-.2-.4-2-.9-3.9-1.5-5.8v-.1c-.2-.6-.3-1.2-.2-1.9.4-.1.8.1 1.1.4 1.2.9 1.8 2.6 2.2 4 .6 1.4.9 3.2.6 4.7zm13.4 8.6c0 .3-.1.7-.2 1.1h-.2c-.4-.1-.4-.1-.7-.3-.9-.5-.6-1.9-.4-2.8.3-1.4.8-2.8 1.3-4.1.1.7.1 1.3.2 2 .1 1.2.1 2.7 0 4.1zm13.8-10.8zm17.4 2.2c-.1 0 0 0 0 0zm8.2 1.9c-.1.1-.2.3-.3.4-.1 0-.1 0-.2-.1-1.6-.5-1.5-2.9-1.3-4 0-.1.1-.3.1-.4.1-.2.1-.4.2-.6.2-.5.4-.9.7-1.3l.4-.4h.2c1.5.5 1.3 3 1.2 4.1-.3.8-.6 1.6-1 2.3z"/></g><g id="leafs"><path class="st2" d="M67.5 18.4c2.8 4.1-.6 12.8-.6 12.8s-9.4.2-12.2-3.9C51.8 23.1 52.2 10 52.2 10s12.4 4.3 15.3 8.4zM37 32.5c3.2 1.9 3.5 8.8 3.5 8.8s-6.3 3-9.5 1.1-6.9-10.9-6.9-10.9 9.7-.9 12.9 1z"/><path class="st3" d="M38.4 12.7c1 2.5-2 6.7-2 6.7s-5-1.1-6-3.6c-1-2.6.9-9.5.9-9.5s6.1 3.8 7.1 6.4z"/><path class="st2" d="M14.6 20.5c1.9 1.2 1.9 5.3 1.9 5.3s-3.8 1.7-5.7.5c-1.9-1.2-4-6.7-4-6.7s5.9-.3 7.8.9z"/></g></svg>