<svg id="Layer_1" xmlns="http://www.w3.org/2000/svg" viewBox="-740 267.7 296 271.3"><style>.st0{fill:#B71E4E;} .st1{fill:#FFFFFF;} .st2{fill:#63BA46;} .st3{fill:#435F2C;} .st4{fill:#64B846;} .st5{fill:#EB2046;}</style><g id="Layer_1_1_"><path class="st0" d="M-494.3 471.9c5.3-19.9-8.2-35.6-26.9-43.2-8.2-3.4-19 1.9-28 1.9-10.6 0-19.4-5.3-28.4-1.9-16.1 6-27.7 17.1-27.6 31.8.2 29.4 27.6 72.1 57.3 72.1 26.3 0 45.7-30.7 53.6-60.7z"/><path class="st1" d="M-567.3 482.5c-1.1-.1-2 1.2-2.3 2-1.2 2.4-3.6 1-4.7-.6-1.7-2.4-2.7-5.6-3.5-8.5-.1-.5-.3-1-.4-1.5v-.1c0-.1 0-.2-.1-.2-.6-2.3-1.1-4.7-1.4-7.2v-.3s0-.2-.1-.3c-.2-1.5-.4-3.1-.5-4.6-.1-1.1-1.5-.4-2 .1-.3.2-.5.5-.7.8-.1 0-.3-.1-.4-.1-2.2-.3-4.3.9-5.9 2.6-4.1 4.2-4.7 11-1.7 15.9 1.7 2.7 5.2 3.9 8.2 2.5.9-.4 1.6-1 2.3-1.7.3 2.2.3 4.5-.3 6.6-.7 2.5-4 2.8-5.5.8-1-1.3-3.8 2.9-2.8 4.1 1.6 1.8 3.8 1.9 6 1.1 1.9-.7 3-2.5 3.9-4.1.6-1.2 1-2.5 1.3-3.8.7 1.3 1.6 2.5 2.6 3.3 3.3 2.4 6.8-1.9 8.3-4.6.2-.6.8-2.2-.3-2.2zm-15.3-3.5c-2 .7-3.9-.6-5-2-1-1.3-1.4-2.9-1.6-4.4-.2-1.4-.5-3.6.4-5.1.6-.9 1.9-1.3 2.8-1.2 1.5.2 2.3 1.3 2.7 2.6.5 2.8 1.1 5.5 1.9 8.2.1.3.1.7.1 1v.1l-.3.3c-.2.2-.6.3-1 .5zm1.3-.8zM-507.6 490.9c-1-.7-2.5-.2-3.2.2-.2.1-.3.2-.3.2v-.3c-.1-.6 0-1.1 0-1.7.2-1.5.6-3 1.1-4.5.8-2.6 1.8-5.5 3.6-7.8l.4-.4.2-.2.2-.2c.7-.7.2-1.5-.9-1.6-1.3-.2-2.6.3-3.3 1.1-.2.2-.3.4-.5.6-1.4 1.1-5.5-.4-7.2-1-.1 0-.1 0-.2-.1-.1 0-.1 0-.2-.1-1-.2-1.9-.2-2.8.1.2-.7.3-1.5.5-2.2.1-.1.1-.2.1-.3.2-.9.3-1.7.4-2.6.1-1-1.9-.7-2.3-.5-1 .4-2 1.1-2.1 2.1-.1.7-.1 1.5-.3 2.2v.1s-.3.5-.4.6c-.2.3-.3.4-.6.8l-2.4 2.7c-.7.7-1.4 1.4-2 2.1.5-3.9 1.1-7.8 1.7-11.7.2-1.3-1.5-1.1-3-.4-.6-.6-1.4-1-2.4-1.2-.1 0-.3-.1-.5-.1h-1.2c-.9-.3-2.2.3-2.7.7l-.1.1c-.5.3-1 .4-1.6.6-2.4.6-4.6-.3-6.4-1.6-.1-.1-.2-.1-.3-.1-.4-.3-.9-.5-1.4-.6-.1 0-.3-.1-.4 0h-.3c-4.7.7-5.7 6.5-5.8 10.4-.2.7-.3 1.5-.5 2.2l-.9 2.7c-.1.3-.3.6-.4.8 0 .1-.4.7-.4.6-.1.2-.4.5-.4.5s-.3.2-.2.1l-.6.3c-1.1.3-2.2 0-3.1-.7-1.5-1.2-.6-3.5.1-4.9 1.3-2.7 3.2-4.9 3.1-7.9 0-1.8-1.2-3.3-3.5-3.4-3.3-.2-5.5 2.4-7.4 4.1-.7.6-1.7 2-1.2 2.8.5.9 1.9-.2 2.4-.6.8-.7 1.9-2.4 3.2-2.4 1.2 0 1.9.5 2.3 1.2 1.3 2.6-2.3 5.9-3.1 8.3-1.1 3.2-.1 7.8 4.2 7.4 3.2-.2 5.5-2.4 7-4.7.1-.1.2-.3.2-.4.6 2.2 1.7 4.2 3.7 4.2 1.9.1 3.6-2.2 4.4-3.9 1-2.1 1.4-4.4 1.5-6.7.1-1 .1-2.6 0-4.2 1 .1 2 0 3-.2-.8 1.7-1.2 3.6-1.3 5.1-.4 3.4-.6 9.8 3.9 10.5.8.1 1.7-.1 2.6-.4-1.4 1.6-2.6 3.2-3.6 5-1.2 1.9-2.2 4-2.6 6.3-.5 3.1 1.7 4.6 4.5 3.6 2.4-.9 4.1-3.2 4.8-5.4 1.2-3.6 1.8-7.5 2.3-11.4 1.7-1.8 3.4-3.4 5-5.1-.1.6-.3 1.2-.4 1.9-.9 3-.5 7.5 2.6 8.6 3.4 1.2 6.8-2.7 7.9-5.8.5-1.4.8-3.2.6-5 .9.1 1.9.1 2.8 0-1.3 2.7-2 5.6-2.7 8.4-.4 1.6-.7 3.3-.4 4.9.6 2.8 5.5.7 6.8.1 0-.2 1.3-1.2.4-1.9zm-41.3-7.5s-.1 0 0 0zm1-6.9c.1 1.7 0 3.4-.4 5.1-.1.4-.2.9-.4 1.3-.7-.2-1.2-1.5-1.4-2.2-.5-1.5-.7-3.2-.8-4.8v-1.2c.4-1.7.7-3.4 1-5h.1c0 .1.1.1.2.2.1 0 .1.1.2.1 1.2 1.4 1.5 5.3 1.5 6.5zm9.1 0c.1-1.7.4-3.4 1-4.9.2-.5.5-1 .8-1.4 2.8.6 2.8 5.7 2.7 7.3-.1 1.7-.4 3.4-1.1 4.9-.1.3-.3.7-.5 1 0 .1-.2.3-.3.4h-.1c-2.8-.3-2.6-5.7-2.5-7.3zm1.8 20.9c-.2.4-.3.8-.6 1.1-.1 0-.2 0-.4-.1-.5-.2-.5-.2-.7-.5-.9-1 .1-3 .7-4.1.7-1.3 1.5-2.6 2.5-3.7-.1.7-.2 1.3-.2 2-.3 1.8-.6 3.6-1.3 5.3zm16.7-10.8c-.1.2-.3.4-.4.6-.1 0-.2 0-.3-.1-1.9-.6-1.9-3.8-1.6-5.3 0-.2.1-.4.1-.6v-.1c.1-.3.1-.5.2-.8.2-.6.5-1.2.8-1.8.1-.2.3-.4.5-.6h.2c1.9.7 1.7 3.9 1.5 5.4-.1 1.3-.5 2.4-1 3.3z"/></g><g id="leafs"><path class="st2" d="M-548.8 415.9c2.8 4.1-.6 12.8-.6 12.8s-9.4.2-12.2-3.9c-2.8-4.1-2.4-17.2-2.4-17.2s12.3 4.2 15.2 8.3zM-579.3 430.1c3.2 1.9 3.5 8.8 3.5 8.8s-6.3 3-9.5 1.1-6.9-10.9-6.9-10.9 9.7-.9 12.9 1z"/><path class="st0" d="M-577.9 410.2c1 2.5-2 6.7-2 6.7s-5-1.1-6-3.6c-1-2.6.9-9.5.9-9.5s6.1 3.9 7.1 6.4z"/><path class="st2" d="M-601.7 418.1c1.9 1.2 1.9 5.3 1.9 5.3s-3.8 1.7-5.7.5c-1.9-1.2-4-6.7-4-6.7s5.9-.3 7.8.9z"/></g><g id="Layer_1_2_"><path class="st3" d="M-608.6 422.3c0 22-12.9 41.1-31.6 49.9-7.1 3.4-15.1 1.3-23.5 1.3-7.6 0-14.8 2.4-21.4-.4-19.8-8.4-33.7-28-33.7-50.8 0-19.5 10.1-36.6 25.3-46.4 8.6-5.5 18.8.5 29.8.5 10.7 0 20.6-6.2 29.1-.9 15.6 9.6 26 27 26 46.8z"/><path class="st1" d="M-703.1 411.6c-4.9 2-5.7 8.2-4.9 12.6 1 5.2 3.1 9.6 6.3 14 2 2.7 6.5 4.9 8.9 1 2.5-4.1 2-9.5 1-13.9-.9-3.8-2.2-7.3-4.2-10.5-1.4-2-3.9-4.3-7.1-3.2-1.6.6-3.4 5.1-1 4.3 1.6-.6 3.2.7 4.1 1.6 1.7 1.7 2.8 3.9 3.7 6.1 1 2.4 1.7 5 2.2 7.6.2 1.1.3 2.2.3 3.3 0 .8-.1 2-.2 2.4-.1.2 0 .1.1-.1-.1.2.1 0-.3.2-.5.3-1.2.1-1.8-.1-1.7-.7-3-2.5-4-4.1-3-4.5-4.4-9.3-4.7-14.3 0-.8.2-2.1.3-2.5.2-.7-.3.5.1-.1.3-.6-.3.4.1-.1-.4.5-.2.2.2 0 1.4-.6 3.2-5.2.9-4.2zM-669.5 414.2c-5.2.6-6.4 7-6.1 11.2.2 3.3 1.3 9.7 5.7 9.6 2-.1 3.6-2.4 4.4-4.2.9-2.1 1.2-4.5 1.2-6.7.1-3.4-.4-10-5.2-9.9-1.6 0-4.2 3.9-1.9 3.8 2.7-.1 3.4 5.1 3.6 6.7.2 1.7.2 3.4-.1 5.1-.1.4-.1.7-.2 1 0 .1-.3.8-.2.6-.1.2-.1.2 0 0 .3-.3.4-.2-.1-.1-2.4.3-3.3-5.1-3.5-6.7-.2-1.7-.2-3.4.1-5.1.1-.7.3-1.3.6-2 0 0-.8.5-.3.4 1.7-.1 4.3-4 2-3.7z"/><path class="st1" d="M-684 424.9c.6-1.2 1.6-.6 2.2.3 1.2 1.6 1.2 4 1.2 5.9 0 .6 0 1.2-.2 1.8-.2.7.1 0 .1 0-1.1.5-1.9-1-2.3-1.7-1.9-3.6-2.8-7.4-3.6-11.6-.7-3.6-.9-7.5.2-11 .2-.5.7-.8-.1-.2-.5.4.1 0 .6.3 1 .5 1.1 2.1 1.2 2.9.1 3.8-.7 7.5-1.5 11.4l-.6 2.4c-.1.4.2-.6 0-.1l-.3.6c-.5 1.1-1.1 2.2-1.7 3.3-1.5 2.8-3.1 5.7-5.3 7.9-.7.7-1.3 1.9-1.3 3 0 .9.7 1.3 1.4.7 2.5-2.4 4.4-5.6 6.1-8.6 1.3-2.3 3.1-4.9 4-7.5 1.4-3.7 2.3-7.6 3-11.6.4-2.5 1.2-6.3-1.2-8.3-2.6-2.1-6.4 1.9-7.1 3.6-1.3 3.5-1.6 7.1-1 11.1.7 4.4 1.8 8.6 3.4 12.8.8 2.1 2.5 5.8 5.2 4.5 4.3-2 4.8-7.6 4.3-11.8-.3-2-1.2-4.5-3.8-4.7-2.7-.2-4.7 2.8-5.5 4.6-.2.5-.7 2.1.3 2.1 1.1-.1 2-1.3 2.3-2.1zM-625.1 438.2c-1.4.4-1.3-.2-1.3-1.4.1-1.6.5-3.2.9-4.7.9-3.3 2-6.6 3.7-9.6-1.5.1-3 .3-4.4.4-1.7 3.8-3.4 7.6-5.6 11-.2.4-.5.7-.8 1.1s-.4.4-.5.5c-.2.1.2 0 0 0s-.6 0-.6-.1c-1.8-2.1 2.8-11.3 4-15.8.5-2-3.9-.6-4.2.8-.8 3.7-2.1 7.6-3.1 11.3-.5 2.1-1.8 6.2 1 6.7 2.7.4 5.2-1.5 7.1-3.5 3.2-3.6 5.2-8.1 7.2-12.4.4-.9-.9-1.3-1.6-1.2-1.2.1-2.4.7-2.8 1.6-1.8 3.9-3 8-3.9 12.3-.3 1.5-.6 3.1-.3 4.6.4 2 3.9 1.2 5.1.9.8-.2 2.3-.8 2.4-1.8-.1-.9-1.8-.8-2.3-.7zM-653.1 417.1c-.8 4.1-1.6 8.2-2.9 12.1-.2.4-.4.9-.6 1.3-.2.5-.3.5-.4.6-.2.2.2-.1 0 0s-.6.2-.7.1c-2.2-1.6.1-11.6.2-16.3.1-2.1-3.1.3-3.6 1-.1.1-.2.4.1-.2-.1.2-.3.4-.4.6-.4.6-.7.8-1.2 1.3-1.3 1.2-2.9-.4-3.6-1.5-1-1.6-4.4 1.7-3.6 2.9 1.9 2.7 4.2 3.5 7 1.7 1.9-1.3 3.6-3 4.9-4.9-1.2.3-2.4.7-3.5 1 0 3.9-.3 7.9-.4 11.8 0 2.1-.3 6.5 2.5 6.2 2.7-.3 4.8-2.8 6.2-5.3 2.3-4.2 3.3-9.1 4.3-13.8.2-1-1.2-1-1.9-.7-1 .2-2.2 1.1-2.4 2.1z"/><path class="st1" d="M-639.8 437.7c.3-1.2.6-2.4.8-3.6.2-1.5-1.3-.9-2.1-.9-.3 0-.4-.1-.5-.7-.1-.8-.1-1.7-.1-2.5.1-4.4.8-8.9 2.4-13-1.4.4-2.9.8-4.3 1.2-1.1 4.1-2.2 8.1-4 11.8-.2.4-.5.8-.7 1.2-.3.4-.4.5-.5.6-.2.1.3-.1-.1 0-.3.1-.7.1-.8 0-2.2-1.7.9-11.7 1.4-16.3.2-2-4.3.1-4.4 1.5-.2 3.8-.9 7.9-1.3 11.7-.2 2.1-.9 6.4 2.4 6.4 3.1-.1 5.6-2.4 7.1-4.8 2.6-4 3.8-8.8 5.2-13.4.3-1-1-1.1-1.8-.9-1.1.3-2.3 1.1-2.6 2.1-1.2 3.9-1.7 7.9-1.9 12-.1 1.5-.1 3.2.2 4.7.5 2 2.5 1.6 4 1.1h-1.1c-.2-.4-.3-.5-.3-.1 0 .3-.1.6-.2.8-.1.7-.3 1.4-.4 2.1-.4 2.2 3.2.4 3.6-1z"/></g><g id="leafs_1_"><path class="st4" d="M-663.6 360.8c2.8 4.1-.6 12.8-.6 12.8s-9.4.2-12.2-3.9c-2.8-4.1-2.4-17.2-2.4-17.2s12.4 4.2 15.2 8.3zM-694.1 375c3.2 1.9 3.5 8.8 3.5 8.8s-6.3 3-9.5 1.1S-707 374-707 374s9.7-1 12.9 1z"/><path class="st3" d="M-692.7 355.1c1 2.5-2 6.7-2 6.7s-5-1.1-6-3.6c-.9-2.5.9-9.5.9-9.5s6.1 3.9 7.1 6.4z"/><path class="st4" d="M-716.5 362.9c1.9 1.2 1.9 5.3 1.9 5.3s-3.8 1.7-5.7.5c-1.9-1.2-4-6.7-4-6.7s5.9-.3 7.8.9z"/></g><g><g id="fruits_2"><path class="st5" d="M-511.8 348.3c0 22-12.9 41.1-31.6 49.9-7.1 3.4-15.1 1.3-23.5 1.3-7.6 0-14.8 2.4-21.4-.4-19.8-8.4-33.7-28-33.7-50.8 0-19.5 10.1-36.6 25.3-46.4 8.6-5.5 18.8.5 29.8.5 10.7 0 20.6-6.2 29.1-.9 15.6 9.7 26 27 26 46.8z"/><path class="st1" d="M-524 359.1c-.7-.5-1.9-.2-2.4.1-.2.1-.7.2-.7.3 0 0 0-.1-.1-.1-.1-.3 0-.7 0-1 .1-1.1.4-2.2.7-3.3.6-2.1 1.4-4.3 2.8-6.1l.3-.3c0-.1.1-.1.1-.2 0 0 .1-.1.1-.2.5-.5.1-1.1-.7-1.2-1-.1-2 .3-2.5.9-.1.1-.3.3-.4.5-1.1.8-4.4-.3-5.8-.8 0 0-.1 0-.1-.1h-.2c-.8-.2-1.5-.2-2.2 0 .3-1.2.6-2.4.8-3.6v-.2c.1-.8-1.5-.5-1.8-.4-.5.2-1 .5-1.3.9-.1.1-.2.3-.2.4-.7 2.8-1.8 5.3-3.4 7.7-.3.5-.8 1.1-1.3 1.5-.1.1-.3.2-.4.3 0 0 0-.1-.1-.1-.1-.1-.1-.3-.1-.5-.2-1.5.3-2.9.6-4.3s.5-2.9.6-4.3c.1-1 .2-2.4-.6-3.3s-2.5-.3-3.3.1c-.6.3-1 .7-1.4 1.1-.1-.8-.3-1.6-.9-2.2-.7-.7-2.2-.5-2.9-.1-.6.3-1.1.7-1.5 1.1v-1.2c.1-.4-.1-.5-.4-.6-.1 0-.3-.1-.5 0-.2 0-.5.1-.6.1-.5.2-1 .5-1.3.8-.3.3-.5.6-.5.9-.8 2.8-1.7 5.5-3 8.2-.3.7-.8 1.4-1.2 2-.3-.4-.3-1-.4-1.4-.1-.9-.2-1.8-.5-2.7-.5-1.7-1.7-2.2-3.1-1.9 0-.1.1-.2.1-.4.3-1.2.7-2.5 1.5-3.6.4.1.8.3 1.1.5 1.1.8 3.9-1.5 2.9-2.3-1.5-1.2-3-1.1-4.2-.3-.9.4-1.7 1.2-2.3 2-.1-1.6-.4-3.1-.8-4.7-.4-1.2-3.4 1-3 2.1 0 .1.1.2.1.3v.1c-.8 2.7-2 5.3-3.3 7.9-.1-2.5-.3-5-.5-7.5 0-.4-.2-.6-.6-.5-.3 0-.7.1-1 .3-.8.4-1.5 1.2-1.5 2 0 3.1-.1 6.2-.5 9.2l-.3 1.2c0 .1-.1.3-.2.4-.1 0-.3.1-.5.1-2.5-.3-2.3-8.8-2.4-11.5v-.1-.3c-.3-1.4-2.8.4-3.1 1.6l-.1.1c-.2.2-.4.3-.7.5-1.4.9-2.8.6-4-.1-.4-.3-.8-.6-1.3-.7-1.3-.3-2.5.5-3.4 1.4-.3-.9-.6-1.7-1-2.6-.3-.7-1.5.3-1.7.6-.3.3-.5.7-.7 1.1-.1-.7-.3-1.3-.5-1.9-.7-2.1-1.8-4.8-4.2-5.2-1.3-.2-2.7.8-3.6 1.8-.4-.8-.8-1.7-1.2-2.5-.4-.7-1.6.5-1.9.8-.5.7-1 1.6-.7 2.3-.9.5-1.7 1.4-2.2 2.1-1.4 2.2-1.3 5-.5 7.4.8 2.2 2.1 4.4 4.3 5.4.9.4 2.1.2 3.1-.3.4-.2.7-.5 1-.8.9 2.8 1.8 5.7 2.5 8.6.2.8 1 .3 1.4-.1.5-.6 1-1.5.8-2.3-.5-2.3-1.1-4.6-1.7-6.9 1-.4 2-1.3 2.7-2.3.9-1.4 1.1-3.1 1-4.6 1.7 4.3 3 8.6 4.1 13 .9 3.5 1.7 7.1 2.3 10.7.1.8.8.4 1.2 0 .5-.5.9-1.4.8-2.2-.4-2.7-.9-5.4-1.5-8.1.9-.3 1.9-1 2.5-2 1.5-2.3 1.5-5.3.8-7.9-.1-.4-.2-.9-.4-1.4 1.1-.3 2.1-.9 3.1-1.7.3 2.2.3 4.5.7 6.7.3 1.8.9 4.8 3.7 4.2 1.2-.3 2.2-.9 2.9-1.8-.9 1.9-1.7 3.9-2.4 5.9-.5 1.6-1 3.3-.8 5 .3 2.1 2.7 2.8 4.3 1.6 1.5-1.1 2.3-3.1 2.4-4.9.3-3.2 0-6.5-.3-9.8l3.9-7.8c.3 3.5.2 7 .2 10.4 0 1.6 2.6-.5 2.7-1.5.1-1.3.2-2.7.5-4 1.4 1.6.8 7 4.1 5.7 1.8-.7 3.1-2.8 4.1-4.4-.2 1.5-.3 3-.4 4.5-.1 1.6 2.9-.1 3-1.2.5-3.2 1.2-6.2 2.5-9.1.1-.2.2-.5.4-.7v.1c.5 1.8.2 3.9 0 5.7-.1.9-.2 1.7-.3 2.6-.2 1.1-.4 2.1-.5 3.2-.2 1.6 3 0 3.2-1s.4-1.9.6-2.9c.6-2.4 1.5-4.6 2.7-6.7.3 1.1.1 2.3.1 3.4-.1 1.5-.4 3-.7 4.5-.2 1.1-.4 2.4 0 3.5.4 1 1.2 1.2 2.1.9 1.6-.2 3-1.5 4.1-2.6-.2 1.9.4 4 2.4 4.6 2.9 1 5.5-1.8 6.5-4.2.4-1 .6-2.4.5-3.7.7.1 1.5.1 2.2 0-1 2.1-1.7 4.4-2.1 6.6-.2 1.1-.6 2.4-.2 3.5.7 2.1 4.7.2 5.7-.3-.1-.3 1-1 .2-1.5zm-79.3-9.3c-.6-.1-1.2-.4-1.6-.8-1.3-1.1-2-2.6-2.5-4-.4-1.2-.8-2.6-.5-4 .1 0 .2 0 .4.1 1.4.3 2.3 1.5 2.8 2.5.8 1.9 1.5 3.9 2.2 5.9v.2s-.1 0-.1.1h-.7zm5.5-2zm-.1-.2c0 .1 0 .2-.1.2-1.1.5-2-.1-2.3-1-.7-2.1-1.3-4.2-2.2-6.3-.2-.5-.3-1-.3-1.6h.1c.4-.2.8 0 1.3.2 1.4.8 2.1 2.4 2.7 3.7.6 1.5 1.1 3.2.8 4.8zm6.8-2.7zm3.8 9.5zm0-.2c0 .1 0 .2-.1.2-1 .4-1.8-.5-2-1.3 0-.1 0-.1-.1-.2-.4-2-.9-3.9-1.5-5.8v-.1c-.2-.6-.3-1.2-.2-1.9.4-.1.8.1 1.1.4 1.2.9 1.8 2.6 2.2 4 .6 1.4.9 3.2.6 4.7zm13.4 8.6c0 .3-.1.7-.2 1.1h-.2c-.4-.1-.4-.1-.7-.3-.9-.5-.6-1.9-.4-2.8.3-1.4.8-2.8 1.3-4.1.1.7.1 1.3.2 2 .1 1.2.1 2.7 0 4.1zm13.8-10.8zm17.4 2.2c-.1 0 0 0 0 0zm8.2 1.9c-.1.1-.2.3-.3.4-.1 0-.1 0-.2-.1-1.6-.5-1.5-2.9-1.3-4 0-.1.1-.3.1-.4.1-.2.1-.4.2-.6.2-.5.4-.9.7-1.3l.4-.4h.2c1.5.5 1.3 3 1.2 4.1-.3.8-.6 1.6-1 2.3z"/></g><g id="leafs_2_"><path class="st2" d="M-567 286.9c2.8 4.1-.6 12.8-.6 12.8s-9.4.2-12.2-3.9c-2.9-4.2-2.5-17.3-2.5-17.3s12.4 4.3 15.3 8.4zM-597.5 301c3.2 1.9 3.5 8.8 3.5 8.8s-6.3 3-9.5 1.1-6.9-10.9-6.9-10.9 9.7-.9 12.9 1z"/><path class="st5" d="M-596.1 281.2c1 2.5-2 6.7-2 6.7s-5-1.1-6-3.6c-1-2.6.9-9.5.9-9.5s6.1 3.8 7.1 6.4z"/><path class="st2" d="M-619.9 289c1.9 1.2 1.9 5.3 1.9 5.3s-3.8 1.7-5.7.5c-1.9-1.2-4-6.7-4-6.7s5.9-.3 7.8.9z"/></g></g></svg>