<svg xmlns="http://www.w3.org/2000/svg" viewBox="-358 229.3 124 137"><style>.st0{opacity:0.56;} .st1{fill:#B71E4E;} .st2{fill:#FFFFFF;} .st3{fill:#63BA46;} .st4{fill:#435F2C;} .st5{fill:#64B846;} .st6{fill:#EB2046;} .st7{fill:#62BC47;}</style><g class="st0" id="Layer_1"><g id="Layer_1_1_"><path class="st1" d="M-243.8 330.8c2.6-9.6-4-17.3-13-20.9-4-1.6-9.2.9-13.6.9-5.1 0-9.4-2.6-13.8-.9-7.8 2.9-13.4 8.3-13.4 15.4.1 14.3 13.4 35 27.8 35 12.8-.1 22.2-14.9 26-29.5z"/><path class="st2" d="M-279.2 336c-.5 0-1 .6-1.1 1-.6 1.2-1.7.5-2.3-.3-.8-1.2-1.3-2.7-1.7-4.1 0-.2-.1-.5-.2-.7v-.1c-.3-1.1-.5-2.3-.7-3.5v-.1-.1c-.1-.7-.2-1.5-.2-2.2 0-.5-.7-.2-1 0-.1.1-.2.2-.3.4h-.2c-1.1-.1-2.1.4-2.9 1.3-2 2-2.3 5.3-.8 7.7.8 1.3 2.5 1.9 4 1.2.4-.2.8-.5 1.1-.8.1 1.1.1 2.2-.1 3.2-.3 1.2-1.9 1.4-2.7.4-.5-.6-1.8 1.4-1.4 2 .8.9 1.8.9 2.9.5.9-.3 1.5-1.2 1.9-2 .3-.6.5-1.2.6-1.8.3.6.8 1.2 1.3 1.6 1.6 1.2 3.3-.9 4-2.2.1-.7.4-1.4-.2-1.4zm-7.4-1.7c-1 .3-1.9-.3-2.4-1-.5-.6-.7-1.4-.8-2.1-.1-.7-.2-1.7.2-2.5.3-.4.9-.6 1.4-.6.7.1 1.1.6 1.3 1.3.2 1.4.5 2.7.9 4v.5l-.1.1c-.1.1-.3.2-.5.3zm.7-.4zM-250.2 340c-.5-.3-1.2-.1-1.6.1-.1 0-.1.1-.1.1v-.1-.8c.1-.7.3-1.5.5-2.2.4-1.3.9-2.7 1.7-3.8l.2-.2.1-.1.1-.1c.3-.3.1-.7-.4-.8-.6-.1-1.3.1-1.6.5-.1.1-.1.2-.2.3-.7.5-2.7-.2-3.5-.5h-.1-.1c-.5-.1-.9-.1-1.4 0 .1-.3.1-.7.2-1.1v-.1c.1-.4.1-.8.2-1.3 0-.5-.9-.3-1.1-.2-.5.2-1 .5-1 1 0 .3 0 .7-.1 1.1 0 0-.1.2-.2.3-.1.1-.1.2-.3.4-.4.4-.8.9-1.2 1.3l-1 1c.2-1.9.5-3.8.8-5.7.1-.6-.7-.5-1.5-.2-.3-.3-.7-.5-1.2-.6h-.2-.5c-.4-.1-1.1.1-1.3.3-.2.1-.5.2-.8.3-1.2.3-2.2-.1-3.1-.8h-.1c-.2-.1-.4-.2-.7-.3h-.2-.1c-2.3.3-2.8 3.2-2.8 5-.1.3-.1.7-.2 1.1-.1.4-.3.9-.4 1.3 0 .1-.1.3-.2.4l-.2.3c0 .1-.2.2-.2.2s-.1.1-.1 0c-.1 0-.2.1-.3.1-.5.1-1.1 0-1.5-.3-.7-.6-.3-1.7 0-2.4.6-1.3 1.6-2.4 1.5-3.8 0-.9-.6-1.6-1.7-1.6-1.6-.1-2.7 1.2-3.6 2-.3.3-.8 1-.6 1.4.2.4.9-.1 1.2-.3.4-.3.9-1.2 1.6-1.2.6 0 .9.2 1.1.6.6 1.3-1.1 2.9-1.5 4-.5 1.6 0 3.8 2 3.6 1.6-.1 2.7-1.2 3.4-2.3 0 0 .1-.1.1-.2.3 1.1.8 2 1.8 2 .9 0 1.7-1.1 2.1-1.9.5-1 .7-2.1.7-3.2v-2c.5 0 1 0 1.5-.1-.4.8-.6 1.7-.6 2.5-.2 1.6-.3 4.8 1.9 5.1.4 0 .8 0 1.3-.2-.7.8-1.3 1.6-1.7 2.4-.6.9-1.1 1.9-1.3 3.1-.2 1.5.8 2.2 2.2 1.7 1.2-.4 2-1.6 2.3-2.6.6-1.7.9-3.6 1.1-5.5.8-.9 1.6-1.6 2.4-2.5 0 .3-.1.6-.2.9-.4 1.5-.2 3.6 1.3 4.2 1.6.6 3.3-1.3 3.8-2.8.2-.7.4-1.6.3-2.4h1.4c-.6 1.3-1 2.7-1.3 4.1-.2.8-.3 1.6-.2 2.4.3 1.4 2.7.3 3.3 0-.1 0 .5-.5.1-.9zm-20-3.6s-.1 0 0 0zm.4-3.4c0 .8 0 1.6-.2 2.5 0 .2-.1.4-.2.6-.3-.1-.6-.7-.7-1.1-.2-.7-.3-1.6-.4-2.3v-.6c.2-.8.3-1.6.5-2.4l.1.1h.1c.7.8.8 2.7.8 3.2zm4.5 0c0-.8.2-1.6.5-2.4.1-.2.2-.5.4-.7 1.4.3 1.4 2.8 1.3 3.5 0 .8-.2 1.6-.5 2.4 0 .1-.1.3-.2.5 0 0-.1.1-.1.2-1.6-.1-1.5-2.7-1.4-3.5zm.8 10.2c-.1.2-.1.4-.3.5h-.2c-.2-.1-.2-.1-.3-.2-.4-.5 0-1.5.3-2 .3-.6.7-1.3 1.2-1.8 0 .3-.1.6-.1 1-.1.8-.2 1.7-.6 2.5zm8.1-5.3c0 .1-.1.2-.2.3h-.1c-.9-.3-.9-1.8-.8-2.6v-.3c0-.1 0-.2.1-.4.1-.3.2-.6.4-.9 0-.1.1-.2.2-.3h.1c.9.3.8 1.9.7 2.6.1.7-.1 1.2-.4 1.6z"/></g><g id="leafs"><path class="st3" d="M-270.2 303.7c1.4 2-.3 6.2-.3 6.2s-4.6.1-5.9-1.9c-1.4-2-1.2-8.3-1.2-8.3s6 2 7.4 4zM-285 310.6c1.6.9 1.7 4.3 1.7 4.3s-3.1 1.5-4.6.5c-1.6-.9-3.3-5.3-3.3-5.3s4.7-.5 6.2.5z"/><path class="st1" d="M-284.3 300.9c.5 1.2-1 3.2-1 3.2s-2.4-.5-2.9-1.7c-.5-1.3.4-4.6.4-4.6s3 1.9 3.5 3.1z"/><path class="st3" d="M-295.8 304.7c.9.6.9 2.6.9 2.6s-1.8.8-2.8.2c-.9-.6-1.9-3.2-1.9-3.2s2.8-.1 3.8.4z"/></g><g id="Layer_1_2_"><path class="st4" d="M-299.2 306.8c0 10.7-6.3 19.9-15.3 24.2-3.4 1.6-7.3.6-11.4.6-3.7 0-7.2 1.2-10.4-.2-9.6-4.1-16.3-13.6-16.3-24.6 0-9.5 4.9-17.7 12.3-22.5 4.2-2.7 9.1.2 14.4.2 5.2 0 10-3 14.1-.4 7.6 4.6 12.6 13.1 12.6 22.7z"/><path class="st2" d="M-345 301.6c-2.4 1-2.8 4-2.4 6.1.5 2.5 1.5 4.7 3.1 6.8 1 1.3 3.2 2.4 4.3.5 1.2-2 1-4.6.5-6.7-.4-1.8-1.1-3.5-2-5.1-.7-1-1.9-2.1-3.5-1.6-.8.3-1.6 2.5-.5 2.1.8-.3 1.6.3 2 .8.8.8 1.4 1.9 1.8 3 .5 1.2.8 2.4 1.1 3.7.1.5.1 1.1.1 1.6 0 .4 0 1-.1 1.2 0 .1 0 0 0 0 0 .1 0 0-.1.1-.2.1-.6 0-.9 0-.8-.3-1.5-1.2-1.9-2-1.5-2.2-2.1-4.5-2.3-6.9 0-.4.1-1 .1-1.2.1-.3-.1.2 0 0 .1-.3-.1.2 0 0-.2.2-.1.1.1 0 .8-.7 1.7-2.9.6-2.4zM-328.7 302.8c-2.5.3-3.1 3.4-3 5.4.1 1.6.6 4.7 2.8 4.7 1 0 1.7-1.2 2.1-2 .4-1 .6-2.2.6-3.2.1-1.7-.2-4.9-2.5-4.9-.8 0-2 1.9-.9 1.8 1.3 0 1.6 2.5 1.7 3.2.1.8.1 1.6 0 2.5 0 .2 0 .3-.1.5 0 0-.1.4-.1.3 0 .1 0 .1 0 0 .1-.1.2-.1 0 0-1.2.1-1.6-2.5-1.7-3.2-.1-.8-.1-1.6 0-2.5 0-.3.1-.6.3-1 0 0-.4.2-.1.2.7 0 2-1.9.9-1.8z"/><path class="st2" d="M-335.7 308c.3-.6.8-.3 1.1.1.6.8.6 1.9.6 2.9 0 .3 0 .6-.1.9-.1.3 0 0 0 0-.5.2-.9-.5-1.1-.8-.9-1.7-1.4-3.6-1.7-5.6-.3-1.7-.4-3.6.1-5.3.1-.2.3-.4 0-.1-.2.2 0 0 .3.1.5.2.5 1 .6 1.4 0 1.8-.3 3.6-.7 5.5l-.3 1.2c0 .2.1-.3 0 0 0 .1-.1.2-.1.3-.2.5-.5 1.1-.8 1.6-.7 1.4-1.5 2.8-2.6 3.8-.3.3-.6.9-.6 1.5 0 .4.3.6.7.3 1.2-1.2 2.1-2.7 3-4.2.3-1.1 1.2-2.4 1.6-3.6.7-1.9 1.2-3.8 1.5-5.7.2-1.2.6-3.1-.6-4-1.3-1-3.1.9-3.4 1.7-.6 1.7-.8 3.4-.5 5.4.3 2.1.9 4.2 1.6 6.2.4 1 1.2 2.8 2.5 2.2 2.1-1 2.3-3.7 2.1-5.7-.1-1-.6-2.2-1.8-2.3-1.3-.1-2.3 1.4-2.7 2.2-.1.2-.3 1 .1 1 .6 0 1-.6 1.2-1zM-307.2 314.5c-.7.2-.6-.1-.6-.7 0-.8.2-1.6.4-2.3.4-1.6 1-3.2 1.8-4.7-.7 0-1.5.1-2.1.2-.8 1.8-1.6 3.7-2.7 5.3-.1.2-.2.3-.4.5-.1.2-.2.2-.2.2-.1 0 .1 0 0 0h-.3c-.9-1 1.4-5.5 1.9-7.7.2-1-1.9-.3-2 .4-.4 1.8-1 3.7-1.5 5.5-.2 1-.9 3 .5 3.2 1.3.2 2.5-.7 3.4-1.7 1.6-1.7 2.5-3.9 3.5-6 .2-.4-.4-.6-.8-.6-.6 0-1.2.3-1.4.8-.9 1.9-1.5 3.9-1.9 6-.1.7-.3 1.5-.1 2.2.2 1 1.9.6 2.5.4.4-.1 1.1-.4 1.2-.9-.1-.2-.9-.2-1.2-.1zM-320.8 304.3c-.4 2-.8 4-1.4 5.9l-.3.6c-.1.2-.1.2-.2.3-.1.1.1 0 0 0s-.3.1-.3 0c-1.1-.8 0-5.6.1-7.9 0-1-1.5.1-1.7.5 0 0-.1.2 0-.1 0 .1-.1.2-.2.3-.2.3-.3.4-.6.6-.6.6-1.4-.2-1.7-.7-.5-.8-2.1.8-1.7 1.4.9 1.3 2 1.7 3.4.8.9-.6 1.7-1.5 2.4-2.4-.6.1-1.2.3-1.7.5 0 1.9-.1 3.8-.2 5.7 0 1-.1 3.2 1.2 3 1.3-.1 2.3-1.4 3-2.6 1.1-2 1.6-4.4 2.1-6.7.1-.5-.6-.5-.9-.3-.6.1-1.2.6-1.3 1.1z"/><path class="st2" d="M-314.3 314.2c.1-.6.3-1.2.4-1.7.1-.7-.6-.4-1-.4-.1 0-.2 0-.2-.3v-1.2c0-2.1.4-4.3 1.2-6.3l-2.1.6c-.5 2-1.1 3.9-1.9 5.7l-.3.6c-.1.2-.2.2-.2.3-.1 0 .1 0 0 0h-.4c-1.1-.8.4-5.7.7-7.9.1-1-2.1 0-2.1.7-.1 1.8-.4 3.8-.6 5.7-.1 1-.4 3.1 1.2 3.1 1.5 0 2.7-1.2 3.4-2.3 1.3-1.9 1.8-4.3 2.5-6.5.1-.5-.5-.5-.9-.4-.5.1-1.1.5-1.3 1-.6 1.9-.8 3.8-.9 5.8 0 .7 0 1.6.1 2.3.2 1 1.2.8 1.9.5h-.5c-.1-.2-.1-.2-.1 0 0 .1 0 .3-.1.4 0 .3-.1.7-.2 1-.5.9 1.2 0 1.4-.7z"/></g><g id="leafs_1_"><path class="st5" d="M-325.8 277c1.4 2-.3 6.2-.3 6.2s-4.6.1-5.9-1.9c-1.4-2-1.2-8.3-1.2-8.3s6 2 7.4 4zM-340.6 283.8c1.6.9 1.7 4.3 1.7 4.3s-3.1 1.5-4.6.5c-1.6-.9-3.3-5.3-3.3-5.3s4.6-.4 6.2.5z"/><path class="st4" d="M-340 274.2c.5 1.2-1 3.2-1 3.2s-2.4-.5-2.9-1.7c-.4-1.2.4-4.6.4-4.6s3.1 1.9 3.5 3.1z"/><path class="st5" d="M-351.5 278c.9.6.9 2.6.9 2.6s-1.8.8-2.8.2c-.9-.6-1.9-3.2-1.9-3.2s2.9-.2 3.8.4z"/></g><g><g id="fruits_2"><path class="st6" d="M-252.3 270.9c0 10.7-6.3 19.9-15.3 24.2-3.4 1.6-7.3.6-11.4.6-3.7 0-7.2 1.2-10.4-.2-9.6-4.1-16.3-13.6-16.3-24.6 0-9.5 4.9-17.7 12.3-22.5 4.2-2.7 9.1.2 14.4.2 5.2 0 10-3 14.1-.4 7.6 4.7 12.6 13.1 12.6 22.7z"/><path class="st2" d="M-258.2 276.1c-.3-.2-.9-.1-1.2 0-.1 0-.3.1-.3.1v-.5c0-.5.2-1.1.3-1.6.3-1 .7-2.1 1.4-3l.1-.1v-.1-.1c.2-.2 0-.5-.3-.6-.5 0-1 .1-1.2.4l-.2.2c-.5.4-2.1-.1-2.8-.4h-.1c-.4-.1-.7-.1-1.1 0 .1-.6.3-1.2.4-1.7 0-.4-.7-.2-.9-.2-.2.1-.5.2-.6.4 0 0-.1.1-.1.2-.3 1.4-.9 2.6-1.6 3.7-.1.2-.4.5-.6.7 0 0-.1.1-.2.1v-.2c-.1-.7.1-1.4.3-2.1s.2-1.4.3-2.1c0-.5.1-1.2-.3-1.6-.4-.4-1.2-.1-1.6 0-.3.1-.5.3-.7.5 0-.4-.1-.8-.4-1.1-.3-.3-1.1-.2-1.4 0-.3.1-.5.3-.7.5v-.6c0-.2 0-.2-.2-.3h-.5c-.2.1-.5.2-.6.4s-.2.3-.2.4c-.4 1.4-.8 2.7-1.5 4-.1.3-.4.7-.6 1-.1-.2-.1-.5-.2-.7 0-.4-.1-.9-.2-1.3-.2-.8-.8-1.1-1.5-.9v-.2c.1-.6.3-1.2.7-1.7.2 0 .4.1.5.2.5.4 1.9-.7 1.4-1.1-.7-.6-1.5-.5-2-.1-.4.2-.8.6-1.1 1 0-.8-.2-1.5-.4-2.3-.2-.6-1.6.5-1.5 1v.1c-.4 1.3-1 2.6-1.6 3.8 0-1.2-.1-2.4-.2-3.6 0-.2-.1-.3-.3-.2-.1 0-.3 0-.5.1-.4.2-.7.6-.7 1 0 1.5 0 3-.2 4.5 0 .2-.1.4-.1.6 0 0 0 .1-.1.2h-.2c-1.2-.1-1.1-4.3-1.2-5.6v-.1c-.1-.7-1.4.2-1.5.8-.1.1-.2.1-.3.2-.7.4-1.4.3-1.9 0-.2-.1-.4-.3-.6-.3-.6-.1-1.2.2-1.6.7-.1-.4-.3-.8-.5-1.3-.1-.3-.7.1-.8.3-.1.1-.2.3-.3.5 0-.3-.1-.6-.2-.9-.3-1-.9-2.3-2-2.5-.6-.1-1.3.4-1.7.9l-.6-1.2c-.2-.3-.8.2-.9.4-.2.3-.5.8-.3 1.1-.4.2-.8.7-1.1 1-.7 1.1-.6 2.4-.2 3.6.4 1.1 1 2.1 2.1 2.6.4.2 1 .1 1.5-.1.2-.1.3-.2.5-.4.4 1.4.9 2.8 1.2 4.2.1.4.5.1.7 0 .2-.3.5-.7.4-1.1-.2-1.1-.5-2.2-.8-3.3.5-.2 1-.6 1.3-1.1.4-.7.5-1.5.5-2.2.8 2.1 1.5 4.2 2 6.3.4 1.7.8 3.4 1.1 5.2 0 .4.4.2.6 0 .2-.2.4-.7.4-1.1-.2-1.3-.4-2.6-.7-3.9.4-.1.9-.5 1.2-1 .7-1.1.7-2.6.4-3.8 0-.2-.1-.4-.2-.7.5-.1 1-.4 1.5-.8.1 1.1.1 2.2.3 3.2.1.9.4 2.3 1.8 2 .6-.1 1.1-.4 1.4-.9-.4.9-.8 1.9-1.2 2.9-.2.8-.5 1.6-.4 2.4.1 1 1.3 1.4 2.1.8.7-.5 1.1-1.5 1.2-2.4.1-1.6 0-3.2-.1-4.8.6-1.3 1.3-2.5 1.9-3.8.1 1.7.1 3.4.1 5 0 .8 1.3-.2 1.3-.7 0-.6.1-1.3.2-1.9.7.8.4 3.4 2 2.8.9-.3 1.5-1.4 2-2.1-.1.7-.1 1.5-.2 2.2 0 .8 1.4 0 1.5-.6.2-1.6.6-3 1.2-4.4 0-.1.1-.2.2-.3.2.9.1 1.9 0 2.8 0 .4-.1.8-.1 1.3-.1.5-.2 1-.2 1.6-.1.8 1.5 0 1.6-.5.1-.5.2-.9.3-1.4.3-1.2.7-2.2 1.3-3.2.1.5 0 1.1 0 1.6 0 .7-.2 1.5-.3 2.2-.1.5-.2 1.2 0 1.7s.6.6 1 .4c.8-.1 1.5-.7 2-1.3-.1.9.2 1.9 1.2 2.2 1.4.5 2.7-.9 3.2-2 .2-.5.3-1.2.2-1.8h1.1c-.5 1-.8 2.1-1 3.2-.1.5-.3 1.2-.1 1.7.3 1 2.3.1 2.8-.1-1.1-.3-.6-.6-1-.9zm-38.4-4.5c-.3 0-.6-.2-.8-.4-.6-.5-1-1.3-1.2-1.9-.2-.6-.4-1.3-.2-1.9h.2c.7.1 1.1.7 1.4 1.2.4.9.7 1.9 1.1 2.9v.1h-.5zm2.7-.9zm-.1-.1s0 .1 0 0c-.6.3-1 0-1.2-.4-.3-1-.6-2-1.1-3.1-.1-.2-.1-.5-.1-.8.2-.1.4 0 .6.1.7.4 1 1.2 1.3 1.8.4.8.6 1.6.5 2.4zm3.3-1.3zm1.8 4.6zm0-.1s0 .1 0 0c-.5.3-.9-.1-1-.5v-.1c-.2-1-.4-1.9-.7-2.8-.1-.3-.1-.6-.1-.9.2 0 .4 0 .5.2.6.4.9 1.3 1.1 1.9.2.6.4 1.4.2 2.2zm6.5 4.1c0 .1 0 .3-.1.5h-.1c-.2 0-.2 0-.3-.1-.4-.2-.3-.9-.2-1.4.1-.7.4-1.4.6-2 0 .3 0 .6.1 1 .1.6.1 1.4 0 2zm6.7-5.2zm8.5 1.1c-.1 0 0 0 0 0zm3.9.9s-.1.1-.1.2h-.1c-.8-.2-.7-1.4-.6-1.9v-.2c0-.1 0-.2.1-.3l.3-.6.2-.2h.1c.7.2.6 1.5.6 2-.1.3-.3.6-.5 1z"/></g><g id="leafs_2_"><path class="st3" d="M-279 241.1c1.4 2-.3 6.2-.3 6.2s-4.6.1-5.9-1.9c-1.4-2-1.2-8.4-1.2-8.4s6 2.2 7.4 4.1zM-293.8 248c1.6.9 1.7 4.3 1.7 4.3s-3.1 1.5-4.6.5c-1.6-.9-3.3-5.3-3.3-5.3s4.6-.4 6.2.5z"/><path class="st6" d="M-293.1 238.4c.5 1.2-1 3.2-1 3.2s-2.4-.5-2.9-1.7c-.5-1.3.4-4.6.4-4.6s3 1.8 3.5 3.1z"/><path class="st3" d="M-304.7 242.2c.9.6.9 2.6.9 2.6s-1.8.8-2.8.2-1.9-3.2-1.9-3.2 2.9-.2 3.8.4z"/></g></g></g><g id="soon"><path class="st7" d="M-236.2 266.7c0 16.3-13.4 29.3-29.3 29.3-16.3 0-29.8-13.4-29.8-29.3 0-16.3 13.4-29.8 29.8-29.8 16.3 0 29.3 13.4 29.3 29.8z"/><path class="st2" d="M-279.7 268.2c0 1.2-.3 2.1-1 2.7-.7.6-1.6.9-2.9.9-1.3 0-2.3-.4-3.1-1.2-.8-.8-1.2-1.8-1.2-3.1v-2.1c0-1.3.4-2.3 1.1-3 .7-.8 1.7-1.2 2.9-1.2 1.3 0 2.3.3 3 .9s1.1 1.5 1 2.6h-2.3c0-.6-.1-1.1-.4-1.4-.3-.3-.7-.4-1.3-.4-.5 0-.9.2-1.2.6-.3.4-.4 1-.4 1.7v2.2c0 .7.2 1.3.5 1.7s.8.6 1.4.6c.5 0 .9-.1 1.2-.4s.4-.7.4-1.4h2.3zM-275.3 267.5h-.7v4.1h-2.4v-10.3h2.4v4h.5l2.3-4h3l-3.2 4.7 3.5 5.6h-3.1l-2.3-4.1zM-260.8 267.4c0 1.3-.4 2.3-1.2 3.1-.8.8-1.9 1.2-3.1 1.2-1.3 0-2.4-.4-3.2-1.2-.8-.8-1.2-1.9-1.2-3.1v-1.8c0-1.3.4-2.3 1.2-3.1.8-.8 1.9-1.2 3.2-1.2 1.3 0 2.3.4 3.1 1.2.8.8 1.2 1.9 1.2 3.1v1.8zm-2.4-1.9c0-.7-.2-1.3-.5-1.8s-.8-.7-1.5-.7c-.6 0-1.1.2-1.5.7-.3.5-.5 1.1-.5 1.8v1.9c0 .7.2 1.4.5 1.8.3.5.8.7 1.5.7.6 0 1.1-.2 1.5-.7s.5-1.1.5-1.8v-1.9zM-257 268.1v3.5h-2.4v-10.3h3.9c1.2 0 2.2.3 2.9.9.7.6 1.1 1.4 1.1 2.4s-.4 1.8-1.1 2.4c-.7.6-1.7.9-2.9.9h-1.5zm0-1.8h1.5c.5 0 .9-.1 1.2-.4.3-.3.4-.7.4-1.1 0-.5-.1-.8-.4-1.1-.3-.3-.7-.4-1.2-.4h-1.5v3zM-241.6 267.4c0 1.3-.4 2.3-1.2 3.1-.8.8-1.9 1.2-3.1 1.2-1.3 0-2.4-.4-3.2-1.2-.8-.8-1.2-1.9-1.2-3.1v-1.8c0-1.3.4-2.3 1.2-3.1.8-.8 1.9-1.2 3.2-1.2 1.3 0 2.3.4 3.1 1.2.8.8 1.2 1.9 1.2 3.1v1.8zm-2.4-1.9c0-.7-.2-1.3-.5-1.8s-.8-.7-1.5-.7c-.6 0-1.1.2-1.5.7-.3.5-.5 1.1-.5 1.8v1.9c0 .7.2 1.4.5 1.8s.8.7 1.5.7c.6 0 1.1-.2 1.5-.7.3-.5.5-1.1.5-1.8v-1.9z"/></g></svg>