<svg xmlns="http://www.w3.org/2000/svg" preserveAspectRatio="xMidYMid" width="17" height="17" viewBox="0 0 17 17"><defs><style>.instagram-icon { fill: #c6c6c6; fill-rule: evenodd; }</style></defs><path d="M16.232.005H.772C.347.005.004.347.004.772v15.46c0 .42.343.768.768.768h15.46c.42 0 .768-.347.768-.767V.773c0-.426-.348-.768-.768-.768zM8.5 5.54c1.638 0 2.966 1.327 2.966 2.96 0 1.64-1.328 2.967-2.967 2.967-1.634 0-2.962-1.328-2.962-2.968 0-1.633 1.328-2.96 2.96-2.96zm6.373 9.334H2.13V7.442h1.395c-.07.342-.114.695-.114 1.057 0 2.81 2.284 5.093 5.09 5.093 2.81 0 5.093-2.282 5.093-5.094 0-.363-.042-.716-.115-1.058h1.395v7.432zm0-9.558H11.69V2.132h3.183v3.184z" class="instagram-icon"/></svg>