<?xml version="1.0" encoding="utf-8"?>
<svg xmlns="http://www.w3.org/2000/svg"
	xmlns:xlink="http://www.w3.org/1999/xlink"
	width="109px" height="109px" viewBox="0 0 109 109">
<path fillRule="evenodd" d="M 54.5 109C 24.45 109-0 84.55-0 54.5-0 24.45 24.45-0 54.5-0 84.55-0 109 24.45 109 54.5 109 84.55 84.55 109 54.5 109ZM 54.5 2.14C 25.63 2.14 2.14 25.63 2.14 54.5 2.14 83.37 25.63 106.86 54.5 106.86 83.37 106.86 106.86 83.37 106.86 54.5 106.86 25.63 83.37 2.14 54.5 2.14ZM 76.27 81.42C 76.27 81.42 60.45 65.6 60.45 65.6 57.24 67.46 53.53 68.55 49.56 68.55 37.55 68.55 27.78 58.78 27.78 46.78 27.78 34.77 37.55 25 49.56 25 61.56 25 71.33 34.77 71.33 46.78 71.33 51.56 69.76 55.97 67.14 59.56 67.14 59.56 82.64 75.05 82.64 75.05 82.64 75.05 76.27 81.42 76.27 81.42ZM 69.19 46.78C 69.19 35.95 60.39 27.14 49.56 27.14 38.73 27.14 29.92 35.95 29.92 46.78 29.92 57.61 38.73 66.41 49.56 66.41 60.39 66.41 69.19 57.61 69.19 46.78ZM 66.18 61.62C 66.18 61.62 62.84 64.96 62.84 64.96 62.84 64.96 76.27 78.39 76.27 78.39 76.27 78.39 79.61 75.05 79.61 75.05 79.61 75.05 66.18 61.62 66.18 61.62ZM 49.63 64.81C 39.65 64.81 31.52 56.69 31.52 46.7 31.52 36.71 39.65 28.59 49.63 28.59 59.62 28.59 67.75 36.71 67.75 46.7 67.75 56.69 59.62 64.81 49.63 64.81ZM 62.91 37.86C 62.91 37.86 56.26 44.51 56.26 44.51 56.26 44.51 54.75 43 54.75 43 54.75 43 61.6 36.15 61.6 36.15 60.73 35.17 59.76 34.29 58.68 33.55 58.68 33.55 44.69 47.53 44.69 47.53 44.69 47.53 43.18 46.02 43.18 46.02 43.18 46.02 56.77 32.43 56.77 32.43 54.62 31.35 52.2 30.73 49.63 30.73 40.83 30.73 33.66 37.89 33.66 46.7 33.66 55.51 40.83 62.67 49.63 62.67 58.44 62.67 65.61 55.51 65.61 46.7 65.61 43.43 64.6 40.4 62.91 37.86Z" fill="rgb(97,187,69)"/></svg>