<svg xmlns="http://www.w3.org/2000/svg" width="50" height="50" viewBox="0 0 50 50"><circle cx="25" cy="25" r="25" fill="#6BBF53"/><path d="M32.94 43.57c-1.14.83-2.5 1.25-3.91 1.25-.96 0-1.94-.21-2.9-.6v5.69h-.92v-5.85c-2.44 1.15-5.14.98-7.16-.49-2.1-1.52-3.06-4.13-2.58-6.98.99-5.88 9.21-30.24 9.56-31.27l.47-1.39.47 1.39c.35 1.03 8.56 25.39 9.55 31.27.48 2.85-.48 5.46-2.58 6.98zm-2.17-20.28c-.83.59-2.69 1.8-4.64 2.27v9.37c3.13-.75 6.27-3.17 7.01-3.77-.67-2.34-1.5-5.07-2.37-7.87zm-.32-1.02c-1.59-5.04-3.25-10.11-4.32-13.31v15.55c1.94-.52 3.8-1.85 4.32-2.24zm-12.61 8.95c.91.73 4.2 3.21 7.37 3.8v-9.3c-.12-.01-.24-.05-.32-.13-1.93-.43-3.8-1.62-4.68-2.24-.88 2.8-1.71 5.53-2.37 7.87zm.79 11.53c1.84 1.34 4.36 1.41 6.58.2v-6.84c-.11 0-.22-.04-.31-.11-3.07-.61-6.11-2.76-7.36-3.73-.53 1.91-.92 3.49-1.09 4.49-.41 2.46.4 4.7 2.18 5.99zm1.89-20.42c.67.5 2.7 1.89 4.69 2.29V7.9c-1.02 3.05-2.9 8.77-4.69 14.43zm4.95-15.2h.06c-.01-.02-.02-.06-.03-.08-.01.02-.02.06-.03.08zm9.07 29.63c-.17-1.01-.57-2.62-1.11-4.56-1.17.92-4.2 3.1-7.3 3.76v7.16c2.14 1.02 4.49.9 6.24-.37 1.77-1.29 2.59-3.53 2.17-5.99z" fill="#FFF"/></svg>