<svg xmlns="http://www.w3.org/2000/svg" width="50" height="50" viewBox="0 0 50 50"><circle cx="25" cy="25" r="25" fill="#8DE446"/><path d="M39.77 25.44c-.25 1.02-.52 1.97-.8 2.88h.01c-.01.02-.04.12-.11.27C34.75 41.2 27 42.71 25.28 42.88v7.1h-.92v-7.13c-2.13-.3-9.36-2.22-13.27-14.35-.04-.1-.06-.16-.07-.18h.01c-.29-.91-.56-1.85-.81-2.88-1.23-5.09-.66-9.21 1.71-12.23 4.05-5.17 11.8-5.24 12.12-5.24l.9.02 1.09-.02c.32 0 8 .07 12.02 5.21 2.37 3.03 2.95 7.15 1.71 12.26zm-2.69 5.14c-.71.47-1.67.87-2.97 1.06 0 .01-.01.02-.01.03-1.05 4.34-2.76 6.93-4.42 8.48 2.39-1.51 5.24-4.33 7.4-9.57zM24.89 40.99c.1 0 3.19-.19 4.49-5.55.37-1.56.22-2.8-.47-3.68-1.17-1.5-3.55-1.56-3.65-1.56l-.37.01-.33-.01c-.01 0-2.48.03-3.68 1.57-.68.88-.84 2.11-.46 3.67 1.3 5.41 4.44 5.55 4.47 5.55zm-5.12-1.15c-1.55-1.58-3.1-4.11-4.08-8.17-.01-.02-.01-.04-.01-.06-1.21-.21-2.12-.6-2.79-1.05 2.01 4.92 4.61 7.7 6.88 9.28zm-8.59-14.63c.25 1.02.52 1.97.8 2.86.08.22.77 1.86 3.48 2.47-.43-2.66.01-4.84 1.31-6.51.5-.64 1.1-1.15 1.73-1.57-4.55-1.09-6.55-3.92-7.37-5.58-.73 2.33-.73 5.11.05 8.33zM24.54 8.97h-.49c-.04 0-2.8.03-5.81 1.11.55 1.3 2.38 4.73 6.3 4.9V8.97zm0 7c-4.67-.16-6.63-4.08-7.2-5.54-1.69.72-3.37 1.79-4.63 3.4-.42.53-.76 1.12-1.05 1.73.3.95 2.01 5.19 8.23 6.16 2.16-.93 4.3-.96 4.43-.96h.22v-4.79zm.33 5.8l-.56-.01c-.03 0-4.54.04-6.76 2.89-1.29 1.64-1.59 3.93-.9 6.78 1.17 4.83 3.14 7.34 4.87 8.64-.8-.93-1.57-2.32-2.07-4.4-.45-1.87-.23-3.39.66-4.52 1.5-1.92 4.34-1.94 4.46-1.94h.69c.12 0 2.93.02 4.43 1.93.88 1.13 1.1 2.66.65 4.53-.49 2.04-1.24 3.41-2.03 4.35 1.72-1.32 3.68-3.82 4.83-8.59.69-2.87.39-5.16-.9-6.8-2.19-2.8-6.57-2.87-6.71-2.87l-.66.01zm1.17-12.8h-.58v5.98c3.77-.35 5.59-3.76 6.11-4.96-2.85-.98-5.42-1.02-5.53-1.02zm11.24 4.83c-1.3-1.67-3.07-2.75-4.81-3.47-.53 1.33-2.47 5.27-7.01 5.62v4.81h.07c.14 0 2.29.03 4.46.98 6.34-.93 8.05-5.25 8.35-6.19-.29-.62-.63-1.21-1.06-1.75zm1.58 3.08c-.81 1.68-2.85 4.53-7.49 5.61.6.41 1.17.91 1.65 1.53 1.32 1.67 1.75 3.88 1.3 6.56 2.56-.5 3.43-1.92 3.64-2.39.31-.93.59-1.92.84-2.98.78-3.23.79-6.01.06-8.33z" fill="#FFF"/></svg>