<?xml version="1.0" encoding="utf-8"?>
<svg xmlns="http://www.w3.org/2000/svg"
	xmlns:xlink="http://www.w3.org/1999/xlink"
	width="110px" height="110px" viewBox="0 0 110 110">
<path fillRule="evenodd" d="M 55 110C 24.67 110-0 85.33-0 55-0 24.67 24.67-0 55-0 85.33-0 110 24.67 110 55 110 85.33 85.33 110 55 110ZM 55 2.16C 25.86 2.16 2.16 25.86 2.16 55 2.16 84.14 25.86 107.84 55 107.84 84.14 107.84 107.84 84.14 107.84 55 107.84 25.86 84.14 2.16 55 2.16ZM 88.69 64.78C 84.93 77.64 74.04 87.46 60.59 89.64 60.59 89.64 69.14 94.44 69.14 94.44 69.14 94.44 68.08 96.32 68.08 96.32 68.08 96.32 56.79 89.99 56.79 89.99 56.79 89.99 63.13 78.7 63.13 78.7 63.13 78.7 65.01 79.76 65.01 79.76 65.01 79.76 60.69 87.45 60.69 87.45 72.89 85.3 82.77 76.44 86.43 64.82 80.17 64.37 75.22 59.15 75.22 52.79 75.22 46.13 80.64 40.71 87.3 40.71 93.95 40.71 99.37 46.13 99.37 52.79 99.37 58.98 94.69 64.09 88.69 64.78ZM 59.73 89.16C 59.73 89.16 59.85 89.23 59.85 89.23 59.86 89.12 59.87 89.02 59.87 88.92 59.87 88.92 59.73 89.16 59.73 89.16ZM 87.3 42.87C 81.83 42.87 77.38 47.32 77.38 52.79 77.38 58.26 81.83 62.71 87.3 62.71 92.77 62.71 97.21 58.26 97.21 52.79 97.21 47.32 92.77 42.87 87.3 42.87ZM 72.13 36.68C 72.13 36.68 72.54 34.56 72.54 34.56 72.54 34.56 82.26 36.4 82.26 36.4 76.23 28 65.99 21.9 54.94 21.9 51.86 21.9 48.89 22.36 46.05 23.16 47.04 24.91 47.61 26.92 47.61 29.06 47.61 35.72 42.19 41.14 35.53 41.14 28.87 41.14 23.46 35.72 23.46 29.06 23.46 22.41 28.87 16.99 35.53 16.99 39.23 16.99 42.55 18.67 44.77 21.3 47.99 20.32 51.4 19.74 54.94 19.74 66.72 19.74 77.13 25.57 83.52 34.48 83.52 34.48 85.13 25.97 85.13 25.97 85.13 25.97 87.25 26.37 87.25 26.37 87.25 26.37 84.85 39.08 84.85 39.08 84.85 39.08 72.13 36.68 72.13 36.68ZM 35.53 19.15C 30.06 19.15 25.61 23.6 25.61 29.06 25.61 34.53 30.06 38.98 35.53 38.98 41 38.98 45.45 34.53 45.45 29.06 45.45 23.6 41 19.15 35.53 19.15ZM 28.65 52.64C 28.65 52.64 23.56 44.81 23.56 44.81 22.51 48.01 21.9 51.4 21.9 54.95 21.9 64.2 25.74 72.55 31.9 78.55 34.05 75.26 37.77 73.07 42 73.07 48.66 73.07 54.08 78.49 54.08 85.14 54.08 91.8 48.66 97.22 42 97.22 35.34 97.22 29.93 91.8 29.93 85.14 29.93 83.51 30.26 81.95 30.85 80.52 24.03 74.1 19.74 65.03 19.74 54.95 19.74 51.3 20.34 47.81 21.39 44.5 21.39 44.5 13.73 49.48 13.73 49.48 13.73 49.48 12.56 47.67 12.56 47.67 12.56 47.67 23.41 40.62 23.41 40.62 23.41 40.62 30.46 51.47 30.46 51.47 30.46 51.47 28.65 52.64 28.65 52.64ZM 42 95.06C 47.47 95.06 51.92 90.61 51.92 85.14 51.92 79.67 47.47 75.22 42 75.22 36.53 75.22 32.08 79.67 32.08 85.14 32.08 90.61 36.53 95.06 42 95.06Z" fill="rgb(97,187,69)"/></svg>