<svg xmlns="http://www.w3.org/2000/svg" width="50" height="50" viewBox="0 0 50 50"><circle cx="25" cy="25" r="25" fill="#EB5339"/><path d="M39.01 24.99c0 2.15-1.43 3.94-3.39 4.54 1.31 1.85 1.15 4.44-.51 6.1-.93.93-2.15 1.39-3.37 1.39-.86 0-1.71-.25-2.47-.71C28.5 37.89 26.88 39 25 39c-2.03 0-3.76-1.29-4.44-3.09-.88.73-1.94 1.11-3.02 1.11-1.22 0-2.44-.46-3.37-1.39-1.72-1.73-1.82-4.43-.35-6.3-1.66-.75-2.82-2.41-2.82-4.34 0-1.89 1.11-3.51 2.72-4.28-1.38-1.87-1.24-4.51.45-6.19 1.74-1.74 4.48-1.83 6.35-.32.65-1.86 2.4-3.21 4.48-3.21 1.93 0 3.59 1.16 4.34 2.81 1.82-1.07 4.21-.85 5.77.72 1.62 1.62 1.81 4.11.6 5.96 1.91.62 3.3 2.4 3.3 4.51zm-9.24 9.24c0 .48-.09.93-.23 1.37 1.57 1.03 3.68.89 5.06-.49 1.48-1.48 1.55-3.83.24-5.41-.2.02-.39.06-.6.06-.92 0-1.81-.27-2.59-.77l-1.61-.89c-.49.77-1.17 1.4-1.96 1.86l1.06 1.91c.41.72.63 1.54.63 2.36zm-4.65-14.19c-2.7 0-4.9 2.19-4.9 4.9 0 2.7 2.2 4.9 4.9 4.9 2.71 0 4.9-2.2 4.9-4.9 0-2.71-2.19-4.9-4.9-4.9zM25 38.27c2.23 0 4.04-1.81 4.04-4.04 0-.7-.18-1.39-.53-2l-1.06-1.92c-.72.31-1.5.49-2.33.49-.89 0-1.74-.22-2.5-.59l-.99 1.8c-.44.68-.66 1.44-.66 2.22 0 2.23 1.81 4.04 4.03 4.04zm-10.32-3.16c1.56 1.56 4.08 1.57 5.65.05-.06-.3-.09-.61-.09-.93 0-.92.27-1.82.77-2.59l.98-1.77c-.75-.48-1.37-1.12-1.84-1.87l-2.03 1.13c-.72.41-1.53.63-2.36.63-.42 0-.83-.08-1.22-.18-1.41 1.58-1.38 4.01.14 5.53zm-2.95-10.12c0 2.23 1.81 4.04 4.03 4.04.7 0 1.4-.18 2-.53h.01l2.04-1.13c-.34-.75-.55-1.57-.55-2.43 0-.84.18-1.62.5-2.34l-1.78-.98c-.68-.44-1.43-.67-2.22-.67-2.22 0-4.03 1.81-4.03 4.04zm8.51-9.24c0-.27.04-.52.08-.78-.78-.74-1.78-1.12-2.78-1.12-1.04 0-2.07.4-2.86 1.18-1.48 1.48-1.54 3.82-.24 5.41.42-.13.86-.21 1.32-.21.93 0 1.82.26 2.6.76l1.74.97c.46-.77 1.08-1.44 1.83-1.93l-1.07-1.92c-.4-.72-.62-1.53-.62-2.36zM25 11.71c-2.22 0-4.03 1.81-4.03 4.04 0 .7.18 1.39.53 2l1.07 1.94c.78-.38 1.63-.61 2.55-.61.84 0 1.64.18 2.37.5l.89-1.61c.44-.68.66-1.44.66-2.22 0-2.23-1.81-4.04-4.04-4.04zm9.6 3.32c-.79-.78-1.82-1.18-2.86-1.18-.75 0-1.5.23-2.16.65.11.4.19.82.19 1.25 0 .92-.27 1.82-.77 2.59l-.88 1.59c.8.48 1.47 1.13 1.96 1.92l1.81-1c.71-.41 1.53-.62 2.35-.62.24 0 .47.03.7.07 1.19-1.58 1.1-3.83-.34-5.27zm-.36 5.92c-.7 0-1.39.19-1.99.53l-.01.01-1.81 1c.35.75.55 1.57.55 2.45 0 .9-.22 1.75-.59 2.52l1.64.91c.67.43 1.43.66 2.21.66 2.23 0 4.04-1.81 4.04-4.04s-1.81-4.04-4.04-4.04z" fill="#FFF"/></svg>