<svg id="Layer_1" xmlns="http://www.w3.org/2000/svg" viewBox="0 0 63.9 36.7"><style>path{ fill: #515151; }</style><path d="M11 24c-.1 2.5 2 3.9 4.2 2.9 2.4-1.1 3.7-3.5 4-6 .1-.7-.7-.6-1.1-.3-.6.3-1.2 1-1.3 1.6-.1.8-.2 2.2-1.1 2.6-1.4.6-2.4-.7-2.4-2 .1-1.5-2.3.2-2.3 1.2zM18.2 6.3c-3.1.2-7.4 1.7-7.9 5.2-.1.7.7.5 1.1.3.6-.3 1.2-.9 1.3-1.6.2-1.2 3.2-1.5 4.2-1.6.7 0 1.3-.7 1.6-1.3.3-.3.4-1.1-.3-1z"/><path d="M19.2 12.8c-.1-.9-.6-3.1-1.8-3.3-1-.2-2.1.2-2.9.8-1.8 1.3-2.7 3.3-2.9 5.5-.2 1.9.4 4.3 2.1 5.4 2.3 1.5 4.8-.5 5.4-2.8.5-1.6-2-.2-2.3.8-.2.6-1.7-.6-2-.9-.7-.8-.9-2-1-3 0-1 .1-2.2.7-3 1.1-1.6 2.1 1.7 2.2 2.4.3.8 2.6-.9 2.5-1.9z"/><path d="M16.9 19.3c.1 2.5 2.6 3 4.5 1.5S24 17 24 14.6c-.1-1.9-.6-4.3-2.5-5.1-2.7-1.2-4.5 2.8-4.5 4.8 0 1.4 2.4-.4 2.4-1.3 0-.6-.1-1.5.7-1 .3.2.6.5.8.8.6.9.8 2.1.9 3.1.1 1-.1 1.9-.4 2.8-.4 1.1-1.8.4-1.9-.8-.3-1.3-2.6.4-2.6 1.4z"/><path d="M16.4 8.4c.6 4.4.6 9 .4 13.4-.1 1.4 2.3-.4 2.4-1.3.2-4.6.2-9.3-.4-13.9-.2-1-2.5.8-2.4 1.8z"/><g><path d="M26.2 23.7c1.3-1.6 6.4-8.6 2.2-10-2.8-.9-4.3 3.5-4.6 5.4-.4 2.3-.6 6.7 1.9 7.9 2.4 1.1 6.8-3.1 7.9-5 1-1.7-1.4-.8-2 .2-.6 1-3.3 3-4.3 2.3C26 23.7 26 21.3 26 20c0-.9.1-1.8.3-2.6.1-.4.2-.7.3-1.1.3-.8.3-.2 0-.2 2.9.3-1.4 6.4-2 7.2-1.3 1.5.7 1.5 1.6.4z"/></g><g><path d="M35.9 23.2c.7 3.7 4 3.4 5.6.6 1.7-3.1.6-7.3 2.3-10.2-.7.2-1.4.3-2.1.5-1.2 3.6.4 7.9.7 11.5.1 1.4 2.3-.4 2.4-1.3.1-3.3 1.1-7.2 2.5-10.2-.7.2-1.4.3-2.1.5-.9 3.1-1 7.7.5 10.6 1.5 2.9 6-1.2 6.7-2.8.8-1.8-1.5-.9-2 .2-.2.4-1.5 1.6-2.1 1.2-.8-.5-.9-2.1-1-2.9-.3-2.1-.4-4.8.2-6.9.4-1.6-1.8-.3-2.1.5-1.5 3.4-2.7 7.6-2.9 11.4.8-.4 1.6-.9 2.4-1.3-.2-3.3-1.9-7.7-.8-11 .5-1.6-1.8-.1-2.1.5-.9 1.5-.9 3.5-1.2 5.2-.2 1.3-.4 2.6-.7 3.9-.1.2-.1.3-.2.5-.3.7-.3.8 0 .3-1.1-.1-1.4-1.4-1.6-2.2-.3-1.4-2.6.4-2.4 1.4z"/></g><g><path d="M31.5 23.5c.2 2.8 2.7 3.4 4.7 1.6 1.8-1.7 2.2-4.3 2.1-6.7-.1-1.9-.4-4.7-2.2-5.7-.9-.5-2.1.3-2.7.8-1.4 1-1.9 2.8-1.9 4.5 0 1.4 2.4-.4 2.4-1.3 0-1.8.7-2 1.4-.5.4.9.6 2 .7 3 .1 1.2.1 2.4-.2 3.6-.1.4-.2.9-.5 1.2.1-.2 0-.3-.3-.2-.8-.1-1-.8-1.1-1.5-.2-1.5-2.5.3-2.4 1.2z"/><path d="M30.9 12.6c.9 6.9.8 14.1.1 21-.1 1.3 2.3-.4 2.4-1.3.7-7.1.8-14.4-.1-21.5-.2-.9-2.6.8-2.4 1.8z"/></g><g><path d="M57.1 14.6c-.2-3.6-4.3-1.6-5.5.2-1.6 2.4-1.8 5.7-1.4 8.5.5 2.6 2.7 3.5 4.6 1.5 2.6-2.4 2.1-6.9 2.3-10.2-.8.4-1.6.9-2.4 1.3-.1 2.1-1.1 13 3.8 9.5 1.2-.8 1.2-2.8-.5-1.6-.4.3-.9-2.9-.9-3-.2-2-.1-4.1 0-6.2.1-1.4-2.3.4-2.4 1.3-.1 1.9-.1 3.9-.4 5.8-.1.6-.3 2-.6 2-.5-.1-.7-.7-.9-1-.6-1.3-.5-2.8-.4-4.2.1-.8.2-1.6.4-2.3.1-.4.3-.8.5-1.1.5-.7 1.3.6 1.4.9.1 1.3 2.4-.5 2.4-1.4z"/></g></svg>