<svg xmlns="http://www.w3.org/2000/svg" viewBox="0 0 130 137"><style>.st0{fill:#435F2C;} .st1{fill:#FFFFFF;} .st2{fill-rule:evenodd;clip-rule:evenodd;fill:#64B846;} .st3{fill-rule:evenodd;clip-rule:evenodd;fill:#435F2C;}</style><g id="Layer_1"><path class="st0" d="M121.7 78.6c0 22-12.9 41.1-31.6 49.9-7.1 3.4-15.1 1.3-23.5 1.3-7.6 0-14.8 2.4-21.4-.4-19.8-8.4-33.7-28-33.7-50.8 0-19.5 10.1-36.6 25.3-46.4 8.6-5.5 18.8.5 29.8.5 10.7 0 20.6-6.2 29.1-.9 15.6 9.6 26 27 26 46.8z"/><path class="st1" d="M27.2 67.9c-4.9 2-5.7 8.2-4.9 12.6 1 5.2 3.1 9.6 6.3 14 2 2.7 6.5 4.9 8.9 1 2.5-4.1 2-9.5 1-13.9-.9-3.8-2.2-7.3-4.2-10.5-1.4-2-3.9-4.3-7.1-3.2-1.6.6-3.4 5.1-1 4.3 1.6-.6 3.2.7 4.1 1.6 1.7 1.7 2.8 3.9 3.7 6.1 1 2.4 1.7 5 2.2 7.6.2 1.1.3 2.2.3 3.3 0 .8-.1 2-.2 2.4-.1.2 0 .1.1-.1-.1.2.1 0-.3.2-.5.3-1.2.1-1.8-.1-1.7-.7-3-2.5-4-4.1-3-4.5-4.4-9.3-4.7-14.3 0-.8.2-2.1.3-2.5.2-.7-.3.5.1-.1.3-.6-.3.4.1-.1-.4.5-.2.2.2 0 1.4-.6 3.2-5.2.9-4.2zM60.8 70.5c-5.2.6-6.4 7-6.1 11.2.2 3.3 1.3 9.7 5.7 9.6 2-.1 3.6-2.4 4.4-4.2.9-2.1 1.2-4.5 1.2-6.7.1-3.4-.4-10-5.2-9.9-1.6 0-4.2 3.9-1.9 3.8 2.7-.1 3.4 5.1 3.6 6.7.2 1.7.2 3.4-.1 5.1-.1.4-.1.7-.2 1 0 .1-.3.8-.2.6-.1.2-.1.2 0 0 .3-.3.4-.2-.1-.1-2.4.3-3.3-5.1-3.5-6.7-.2-1.7-.2-3.4.1-5.1.1-.7.3-1.3.6-2 0 0-.8.5-.3.4 1.7-.1 4.3-4 2-3.7z"/><path class="st1" d="M46.3 81.2c.6-1.2 1.6-.6 2.2.3 1.2 1.6 1.2 4 1.2 5.9 0 .6 0 1.2-.2 1.8-.2.7.1 0 .1 0-1.1.5-1.9-1-2.3-1.7-1.9-3.6-2.8-7.4-3.6-11.6-.7-3.6-.9-7.5.2-11 .2-.5.7-.8-.1-.2-.5.4.1 0 .6.3 1 .5 1.1 2.1 1.2 2.9.1 3.8-.7 7.5-1.5 11.4l-.6 2.4c-.1.4.2-.6 0-.1l-.3.6c-.5 1.1-1.1 2.2-1.7 3.3-1.5 2.8-3.1 5.7-5.3 7.9-.7.7-1.3 1.9-1.3 3 0 .9.7 1.3 1.4.7 2.5-2.4 4.4-5.6 6.1-8.6 1.3-2.3 3.1-4.9 4-7.5 1.4-3.7 2.3-7.6 3-11.6.4-2.5 1.2-6.3-1.2-8.3-2.6-2.1-6.4 1.9-7.1 3.6-1.3 3.5-1.6 7.1-1 11.1.7 4.4 1.8 8.6 3.4 12.8.8 2.1 2.5 5.8 5.2 4.5 4.3-2 4.8-7.6 4.3-11.8-.3-2-1.2-4.5-3.8-4.7-2.7-.2-4.7 2.8-5.5 4.6-.2.5-.7 2.1.3 2.1 1.1-.1 2-1.3 2.3-2.1zM105.2 94.5c-1.4.4-1.3-.2-1.3-1.4.1-1.6.5-3.2.9-4.7.9-3.3 2-6.6 3.7-9.6-1.5.1-3 .3-4.4.4-1.7 3.8-3.4 7.6-5.6 11-.2.4-.5.7-.8 1.1-.3.4-.4.4-.5.5-.2.1.2 0 0 0s-.6 0-.6-.1c-1.8-2.1 2.8-11.3 4-15.8.5-2-3.9-.6-4.2.8-.8 3.7-2.1 7.6-3.1 11.3-.5 2.1-1.8 6.2 1 6.7 2.7.4 5.2-1.5 7.1-3.5 3.2-3.6 5.2-8.1 7.2-12.4.4-.9-.9-1.3-1.6-1.2-1.2.1-2.4.7-2.8 1.6-1.8 3.9-3 8-3.9 12.3-.3 1.5-.6 3.1-.3 4.6.4 2 3.9 1.2 5.1.9.8-.2 2.3-.8 2.4-1.8-.1-.9-1.8-.8-2.3-.7zM77.2 73.4c-.8 4.1-1.6 8.2-2.9 12.1-.2.4-.4.9-.6 1.3-.2.5-.3.5-.4.6-.2.2.2-.1 0 0s-.6.2-.7.1c-2.2-1.6.1-11.6.2-16.3.1-2.1-3.1.3-3.6 1-.1.1-.2.4.1-.2-.1.2-.3.4-.4.6-.4.6-.7.8-1.2 1.3-1.3 1.2-2.9-.4-3.6-1.5-1-1.6-4.4 1.7-3.6 2.9 1.9 2.7 4.2 3.5 7 1.7 1.9-1.3 3.6-3 4.9-4.9-1.2.3-2.4.7-3.5 1 0 3.9-.3 7.9-.4 11.8 0 2.1-.3 6.5 2.5 6.2 2.7-.3 4.8-2.8 6.2-5.3 2.3-4.2 3.3-9.1 4.3-13.8.2-1-1.2-1-1.9-.7-1 .2-2.2 1.1-2.4 2.1z"/><path class="st1" d="M90.5 94c.3-1.2.6-2.4.8-3.6.2-1.5-1.3-.9-2.1-.9-.3 0-.4-.1-.5-.7-.1-.8-.1-1.7-.1-2.5.1-4.4.8-8.9 2.4-13-1.4.4-2.9.8-4.3 1.2-1.1 4.1-2.2 8.1-4 11.8-.2.4-.5.8-.7 1.2-.3.4-.4.5-.5.6-.2.1.3-.1-.1 0-.3.1-.7.1-.8 0-2.2-1.7.9-11.7 1.4-16.3.2-2-4.3.1-4.4 1.5-.2 3.8-.9 7.9-1.3 11.7-.2 2.1-.9 6.4 2.4 6.4 3.1-.1 5.6-2.4 7.1-4.8 2.6-4 3.8-8.8 5.2-13.4.3-1-1-1.1-1.8-.9-1.1.3-2.3 1.1-2.6 2.1-1.2 3.9-1.7 7.9-1.9 12-.1 1.5-.1 3.2.2 4.7.5 2 2.5 1.6 4 1.1h-1.1c-.2-.4-.3-.5-.3-.1 0 .3-.1.6-.2.8-.1.7-.3 1.4-.4 2.1-.4 2.2 3.2.4 3.6-1z"/></g><g id="leafs"><path class="st2" d="M66.7 17.1c2.8 4.1-.6 12.8-.6 12.8s-9.4.2-12.2-3.9c-2.8-4.1-2.4-17.2-2.4-17.2s12.4 4.2 15.2 8.3zM36.2 31.3c3.2 1.9 3.5 8.8 3.5 8.8s-6.3 3-9.5 1.1-6.9-10.9-6.9-10.9 9.7-1 12.9 1z"/><path class="st3" d="M37.6 11.4c1 2.5-2 6.7-2 6.7s-5-1.1-6-3.6c-.9-2.5.9-9.5.9-9.5s6.1 3.9 7.1 6.4z"/><path class="st2" d="M13.8 19.2c1.9 1.2 1.9 5.3 1.9 5.3s-3.8 1.7-5.7.5c-1.9-1.2-4-6.7-4-6.7s5.9-.3 7.8.9z"/></g></svg>