<svg xmlns="http://www.w3.org/2000/svg" preserveAspectRatio="xMidYMid" width="25.062" height="13.969" viewBox="0 0 25.062 13.969"><defs><style>.vk-icon{ fill: #c6c6c6; fill-rule: evenodd; }</style></defs><path d="M24 11.327c-.744-.884-1.62-1.637-2.45-2.437-.748-.722-.797-1.14-.194-1.973.656-.91 1.363-1.783 2.025-2.688.62-.847 1.252-1.69 1.578-2.704.206-.643.024-.928-.645-1.04-.116-.02-.234-.02-.352-.02L19.997.46c-.488-.007-.758.203-.93.63-.235.58-.474 1.157-.753 1.716-.63 1.264-1.333 2.488-2.32 3.524-.217.227-.458.516-.82.397-.458-.164-.59-.904-.584-1.155l-.005-4.524c-.087-.645-.232-.935-.88-1.06h-4.12c-.55 0-.826.21-1.12.55-.17.198-.22.325.128.39.684.128 1.07.565 1.172 1.243.163 1.084.152 2.17.058 3.257-.028.318-.084.635-.212.93-.197.467-.52.56-.94.274-.383-.258-.653-.624-.915-.992-.988-1.38-1.777-2.867-2.42-4.43C5.152.755 4.83.48 4.346.474 3.156.457 1.968.453.776.475.062.49-.15.832.14 1.475c1.295 2.848 2.737 5.618 4.62 8.14.966 1.296 2.076 2.438 3.51 3.248 1.624.92 3.372 1.194 5.215 1.11.862-.04 1.122-.262 1.16-1.113.03-.58.095-1.16.386-1.68.285-.513.717-.61 1.214-.292.248.16.457.363.656.577.485.526.954 1.066 1.458 1.573.632.636 1.38 1.012 2.32.935h3.646c.587-.037.892-.75.555-1.396-.238-.455-.55-.86-.88-1.25z" class="vk-icon"/></svg>