<svg xmlns="http://www.w3.org/2000/svg" width="50" height="50" viewBox="0 0 50 50"><circle cx="25" cy="25" r="25" fill="#45A3BB"/><path d="M39.77 27.73c-1.01 0-1.85-.68-2.13-1.6H26.5l7.7 7.7c.38-.3.85-.49 1.37-.49 1.23 0 2.23 1 2.23 2.23s-1 2.23-2.23 2.23-2.23-1-2.23-2.23c0-.4.12-.78.31-1.11l-7.75-7.74v10.86c1.04.19 1.82 1.1 1.82 2.19 0 1.23-1 2.22-2.23 2.22s-2.23-.99-2.23-2.22c0-1.09.78-1.99 1.8-2.19V26.72l-7.73 7.73c.2.33.32.71.32 1.12 0 1.23-1 2.23-2.23 2.23s-2.23-1-2.23-2.23 1-2.23 2.23-2.23c.51 0 .98.18 1.36.48l7.69-7.69H13.35c-.28.92-1.12 1.6-2.13 1.6-1.23 0-2.23-1-2.23-2.23s1-2.23 2.23-2.23c1.16 0 2.1.89 2.21 2.02h11.04l-7.89-7.89c-.02-.01-.01-.04-.03-.06-.33.2-.72.32-1.13.32-1.23 0-2.23-1-2.23-2.23s1-2.23 2.23-2.23 2.23 1 2.23 2.23c0 .52-.19 1-.49 1.38h.01l7.89 7.89V13.54c0-.04.04-.07.05-.11-1.04-.18-1.85-1.09-1.85-2.19 0-1.23 1-2.23 2.23-2.23s2.23 1 2.23 2.23c0 1.1-.81 2.01-1.86 2.19.01.04.04.07.04.11V24.7l7.9-7.89c.01-.01.02 0 .02-.01-.29-.38-.48-.85-.48-1.37 0-1.23 1-2.23 2.23-2.23s2.23 1 2.23 2.23-1 2.23-2.23 2.23c-.42 0-.81-.12-1.15-.33-.01.03-.01.05-.03.07l-7.89 7.89h11.06c.11-1.13 1.05-2.02 2.21-2.02 1.23 0 2.23 1 2.23 2.23s-1 2.23-2.23 2.23zm-4.2 9.23c.77 0 1.39-.62 1.39-1.39 0-.77-.62-1.39-1.39-1.39-.77 0-1.39.62-1.39 1.39 0 .77.62 1.39 1.39 1.39zM11.22 24.11c-.77 0-1.39.62-1.39 1.39 0 .77.62 1.39 1.39 1.39.77 0 1.39-.62 1.39-1.39 0-.77-.62-1.39-1.39-1.39zm4.2-10.07c-.77 0-1.39.63-1.39 1.39 0 .77.62 1.39 1.39 1.39.76 0 1.39-.62 1.39-1.39 0-.76-.63-1.39-1.39-1.39zm11.46-2.8c0-.77-.62-1.39-1.39-1.39-.76 0-1.39.62-1.39 1.39 0 .76.63 1.39 1.39 1.39.77 0 1.39-.63 1.39-1.39zm8.69 5.58c.77 0 1.39-.62 1.39-1.39 0-.76-.62-1.39-1.39-1.39-.77 0-1.39.63-1.39 1.39 0 .77.62 1.39 1.39 1.39zM15.42 34.18c-.77 0-1.39.62-1.39 1.39 0 .77.62 1.39 1.39 1.39.76 0 1.39-.62 1.39-1.39 0-.77-.63-1.39-1.39-1.39zm8.68 5.59c0 .76.63 1.39 1.39 1.39.77 0 1.39-.63 1.39-1.39 0-.77-.62-1.39-1.39-1.39-.76 0-1.39.62-1.39 1.39zm15.67-15.66c-.77 0-1.39.62-1.39 1.39 0 .77.62 1.39 1.39 1.39.77 0 1.39-.62 1.39-1.39 0-.77-.62-1.39-1.39-1.39z" fill="#FFF"/></svg>