<svg id="Layer_1" xmlns="http://www.w3.org/2000/svg" viewBox="0 0 86 86"><style>.st0{fill:#E90E8A;} .st1{fill:#FFFFFF;} .st2{fill:#62BA47;}</style><circle id="XMLID_154_" class="st0" cx="44.5" cy="39" r="39"/><g id="XMLID_142_"><path id="XMLID_147_" class="st1" d="M75.6 38.1c-.6-.6-1.4-.5-2.1-.4.1-.6.1-1.1.1-1.7 0-.5-.8-.3-1-.3-.4.1-.9.4-.9.9-.5-.1-1.1.1-1.5.3-1.3.7-1.9 2.1-2.2 3.4-.1.3-.1.6-.2.9v.1c-.1.5-.3 1.4-.9 1.7-.5.2-.6-1.5-.7-1.8-.1-1.9.4-3.8.7-5.6.1-.5-.4-.5-.8-.4-.4.1-1 .4-1.1.9-.3 1.4-.5 2.8-.9 4.2-.2.6-.4 1.2-.7 1.8v.1c-.1 0-.3-.1-.3-.2-.9-.6-.6-2.4-.5-3.2.2-1.2.5-2.4 1-3.5.2-.4 0-.7-.5-.6-.5 0-1.1.4-1.2.8-.4 1-.7 2-.9 3-.2.9-.7 1.9-1.3 2.6l-.2.2v-.1c-.2-.8-.1-1.7-.1-2.4.1-1.2.2-2.3.4-3.5v-.1c.1-1-.7-1.6-1.9-1.5-1.1.1-2 .7-2.5 1.5-.7.9-1 2.3-1.1 2.5-.3.9-.7 2-1.2 2.8-.1-.1-.2-.3-.2-.4-.2-.5-.3-1.1-.4-1.7-.2-1.7-.2-3.4-.1-5.1 0-.1 0-.2-.1-.2 0-.1-.1-.1-.2-.1-.5-.1-1 .3-1.3.5-.9 1.1-1 2.7-1.3 4-.2.8-.3 1.6-.6 2.3 0 .1-.1.2-.1.3-.2-.1-.3-.4-.4-.6v-.1c0-.3-.2-.5-.6-.4-.5.1-1 .5-1.1 1-.3-.1-.5-.4-.6-.6-.2-.5-.2-1.1-.3-1.7v-1.2c.1-.9.1-1.9.2-2.8 0-.3 0-.6.1-.9 0-.5-.5-.4-.8-.2-.4.2-.9.6-1 1.1 0 .5-.1 1-.1 1.5s0 1-.1 1.5c0 .4-.1.9-.1 1.3-.1.6-.2 1.3-.4 1.9v.1c-.1 0-.3-.1-.4-.1-1-.4-1-2.2-1-3 0-1.2 0-2.5.4-3.6.1-.2.1-.4 0-.5-.2-.2-.6-.1-.9.1-.2.1-.8.7-1.2.9-.8.4-1.5.2-2.1-.3-.2-.3-.4-.5-.8-.6-.7-.3-1.5.1-2.1.5-.1-.5-.2-1.1-.3-1.6-.1-.4-.9 0-1.1.2-.4.3-.7.8-.6 1.2-.5.1-1 .5-1.3.9-1.1 1.2-1.3 2.8-1.2 4.2 0 .3 0 .6.1.9 0 .3 0 1.6-.4 2-.5.5-1.1-1.2-1.2-1.4-.6-1.7-.6-3.7-.8-5.5 0-.5-.6-.3-.9-.1-.4.3-.8.8-.8 1.3.1 1.4.3 2.9.3 4.3 0 .6 0 1.3-.2 1.9v.1h-.4c-1-.2-1.2-2-1.3-2.8-.2-1.2-.2-2.5 0-3.7.1-.4-.2-.6-.6-.4-.4.2-.9.8-1 1.3-.2 1.6-.2 3.2.1 4.7.2 1.1.7 2.9 2.2 2.7 1-.1 1.7-.8 2.1-1.7.1.2.2.4.4.5.9 1.1 2.2-.1 2.9-.9l.3-.3c.2.2.3.5.5.7.4.4 1 .4 1.6.3l.6-.3c.1 1.7.2 3.5.1 5.3 0 .5.5.3.8.1.4-.3.8-.7.8-1.2.1-1.4 0-2.8 0-4.2.6-.1 1.3-.4 1.8-.9 1.2-1.2 1.3-3 1.2-4.5 0-.3-.1-.6-.1-.9.5-.1 1.1-.3 1.6-.6-.2 1.1-.3 2.3-.2 3.5.1 1.1.4 3 1.9 3.1.9.1 1.6-.3 2.1-.9.3.7 1.1 1.1 1.9.9.3-.1.6-.2.8-.4.6.6 1.5.6 2.3-.1.6-.5.9-1.1 1.2-1.8 0 .2.1.4.1.6.1.6.3 1.2.7 1.7.4.5 1.2.3 1.7 0 .4-.2.9-.6 1.2-.9.1.5.3 1.1.8 1.4.8.5 1.8 0 2.4-.4.1.4.2.8.6 1 .9.3 2-.5 2.5-1l.1-.1c.1.8.5 1.6 1.3 1.9 1 .3 1.8 0 2.4-.6 0 .2.1.4.2.6.5 1.4 2 .9 2.8.4.1-.1.2-.1.3-.2l.3.9c.3.6.8.9 1.4.9h.7c-.4 1.7-.8 3.4-1.3 5 .1.4.6.5.9.5.4-.1.9-.4 1-.8.4-1.3.8-2.7 1.1-4 .6.2 1.3.2 1.9-.1 1.4-.7 2-2.3 2.3-3.8.2-1.2.5-3.1-.5-4.2zm-40.9 2.6h-.3c-.3-.1-.6-.4-.7-.7-.5-.8-.7-1.8-.7-2.7-.1-.8 0-1.6.3-2.3.1 0 .1.1.2.1.6.4 1 1.2 1.1 1.9.1 1.2.3 2.5.3 3.7-.1-.1-.1 0-.2 0zm2.9-.5s0 .1-.1.1c-.7.1-1.1-.4-1.1-.9l-.3-3.9c0-.3 0-.6.1-1 .2 0 .4.1.6.2v.1c0 .1.1.1.2.1.5.6.7 1.6.8 2.4.2 1 .2 2.1-.2 2.9zm20.5-4.4c-.3 1.6-.3 3.2-.9 4.7 0 .1-.1.2-.2.4 0 0-.2 0-.3-.1-.3-.2-.4-.7-.5-1.1-.3-1.2-.1-2.5.3-3.6.1-.3.4-.9.6-1.1h.4c.5.1.7.5.6.8zm13.3 4.6c-.2 1.2-.4 2.4-.7 3.6v.1h-.1c-.1 0-.2-.1-.3-.2-.3-.3-.4-.6-.5-1-.3-1-.2-2 0-2.9.1-.7.4-1.5.9-2.1 0 0 .1.1.1.2.6.7.6 1.6.6 2.3zm2.9 1.9c-.1.9-.4 2-.9 2.6l-.1.1c-.6-.2-.9-.8-.8-1.3.3-1.3.5-2.5.7-3.8l.3-.9c.2 0 .4.3.5.6.5.7.4 1.9.3 2.7z"/><path id="XMLID_146_" class="st1" d="M67.9 33.4c.2-.2.9-.6.6-1-.3-.4-1-.1-1.2 0-.6.4-1.1.5-1.9.1-.3-.2-.5-.4-.7-.7-.4-.6-2.2.4-1.8 1.1 1.2 1.9 3.6 1.3 5 .5z"/><path id="XMLID_143_" class="st1" d="M18.3 36.4c-.2-.7-.4-1.5-.7-2.2 1.5-.4 3-.9 4.4-1.6.5-.2.9-.8 1-1.3.1-.4-.2-.5-.6-.4-2.6 1.1-5.5 1.7-8.1 2.7-1 .4-2.1 1.2-2.6 2.2-.7 1.3-.4 2.3.2 3.3.4.6 1.7-1.2 1.4-1.8-.2-.3-.4-.7-.5-1.1V36c.6-.5 1.6-.8 2.3-1.1.2-.1.4-.1.7-.2.3.8.6 1.6.8 2.4-.9.6-1.7 1.5-2.1 2.4-1 2-1.2 7.2 2.4 6.7 2.4-.4 2.5-3.2 2.3-5.1-.1-1-.3-2.1-.5-3.1h.6c1.4.1 2 1.4 2.2 2.5.1 1 .1 2.3-.7 3.1-.3.3-.6.9-.4 1.3.2.4.8-.2.9-.3 1.8-2 2.6-5.4.8-7.6-.8-.9-2.4-.9-3.8-.6zm-.8 8c-.5 0-1.1-.1-1.5-.5-.9-.9-1.2-3-.4-4.3.3-.5.8-.9 1.3-1.1.3 1.3.5 2.5.7 3.8.1.6.1 1.2.2 1.8v.3h-.3z"/></g><g id="XMLID_129_"><path id="XMLID_83_" class="st1" d="M54.1 67.1c-.4.6-1.1-1-1.2-1.1-.1-.2-.2-.4-.2-.6-.1-.5-.3-.9-.4-1.3 0-.1-.1-.2-.1-.3-.1-.5-.7.4-.6.7.2.6.3 1.3.5 1.9.1.3.1.7.2 1 0 .4.1.5-.3.4-1-.3-1-2.5-1.1-3.3 0-.6-.6.1-.6.5s0 1.8.3 2.8c-.2.4-.6.8-.8.5-.2-.3-.3-.7-.4-1.1-.2-.6-.7-.6-1.2-.4 0-.2 0-.6.1-.9.1-.3.3-.5.6-.3.4.2.9-.7.6-.9-.8-.4-1.4.1-1.7.9-.1-.5-.2-1-.4-1.5-.1-.4-.8.4-.7.7.3 1.1.4 2.2.4 3.3-.3.3-1 1.1-1.3.4-.1-.5-.2-.9-.2-1.4V66v-.3-.1c-.1-1.2-1.3-.5-1.8.1-.6.8-.8 1.9-.8 2.8-.6.3-.8.2-.9-.6-.2-1 0-2.1.2-3.1.1-.5-.8.1-.9.2-.3.5-.5 1-.7 1.5l-.3.9c-.1.2-.1.3-.2.5-.2.4-.4 0-.3-.2 0-.2-.1-.2-.2-.2h-.2c-.3 0-.7.1-1 .2-.1-.2-.2-.5-.3-.6.7-.5 1-1.5 1.1-2.3.1-.5 0-1.1-.5-1.2-.8-.2-1.6.5-1.9 1.3-.2.5.9.2 1-.1.1-.2.2-.8.4-.3.1.3 0 .6 0 .9-.1.4-.4 1.5-.8 1.6h-.3c-.2 0-.5.2-.6.3-.1.1-.1.2.1.3.2 0 .4.1.5.1.2.1.3.3.4.5-1.1.4-2.2.9-2.8 1.7-.7.9.3 2 1.7 1.8 1.4-.3 2-1.6 2.2-2.7 0-.1 0-.3.1-.4.1 0 .3 0 .4-.1.1.7 1.1.8 1.7.4.2-.1.3-.3.4-.5 0 .3.1.6.2.9.4.7 1.4.3 1.9 0 .3.6 1 .7 1.7.2l.1-.1c0 .2.1.3.2.4.4.5 1.4-.3 2-.8v.6c0 .5.9-.2.9-.6v-1.3c.6.1.5 1.5 1.1 1.7.6.2 1.2-.4 1.6-.9.3.4.6.6 1.1.4.5-.2.8-.5.9-.9.6.7 1.4 0 1.8-.7.2-.7-.3-.8-.7-.2zm-16.7 2c-.1.7-.5 1.5-1.1 2-.2.2-.4 0-.6-.2-.2-.3 0-.7.1-.9.3-.6 1-.9 1.6-1.1v.2zm7-.1c-.2 0-.3-.3-.3-.4-.2-.5-.1-1-.1-1.5 0-.3.1-.5.2-.8 0-.1.1-.3.2-.4.2-.3.4.2.4.3-.1.7-.1 1.4-.2 2.1.1.2 0 .7-.2.7z"/></g><circle id="XMLID_128_" class="st2" cx="13.3" cy="73.7" r="12.3"/><g id="XMLID_88_"><path id="XMLID_110_" class="st1" d="M5 71.8c.5-1.2 1.3-.4 1.6.2.4.8-.1 1.7-.6 2.4-.4.6-1 1.1-1.6 1.4-.2.2-.4.4-.6.7-.1.1-.2.4 0 .5.4.4 1.3.3 1.8.3.9.1 1.9 0 2.7-.4.5-.2.9-1.4.1-1-.6.3-1.5.3-2.2.2-.3 0-1.2 0-1.4-.2v.5c-.4.7-.1.3.2.1.3-.2.5-.4.8-.6.5-.4.9-.8 1.2-1.3.8-.9 1.2-2 1-3.2-.5-2.7-3.4-.7-3.9.8-.4.7.8 0 .9-.4z"/><path id="XMLID_94_" class="st1" d="M11.9 76.1c.9 2.9 5.4.9 4.7-1.7-.4-1.3-1.9-1.1-2.9-1.5-.6-.2-.6-.7-.6-1.2.2-.6.2-.7-.2-.3.2-.1.3-.1.5-.1.9-.2 1.9-.1 2.7.3.4.2 1.3-.8.8-1.1-1.1-.5-2.4-.4-3.5-.2-1.1.3-1.4 1.3-1.4 2.3-.1 1.3 1.1 1.4 2.1 1.6.8.1 1.4.3 1.5 1.2.1 1.4-1.3 1.2-2 .8-.3-.2-.5-.6-.6-.9-.2-.4-1.3.4-1.1.8z"/><g id="XMLID_90_"><path id="XMLID_93_" class="st1" d="M22.2 70.8c-1.2 2.1-2.8 4-4.3 5.9-.6.8.4.8.8.2 1.5-2 3.2-4.1 4.5-6.3.5-.8-.7-.3-1 .2z"/><path id="XMLID_92_" class="st1" d="M19.9 70.2c-.8 0-1.3.7-1.5 1.5-.1.7.3 1.2 1 1.3 1.4 0 2.2-2.7.5-2.8-.3 0-.9.8-.4.8.4 0 .5.3.6.7v.4c0 .1 0 0 0 0h-.2c-.3 0-.6-.3-.6-.6 0-.1 0-.3.1-.4 0-.1.1 0 0 0h.2c.1-.1.7-.9.3-.9z"/><path id="XMLID_91_" class="st1" d="M22 74.7c-.8 0-1.3.7-1.5 1.5-.1.7.3 1.2 1 1.3 1.5-.1 2.2-2.8.5-2.8-.3 0-.9.8-.5.8s.6.3.6.6v.4c0 .1 0 0 0 0h-.2c-.3 0-.6-.3-.6-.6 0-.1 0-.3.1-.4 0-.1.1 0 0 0h.2c.3 0 .9-.9.4-.8z"/></g><path id="XMLID_89_" class="st1" d="M10.1 78.8c.5-.5.9-1.2 1-1.9 0-.2 0-.5-.2-.7-.3-.3-.7 0-1 .1-.3.1-.6.5-.7.9 0 .4.4.3.6.2 0 0 .1 0 0 0 .1.1 0 .2 0 .3 0 .2-.1.3-.2.4 0 0 0 .1-.1.1 0-.1 0-.1 0 0l-.1.1c.1-.2 0 0 0 0-.2.1-.5.6-.3.8.4.2.8-.1 1-.3z"/></g></svg>