<svg id="Layer_1" xmlns="http://www.w3.org/2000/svg" viewBox="-580 396.7 86 86"><style>.st0{fill-rule:evenodd;clip-rule:evenodd;fill:#80CDC7;} .st1{fill:#FFFFFF;} .st2{fill:#62BA47;}</style><path class="st0" d="M-524.9 398.1c-.6 3.3-3.5 5.8-6.9 5.8-3.8 0-6.9-3-7-6.8-19.5 2-34.7 18.5-34.8 38.6 0 3.9.6 7.7 1.7 11.3h.4c3.8 0 6.9 3.1 6.9 6.9 0 1.7-.6 3.3-1.6 4.5 6.5 8.9 16.6 14.9 28.2 15.9 2.9.3 9.3-.1 12.9-1 9.4-2.4 17.4-8.2 22.6-16-.5-.9-.7-1.9-.7-3 0-3.2 2.3-5.9 5.3-6.4 1.3-3.8 1.9-7.9 1.9-12.1-.1-18.2-12.3-33.3-28.9-37.7zm-40.9 27c-2 0-3.7-1.7-3.7-3.7 0-2.1 1.7-3.7 3.7-3.7s3.7 1.7 3.7 3.7-1.7 3.7-3.7 3.7zm61.4 13.1c-2.5 0-4.5-2-4.5-4.5s2-4.5 4.5-4.5 4.5 2 4.5 4.5-2 4.5-4.5 4.5z"/><path class="st1" d="M-517.2 430.5c.6-1.9 1-4.2-.5-5.8-.9-1-2.3-1-3.4-.8.1-.8.2-1.5.3-2.3 0-.6-1.3-.5-1.7-.4-.7.2-1.4.6-1.5 1.2-.1 2.9-.6 5.9-1.2 8.7-.6.3-1.3.6-1.9.9-.4.2-.7.4-1.2.2-.8-.2-.7-1.5-.8-2.2-.1-2.6.1-5.5 1.6-7.7.3-.5-.2-.9-1-.8-1 .1-1.8.6-2.1 1.2-1.4 2.9-1.5 6.1-1.2 9.4.1 1.1.4 1.8 1.7 2.1 1.5.3 3.2-.6 4.4-1.3 0 .2-.1.4-.1.6-.6 2.7-1.4 5.4-2.1 8.1-.2.6.4.7.7.5.4-.2 1-.6 1.2-1.2.7-1.8 1.3-3.7 1.9-5.5.7.3 1.6.3 2.6-.1 2.2-.7 3.6-2.7 4.3-4.8zm-3.7-5c.1 0 .1 0 0 0zm-1.1 8.5zm.1-.1l-.1.1c-.9-.3-1-1.2-.8-1.9v-.2c.5-1.6.9-3.2 1.3-4.8v-.1c.1-.5.3-1 .6-1.4.3.1.6.5.7.8.6 1.2.3 2.8 0 3.9-.3 1.3-.9 2.7-1.7 3.6z"/><path class="st1" d="M-535 424.1h-.2-.1c-.7.1-1.3.3-1.9.7-.1-1.1-.2-2.1-.4-3.2-.1-.5-1.1-.1-1.4 0-.8.4-1.5 1.1-1.6 1.7-.2 1.3-.4 2.6-.7 3.9-.2 1.1-.4 2.1-.7 3.2-.1.5-.3.9-.4 1.4-.1.2-.1.3-.2.5-.5.6-1.4.7-2.2.5-.8-.2-1.5-.8-2.1-1.4-1.5-1.7-2.4-3.9-2.8-6.1-.2-1.1-.3-2.3-.1-3.4.1-.5.2-.9.3-1.4.1-.3.1-.4.2-.5 0-.1.1-.2.1-.3 0 0 0-.1.1-.1v-.1l.1-.1s.1-.1.2-.1c.1-.1.8-.3 1.1-.3 2-.3 2.8 1.2 3.3 2.4.4.9 3.2-1.3 2.9-2.2-.7-1.9-2.5-3.2-4.5-2.9-1.7.2-3.1 1-4.1 2.2-2.2 2.5-2.7 6-2 9.2.6 2.8 2.2 5.5 4.6 7.1.9.6 2.1.9 3.1.7 2.3-.5 3.8-3.1 4.7-5.2 0-.1.1-.2 0-.3 0 0 0-.1.1-.1.1 2 1.5 4.2 3.6 4.1 2.3-.1 3.7-3 4-5 .2-2.1-.6-4.6-3-4.9zm.5 7.1c0 .2-.1.3-.1.4h-.3c-1.3.1-1.9-1.8-2-2.7v-.3-.5c0-.4.1-.8.2-1.2 0-.1.1-.3.2-.4h.2c1.5 0 2 1.8 2.1 2.8-.1.5-.2 1.3-.3 1.9zM-507.4 445.9s-.1-.1-.2-.1h-.1c-2-.6-3.4 1.6-4 3.1-.1.3-.3.8-.4 1.3-.4.3-.7.7-1.2.9h-.1-.1v-.1c-.1-.2 0-.6 0-.8.1-1 .4-2 .8-2.9.2-.6.4-1.2.7-1.7.2-.2.3-.5.5-.7.2-.3.1-.6-.3-.6-.5 0-1 .2-1.2.6l-.6.9c-.3.4-.6.8-.9 1.1-.3.3-.5.3-.9.5 0 0-.1 0-.1.1l.9-3.9c.2-.9-1.6-.3-1.7.3-.3 1.4-.5 2.8-.9 4.3-.4.4-.8.8-1.3 1.1 0 0-.1.1-.2.1h-.1-.1v-.1c-.1-.1-.1-.3-.1-.4-.1-1 .1-2.1.3-3.1l.3-1.5c.2-.5.3-1.1.5-1.6.1-.4-.4-.5-.7-.4-.4.1-.9.4-1 .8-.2.5-.3 1-.5 1.5-.4 1.1-.8 2.3-1.4 3.3-.1.2-.2.3-.3.5-.1.2-.2.2-.2.2h-.3c-.3-.1-.2-1 0-2.2 0-.1.1-.2.1-.2v-.2c.3-1.3.7-2.7.9-4 .1-.8-1.7-.1-1.8.5-.2 1.4-.5 2.8-.8 4.2-.2.6-.5 1.2-1.3 1.2-.7 0-.8-.3-.9-.9-.1-.7 0-1.5-.3-2.2-.3-.6-.9-.7-1.5-.6 0-.1.1-.2.1-.3 0-.1.1-.2.1-.3.2-.4.4-.9.6-1.2l.2-.2c.2.1.5.3.6.4.6.5 2.3-.6 1.7-1.1-.7-.6-1.5-.7-2.2-.5-.5.2-1 .5-1.4.8l-.2.2c0-.9 0-1.7-.2-2.6-.1-.7-1.8.4-1.7 1 .3 1.7.2 3.4.1 5.2v.1c-.2.6-.4 1.3-1.1 1.4-.6.1-.8-.1-.9-.6-.1-.7-.1-1.6-.5-2.2-.3-.5-.9-.6-1.4-.4 0-.1 0-.2.1-.3 0-.1 0-.2.1-.3.1-.4.3-.9.5-1.3.1-.1.2-.2.2-.3.2 0 .5.2.5.3.6.4 2-.8 1.5-1.3-.7-.6-1.4-.6-2-.3-.4.2-.8.5-1.2 1l-.2.2c-.1-.9-.2-1.7-.4-2.5-.2-.7-1.7.5-1.5 1.1.4 1.8.5 3.6.5 5.5-.2.4-.5.8-.8 1.2-.2.2-.3.4-.4.4h-.1c-.1 0 0 0-.1-.1-.4-.3-.4-1.2-.5-1.7-.2-1.3-.2-2.7-.2-4v-.1c-.1-.9-.8-1.3-1.8-1.1-.1-.1-.3-.1-.5 0-.4.2-.7.5-.9.8-.2.2-.4.4-.5.6-.7.3-2.1-.1-2.8-.4h-.1c-.2-.2-.4-.3-.7-.4-.7-.2-1.5.2-2 .6-.1-.5-.3-1-.5-1.5-.1-.4-.8.1-1 .2-.3.3-.6.8-.5 1.2.6 1.8 1 3.6 1.4 5.5-.2.5-.6 1.3-.9 1.4-.1 0-.2.1-.3.1-.1 0-.1-.1-.2-.2-.5-.8-.5-1.8-.7-2.7-.2-.9-.5-1.8-.9-2.7-.2-.5-.7-1.2-1.4-.7-.6.3-.9 1-1.1 1.6-.2-.4-.5-.7-.8-.9-.4-.2-1 .2-1.2.6-.2.3-.3.6-.4.9-.1-.2-.1-.4-.2-.6-.3-.8-1.5.8-1.3 1.3.2.5.3.9.5 1.4.1 1.4-.1 2.9-.6 4.2-.3.7-.4.9-1.2.9-1.5-.1-2.4-1.9-3-3.2-.7-1.6-1.1-3.5-.7-5.2 0-.2 0-.1.1-.3 0-.1 0-.1.1-.2l.1-.1s.2-.1.3-.1c1.3-.4 2 .5 2.5 1.4.3.6 1.5-1 1.2-1.6-.5-1-1.3-2-2.7-1.7-1 .2-1.7.9-2.2 1.7-1.1 1.8-1 4-.4 6 .5 1.8 1.4 3.7 3.1 4.8.6.4 1.4.4 2.1.1 1-.4 1.5-1.9 1.9-2.7.1-.4.2-.7.3-1.1.2.8.5 1.6.7 2.4.3.8 1.3-.7 1.1-1.3-.4-1.7-.7-3.4-.8-5.1v-.4c.6.8.9 1.9 1.1 2.9.1.4.2.9.3 1.3.1.6.3 1.2.4 1.8.2.8 1.3-.6 1.1-1.2-.1-.5-.2-.9-.3-1.4-.1-.7-.2-1.5-.3-2.3 0-.6-.1-1.3 0-2l.3.6c.4.9.6 1.8.8 2.8.2.8.4 3 1.6 2.7.8-.2 1.4-.8 1.9-1.6 0 .2.1.3.1.5.3 2 .6 4 .8 5.9 0 .4.5.3.7.1.3-.3.6-.7.6-1.2-.1-1.5-.3-3-.5-4.5.5-.1 1.1-.5 1.6-1 1-1.2 1.1-2.8.8-4.3 0-.2-.1-.5-.1-.7h.3c.3 0 .6-.1.9-.1-.3 1.3-.2 2.7.2 4 .2.6.5 1.2 1.1 1.5.8.3 1.6-.4 2-.9 0 0 0-.1.1-.1.1.3.3.7.5.8.5.3 1 .1 1.4-.2.4-.3.8-.7 1.1-1.1v.9c0 .9 1.3-.3 1.4-.8.1-.7.1-1.5.2-2.2.4.2.5.9.6 1.4.1.7 0 1.5.7 1.8.8.3 1.6-.1 2.3-.5.1-.1.2-.1.4-.2 0 .2 0 .5-.1.7-.1.9 1.5-.1 1.5-.7.1-.7.3-1.5.5-2.2.5.2.5.9.5 1.5 0 .7-.1 1.5.7 1.9.8.4 1.8.1 2.5-.2.2-.1.4-.2.5-.3 0 .6.2 1.2 1 1.2 1 .1 1.8-.5 2.4-1.1 0 .5 0 1.1.2 1.5 0 .1.2.2.3.2h.2c.3.1.6.1.9 0 .5-.1 1-.4 1.4-.7l-.3.9c-.1.4.3.5.6.4.4-.1.8-.4 1-.8.3-.6.5-1.3 1-1.9.3-.3.4-.3.8-.5h.1v.1c-.3 1-.7 2.3-.7 3.4 0 .3.4.7.4.7l.1.1c.1.1.3.1.4.1.6.1 1.3-.2 1.8-.6 0 .7.2 1.4.9 1.7.8.4 1.9-.2 2.6-.7.7-.6 1.3-1.5 1.7-2.3 1.4-.9 2.2-3.2.6-4.1zm-54.2-3.2c.1 0 .1 0 0 0 .1 0 .1 0 0 0 .1 0 .1 0 0 0zm15.1-.1c.1 0 .1 0 0 0zm1.8 5.4zm0-.1s0 .1-.1.1c-.6.2-1-.3-1.1-.8v-.1l-.6-3.3v-.1c-.1-.3-.1-.7 0-1 .2-.1.4.1.6.2.6.5.9 1.5 1.1 2.3.2.8.4 1.8.1 2.7zm5.1-.5h-.2c-.3-.1-.5-.6-.6-.9-.4-1-.5-2.3-.3-3.4 0-.2.1-.5.2-.7.1-.1.2-.3.4-.5h.1c.4 0 .6.2.6.6 0 1.5.2 3-.1 4.5 0 .1 0 .3-.1.4zm26.3 3.7zm3 1.3c-.1 0-.1.1 0 0zm.5-.5c-.1.1-.2.3-.4.4-.3-.2-.3-.8-.3-1.1 0-.7.2-1.4.4-2 .2-.7.5-1.3.9-1.9.1-.1.2-.3.3-.4.7.6.1 2.5-.1 3.1-.1.6-.4 1.3-.8 1.9z"/><g><circle class="st2" cx="-565.9" cy="470.2" r="12.2"/><path class="st1" d="M-574 469.4c.4-.5.8-1.1 1.2-1.6.2-.3.4-.5.5-.7.3-.3.2-.3-.1-.1v1.1c0 2.1-.1 4.3-.3 6.4-.1.8 1.3-.2 1.4-.8.1-1.4.2-2.8.2-4.3 0-.6.5-3.9-.3-4.1-1.4-.4-2.9 2.8-3.6 3.7-.7 1.1.5 1 1 .4zM-567.4 469.5c-.6-.3-2-1.6-.9-2.3.4-.3.9-.2 1.4 0 1.1.3.3 1.2-.2 1.6-.3.2-2.1 1.7-1.3 2.2.9.7 2.7-.1 2.7 1.5 0 1.1-1.7 1.1-2.3.7-1-.7-1-1.7.2-2.4.5-.3 1.1-1.7.1-1.1-1.2.7-2.4 1.7-2.4 3.2 0 .9.9 2 1.9 2 1.4.1 2.8-.8 3.5-1.9.7-1.1.6-2.5-.7-2.8-.4-.1-1.4-.4-1.7-.1.5-.6 1.3-1 1.7-1.6.9-1.2.6-2.5-1-2.8-1.3-.2-2.5.8-3.2 1.8-.8 1.4.1 2.6 1.3 3.3.4.3 1.5-1 .9-1.3zM-558 466.5c-1.6 2.6-3.5 5-5.4 7.5-.8 1.1.5 1 1 .3 1.9-2.6 4-5.1 5.6-7.9.8-1.1-.9-.5-1.2.1zM-560.9 465.8c-1 0-1.7.9-1.8 1.8-.2.8.3 1.6 1.2 1.6 1.8.1 2.7-3.3.6-3.4-.4 0-1.2 1-.6 1 .5 0 .7.4.8.8 0 .2 0 .4-.1.5-.1.1-.1 0 0 0h-.3c-.4 0-.7-.4-.7-.8 0-.2 0-.4.1-.5.1-.1.1-.1 0 0h.2c.5 0 1.2-1 .6-1zM-558.2 471.4c-1 0-1.7.9-1.8 1.8-.2.8.3 1.6 1.2 1.6 1.8 0 2.7-3.4.6-3.4-.4 0-1.2 1-.6 1 .5 0 .7.4.8.8 0 .2 0 .4-.1.5-.1.1 0 0 0 0h-.3c-.4 0-.7-.4-.7-.8 0-.2 0-.4.1-.5.1-.1.1-.1 0 0h.2c.5 0 1.2-1.1.6-1z"/></g></svg>