<svg id="Layer_1" xmlns="http://www.w3.org/2000/svg" viewBox="-580 396.7 86 86"><style>.st0{fill-rule:evenodd;clip-rule:evenodd;fill:#74B7DB;} .st1{fill:#FFFFFF;}</style><path class="st0" d="M-526.2 398.6c-.7 3.6-3.8 6.3-7.6 6.3-4.2 0-7.6-3.3-7.7-7.5-21.3 2.2-38 20.2-38.1 42.3 0 4.3.6 8.4 1.8 12.4h.5c4.2 0 7.6 3.4 7.6 7.6 0 1.9-.7 3.6-1.8 4.9 7.1 9.7 18.2 16.4 30.9 17.4 3.2.4 10.2-.1 14.1-1.1 10.3-2.6 19-9 24.7-17.5-.5-1-.8-2.1-.8-3.3 0-3.5 2.5-6.4 5.8-7 1.4-4.2 2.1-8.6 2.1-13.3.1-19.9-13.3-36.4-31.5-41.2zm-44.8 29.5c-2.2 0-4.1-1.8-4.1-4.1s1.8-4.1 4.1-4.1c2.2 0 4.1 1.8 4.1 4.1s-1.8 4.1-4.1 4.1zm67.2 14.3c-2.7 0-4.9-2.2-4.9-4.9s2.2-4.9 4.9-4.9 4.9 2.2 4.9 4.9-2.2 4.9-4.9 4.9z"/><path class="st1" d="M-517.7 434c.7-2 1.1-4.6-.6-6.3-1-1-2.5-1.1-3.7-.9.1-.8.2-1.7.3-2.5.1-.7-1.5-.6-1.8-.5-.7.2-1.6.7-1.6 1.4-.1 3.2-.6 6.4-1.3 9.5-.7.3-1.4.7-2.1 1-.4.2-.8.4-1.3.2-.8-.2-.8-1.6-.8-2.4-.2-2.9.1-6 1.8-8.4.4-.5-.2-1-1.1-.9-1 .1-2 .7-2.3 1.3-1.5 3.2-1.6 6.7-1.3 10.3.1 1.2.4 2 1.9 2.3 1.7.3 3.5-.7 4.8-1.4-.1.2-.1.4-.2.7-.7 3-1.5 5.9-2.3 8.8-.2.7.4.7.7.6.5-.2 1.1-.6 1.3-1.3.7-2 1.4-4 2-6.1.8.3 1.8.3 2.8-.1 2.4-.8 4-3 4.8-5.3zm-4.1-5.5c.1 0 .1 0 0 0zm-1.2 9.4zm0-.2s-.1.1-.2.1c-1-.3-1.1-1.3-.9-2.1v-.2c.5-1.7 1-3.5 1.4-5.2v-.1c.1-.6.3-1.1.7-1.5.4.1.6.5.8.9.6 1.4.3 3 0 4.3-.2 1.3-.8 2.8-1.8 3.8zM-537.2 427h-.3-.2c-.8.1-1.4.3-2 .7-.1-1.2-.2-2.3-.5-3.5-.1-.5-1.2-.1-1.5 0-.9.4-1.6 1.2-1.7 1.9-.2 1.4-.4 2.8-.7 4.3-.2 1.2-.5 2.3-.8 3.5-.1.5-.3 1-.4 1.5-.1.2-.1.4-.2.5-.6.7-1.5.8-2.4.6-.9-.2-1.7-.9-2.3-1.6-1.7-1.8-2.7-4.2-3.1-6.7-.2-1.2-.3-2.5-.1-3.8l.3-1.5c.1-.3.2-.4.2-.6 0-.1.1-.2.2-.3 0 0 0-.1.1-.1v-.1l.1-.1.2-.2c.1-.1.8-.3 1.2-.3 2.2-.3 3 1.4 3.6 2.6.4 1 3.5-1.4 3.1-2.4-.8-2.1-2.7-3.5-5-3.2-1.9.2-3.4 1.1-4.5 2.4-2.4 2.8-2.9 6.5-2.2 10 .7 3.1 2.4 6 5.1 7.8 1 .7 2.3 1 3.3.8 2.5-.6 4.2-3.4 5.1-5.7 0-.1.1-.2.1-.3 0 0 0-.1.1-.2.1 2.2 1.7 4.6 4 4.5 2.5-.1 4-3.3 4.4-5.5.3-1.9-.6-4.7-3.2-5zm.4 7.8c0 .2-.1.3-.2.5h-.3c-1.4.1-2.1-1.9-2.2-3v-.4-.6c0-.4.1-.9.2-1.3 0-.1.1-.3.2-.5h.2c1.7 0 2.2 2 2.3 3.1.1.7 0 1.5-.2 2.2z"/><g><path class="st1" d="M-508.8 458.8c-.1-.3-.6-.3-1-.2-.6-.3-.1-1.9 0-2.3.4-1.6 1.1-3.2 1.7-4.7v-.1c.4-1.1-.4-2-1.6-2.2-1.2-.2-2.3.4-3.1 1.1-1.4 1.2-2.2 3.1-2.5 4.9-.4.3-1 .7-1.4.6v-.2c-.1-.4 0-.9.1-1.3.5-2.1 1.5-4.3 1.2-6.5-.2-1.7-2.1-.7-3.1.1 0-.6-.1-1.2-.4-1.6-.4-.5-1.2-.4-1.7-.2-.4.2-.7.4-1 .7 0-.3.1-.5.1-.8.1-1.1-2.1-.1-2.1.6-.1 1.7-.4 3.4-.8 5.1-.6.7-1.3 1.3-2.2 1.6-.2.1-.2.1-.3.1 0-.1-.1-.2-.1-.2-.3-1.1.1-2.4.3-3.5.1-1.2.2-2.4.1-3.5-.1-.7-.4-1.7-1.4-1.5-.9.1-1.5.7-2 1.3-.1-.6-.2-1.1-.6-1.4-.4-.5-1.3-.2-1.7.1-.3.2-.6.5-.9.8v-.8c0-.2 0-.3-.1-.4-.1-.1-.1-.1-.2-.1h-.3c-.4.1-.7.3-.9.6-.2.2-.3.4-.4.6-.3.6-.8.5-1.4.2-.3-.1-.6-.3-.9-.6-.3-.5-.7-.8-1.3-.9h-.2-.1c-2.5.4-2.8 3.6-2.8 5.6v.1c-.4.3-.7.8-.8 1.3-.1.6-.4 1.8-.4 1.8s.1 0 0 0c-.6 0-.6-.8-.7-1.3-.2-.8-.4-1.7-1-2.3-.5-.4-1.1-.4-1.7-.1v-.4c0-.1 0-.2.1-.4.1-.5.2-1.1.4-1.7.1-.1.2-.3.2-.4.3 0 .6.2.8.3.8.4 2.3-1.4 1.6-1.8-.9-.6-1.8-.4-2.6 0-.5.3-1 .8-1.4 1.4-.1.1-.1.2-.2.3-.2-1.1-.5-2.1-1-3.1-.3-.8-2.1 1-1.8 1.7 1 2.5 1.4 5.3 1.8 8.1-.3-.1-.7.3-.9.4-.5.5-.6.3-.9-.3-.4-.7-.6-1.5-.8-2.3-.3-1-.5-2-.6-3-.1-.7-.1-1.5-.2-2.2 0-.5-.7-.3-1-.1-.4.4-.8.9-.8 1.5 0 .7.1 1.3.2 2 .1 1.5.2 2.9.1 4.4 0 .2-.1.5-.1.7-.1.3-.1.3-.1.4-.1.1-.3.2-.3.2-1.3-.4-1.5-5.8-2.1-8.1-.2-1-1.8.8-1.6 1.5.5 1.9.9 4 1.4 5.9.3 1.1.7 3.3 2.1 2.7 1-.5 1.6-1.5 2-2.6.2.6.5 1.2.9 1.6.7.7 2-.5 2.4-1 .1-.2.3-.4.4-.6 0 .3.1.6.1 1 .1 1.1 1.8-.6 1.7-1.3 0-.9-.1-1.9 0-2.8 1.2.2 1 3.2 2 3.7.8.4 1.7-.1 2.2-.7.4-.5.8-1 1-1.5.3 1.2.9 2.2 1.9 2.2 1 0 1.8-1.2 2.2-2.1.5-1.1.6-2.3.7-3.5v-1.5c.6 0 1.2-.2 1.7-.6 0 2.4-.2 4.8-.3 7.2 0 1.1 1.7-.2 1.7-.9.2-2.2.5-4.3 1.2-6.3.1-.2.1-.3.2-.5v.1c.4 1.2.2 2.6.2 3.9 0 .6-.1 1.1-.1 1.7-.1.8-.2 1.6-.2 2.3-.1 1.1 1.7-.2 1.8-.9.1-.6.2-1.1.2-1.7.2-.9.4-1.9.6-2.8.2-.8.5-1.6.9-2.3.1.3.1.7.1 1 .1 1.2 0 2.4-.2 3.6-.1 1-.8 4 1.1 3.7 1.1-.2 2.1-.7 3.1-1.4-.1.5-.2 1.1-.3 1.6-.2 1.1 1.8 0 1.9-.7.5-2.1 1.1-4.2 2.1-6.1.1-.2.2-.3.3-.5v.1c.2 1.3-.2 2.6-.4 3.9-.1.6-.2 1.2-.4 1.7-.2.7-.4 1.5-.5 2.2-.2 1.1 1.7.1 1.9-.6.2-.8.4-1.5.6-2.3.5-1.5 1.1-2.9 2-4.1v.3c0 1-.2 2.1-.4 3.1-.2 1.1-.6 2.2-.8 3.3-.1.5-.1 1.2.3 1.6.3.3 1.1.1 1.4.1.5-.1 1-.3 1.5-.5 0 .6.1 1.1.4 1.5.6.7 1.9.4 2.6 0 0 0 .1 0 .1-.1 0 .4 0 .8.2 1.1.5.8 1.6.6 2.4.4.4-.3 1.1-.8.9-1.2zm-29.9-5.7zm.3-1c0 .2-.1.5-.2.7-.4-.1-.6-.8-.8-1.1-.3-.8-.4-1.6-.5-2.5-.1-.9 0-1.8.2-2.6 0-.2.1-.4.2-.6.1 0 .3.1.4.3 0 .1 0 .2.1.3 0 0 .1.1.2.1.4.9.5 2.3.6 2.8 0 .9 0 1.8-.2 2.6zm25.6 5.1c-.1 0-.2 0-.3-.1-.3-.3-.2-.9-.2-1.3.1-1.4.6-2.9 1.4-4 .2-.3.7-.9.9-1.1h.1c.1 0 .2.1.3.1.5.2.6.6.4 1-.7 1.7-1.3 3.5-2.3 5.1-.1 0-.2.2-.3.3z"/><path class="st1" d="M-559.2 442.9c-1.5-1.5-4-1.2-5.7-.3-2.4 1.2-4.1 3.8-4 6.5 0 .5.4.6.9.3.5-.4.9-1.1.8-1.6 0-1.6.9-2.7 2.5-3.4 1.4-.6 2.9-.5 3.8.2 1.2 1 2.9 5 0 5.2-1-1.4-2.1-2.8-2.6-4.5-.3-1-1.9 1-1.6 1.7 1 2.8 3.6 4.8 4.3 7.7.3 1 .4 2.4-.8 2.6-.8.2-2-.2-2.2-1-.3-1-1.7 1-1.4 1.7.4 1.2 1.7 1.7 2.9 1.6 1.6-.2 2.7-1.8 3-3.3.3-1.6.1-3.3-.5-4.8 1.1-.7 1.8-2.1 2.1-3.4.3-1.8-.1-3.8-1.5-5.2z"/></g></svg>