<svg id="Layer_1" xmlns="http://www.w3.org/2000/svg" viewBox="-580 396.7 86 86"><style>.st0{fill:#FDED07;} .st1{fill:#62BA47;} .st2{fill:#FFFFFF;}</style><circle class="st0" cx="-534.8" cy="435.7" r="38.9"/><circle class="st1" cx="-565.9" cy="470.3" r="12.2"/><path class="st2" d="M-505.9 434.8c-.1-.1-.5-.2-.5-.2-3.7-.6-5.4 3.4-6 6.3v.1c-.6 2.1-1.9 3.9-2.1 4.3-.2.2-.4.2-.5.1-.1-.1-.3-.6-.4-.9-.3-1-.3-2.1-.3-3.1 0-2.9.3-5.7.7-8.5.1-.6-.4-.8-1-.8-.9.1-1.7.7-2.1 1.4-1.3 2-2.1 4.4-2.6 6.8-.3 1.2-.4 2.5-.8 3.7l-.1-.1c-.4-.3-.6-.7-.7-1.1 0-.1-.1-.3-.2-.4-.1-.1-.3-.2-.5-.2-.5 0-1.1.3-1.5.6-.2.1-.3.3-.5.4-.1.1-.3.4-.9.3-.6-.1-1-.6-1.3-1.2-.7-1.1-.6-2.6-.6-3.8 0-1.7.2-3.4.9-4.9 0-.1.1-.2.2-.4 0 0 .1.1.2.1.7.6.9 1.6 1.1 2.3.3 1.3 3.4-.5 3.1-1.7-.2-1.1-.6-2.5-1.7-3.1-1.2-.7-2.6-.2-3.6.5-2.3 1.7-3 4.8-3.1 7.6v.5c-.2 1.1-.7 2.1-1.2 3.1-.1.2-.3.6-.8.4-.3-.1-.4-.6-.5-.9-.5-1.6-.6-3.3-.6-5 .1-1.2.1-2.3.2-3.4 0-.4.1-.8.1-1.2v-.1c0-1.7-1.5-2.6-3.4-2.1-1.8.4-3.2 1.8-4 3.2-.9 1.5-1.3 3.2-1.4 5-.1 1.5 0 4.8-.8 4.9-1.2.1-1.9-1.7-2.2-2.6-.7-1.9-1-4-1.2-6.1-.3-3.4-.4-6.9-.1-10.3.1-.6-.6-.6-1.1-.4-.8.3-1.5 1-1.7 1.6-1.1 2.4-1.5 5.3-1.8 7.9v.1c0-.2-.1-.5-.1-.7-.3-2.2-.5-4.3-.7-6.5-.1-1.3-.3-3.1-.1-4.1.3-1.8-2.2-.2-2.6.6-2.8 4.8-2 10.5-1.9 15.7 0 1.4-.1 2.8-.3 4.2-.2.9-.4 2.6-1.2 3.3-.5.5-1.4 0-1.8-.2-.6-.4-1-1.2-1.1-1.9-.1-.8-.9-.4-1.4 0-.6.5-1.2 1.5-1.1 2.3.2 1.8 1.8 3.7 3.7 3.1 3.1-.9 4.5-4.5 5.2-7.4.4-1.7.6-3.5.7-5.2.5 3.2 1.1 6.4 1.6 9.6.3 1.7 2.6-1 2.6-2 .1-2.3.2-4.6.5-6.8.4 2.9 1.6 8.7 5 8.6 1 0 2.1-1.2 2.7-2.3.3.7.8 1.4 1.5 1.7 1.4.6 3.1-.5 4-1.4l.1-.1c.2.6.4 1.1.8 1.4 1.9 1.3 3.9-.5 5-1.9.2.6.5 1.1.9 1.6 1.4 1.5 3.1 1.1 4.6.2 1.4 2.1 4.5 1 5.7-1.1.1-.3.3-.5.4-.8 0 .3 0 .5.1.8.1.9.3 2.1.9 2.9.7.9 2 .6 2.8.2.7-.5 1.5-1.4 2.2-2.3 0 1.9.5 3.8 2.3 4.4 1.6.6 3.3-.7 4.1-1.7 1.1-1.3 1.7-3 2.1-4.7.3-2.5.9-6.3-1.9-8.2zm-32.2 6.9c0 .1-.1.4-.2.7h-.5c-.6-.2-.9-1.1-1-1.6-.6-1.9-.6-4.3-.1-6.3.2-.6.6-1.6.8-2l.1-.1h.5c.8 0 1.1.5 1.1 1.1 0 2.7-.1 5.6-.7 8.2zm29.2 4.1c-.1.3-.3.6-.5.9-.6-.3-.8-1.5-.9-2-.2-1.3-.1-2.6.1-3.8.2-1.3.5-2.5 1.1-3.7.1-.3.3-.6.5-.8 1.4.9.9 4.7.7 5.8-.2 1.1-.5 2.4-1 3.6zM-571.3 468.9c.4-1 1.1-.3 1.3.2.3.7-.1 1.4-.4 1.9-.3.5-.8.8-1.3 1.1-.3.2-.5.3-.6.5-.1.1-.1.3 0 .4.3.3 1.1.2 1.5.3.7.1 1.5 0 2.2-.3.4-.2.7-1.1.1-.8-.5.3-1.2.2-1.7.2-.3 0-.9 0-1.2-.2v.4c-.3.5-.1.2.1.1.2-.2.4-.3.6-.5.4-.3.7-.7 1-1 .6-.7 1-1.6.8-2.6-.4-2.1-2.7-.6-3.1.6-.4.6.5 0 .7-.3z"/><path class="st2" d="M-574.4 470c-.4-.2-1.3-1-.6-1.5.3-.2.6-.1.9 0 .7.2.2.8-.1 1-.2.1-1.3 1.1-.8 1.4.6.4 1.7-.1 1.7.9 0 .7-1.1.7-1.5.4-.7-.5-.6-1.1.1-1.5.3-.2.7-1.1.1-.7-.7.4-1.5 1.1-1.5 2 0 .6.6 1.2 1.2 1.3.9.1 1.8-.5 2.2-1.2.5-.7.4-1.6-.5-1.8-.3-.1-.9-.2-1.1 0 .3-.4.8-.6 1.1-1 .6-.8.4-1.6-.6-1.8-.8-.1-1.6.5-2 1.2-.5.9.1 1.7.8 2.1.3.2 1-.6.6-.8zM-565.7 472.2c.7 2.3 4.2.7 3.6-1.3-.3-1-1.4-.9-2.3-1.1-.4-.1-.5-.5-.5-.9.2-.4.1-.5-.2-.2.1 0 .3-.1.4-.1.7-.1 1.5-.1 2.1.2.3.2 1-.6.6-.8-.8-.4-1.8-.3-2.7-.1-.8.2-1 1-1.1 1.7-.1 1 .9 1.1 1.6 1.2.6.1 1.1.2 1.1.9.1 1.1-1 .9-1.5.6-.2-.2-.4-.4-.5-.7.1-.4-.7.2-.6.6zM-557.3 468.1c-1 1.7-2.3 3.2-3.4 4.7-.5.7.3.7.7.2 1.2-1.6 2.5-3.2 3.6-5 .3-.7-.7-.3-.9.1zM-559.2 467.6c-.6 0-1.1.6-1.2 1.2-.1.5.2 1 .8 1 1.2 0 1.8-2.1.4-2.2-.3 0-.7.6-.4.7.3 0 .4.3.5.5v.3c0 .1 0 0 0 0h-.2c-.3 0-.5-.3-.5-.5 0-.1 0-.2.1-.3 0-.1 0 0 0 0h.1c.3-.1.8-.7.4-.7zM-557.4 471.1c-.6 0-1.1.6-1.2 1.2-.1.5.2 1 .8 1 1.1 0 1.7-2.1.4-2.2-.3 0-.7.6-.4.7.3 0 .4.3.5.5v.3c0 .1 0 0 0 0h-.2c-.3 0-.5-.3-.5-.5 0-.1 0-.2.1-.3 0-.1 0 0 0 0h.1c.3 0 .7-.7.4-.7zM-567.2 474.4c.4-.4.7-1 .8-1.5 0-.2 0-.4-.1-.5-.2-.2-.6 0-.8.1-.2.1-.5.4-.5.7 0 .3.3.2.5.1 0 0 .1 0 0 0v.2c0 .2-.1.2-.1.3 0 0 0 .1-.1.1 0-.1 0 0 0 0s0 .1-.1.1c.1-.1 0 0 0 0-.1.1-.4.5-.2.7.2.1.5-.2.6-.3z"/></svg>