<svg id="Layer_1" xmlns="http://www.w3.org/2000/svg" viewBox="0 0 86 86"><style>.st0{fill:#119BD7;} .st1{fill:#62BA47;} .st2{fill:#FFFFFF;}</style><circle id="XMLID_88_" class="st0" cx="45.2" cy="38.9" r="38.9"/><circle id="XMLID_87_" class="st1" cx="14.1" cy="73.5" r="12.2"/><path id="XMLID_113_" class="st2" d="M73.9 38.6c-3.1-1.1-4.9 2.9-5.4 5.3v.2c-.6 2.4-1.4 3.5-1.6 3.4-.7-.3-.5-1.3-.5-1.9 0-1 .2-2.1-.4-3.1-.4-.7-1.3-1-2.1-1 .1-.1.1-.3.2-.4.1-.2.1-.3.2-.5.4-.7.8-1.6 1.5-2.1h.1c.3.1.7.5.9.7.8.9 3.4-.5 2.7-1.4-1-1.2-2.2-1.4-3.3-1.2-.8.1-1.5.5-2.1 1l-.3.3c.1-1.3.1-2.7 0-4.1-.1-.8-1.7-.3-2.5.4-.1.1-.3.2-.3.4-.3.9-2 1.4-3.4.2-.4-.3-.8-.5-1.3-.6-3.2-.3-4.4 3.4-4.7 6-.1 1.6-1.1 3.8-2 4.2-.2-.2-.3-.5-.4-.7-.3-.8-.5-1.7-.6-2.5-.2-2.3-.3-4.7-.2-7.1 0-.5-.4-.6-.9-.5-.8.2-1.5.8-1.7 1.4-1 2.1-1.5 4.4-1.8 6.7-.1.6-.2 1.3-.2 1.9 0 .2 0 .5-.1.7-.5 0-.9-.5-.9-1 0-.8-1-.5-1.8.2.4-1.2.6-2.5.6-3.7 0-2.1-.6-6.3-3.5-6.2-3 .2-3.8 4.2-3.9 6.6-.1 2.3-.2 4.3-.3 4.7-1.3.2-2.1-1.3-2.4-2-.6-1.6-1-3.3-1.2-5-.3-2.9-.5-5.8-.4-8.6 0-.5-.6-.5-1-.3-.6.3-1.2.9-1.5 1.4-.9 2.1-1.1 4.5-1.4 6.7v.1c0-.2-.1-.4-.1-.6-.3-1.8-.6-3.6-.8-5.4-.1-1.1-.3-2.6-.2-3.5.2-1.5-1.9 0-2.3.6-2.1 4.1-1.4 8.7-1.3 13.3 0 1.2 0 2.3-.2 3.5-.1.8-.3 2.2-.9 2.9-.4.4-1.2.1-1.6-.1-.6-.3-.9-.9-1-1.6-.1-.7-.8-.3-1.2.1-.5.5-1 1.4-.9 2 .3 1.5 1.6 3 3.3 2.4 2.7-.9 3.8-4 4.4-6.5.3-1.5.4-2.9.5-4.4.5 2.7 1.1 5.3 1.6 8 .3 1.4 2.3-1 2.3-1.8 0-1.9.1-3.9.3-5.8.3 2.3.9 7.6 4.4 7 1.4-.2 2.2-1.3 2.7-2.5.5 1.1 1.2 1.9 2.5 1.8 1.1-.1 2.2-1 2.8-2 .1.9.7 1.6 1.8 1.7 1.4.1 2.6-.8 3.4-1.8.3-.4.6-.9.7-1.4 0 .2.1.5.1.7.2.8.4 1.7 1.1 2.3.7.6 1.8.2 2.5-.3.8-.5 1.3-1.3 1.8-2.1.2 1.6.9 3 2.4 3.3 1.4.2 2.8-1 3.5-2 .8-1.2 1.2-2.7 1.4-4.1.1-.9.2-2.4-.1-3.9 1 0 1.8-.3 2.3-.8-.2 3.8-.8 7.4-1.4 11.1-.1.6.6.7 1.1.6.6-.2 1.4-.6 1.5-1.3.3-1.1.6-2.3 1-3.4 1.4 1.6.1 3.8 1.1 5.3.5.8 2.3.8 3.1.3.3-.2.6-.4.9-.7.2 1.2.7 2.2 1.8 2.7 1.3.5 2.9-.4 3.6-1.3 1-1 1.5-2.4 1.9-3.8.3-2 1-6.1-1.9-7.1zm-35.4 5c-.1.3-.1.6-.2.8-.5-.1-1-.9-1.1-1.3-.4-1-.6-2-.7-3-.1-1.1-.1-2.2.2-3.3.1-.3.1-.6.2-.8 1.4.3 1.7 3.5 1.8 4.3 0 1.2 0 2.3-.2 3.3zm17 .7c-.1.3-.2.5-.3.8-.5-.2-.8-1.1-.9-1.5-.3-1-.3-2.1-.3-3.2.1-1.1.2-2.2.6-3.2.1-.3.2-.5.3-.7 1.3 1.1 1.3 3.1 1.2 4.7-.1.9-.3 2.1-.6 3.1zM72 48.5c-.1.2-.3.5-.4.7-.5-.3-.6-1.3-.7-1.7-.2-1.1 0-2.2.2-3.2.2-1.1.5-2.1 1-3 .1-.2.3-.5.4-.7 1 1.5.9 3.3.5 4.9-.2.9-.5 2-1 3z"/><g id="XMLID_90_"><path id="XMLID_82_" class="st2" d="M5.9 71.6c.5-1.2 1.3-.4 1.6.2.4.8-.1 1.7-.6 2.4-.4.6-1 1.1-1.6 1.4-.3.2-.6.3-.8.7-.1.1-.2.4 0 .5.4.4 1.3.3 1.8.3.9.1 1.9 0 2.7-.4.5-.2.9-1.4.1-1-.5.4-1.4.3-2.1.3-.3 0-1.2 0-1.4-.2v.5c-.4.7-.1.3.2.1.3-.2.5-.4.8-.6.5-.4.8-.8 1.2-1.3.8-.9 1.2-2 1-3.2-.5-2.7-3.4-.7-3.9.8-.4.6.8-.1 1-.5z"/><path id="XMLID_75_" class="st2" d="M12.7 76c.9 2.9 5.4.9 4.7-1.7-.4-1.3-1.9-1.1-2.9-1.4-.6-.2-.6-.7-.6-1.2.2-.6.2-.7-.2-.3.2-.1.3-.1.5-.1.8-.3 1.8-.3 2.7.2.4.2 1.3-.8.8-1.1-1.1-.5-2.4-.4-3.5-.2-1.1.3-1.3 1.3-1.4 2.3-.1 1.3 1.1 1.4 2.1 1.6.8.1 1.4.3 1.5 1.2.1 1.4-1.3 1.2-2 .8-.3-.2-.5-.6-.6-.9-.2-.5-1.2.3-1.1.8z"/><g id="XMLID_92_"><path id="XMLID_74_" class="st2" d="M23 70.6c-1.2 2.1-2.8 4-4.3 5.9-.6.8.4.8.8.2 1.5-2 3.2-4.1 4.5-6.3.5-.7-.8-.3-1 .2z"/><path id="XMLID_73_" class="st2" d="M20.7 70.1c-.8 0-1.3.7-1.5 1.4-.1.7.3 1.2.9 1.3 1.5 0 2.3-2.7.6-2.7-.3 0-.9.8-.4.8.4 0 .5.3.6.6v.4c-.1.1 0 0 0 0h-.2c-.3 0-.6-.3-.6-.6 0-.1 0-.3.1-.4 0-.1.1 0 0 0h.2c.1 0 .7-.9.3-.8z"/><path id="XMLID_7_" class="st2" d="M22.8 74.5c-.8 0-1.3.7-1.5 1.4-.1.7.3 1.2.9 1.3 1.6 0 2.3-2.7.6-2.7-.3 0-.9.8-.4.8.4 0 .5.3.6.6v.4c0 .1 0 0 0 0h-.2c-.3 0-.6-.3-.6-.6 0-.1 0-.3.1-.4 0-.1.1 0 0 0h.2c.2 0 .8-.8.3-.8z"/></g><path id="XMLID_1_" class="st2" d="M10.9 78.6c.5-.5.9-1.2 1-1.9 0-.2 0-.5-.1-.7-.3-.3-.7 0-1 .1-.3.1-.6.5-.7.9 0 .4.4.3.6.2 0 0 .1 0 0 0 .1.1 0 .2 0 .3 0 .2-.1.3-.2.4 0 0 0 .1-.1.1 0-.1 0-.1 0 0l-.1.1c.1-.2 0 0 0 0-.2.1-.5.6-.3.8.3.2.8-.1.9-.3z"/></g></svg>