<svg id="Layer_1" xmlns="http://www.w3.org/2000/svg" viewBox="-580 396.7 86 86"><style>.st0{fill:#0455A4;} .st1{fill:#62BA47;} .st2{fill:#FFFFFF;}</style><circle class="st0" cx="-534.8" cy="435.8" r="39.1"/><circle class="st1" cx="-566" cy="470.5" r="12.3"/><path class="st2" d="M-506.1 446.8c-1.6.3-1.1-3.8-1.1-4.5.3-2.4.8-4.7 1.4-7 .2-.7-.7-.8-1.2-.8-.7.1-1.6.6-1.7 1.3-.1.4-.2.9-.3 1.3-.1.4-.2.9-.3 1.4-.3 1.3-.6 2.6-1 3.8-.3 1-.6 1.9-1.1 2.7l-.1.1c-.2-.1-.4-.2-.5-.3-1.3-1-.8-3.9-.6-5.1.3-1.9.8-3.8 1.7-5.4.3-.5 0-1-.7-1-.8 0-1.7.5-2 1.1-.7 1.5-1.2 3.1-1.5 4.7-.2 1-1.4 4.9-2.4 4.3-.9-.5-.4-3.2-.9-4.6-.4-1.4-1.5-1.7-2.7-1.6.6-2.3 1.2-3 1.7-3.4.4.2.9.5 1 .7.9.8 3.5-.9 2.7-1.7-1.1-1.1-2.4-1.3-3.5-.9-.8.2-1.6.7-2.2 1.3l-.3.3c0-1.4-.1-2.8-.4-4.1-.1-.5-.8-.5-1.4-.2-.7.3-1.5 1-1.5 1.5 0 1-.3 1.9-1.3 2.5-.5.3-1.3.6-1.9.5-.1 0-.8-.4-1.4-.3.6-1.2 1.1-2.5 1.6-3.8.6-1.7 1.7-4.4.5-6.2-1.2-2-3.9-.5-5 .6-1.7 1.8-2.1 4.6-2.3 6.8-.3 2.5-.1 5.1.2 7.6-.3 1.2-.8 2.8-1.5 3.9-.6-.4-1.4-1.7-1.5-2.1-.5-1.7-.7-3.5-.7-5.3v-2-1.9c0-.7-.8-.6-1.3-.3-.7.4-1.4 1.1-1.4 1.8 0 2.3.1 4.5 0 6.8-.1 1-.2 2.4-.5 3.1-2.1-.1-2.4-3.4-2.5-4.6-.2-1.9-.2-3.9.3-5.8.1-.6-.2-1-1-.7-.7.3-1.5 1.1-1.6 1.8-.2 1.1-.3 2.2-.3 3.3-.1 4.5-.4 6.3-1 7-.3-.2-.6-.6-.7-.7-.5-.7-.8-1.6-1-2.4-.8-2.5-1.2-5.2-1.5-7.8 0-.1 0-.3-.1-.3-.1-.1-.2-.1-.3-.1-.7 0-1.5.9-1.8 1.4-1.2 2.3-.7 5.1-.7 7.5 0 1.2 0 2.4-.2 3.6-1.1-.3-1.2-1.8-1.3-2.1-.1-.3-.5-.2-.9 0s-.6.6-.9.9c-.2.3-.4.7-.4 1v.1c-.1.7-.2 1.3-1 1.5-.4.1-.8.1-1.1 0-.9-.3-1.5-1-2-1.7-1.4-2-2-4.6-2.2-7.2-.1-1.3-.1-2.6.1-3.9l.3-1.5c0-.1.2-.6.2-.6 0-.1.1-.2.1-.3v-.1-.1-.1l.1-.1s.1-.1.2-.1c.1-.1.7-.2 1.1-.3 1.9-.3 2.6 1.5 3.1 2.8.4 1 2.7-1.6 2.4-2.6-.6-1.7-1.7-3.5-4-3.2-1.5.2-2.8 1-3.7 2.2-2.2 2.8-2.6 6.6-2.2 10 .3 3.1 1.2 6.4 3.4 8.7.7.8 1.8 1.3 3 1.1 1.4-.2 2.4-1.2 3.1-2.4.7.9 1.6 1.4 3 .4 1.3-1 1.8-2.8 2.1-4.3l.3.9c.3.8.7 1.8 1.4 2.3.8.6 2.4-.7 2.4-.7s.2-.2.4-.3c.6-.5 1-1.2 1.3-1.9 0 0 0-.1.1-.1.5 1.2 1.3 2.3 2.6 2.3 1.5 0 2.6-1 3.3-2.2.2.4.4.8.7 1.1 1.3 1.5 3.5-.1 4.5-1.1.3-.3.5-.6.8-1 .4 1.4 1.1 2.7 2.6 2.7 2.2 0 3.7-2.2 4.3-3.9.4-1.3.8-3.6.3-5.3.2-.1.5-.2.7-.3.5-.3 1-.6 1.4-.9.1 3.5-.3 6.9-.6 10.3-.1 1.4 2.5-.1 2.6-1 .2-1.2.4-2.5.7-3.7.9.4.9 2.2.9 3.2.1 1.1.1 2.2 1.2 2.8 1.2.6 2.7 0 3.6-.7.2-.2.4-.3.6-.5.2 1.2.7 2.2 1.9 2.7 1.4.6 2.7.1 3.7-.9.3 1.8 1.2 2.9 3.2 2.6.6-.1 1.4-.5 1.6-1.2 0-1-.8-1.2-1.2-1.1zm-25.9-16.4c.1-1.9.5-3.8 1.3-5.5 0-.1.1-.1.1-.2.5.2.6.8.7 1.2.3 1.8-.5 3.8-1.1 5.4-.3.8-.6 1.6-1 2.4-.2-1-.1-2.1 0-3.3zm2.3 11.5c0 .1 0 .1-.1.2h-.2c-1.3-.4-1.6-3.5-1.7-4.4v-.2c.3-.5.6-.9.8-1.4.2-.2.3-.2.6-.1.2.1.3.3.5.4.7.7.6 2 .6 2.9-.1.8-.2 1.8-.5 2.6zM-566 466.9h-.1c-1.6.1-2.1 2.1-2.3 3.5-.1 1.1-.1 4.1 1.5 4.3 1.7.1 2.4-2.1 2.5-3.4.1-1.3 0-4.2-1.6-4.4zm0 6.6c-.9.4-1.2-1.7-1.3-2.1-.1-.5-.1-3.1.5-3.2.9.2 1.1 1.4 1.2 2.2 0 .3.2 2.8-.4 3.1zM-569.2 473.1c-.7.3-1.5.3-2.2.3h-.8c.1-.1.2-.1.3-.2.5-.4.9-.9 1.3-1.3.8-.9 1.3-2.1 1-3.3-.5-2.8-3.5-.7-4.1.8-.3.8 1 .1 1.1-.4.5-1.2 1.4-.4 1.7.2.4.9-.1 1.8-.6 2.5-.4.6-1 1.1-1.6 1.5-.3.2-.6.3-.8.7-.1.1-.2.4 0 .5.5.4 1.4.3 1.9.3 1 .1 1.9 0 2.8-.4.4-.5.9-1.6 0-1.2zM-558.8 467.8c-1.3 2.1-2.9 4.1-4.4 6.1-.7.9.4.9.9.2 1.6-2.1 3.3-4.2 4.6-6.5.5-.8-.8-.3-1.1.2zM-561.7 470c1.5.1 2.3-2.7.5-2.8-.8 0-1.4.8-1.5 1.5-.1.7.3 1.3 1 1.3zm.6-.8zm-.7-1.2zm0 .1h.1c.4 0 .6.3.6.7v.4h-.2c-.4 0-.6-.3-.6-.7 0-.1 0-.3.1-.4zM-559 471.8c-.8 0-1.4.8-1.5 1.5-.1.7.3 1.3 1 1.3 1.5 0 2.3-2.7.5-2.8zm-.5.8zm.6 1.2zm.1-.1h-.2c-.4 0-.6-.3-.6-.7 0-.1 0-.3.1-.4h.1c.4 0 .6.3.6.7v.4z"/></svg>