<svg id="Layer_1" xmlns="http://www.w3.org/2000/svg" viewBox="-580 396.7 86 86"><style>.st0{fill:#C62263;} .st1{fill:#62BA47;} .st2{fill:#FFFFFF;}</style><circle class="st0" cx="-534.8" cy="435.6" r="38.9"/><circle class="st1" cx="-565.9" cy="470.2" r="12.2"/><path class="st2" d="M-503 445.2c0-.6-1-.5-1.3-.4 0 0-.2-.2-.3-.8-.1-.7 0-1.3.1-1.9.2-1.9.6-3.7 1.1-5.5v-.1c.2-1.3-.7-2.3-2.2-2.5-1.4-.2-2.7.5-3.5 1.4-1.2 1.2-1.9 2.9-2.1 4.6v.1c-.4 2.3-1.1 2.1-1.2 2-.4-.2-.3-1.7-.2-2.2.1-1.9.3-3.8 1-5.6.2-.4.4-.8.6-1.3.2-.5 0-.9-.7-.8-.7 0-1.4.4-1.7.9-.3.4-.5.9-.6 1.4-.3.6-.7 1.2-1.2 1.7-.4.4-.7.5-1.3.9l-.1.1c.2-1.9.3-3.7.4-5.6.1-1.2-2.5-.1-2.5.7 0 1.1-.1 2.2-.1 3.3l-.6 2.1c-.3.8-.9 2-1.5 2.6-.2-.6-.2-1.2-.2-1.8 0-1.1 0-2.2.1-3.2.1-.6.1-1.1.2-1.6.1-.4.1-.9.2-1.3v-.1c.1-1.3-1-2.1-2.6-2-1.5.1-2.6 1-3.4 2-1 1.4-1.5 3.2-1.5 4.9-.1.5-.3 2-.9 2.2 0 0-.1-.1-.2-.3-.2-.5-.2-1.1-.2-1.7.1-2.3.4-4.9-.5-7.1-.8-1.8-2.8-.2-3.8 1-.2-.6-.4-1.2-.9-1.6-.6-.5-1.6-.1-2.1.3-.4.3-.7.6-1 1 0-.3-.1-.6-.1-.9-.1-1.2-2.5.5-2.4 1.3.2 1.2.3 2.4.3 3.7.1 2-.8 4.9-3.3 4.9-.5 0-.9-.6-1.2-1.1.7-.9 1.3-1.9 1.8-2.8 1-1.6 1.8-3.9.6-5.4-.8-1-2.9 0-3.7.8-1.1 1.2-1.5 2.8-1.6 4.2-.1.9-.1 2.7.4 4.1-.2.2-.4.3-.5.5l-.1.1h-.2c-.3-.1-.5-.3-.6-.6-.5-.7-.7-1.7-.9-2.5-.4-1.7-.7-3.5-.3-5.3.1-.4-.1-.7-.6-.6-.7.2-1.3.9-1.5 1.4 0 .1-.1.2-.1.3-.4 1-.6 2.1-.8 3.2-.4-1.2-.9-2.7-.5-4 .1-.4-.1-.7-.6-.6-.6.2-1.2.7-1.3 1.2-.8 2-.7 4-.6 6.3 0 .9 0 2-.2 3h-.2c-.5-.2-.7-1-.9-1.5 0-.1 0-.1-.1-.2-.1-.3-.3-.2-.6-.1-.1 0-.1.1-.2.1-.3.2-.6.5-.8.8-.2.3-.3.6-.4.9v.1c-.1.6-.2 1.1-.9 1.3-.3.1-.7 0-1 0-.8-.2-1.4-.8-1.8-1.4-1.1-1.9-1.6-3.8-1.8-6-.1-1-.1-2.2.1-3.3.1-.4.2-.9.3-1.3 0-.1.2-.5.2-.5 0-.1.1-.2.1-.2v-.1-.1-.1l.1-.1s.1-.1.2-.1c.1-.1.6-.2.9-.2 1.6-.2 2.3 1.2 2.6 2.3.3.8 2.4-1.3 2.1-2.2-.5-1.4-1.4-2.9-3.5-2.7-1.3.2-2.4.8-3.2 1.8-1.9 2.3-2.3 5.5-2.1 8.4.2 2.6.9 5.4 2.8 7.3.6.7 1.6 1.1 2.6.9 1.2-.2 2.1-1 2.8-2 .6.8 1.4 1.2 2.6.3 1.1-.8 1.6-2.2 1.8-3.4.3.8.5 1.7.7 2.5.3 1.2 2.2-.8 2.1-1.6-.1-.5-.1-1 0-1.5.7 2.1 1.8 3.4 3.6 1.9.1 0 .1-.1.2-.1.3-.3.6-.5.9-.8.4.6 1 1.1 1.8 1.1 1.4 0 2.8-1 3.8-1.9.3-.3.6-.5.8-.8 0 .6 0 1.2.1 1.8.1 1.2 2.2-.5 2.2-1.3.1-2.5.3-4.9.9-7.2 0-.2.1-.4.2-.6v.1c.6 1.3.5 2.9.6 4.3v2c-.1.9-.1 1.7-.1 2.5 0 1.2 2.2-.4 2.3-1.2.1-.9.1-1.9.1-2.8.2-1.7.5-3.5 1.2-5 .1.2.1.4.1.5.3 1.2.4 2.6.4 3.8-.1 1.7-.4 4.4 1.2 5 .7.2 2-.6 2.7-1.3.2.6.5 1.1 1.1 1.4 1.1.6 2.5 0 3.3-.7.1.5.2 1 .6 1.2.5.3 1.2.1 1.6-.1.8-.3 1.4-.8 1.9-1.3-.1.5-.1 1-.2 1.5-.1.6.6.6 1 .5.6-.2 1.2-.6 1.4-1.2.2-.9.5-2 1.1-2.8.3-.4.5-.5 1.1-.9 0 0 .1 0 .1-.1-.2 1.5-.4 3-.3 4.5.1 1.4 1.1 1.8 2.4 1.5.6-.1 1.1-.3 1.5-.6.1.6.4 1.1.8 1.5.9.8 2.4.5 3.2 0l.1-.1c0 .4.1.8.3 1.2.5 1 1.8.9 2.6.6.9-.3 1.6-.6 1.6-1.2zm-41.9-13c0 .1 0 .1 0 0zm-.2 2.9c0-1 .1-1.9.4-2.9.1 0 .3.1.4.1 1.1.6.4 2.3.1 3.2-.2.5-.5 1-.7 1.5-.2-.6-.2-1.3-.2-1.9zm20.8 4.1c0 .1-.1.3-.2.5-.1 0-.2 0-.4-.1-.5-.2-.6-1-.7-1.4-.4-1.5-.2-3.3.3-4.8.2-.4.5-1.2.8-1.4 0 0 .2-.1.5 0 .6.1.9.5.8 1-.3 2.1-.5 4.2-1.1 6.2zm16.6 3.6c0 .1-.2.3-.3.4-.1 0-.2 0-.3-.1-.4-.3-.5-1.1-.5-1.5-.2-1.6.2-3.3.9-4.7.2-.4.7-1.1.9-1.3 0 0 .1-.1.5.1.6.2.8.7.7 1.1-.6 2.1-1 4.2-1.9 6zM-566 465.7c-1.9.2-2.5 2.5-2.7 4-.2 1.3-.2 4.8 1.8 5 2 .2 2.8-2.5 2.9-4 .1-1.4.1-4.8-1.9-5-.6-.1-1.6 1.3-1 1.4 1.1.1 1.4 1.7 1.5 2.5.1.6.3 3.4-.4 3.7-1.1.5-1.5-2-1.5-2.5-.1-.6-.1-3.7.6-3.8.5 0 1.5-1.4.7-1.3z"/><path class="st2" d="M-573.6 467.9c.6-1.4 1.6-.5 2 .2.5 1-.1 2.1-.7 2.9-.5.7-1.2 1.3-1.9 1.7-.4.2-.7.4-.9.8-.1.1-.2.4 0 .6.5.4 1.6.4 2.2.4 1.1.1 2.3 0 3.3-.5.6-.3 1.1-1.7.1-1.2-.8.4-1.8.3-2.6.3-.4 0-1.4 0-1.7-.3v.6c-.5.8-.2.4.2.1.3-.2.6-.5.9-.7.5-.5 1-1 1.5-1.6.9-1.1 1.5-2.4 1.2-3.9-.6-3.2-4.1-.9-4.8.9-.5 1.1 1 .2 1.2-.3zM-557.2 466.7c-1.5 2.5-3.4 4.8-5.2 7.2-.8 1 .5 1 1 .3 1.8-2.5 3.8-4.9 5.4-7.6.7-1-.9-.5-1.2.1zM-560 466c-.9 0-1.6.9-1.8 1.8-.2.8.3 1.5 1.1 1.5 1.8.1 2.7-3.2.7-3.3-.4 0-1.1 1-.5 1 .4 0 .7.4.7.8 0 .2 0 .4-.1.5-.1.1 0 0 0 0h-.2c-.4 0-.7-.4-.7-.8 0-.2 0-.4.1-.5.1-.1.1 0 0 0h.2c.4 0 1.1-1 .5-1zM-557.4 471.4c-.9 0-1.6.9-1.8 1.8-.2.8.3 1.5 1.1 1.5 1.9 0 2.7-3.2.7-3.3-.4 0-1.1 1-.5 1 .4 0 .7.4.7.8 0 .2 0 .4-.1.5-.1.1 0 0 0 0h-.2c-.4 0-.7-.4-.7-.8 0-.2 0-.4.1-.5.1-.1.1 0 0 0h.2c.4-.1 1.1-1.1.5-1z"/></svg>