<svg id="Layer_1" xmlns="http://www.w3.org/2000/svg" viewBox="0 0 86 86"><style>.st0{fill:#AA4A47;} .st1{fill:#62BA47;} .st2{fill:#FFFFFF;}</style><circle id="XMLID_117_" class="st0" cx="45.2" cy="39" r="39"/><circle id="XMLID_116_" class="st1" cx="14" cy="73.7" r="12.3"/><g id="XMLID_145_"><path id="XMLID_115_" class="st2" d="M5.5 71.7c.2-.6 1-.7 1.4-.4.7.5-.3 1.2-.6 1.5-.4.3-1 .9-.8 1.4.1.4 1.2.4 1.5.5.6.1.8.4.7 1.1-.3 1.1-1.6.4-2 0-.3-.3-1.3.6-1 1 1.3 1.3 3.1.4 3.9-1 .3-.5.4-1.4 0-1.9-.4-.4-1.3-.3-1.8-.4-.1-.1-.2 0-.2.2.1-.3.4-.5.7-.7.3-.3.6-.5.8-.9.3-.6.4-1.5-.2-1.9-1.3-.9-2.9.7-3.3 1.8-.4.8.8.1.9-.3z"/><path id="XMLID_114_" class="st2" d="M12.1 76.1c1 3 5.5.9 4.8-1.8-.4-1.3-1.9-1.2-3-1.5-.6-.2-.6-.7-.6-1.2.2-.6.2-.7-.2-.3.2-.1.3-.1.5-.1.9-.2 1.9-.1 2.8.3.4.2 1.3-.8.8-1.1-1.1-.5-2.4-.5-3.6-.2-1.1.3-1.4 1.3-1.4 2.3-.1 1.3 1.2 1.5 2.2 1.6.8.1 1.4.3 1.5 1.2.1 1.4-1.3 1.2-2 .8-.3-.2-.5-.6-.6-.9-.3-.4-1.4.4-1.2.9z"/><g id="XMLID_147_"><path id="XMLID_113_" class="st2" d="M22.5 70.6c-1.3 2.1-2.9 4.1-4.3 6-.6.9.4.8.8.2 1.6-2.1 3.2-4.1 4.6-6.4.5-.7-.8-.2-1.1.2z"/><path id="XMLID_112_" class="st2" d="M20.2 70.1c-.8 0-1.3.8-1.5 1.5-.1.7.3 1.3 1 1.3 1.5 0 2.2-2.8.5-2.8-.3 0-.9.8-.5.8s.6.3.6.7v.4c0 .1 0 0 0 0h-.2c-.4 0-.6-.3-.6-.6 0-.1 0-.3.1-.4 0-.1.1 0 0 0h.2c.3-.1.9-.9.4-.9z"/><path id="XMLID_111_" class="st2" d="M22.4 74.6c-.8 0-1.3.8-1.5 1.5-.1.7.3 1.3 1 1.3 1.5 0 2.2-2.8.5-2.8-.3 0-.9.8-.5.8s.6.3.6.7v.4c0 .1 0 0 0 0h-.2c-.4 0-.6-.3-.6-.6 0-.1 0-.3.1-.4 0-.1.1 0 0 0h.2c.3-.1.9-.9.4-.9z"/></g><path id="XMLID_110_" class="st2" d="M9.9 78.8c.6-.5.9-1.2 1-2 0-.2 0-.5-.2-.7-.3-.3-.7 0-1 .1-.3.1-.6.5-.7.9 0 .4.4.3.6.2 0 0 .1 0 0 0 .1.1 0 .2 0 .3 0 .2-.1.3-.2.4 0 0 0 .1-.1.1 0-.1 0-.1 0 0l-.1.1c.1-.2 0 0 0 0-.2.2-.5.6-.3.8.4.3.8 0 1-.2z"/></g><g id="XMLID_119_"><g id="XMLID_136_"><path id="XMLID_137_" class="st2" d="M67.7 47.8c-.1 0-.1-.1-.2-.1h-.2c-2.9-.8-4.5 2.4-5.2 4.2-.1.3-.3.8-.4 1.3-.3.5-.6 1.1-1.1 1.5-.1.1 0 .1-.1.1-.6-.2-.3-1-.2-1.5.1-.8.3-1.7-.2-2.5-.3-.6-1-.8-1.7-.7 0-.1.1-.2.2-.3.1-.1.1-.3.2-.4.4-.6.8-1.3 1.4-1.7.3.1.6.4.7.5.7.7 3-.4 2.4-1.1-.8-1-1.8-1.2-2.8-1-.7.1-1.3.4-1.9.8-.1.1-.2.1-.3.2.2-1.1.2-2.2.1-3.3 0-.2-.2-.3-.5-.3h-.2c-.7 0-1.3.4-1.7.9-.5.6-.8 1.2-1.7.9-.4-.1-.7-.3-1-.6-.1-.1-.2-.1-.3-.1-.2-.1-.4-.2-.7-.3-.1 0-.1 0-.3-.1h-.2c-2.9 0-3.8 3.5-3.9 5.3v.1c-.3.7-.5 1.4-.8 2.1-.1.3-.2.6-.4.8-.1 0-.2.1-.3.1-.2-.1-.3-.4-.4-.6-.3-.6-.4-1.4-.5-2-.3-1.9-.4-3.9-.4-5.8 0-.4-.4-.5-.8-.4-.7.2-1.2.7-1.4 1.2-.8 1.8-1 3.7-1.1 5.6 0 .5-.1 1-.1 1.6v.6c-.4 0-.7-.4-.8-.7-.1-.7-.9-.3-1.4.2.3-1 .3-2 .2-3-.1-1.5-.5-4.9-2.9-4.9h-.5c-2.8.7-2.8 4.3-2.6 6.1 0 .2.1.4.1.6v1.1c0 .5 0 .9-.1 1.4v.2h-.1c-.3-.1-.4-.3-.6-.5-.5-.6-.8-1.4-1.1-2.2-.5-1.4-1-3.2-.8-4.7 0-.3-.1-.7-.6-.5-.6.2-1.2.8-1.3 1.4 0 .1 0 .2-.1.3-.2 1-.3 1.9-.3 2.9-.5-1.1-1.2-2.3-1-3.5.1-.3-.2-.7-.6-.5-.5.2-1 .7-1.1 1.1-.7 1.8 0 3.9.3 5.6.1.9.3 1.8.3 2.7h-.2c-.6-.2-.9-1-1.2-1.5-.2-.5-1 .3-1.1.5-.3.5-.5 1.1-.3 1.5.6 1.2 1.9 2.5 3.2 1.2.8-.8 1-2 1.1-3.1.4.7.7 1.4 1 2.2.4 1.1 1.8-.9 1.6-1.5-.1-.4-.2-.9-.2-1.4.9 1.8 2 2.9 3.4 1.6.4-.3.7-.8.8-1.3.5.8 1.2 1.4 2.1 1.3.9-.1 1.6-.9 2-1.8.2.7.7 1.3 1.5 1.3 1.1 0 2-.8 2.6-1.6.2-.4.4-.8.5-1.2 0 .2.1.4.1.6.2.6.4 1.4.9 1.8.6.5 1.4.1 1.9-.3.1-.1.3-.2.5-.4.4-.3.7-.8 1-1.3.2 1.2.7 2.3 1.9 2.5 1.1.1 2.3-.9 2.8-1.7.7-1 1.1-2.2 1.3-3.4.1-.6.3-1.7.2-2.7.7-.1 1.3-.4 1.8-.7 0 2.9-1 5.8-1.5 8.7-.1.5.5.5.8.4.5-.2 1.1-.6 1.3-1.1.3-.9.6-1.8 1-2.7 1.1.5-.1 3.4.6 4.2.7.7 1.7.5 2.5.2.3-.1.5-.2.8-.4.1.9.4 1.6 1.3 1.9 1.1.4 2.4-.3 3.2-1 .9-.8 1.6-1.9 2.1-3 .6-1.6 1.9-4.8-.3-5.9zm-30 5.7zm.2-1c0 .2-.1.5-.1.7-.4 0-.8-.7-1-1-.4-.7-.7-1.6-.8-2.4-.2-.9-.2-1.8-.1-2.7 0-.2.1-.5.1-.7 1.2.2 1.7 2.7 1.8 3.4.1.9.2 1.8.1 2.7zm13.1.7c-.1 0-.1 0 0 0zm.4-.9c-.1.2-.2.5-.3.6-.4-.1-.6-.9-.7-1.2-.2-.8-.3-1.7-.2-2.6 0-.9.2-1.8.5-2.6l.3-.6s.1 0 .1.1l.1.1.2.2c.7.8.6 2.9.6 3.5-.1.8-.3 1.7-.6 2.5zm12.7 3.9zm.7-.8c-.1.2-.3.4-.4.6-.4-.2-.4-1-.4-1.4 0-.9.2-1.7.4-2.5.3-.8.6-1.7 1.1-2.4.1-.2.3-.4.4-.5 1 .7.3 3.2 0 3.9-.3.7-.6 1.6-1.1 2.3z"/></g><g id="XMLID_120_"><g id="XMLID_121_"><path id="XMLID_132_" class="st2" d="M30.5 29h-.2-.2c-2.6.8-2.4 4.3-2 6.2 0 1 0 2-.1 3 0 .2-.1.3-.1.5-.9.2-1.3-2.4-1.4-2.9-.4-1.8-.8-3.6-1.4-5.4-.4-1.3-.9-2.9-2-3.8-.9-.7-2-.2-2.8.6-.4.5-.7 1-.8 1.5-.7-.9-1.6-1.5-2.9-.6-.5.4-.9.8-1.2 1.3-.2-.4-.4-.9-.7-1.2-.8-.6-2.3 1.7-1.6 2.2.5.3.7 1 .9 1.4.5 1 .9 2.1 1.3 3.2.2.6.4 1.1.6 1.7.7 2.3 1.7 4.6 2.5 6.8.1.2.2.3.4.3.5-.1 1.3-1.4 1.1-2-.7-2-1.4-4-2-5.9-.3-.8-.5-1.7-.7-2.6-.2-.9-.4-1.9-.4-2.9V30c1.4-.5 2.4 2.6 2.6 3.3.5 1.2.9 2.4 1.2 3.6.5 1.7 1.1 3.5 1.6 5.2.1.2.2.3.3.3.5-.1 1.3-1.3 1.1-1.9-.5-1.8-1.1-3.7-1.6-5.5-.1-.3-.2-.6-.2-.9-.4-1.5-.7-3.1-.7-4.7 0-.2 0-.5.1-.8.1 0 .2.1.3.1.5.2.8.9 1.1 1.3.4.7.7 1.5 1 2.3.6 1.7 1.1 3.5 1.5 5.2.3 1.1.5 2.6 1.5 3.3 1.1.7 2.2-.8 2.6-1.7.1-.1.1-.3.2-.5.5.8 1.2 1.4 2.1 1.2 1.1-.2 1.8-1.5 2.1-2.5.3-1.2.3-2.4.2-3.6-.4-1.4-1.1-4.8-3.3-4.7zm1.3 9c-.1.1-.1.1 0 0zm.1-.9c0 .2 0 .5-.1.7-.4 0-.8-.7-1-1-.4-.7-.7-1.6-.9-2.4 0-.2-.1-.4-.1-.6v-.2c-.1-.6-.2-1.2-.1-1.9 0-.2 0-.5.1-.7 1.1.1 1.7 2.6 1.9 3.4.2.9.3 1.8.2 2.7z"/><path id="XMLID_127_" class="st2" d="M67.1 30.6c-.1 0-.1-.1-.2-.1h-.2c-2.6-.5-4 2.8-4.5 4.6-.1.4-.2.8-.3 1.3-.2.6-.4 1.2-.9 1.6-.1.1-.4.1-.4.1s-.1-1.5-.1-2c.1-1.6.5-3.5 1.1-5l.6-1.2c.2-.4.1-.8-.5-.7-.6 0-1.2.4-1.5.9-.2.4-.4.8-.6 1.3-.3.6-.6 1.1-1.1 1.6-.4.4-.6.5-1.1.9.2-1.6.4-3.3.6-4.9.1-1.1-2.2 0-2.3.7-.1 1-.2 2.1-.3 3.1v.1c-.2 1.2-.7 2.4-1.7 3.2-.5.4-1.4.9-2 .7-.5-.1-.8-.6-1-1.2.6-.5 1.1-1.1 1.6-1.7 1-1.2 2.6-3.3 1.7-5-.6-1.1-2.1-1-3-.4-1.2.8-1.8 2.1-2.1 3.4-.3 1.2-.4 2.6-.2 3.9-.3.2-.8.7-1 .7 0 0-.1 0-.1.1-.2-.1-.2-.3-.3-.5-.3-.6-.4-1.3-.5-2-.3-2-.3-4-.2-6 0-.4-.3-.5-.7-.4-.6.2-1.1.7-1.3 1.2-.6 1.4-.9 2.9-1.1 4.4-.1.8-.1 1.6-.2 2.4-.3-.4-1.1.2-1.5.8-.1-.1-.2-.3-.3-.5-.4-1-.3-2.1-.3-3.2 0-1-.1-2-.3-3-.1-.7-.4-1.6-1.1-1.9-1.4-.6-2.6.8-3.2 2-.1-.6-.3-1.1-.5-1.6-.3-.8-2.2.9-1.9 1.7.5 1.2.6 2.6.8 3.9.2 1.6.4 3.2.6 4.9.2 1.1 1.9-.5 1.8-1.3-.2-2.4-.3-5.2.7-7.5.1.1.3.2.3.3.5.7.6 1.8.7 2.6.2 1.7-.2 4 1 5.4.5.7 1.3.4 1.9-.1.3.4.8.5 1.4.2.9-.5 1.3-1.4 1.5-2.4 0 .1.1.3.1.4.1.7.3 1.5.9 2 .5.5 1.3.1 1.8-.3.4-.3.8-.5 1.2-.8.2.7.6 1.2 1.2 1.4 1.2.4 2.8-.4 3.8-1.1.4-.3.7-.5 1.1-.8-.1.7-.2 1.3-.3 2-.1.5.5.5.8.4.5-.2 1.1-.6 1.2-1.1.2-.9.5-1.8 1-2.5.3-.4.5-.5 1-.8 0 0 .1 0 .1-.1-.3 1.3-.5 2.7-.4 4 .1 1.3.9 1.5 2 1.2.5-.1 1-.4 1.5-.7.1.8.5 1.5 1.3 1.7 1 .3 2.2-.5 2.9-1.3.8-.9 1.3-2 1.7-3.2.4-1.6 1.3-4.9-.7-5.8zm-16.5 1.7c.1-.8.3-1.8.7-2.5.2.1.3.2.5.3.8 1-.5 2.7-1 3.4-.1.1-.2.3-.3.4 0-.7 0-1.3.1-1.6zm13.6 7zm.6-.8c-.1.2-.2.4-.4.6-.4-.2-.4-1-.5-1.3-.1-.9.1-1.7.3-2.6.2-.9.5-1.7.9-2.5.1-.2.2-.4.4-.6.9.6.4 3.2.2 3.9-.2.8-.5 1.7-.9 2.5z"/><path id="XMLID_124_" class="st2" d="M73.5 41.2c-.2-.5-1.1-.2-1.4-.1-.5.2-1.5.3-1.9-.2-.3-.3-.3-.8-.3-1.2 1.5-.8 3-1.9 4.1-3.2.6-.7 1.2-1.9.7-2.9-1.2-2.1-4.2-.2-5 .9-1.2 1.5-2 3.8-2 5.8 0 .7.2 1.5.8 2 1.1.8 3 .3 4.2-.1.2-.1 1-.6.8-1zm-2.3-5.9c.2-.3.6-.8.8-1l.3.3c.4.7-.2 1.4-.5 1.9-.5.6-1.1 1.1-1.7 1.6.2-1 .6-1.9 1.1-2.8z"/><path id="XMLID_7_" class="st2" d="M50 26.8c.5.2 1.2-.3 1.6-.6.5-.5.9-1.1 1-1.8.1-.5-.6-.5-1-.4-.5.2-1.2.7-1.2 1.2v.1l-.1.2-.1.1s0 .1-.1.1c-.3.4-.6.9-.1 1.1z"/><path id="XMLID_1_" class="st2" d="M53.1 26.5c.7 0 1.2-.4 1.6-.8.4-.4.6-.9.7-1.4.1-.5-.6-.5-1-.4-.6.2-1.2.6-1.3 1.2v.1c0 .1-.1.1-.1.2 0 0-.1.1-.1.2-.3.3-.4.9.2.9z"/></g></g></g></svg>