<svg id="Layer_1" xmlns="http://www.w3.org/2000/svg" viewBox="-580 396.7 86 86"><style>.st0{fill:#814195;} .st1{fill:#62BA47;} .st2{fill:#FFFFFF;}</style><circle class="st0" cx="-534.8" cy="435.8" r="39"/><circle class="st1" cx="-566" cy="470.5" r="12.3"/><path class="st2" d="M-560.1 467c-1.5 2.5-3.4 4.8-5.1 7.1-.8 1 .5 1 1 .3 1.8-2.4 3.8-4.9 5.3-7.5.7-1-.8-.5-1.2.1zM-562.8 466.3c-.9 0-1.6.9-1.7 1.7-.2.8.3 1.5 1.1 1.5 1.7.1 2.6-3.1.6-3.2-.4 0-1.1 1-.5 1 .4 0 .7.4.7.8 0 .1 0 .3-.1.5-.1.1 0 0 0 0h-.2c-.4 0-.7-.4-.7-.8 0-.2 0-.4.1-.5.1-.1.1 0 0 0h.2c.3 0 1-1 .5-1zM-560.2 471.6c-.9 0-1.6.9-1.7 1.7-.2.8.3 1.5 1.1 1.5 1.7.1 2.6-3.1.6-3.2-.4 0-1.1 1-.5 1 .4 0 .7.4.7.8 0 .1 0 .3-.1.5-.1.1 0 0 0 0h-.2c-.4 0-.7-.4-.7-.8 0-.2 0-.4.1-.5.1-.1.1 0 0 0h.2c.3 0 1-1 .5-1z"/><g><path class="st2" d="M-522.6 431.4c-1-.7-2.4-.4-3.5 0 0-.8-.1-1.7-.2-2.5-.1-.7-1.4-.2-1.7-.1-.2.1-.4.2-.5.3-.3.2-.5.5-.6.8-1.1 2.4-2.8 1-3.3.7-.4-.3-.9-.5-1.5-.5-3.6.1-4.5 4.4-4.6 7.2-.1 2.2 0 6.5 3.1 6.7 1.5.1 3-1.4 3.6-2.5.8-1.4 1.1-3 1.2-4.5.1-.9 0-2.5-.4-4 .7-.2 1.4-.5 2-.9.1 3.6 0 7.2-.2 10.8-.2 3-.6 6.1-1 9.1-.1.7.7.6 1.1.5.6-.3 1.3-.9 1.4-1.5.4-2.1.7-4.2.9-6.4 1 .1 2.1-.2 3-.8 2-1.4 2.7-4.1 2.9-6.4.1-2.1.1-4.6-1.7-6zm-11.3 9.4l-.3.9c-.6-.1-1-1.1-1.1-1.5-.4-1-.5-2.2-.5-3.3 0-1.1.1-2.3.4-3.4.1-.3.2-.6.3-.8 1.4 1.2 1.6 3.1 1.6 4.8 0 1 0 2.3-.4 3.3zm9.1 1.5c0 .1-.1.1-.1.2-1 0-1.6-1-1.5-2.1.2-1.8.3-3.6.3-5.4v-.1c0-.6.1-1.1.4-1.6.4 0 .7.3.9.7.8 1.2.9 2.9.9 4.1 0 1.3-.1 3-.9 4.2zM-514.5 432.8c-3.5-.8-5 3.5-5.5 6.1-.4 2.3-.9 6.4 2.1 7.3 1.5.4 3.1-.7 3.8-1.7 1-1.2 1.5-2.7 1.8-4.2.5-2.3 1-6.8-2.2-7.5zm-1.4 10.5c-.1.3-.3.5-.4.8-.5-.3-.8-1.3-.9-1.7-.2-1.1-.2-2.3-.1-3.4s.4-2.3.9-3.3c.1-.3.3-.5.4-.8 1.4 1.3 1.2 3.4.9 5.1-.1 1.1-.3 2.3-.8 3.3zM-543.3 433.5c.5-1.2 1-2.4 1.4-3.6.8-2.3 1.3-4.3.7-6.3-.6-1.8-3.7-.6-4.8.5-1.7 1.8-2.3 4.4-2.6 6.8-.2 2.6-.1 5.3.4 8-.5 1.2-1.1 2.4-1.8 3.6-.1.1-.1.2-.2.3-.1-.1-.2-.3-.3-.5-.2-.5-.3-1-.4-1.5-.5-4-.6-8.2-1.7-12.1-.3-1.2-1.3-3.2-3.3-2.5-1.5.5-2.4 1.6-3 2.9-.7-1.2-1.8-2.1-3.7-1.1-.8.4-1.4 1-1.8 1.6-.1-.6-.3-1.2-.7-1.6-.9-.8-3.2 2.1-2.4 2.7.5.4.6 1.4.8 2 .4 1.4.6 2.9.9 4.3.1.8.3 1.5.4 2.3.5 3.1 1.1 6.2 1.7 9.3.1.3.2.4.4.4.7 0 2-1.8 1.8-2.6-.5-2.7-.9-5.4-1.3-8-.2-1.1-.3-2.3-.3-3.5-.1-1.2-.1-2.5.1-3.8 0-.2.1-.4.1-.5 2.1.3 2.4 2.9 2.6 4.5.3 1.5.6 3.1.8 4.7.3 2.4.6 4.7 1 7.1 0 .3.2.4.4.4.7 0 2-1.7 1.9-2.4l-.9-7.5c-.1-.6-.1-1.2-.1-1.8-.1-2.2-.1-4.3.3-6.4 0-.1 0-.1.1-.2.5 0 .9.7 1 .9 1.3 2.2 1.5 4.8 1.8 7.2.2 1.6.3 3.3.5 5 .1 1 .3 2.2.8 3.1.7 1.1 1.9.4 2.8-.4.9-.8 1.6-1.8 2.2-2.9.4 1.4 1.2 2.9 2.5 2.9 2.2-.2 3.8-2 4.5-4 .8-2.2 1.2-5.3-.9-6.9-.3-.6-1.1-.6-1.7-.4zm-2.6-2.9c.1-1.8.4-3.7 1.3-5.4h.1c.6.3.7 1 .7 1.4.1 1.9-.5 3.8-1.2 5.6-.3.7-.5 1.4-.8 2.1-.2-1.2-.2-2.5-.1-3.7zm3.1 8.5c0 .9-.1 1.8-.4 2.7 0 .1 0 .1-.1.2h-.3c-.6-.1-.9-1-1.1-1.4-.4-.9-.6-1.9-.8-2.9.3-.5.5-1 .8-1.4.4-.4.7-.3 1.2.1.8.6.7 1.9.7 2.7zM-504.5 446.8c-.4-.6-1.4-.3-1.8-.2-.7.3-1.2.4-1.9-.1-.5-.3-.9-.9-.9-1.4-.3-2.1 2.3-3.2 3.7-4.2 1.1-.8 2.5-2.6 1.5-4.2-1.1-1.7-3.4-1.9-5.2-1.3-.6.2-1.5.6-1.4 1.4.1.7 1.2.5 1.6.4.8-.3 1.5-.1 2.1.7.5.7.1 1.4-.3 1.9-.9.9-2.2 1.4-3.1 2.2-.7.7-1.3 1.4-1.6 2.3-.5 1.2 0 2.7 1 3.6 1.5 1.2 3.6.9 5.3.2.4-.1 1.3-.6 1-1.3z"/></g><path class="st2" d="M-572.5 473.2c1.1 3.4 6.3 1.1 5.5-2-.4-1.5-2.2-1.3-3.4-1.7-.7-.2-.7-.8-.7-1.4.3-.7.2-.8-.2-.3.2-.1.4-.1.6-.1 1.1-.2 2.2-.2 3.2.3.5.2 1.5-1 .9-1.2-1.3-.6-2.8-.5-4.1-.2-1.3.3-1.6 1.5-1.6 2.7-.1 1.5 1.3 1.7 2.5 1.9.9.1 1.6.4 1.7 1.4.1 1.6-1.5 1.4-2.3.9-.4-.2-.6-.7-.7-1.1-.4-.7-1.6.3-1.4.8z"/></svg>