<svg id="Layer_1" xmlns="http://www.w3.org/2000/svg" viewBox="-21 83 86 86"><style>.st0{fill:#F37521;} .st1{fill:#A16125;} .st2{fill:#FFFFFF;}</style><circle class="st0" cx="24" cy="120.1" r="36.3"/><path class="st1" d="M24 83.8v72.6c20.1 0 36.3-16.3 36.3-36.3C60.3 100 44 83.8 24 83.8z"/><path class="st2" d="M25.4 144.8c-.3-.1-.7.1-.9.2 0-.3-.1-.6-.1-.9 0-.3-.9.2-.8.6.1.6.1 1.2.1 1.8v.8c-.2.2-.4.4-.7.5 0-1.1-.1-2.2 0-3.1v-.1c-.2-.1-.7.2-.8.4 0 0 0 .1-.1.1-.2.8-.3 1.7-.6 2.5-.1.3-.2 1-.7.6-.5-.4-.1-1.4 0-1.8.1-.6.3-1.2.4-1.9 0-.5-1 0-1 .3-.1.4-.5 1.7-.6 2.7-.5.2-1.2.6-1.3.3-.1-.3 0-.8 0-1.1 0-.6-.4-.8-1-.9.1-.2.3-.5.4-.7.2-.2.4-.3.7-.1.3.3 1.3-.3 1-.5-.8-.8-1.4-.5-2.1.1.1-.5.2-1 .2-1.5 0-.4-1 0-1 .3-.1 1.5-.8 3-1.3 4.4-.2.5 1 .2 1.1-.1.2-.4.3-.8.5-1.2.6.3-.2 1.5.3 1.9.7.4 1.6.1 2.3-.3.1.5.4.8.9.8.6 0 1.1-.2 1.4-.6v.2c-.5.3-1 .7-1.4 1.1-.5.5-2.2 2.4-.4 2.8 1.3.3 2.2-.8 2.5-1.5.3-.8.4-1.6.4-2.5.3-.2.5-.4.7-.6v.4c0 1.1-.2 2.3-.4 3.4-.1.5 1.1-.1 1.1-.4.1-.7.2-1.5.2-2.2.3 0 .7-.1 1-.4.8-.6.8-1.6.7-2.4.1-.1 0-1.1-.7-1.4zm-4.5 7.3c-1.2-.3-.3-1.2.8-2.1-.2 1.2-.4 2.2-.8 2.1zm4.5-3.8c0 .1-.1.3-.2.4 0-.1 0-.1-.1-.1-.3 0-.4-.2-.4-.4 0-.7 0-1.4-.1-2.1 0-.6.2-.7.5-.2.2.3.3.7.3 1 .1.5.1 1 0 1.4zM34.1 142.4c-.9.6-.8 1.9-.6 2.7.1.3.2.7.4 1-.3.5-.8 1.2-1.4 1.1-1.1-.2 0-1.8.1-2.4.3-1.5-1.1-1.6-1.9-.6-.3.4-.2 1.1.3.5.4-.5.9-.2.9.3s-.5 1.1-.7 1.6c-.1.3-.1.5-.1.8-.4.5-.8.6-1.1 0-.2-.4-.4-.9-.5-1.4 0-.3-.1-.6-.1-.8 0-.1 0-.3-.1-.4v-.1c-.4-1.1-1.7-.2-2.1.5-.5.9-.5 2.1-.2 3 .3.9 1.3 1.1 2.1.2l.1-.1c.1.1.2.3.3.4.5.4 1.4-.3 1.9-.8l.1.1c.9.7 2.1-.5 2.6-1.5.3.4.7.6 1.2.4 1.2-.5 1-2 .7-2.8-.2-.5-1-2.1-1.9-1.7zm-5.5 5.8c-.2 0-.3-.2-.4-.3-.3-.4-.3-1-.4-1.4 0-.3 0-.6.1-.8 0-.1.1-.3.1-.4.1-.3.6.1.6.2.1.7.2 1.4.2 2-.1.2-.1.7-.2.7zm6.9-3c0 .1.1.3.1.4 0 .1.1.3.1.3s-1.1-.6-1.2-.8c-.2-.3-.3-.7-.4-1-.1-.2-.1-.4-.1-.6v-.2c.5-.1.9.5 1.1.8.2.4.3.8.4 1.1zM36.3 140.7c.6-.3.6-1.2.5-1.7 0-.2-.1-.4-.3-.2-.2.2-.2.5-.2.7v.2h-.1s-.3.1-.4.3c-.1.1-.1.6 0 .7h.5zM40.2 142.8c-.2.7-1.4-.6-1.5-.7-.1-.2-.2-.3-.4-.5-.3-.4-.5-.8-.7-1.1 0-.1-.1-.2-.1-.2-.3-.4-.6.6-.5.9.3.6.6 1.1.9 1.7.2.3.3.6.4 1 .1.4.2.5-.2.5-1.1 0-1.6-2.1-1.9-2.9-.2-.6-.6.3-.5.7.2.8 1.1 4.4 2.7 3.1.4-.3.6-.8.7-1.2.8.5 1.5-.4 1.7-1.2.3-.8-.3-.8-.6-.1zM11.2 144.5c-.5.1-1.1.1-1.6-.4-.4-.4-.2-.9-.1-1.3.2-.5.5-.9.8-1.2l.3-.3c.3-.2.3-.2.2 0 .1.2 0 .6 0 .8-.1.4 1.1.3 1.1 0 .1-.7 0-1.5-1-1.5-1.1 0-1.8.9-2.3 1.6-.4.6-.7 1.3-.1 2.1.7.9 2.2.8 2.9.7.8 0 .5-.6-.2-.5z"/><g><path class="st2" d="M24.6 109.1h-.2-.1c-2 .2-2.5 2.7-2.5 4.2 0 1.3.2 3.9 1.9 3.9.8 0 1.6-.8 2-1.5.4-.8.6-1.7.7-2.6 0-1.2-.1-3.8-1.8-4zm0 6.1c0 .1-.1.3-.1.4 0 0-.1.1-.1.2-1 0-1.2-2.1-1.2-2.7 0-.7 0-1.3.2-2 .1-.2.1-.4.2-.6 1 .1 1.2 2.1 1.2 2.7.1.7 0 1.3-.2 2zM19.8 109.4c-.6-.3-1.3.1-1.9.4-.1-.5-.2-1-.3-1.4-.1-.4-.8 0-1 .1-.2.2-.4.4-.5.6v.1c-.1.4-.1.6-.3.9-.1.1 0 .1-.1.1-.4.2-1-.1-1.3-.2-.2-.1-.5-.2-.8-.2h-.2-.1c-2.1.5-2.3 3.1-2.1 4.5.1 1.3.7 3.8 2.5 3.6.9-.1 1.6-1.1 1.9-1.8.4-.8.4-1.8.4-2.7 0-.5-.1-1.3-.4-2 .3-.1.6-.4.9-.6.4 1.9.6 3.8.8 5.8.1 1.8.3 3.5.3 5.3 0 .4.5.3.7.1.3-.2.6-.6.6-1 0-1.2 0-2.5-.1-3.7.5-.1 1.1-.3 1.5-.8 1-1.1 1.1-2.7 1-4-.2-.9-.4-2.6-1.5-3.1zm-5.3 6.5c0 .1 0 .3-.1.4 0 0 0 .1-.1.2-1 .2-1.5-1.9-1.6-2.5-.1-.6-.2-1.3-.1-2 0-.2.1-.4.1-.6h.2l.1.1c.1 0 .2.1.3.1.7.5 1 1.8 1.1 2.3.1.6.2 1.3.1 2zm3.8-5.2c.1-.1.1-.1 0 0zm1.3 5.2zm0-.1s0 .1-.1.1c-.6.1-.9-.4-.9-.9v-.1c-.1-1-.2-2.1-.3-3.1v-.1-1c.2 0 .4.1.6.3.6.6.7 1.5.8 2.3.1.8.2 1.7-.1 2.5zM8.5 112.6c.2-.7.3-1.4.4-2.1.2-1.1.4-2.7-.2-3.7-.7-1-2-.1-2.5.6-.8 1.2-.8 2.8-.7 4.1.1 1.6.5 3.1 1 4.5-.2.7-.3 1.5-.6 2.2 0 .1-.1.1-.1.2-.1-.1-.1-.2-.2-.3-.2-.3-.3-.5-.4-.8-.7-2.2-1-4.6-2.1-6.8-.3-.7-1-1.7-2.1-1.2-.8.3-1.2 1.1-1.4 1.8-.5-.7-1.2-1.1-2.2-.4-.4.3-.7.6-.9 1-.1-.3-.3-.7-.6-.9-.6-.4-1.8 1.3-1.3 1.6.4.2.5.7.7 1.1l.9 2.4c.2.4.3.8.4 1.3.5 1.7 1.2 3.4 1.9 5.1.1.2.2.2.3.2.4-.1 1-1.1.9-1.5l-1.5-4.5c-.2-.6-.4-1.3-.5-2-.2-.7-.3-1.4-.3-2.1v-.3c1-.4 1.8 2 2 2.4.3.9.7 1.7.9 2.6.4 1.3.8 2.6 1.3 4 .1.2.1.2.3.2.4 0 1-1 .9-1.5l-1.2-4.2c-.1-.3-.2-.7-.3-1-.3-1.2-.6-2.4-.4-3.6v-.1c.3 0 .5.3.7.5.9 1.1 1.3 2.7 1.7 4 .3.9.5 1.9.8 2.8.2.6.4 1.2.8 1.7.5.6 1.1.1 1.5-.4.4-.5.7-1.1.9-1.8.4.8.9 1.6 1.6 1.5 1.2-.2 1.8-1.5 2-2.6.2-1.2.1-3.3-1.1-3.9-.6-.3-1-.3-1.3-.1zm-1.7-1.5c-.1-1-.2-2.1.2-3.2h.1c.3.1.4.5.5.8.2 1 .1 2.2-.1 3.3-.1.4-.1.8-.2 1.3-.3-.8-.4-1.5-.5-2.2zm2.5 4.7c.1.5.1 1.1.1 1.6v.1h-.2c-.3 0-.6-.5-.7-.7-.3-.5-.5-1.1-.7-1.6l.3-.9c.2-.3.3-.3.6-.1.4.3.5 1.1.6 1.6z"/><path class="st2" d="M51.2 121.5c-.1-.3-.6-.3-.9-.2l-.1-.1c-.1-.1-.1-.2-.1-.3-.1-.3-.1-.6 0-.9.1-.7.3-1.4.6-2.1.2-.5.5-1.1.8-1.6v-.1c.2-.4.4-.7.6-1 .2-.4-.4-.5-.7-.5h-.2c-.3-.4-.9-.6-1.6-.5-1.7.1-2.8 1.6-3.1 3-.2.8.3 1.7 1.2 2 .1 0 .3.1.4.1-.2.3-.5.6-.8.9-.3.3-.7-.5-.7-.8 0-.2-.1-.3-.4-.3h-.1c-.3 0-.7.1-1 .3 0 0-.1-.1-.1-.2-.1-.4 0-.9 0-1.2.2-1.4.6-2.7 1.1-4v-.1c.2-.9-.4-1.5-1.3-1.6-.9-.1-1.8.4-2.4.9-.9.8-1.4 2-1.7 3.2-.2.3-.3.9-.7 1.2h-.2c-.3-.3-.1-1.1 0-1.5.1-1.2.4-2.6 1-3.7.2-.3.3-.6.5-.9.2-.3.1-.6-.4-.6s-.9.3-1.2.6c-.2.3-.3.6-.5.9-.2.4-.5.8-.8 1.1-.3.3-.5.4-.9.6 0 0-.1 0-.1.1.2-1.2.3-2.5.5-3.7 0-.2 0-.3-.2-.3h-.4c-.3.1-.7.3-.9.5-.1.1-.1.2-.1.3-.5 1.7-1.1 3.5-2.3 5l-.2.2-.1.1h-.1c-.3-.1-.5-.6-.6-.8-.3-1.1-.1-2.2.1-3.3.1-.2.1-.4.2-.6.1-.1.2-.3.2-.5.2.1.3.4.4.6.3.5 2-.4 1.7-1-.4-.9-1.4-1.1-2.3-.6-.6.3-1 .8-1.3 1.3l-.1.1v.1c-.1.1-.1.2-.1.3v.1c-.1.3-.3.6-.5.9.1-1 .3-2.1.4-3.1.1-.8-1.5.1-1.6.4-.2.5-.4.9-.6 1.4 0-.5-.2-1-.3-1.4-.5-1.2-1.7-1.2-2.6-.3-.2.2-.6.7-.4.9.2.2.7 0 .9-.2h.1c.1 0 .2.1.2.2.2.2.3.4.3.7.2.7.3 1.4.2 2.1 0 .7-.1 1.4-.3 2v.1c0 .1-.1.1-.1.2-.2-.1-.3-.3-.4-.5-.3-.5-1.6.6-1.3 1.2.7 1.3 2.1.5 2.8-.4.3-.4.5-.8.6-1.2.1-.4.3-.7.5-1.1-.1 1.1-.3 2.2-.5 3.2-.1.4.4.4.6.3.4-.2.8-.5.9-.9.1-.4.3-.8.5-1.2 0 .4.1.9.2 1.3.1.5.4 1 .9 1.2.8.3 1.7-.3 2.3-.7.5-.4.9-.8 1.2-1.3-.1.7-.2 1.4-.4 2.1-.1.4.4.4.6.3.4-.1.8-.4.9-.8.2-.6.4-1.3.9-1.9.2-.3.4-.3.8-.6h.1c-.2 1-.4 2-.4 3 0 .9.6 1.2 1.5 1 .4-.1.7-.2 1-.4 0 .4.2.7.4 1 .6.5 1.5.3 2.1-.1.1 0 .1-.1.2-.1v.4c.1.9.9 1 1.6.8.4.8 1.6.9 2.5.6.2-.1.3-.1.5-.2v.5c.2 1.1 1.2 1.3 2.2.9.5-.2 1.1-.5.9-.8zm-8.1-2.9s-.1 0-.2-.1c-.3-.2-.2-.7-.3-1 0-.4 0-.9.1-1.3v-.1c.2-.6.4-1.2.7-1.7.2-.3.5-.7.7-.9h.1c.1 0 .2 0 .2.1.4.1.5.4.4.7-.5 1.3-.8 2.8-1.6 4 0 0-.1.2-.1.3zm2.2 1zm3.1-2.6c0-.5.5-1.5.9-1.7-.1 0 .2.1.3.2.2.3.2.6.1.9-.3.6-.6 1.2-.8 1.8-.4-.3-.5-.8-.5-1.2zm2 4.3z"/><g><path class="st2" d="M49.8 132.3c-.3.5-.7.9-1.1 1.3-.1 0-.1.1-.3 0-.3-.2-.1-.9-.1-1.1.1-.9.4-1.8.7-2.6.1-.2.1-.4.2-.5.1-.3.2-.6.4-.9v-.1c.3-.8-.3-1.5-1.3-1.6-.9-.1-1.8.3-2.4.8-.8.7-1.4 1.7-1.7 2.8 0 0-.1.1-.1.2-.2.4-.4.8-.8 1.1-.1.1 0 .1-.1.1-.4-.2-.2-.7-.2-1.1.1-.6.2-1.2-.1-1.8-.2-.4-.7-.6-1.1-.6 0-.1.1-.2.1-.2 0-.1.1-.2.2-.3.3-.4.6-.9 1-1.2.2.1.4.3.5.4.4.5 2-.3 1.6-.8-.5-.7-1.2-.8-1.8-.7-.4.1-.9.3-1.3.6l-.2.2c.1-.8.2-1.6.2-2.4 0-.6-1.7 0-1.7.6.1 1.1-.1 2.2-.3 3.3 0 0 0 .1-.1.1-.4.9-1 1.8-2 2.3-.1.1-.3.1-.4.2h-.1v-.1c-.1-.2-.1-.3-.1-.5-.1-.9.1-1.9.3-2.8.1-.6.3-1.2.5-1.8.1-.2.3-.5.4-.7.1-.3 0-.6-.4-.5-.5 0-.9.3-1.1.7-.2.3-.3.6-.5.9-.2.4-.5.8-.8 1.1-.3.3-.5.4-.9.6 0 0-.1 0-.1.1l.3-3.6c.1-.8-1.7 0-1.7.5s-.1 1-.1 1.5c-.1.1-.1.2-.1.3-.1 1.1-.4 2.4-1.2 3.3 0 .1-.1.1-.3.1-.3-.1-.4-.8-.4-1-.1-.9-.1-1.8 0-2.7 0-.2 0-.4.1-.6 0-.3.1-.6.1-.9v-.1c.1-.9-.7-1.3-1.7-1.2-.9.1-1.6.7-2.1 1.4-.6.9-.9 2-.9 3.2 0 .1 0 .1-.1.2-.1.4-.2.9-.5 1.2-.1.1 0 .1-.1.1-.4-.1-.4-.7-.4-1-.1-.6-.1-1.2-.5-1.7-.3-.4-.8-.4-1.2-.2 0-.1 0-.2.1-.2 0-.1.1-.2.1-.3.1-.5.3-1 .6-1.4.2 0 .4.2.5.3.5.4 1.9-.8 1.4-1.2-.7-.5-1.4-.5-1.9-.2-.4.2-.8.5-1.1.9l-.2.2c-.1-.8-.2-1.6-.4-2.3-.2-.6-1.7.5-1.5 1.1.2.7.3 1.4.4 2.1-.3 1-.7 2-1.3 2.9-.3.5-.8 1-1.1 1.2-.8.7-1.4.3-1.7-.3l.1-.1c.9-1.2 1.7-2.6 1.7-4 0-.8-.5-1.7-1.6-1.4-1.1.2-1.7 1.2-2 2-.3.9-.3 2-.2 2.9 0 .3.1.6.2 1-.1.1-.3.2-.4.3-.2.2-.5.4-.8.5-.1 0-.2 0-.3-.2-.6-.6-.5-1.7-.6-2.4-.1-.8-.2-1.7-.5-2.5-.2-.5-.7-1.1-1.4-.9-.8.2-1.4.9-1.6 1.6v.1c-.1-.4-.3-.8-.4-1.1-.3-.6-1.5.8-1.3 1.3.4.8.6 1.7.8 2.5s0 .2 0 .2c0 .3-.1.6-.1.9-.1.6-.3 1.3-.7 1.8-.1-.1-.1-.2-.2-.3L8 130c-.4-1.1-.7-2.2-.9-3.4v-.1c-.2-.8-1-1-1.9-.5-.8.5-1.3 1.3-1.5 2.1-.3 1.2-.1 2.6.4 3.8-.3.5-.7.9-1 1.4-.3-.3-.6-.4-1-.5.3-1.3-.1-2.9-.6-3.9-.4-.7-1-1.4-2-1.1-.7.2-1.2 1-1.5 1.6-.4.8-.3 1.6 0 2.3.3.7 1.4-.8 1.2-1.3-.1-.2-.2-.5-.2-.8v-.2s.1 0 .1-.1h.2c.6.1.9.7 1.1 1.1.3.6.5 1.3.6 1.9v.7c-.1.1-.3.2-.4.4l-.3.3c-.2.3-.3.7-.2.9 0 .1.1.2.1.2h.3c.3-.1.5-.3.7-.5.3-.1.7.1.9.3-.6 1-1 2-1.1 3.2-.1 1-.1 2.4.7 3.1.6.5 1.5.2 2-.3 1.2-1.3 1-3.4.6-4.9-.1-.5-.3-1.2-.7-1.8l.9-1.2c.3.4.6.9 1.2 1 .7.1 1.4-.7 1.7-1.2 0-.1.1-.1.1-.2.3.5.8 1 1.4.5.6-.5 1-1.1 1.4-1.9.1.4.2.8.2 1.2.2.8 1.3-.5 1.2-1-.2-1.2-.3-2.4-.2-3.7 0-.4.1-.9.2-1.3 0-.2.1-.3.1-.5 0 0 .1 0 .1.1.3.2.4.6.5.8.3.7.4 1.6.5 2.4.1.8.3 3.3 1.9 2.6.7-.3 1.3-.8 2-1.3.1.2.2.4.4.5.8.9 2.2.1 2.9-.4.9-.7 1.6-1.6 2.2-2.5v2.8c0 .4.4.3.6.2.3-.2.7-.6.7-1 .1-.7.1-1.4.2-2.1.8.2.5 2.4 1.1 2.8.6.4 1.3 0 1.7-.3.2-.1.3-.3.4-.4.1.4.3.8.7 1 .6.4 1.5-.1 2-.5.1 0 .1-.1.1-.1.1.4.3.8.7 1 .5.1 1.2-.1 1.6-.4.3-.2.5-.3.7-.6 0 .3-.1.6-.1.9-.1.4.4.4.7.3.4-.1.8-.4.9-.8.2-.6.4-1.3.8-1.8.2-.3.4-.3.8-.6h.1c0 .1 0 .2-.1.4-.1.9-.4 2.2 0 3.1.4.9 1.9.1 2.4-.2.4-.2.7-.4 1-.6-.1.5-.3.9-.4 1.4-.1.4.3.4.6.3.4-.1.8-.4.9-.7.2-.7.5-1.3.7-1.9.8.4-.2 2.5.4 3.1.5.5 1.2.4 1.8.2.2-.1.4-.2.5-.3 0 .4.1.8.4 1.1.5.5 1.5.3 2.1 0 .1 0 .1-.1.2-.1 0 .4 0 .9.4 1.1.5.3 1.2.2 1.7 0 .7-.2 1.2-.5 1.6-1.1.4-1.4.1-2.1-.4-1.7zm-46.5 6.9c-.2.2-.5.2-.7.1-.8-.3-.7-1.8-.7-2.5.1-.6.3-1.2.6-1.7.1.1.1.2.2.3.3.6.5 1.3.6 2 .1.6.2 1.3 0 1.8zm3.2-7.5s-.1.1-.2.1c-.3 0-.6-.4-.7-.6-.6-.8-.8-2-.9-3 0-.3.1-.9.1-1.1l.1-.1c.1 0 .2-.1.2-.1.4-.1.6.1.7.4.3 1.3.7 2.7.7 4.1v.3zm11.1-4.2c-.2-.7-.2-1.4-.1-2 0-.3.1-.6.2-.9v-.1c.1 0 .2 0 .2.1.3.1.4.4.4.7.1.6-.2 1.5-.7 2.2zm11.6 1.3c0 .1-.1.2-.1.3h-.2c-.3-.1-.4-.6-.5-.9-.2-1-.1-2.1.2-3.1.1-.3.3-.8.5-.9H29.4c.4 0 .6.3.5.6-.2 1.3-.3 2.7-.7 4zm18.6-.2c-.5 1.2-.9 2.6-1.7 3.7 0 .1-.1.2-.2.3 0 0-.1 0-.2-.1-.2-.2-.2-.7-.2-1 0-1 .4-2.1.9-2.9.2-.3.5-.7.7-.8h.1c.1 0 .2.1.2.1.4.1.5.4.4.7zM3.3 139.2zM3.3 139.2c0-.1 0 0 0 0zM17.5 124.4z"/></g></g><g><path class="st0" d="M-.4 154.4c1.3-.2-1.6 3.6-.8 1 .3-1.2 1.2-2.2 2-3.1.3-.3.7-.6 1.1-.9.4.1.4.3.1.5l-.6.6c-.8.7-1.9 1.2-3 1.6-.7.3.4.6.8.5.7-.2 5.5-2.7 4-3.8-1.8-1.3-4.2 2-4.8 2.9-.3.5-1.6 2.1-.8 2.9.6.7 1.5.6 2.2.4.9-.3 1.6-1.4 1.6-2.4 0-.9-1.7-.8-2.2-.7-1 .1-.2.6.4.5zM27.5 163.9c.6-.6 2.4-3.2 1-3.8-1-.4-1.7.9-2 1.6-.3.9-.5 2.3.2 3.2.8.9 2.7-.3 3.3-.9.4-.4.4-1.2-.3-.6-.4.4-1.5 1.2-2.1.7-.4-.4-.4-1.2-.4-1.7 0-.3 0-.7.1-1 0-.1.1-.3.1-.4.1-.2-.1 0 .1.1 1.1.2-.6 2.4-.9 2.7-.5.6.5.6.9.1zM-11.5 145.7c1 .2 3.2.2 3.5-1.2.2-1-1.3-1.1-1.8-1-1 .2-2 .8-2.6 1.7-.8 1.1.4 2 1.4 2.3.5.2 1.1-.3.3-.5-1.9-.6-.2-2 .6-2.5.2-.1.5-.2.7-.3.4-.1.2-.1.2.2-.1 1-2.1.8-2.7.7-.6-.2-.2.5.4.6zM5.5 160.1c-.4 1.4.9 1.9 2 1.1.5-.4.9-1 1.2-1.6.3-.5.6-1.3 1.1-1.6-.3 0-.6-.1-.9-.1-1 1.1-1 2.8-1.4 4.1-.2.5 1.1.2 1.2-.1.5-1.1 1.4-2.4 2.4-3.3-.3 0-.6-.1-.9-.1-.7 1-1.3 2.5-1.2 3.7.1 1.4 2.2.5 2.8.1.7-.4-.1-.7-.6-.4-1.2.7-1-.4-.9-1.1.1-.8.4-1.7.9-2.3.4-.5-.7-.3-.9-.1-1 1-2.2 2.3-2.7 3.6.4 0 .8-.1 1.2-.1.3-1.2.3-3 1.2-4 .4-.5-.7-.3-.9-.1-.6.4-.9 1.2-1.3 1.8-.3.4-.6.9-.9 1.2-.3.4-.3 0 0 .2-.4-.2-.1-.8-.1-1 0-.5-1.2-.3-1.3.1zM36.7 158.7c-.4-1.3-1.8 0-2.1.8-.4 1.1-.3 2.4.1 3.3.4.9 1.4 1 2.1-.1.8-1.2.1-2.8-.1-4l-.8.8c.2.8.3 1.6.6 2.4.1.3.3.9.6 1.1.8.5 1.7-1.1 1.9-1.6.3-.8-.5-.5-.7.1-.3.8-.5.4-.8-.1-.4-.8-.6-1.8-.8-2.7-.1-.5-.9.5-.8.8.1.7.3 1.4.4 2.2 0 .2.1.8-.1.8s-.4-.1-.5-.3c-.3-.4-.4-1-.5-1.5v-.9c0-.2 0-.3.1-.5.1-.3.6.1.6.1.2.6.9-.3.8-.7zM22.9 164.2c0 1.1 1.3 1.3 2.2.7.9-.6 1-1.6 1-2.5 0-.7-.2-1.8-.9-2.2-.4-.2-.9.1-1.2.3-.7.4-.9 1-1 1.6 0 .5 1.1-.1 1.1-.4 0-.7.3-.7.6-.2.2.3.2.7.3 1.1.1.4 0 .9-.1 1.4 0 .2-.1.3-.2.5.1-.1 0-.1-.1-.1-.4-.1-.5-.3-.5-.6 0-.5-1.2.1-1.2.4z"/><path class="st0" d="M22.9 160.1c.2 2.6 0 5.3-.5 7.9-.1.5 1.2-.1 1.3-.4.5-2.7.6-5.4.3-8.1-.1-.4-1.1.2-1.1.6zM-8.2 150.6c-.7.8 0 1.8 1 1.9 1 .1 1.8-.5 2.4-1.2.4-.5 1.1-1.4.8-2.2-.1-.4-.7-.5-1-.6-.7-.1-1.3.2-1.7.6-.4.4.8.6 1 .4.5-.5.7-.3.5.3-.1.4-.3.7-.6 1-.3.4-.6.7-1 1-.1.1-.3.2-.5.2.1 0 .1-.1-.1-.1-.2-.3-.1-.5.1-.8.5-.5-.7-.8-.9-.5z"/><path class="st0" d="M-5.5 147.5c-1.6 2.1-3.6 4-5.6 5.6-.4.3.8.7 1.1.5 2.1-1.7 4-3.7 5.6-5.8.3-.4-.8-.6-1.1-.3zM21.6 159.9c-1.3 0-1.9 1.3-2.2 2.1-.2.7-.5 2.7.9 2.9 1.5.2 2.2-1.3 2.4-2.1.1-.8.2-2.7-1-2.9-.5-.1-1.3.7-.9.8.7.1.8 1 .8 1.5 0 .4 0 .8-.1 1.2 0 .2-.1.3-.2.5-.1.1-.3.4-.1.3-.7.2-.8-1.2-.8-1.5 0-.4.1-.8.2-1.2.1-.2.1-.4.2-.6.1-.2.2-.2.1-.2.4.1 1.3-.8.7-.8zM-1.9 150.9c-1-.7-2.2 0-2.9.6-.6.5-1.9 2-.9 2.9 1 1 2.5.2 3.1-.5.6-.5 1.7-2.1.7-3-.2-.2-1.4 0-1.1.3.5.5.1 1.2-.2 1.7-.2.3-.4.6-.7.9-.1.1-.2.2-.4.3-.1.1-.5.1-.2.2-.7-.2 0-1.4.1-1.7.2-.3.5-.6.8-.9.2-.1.3-.3.5-.4.2-.1.3 0 .2-.1.3.3 1.5 0 1-.3zM-6.7 146.1c-.8-.8-2-.3-2.8.2-.7.4-2.2 1.6-1.4 2.7.8 1.1 2.3.5 3 0 .5-.6 1.9-1.9 1.2-2.9-.2-.3-1.3-.2-1 .1.3.5-.2 1.2-.5 1.6-.2.3-.5.6-.9.8-.1.1-.3.2-.4.2-.1.1-.5.1-.3.2-.6-.3.3-1.4.5-1.6.3-.3.6-.5.9-.7.2-.1.4-.2.5-.3.2-.1.3 0 .2-.1.3.2 1.4.1 1-.2z"/><path class="st0" d="M-7 146.7c-1.3 1.2-2.7 2.5-4 3.7-.3.3-1.5 1.5-1.9.8-.7-1.4 2.9-1.2 3.3-1.2.8 0 .2-.6-.3-.7-1.4-.1-3.1-.2-4.1.9-.4.5.1 1.4.7 1.6 1.2.5 2.1 0 3-.6 1.5-1.2 2.9-2.8 4.3-4.2.3-.2-.8-.5-1-.3zM15.2 163.2c-.7.4-.5-1.6-.5-1.7.1-.8.4-1.6.6-2.3.1-.5-1-.1-1.1.3-.2.7-.4 1.3-.7 2-.1.3-.3.7-.5 1-.2.4-.2.5-.5.2-.8-.9.4-2.8.9-3.6.3-.6-.8-.3-1 0-.5.7-2.5 4.1-.4 4.5 2.4.4 2.9-3 3.3-4.3-.4.1-.7.2-1.1.3-.4 1.2-.9 2.4-.8 3.7.1 1.1 1.3.9 2.1.5.7-.5.3-.9-.3-.6zM38.1 161.6c.6 1.3 1.9.7 2.2-.7.1-.7 0-1.4-.1-2-.1-.6-.4-1.3-.3-2-.3.2-.5.4-.8.5 0 1.5 1.1 2.8 1.7 4 .2.5 1-.6.9-.9-.4-1.2-.5-2.8-.4-4.1-.3.2-.5.4-.8.6.1 1.2.6 2.7 1.5 3.6 1 .9 2.1-1.2 2.4-2 .3-.8-.6-.4-.8.2-.5 1.4-1.1.5-1.5-.2-.4-.7-.8-1.5-.8-2.3 0-.7-.7.3-.8.6-.1 1.5-.1 3.2.3 4.6l.9-.9c-.5-1.1-1.8-2.4-1.7-3.7 0-.7-.7.3-.8.5-.2.7.1 1.5.2 2.2.1.5.1 1 .1 1.5s-.2.2.1.1c-.4.1-.6-.5-.7-.7-.1-.3-.9.7-.8 1.1z"/><path class="st0" d="M48 156.9c-.4.8-1.5-.8-1.6-.9-.4-.7-.8-1.4-1.1-2.1-.2-.5-.9.7-.8 1 .3.6.5 1.3.8 1.9.1.3.2.7.3 1.1.1.4.1.5-.3.5-1.3 0-1.6-2.4-1.7-3.3-.1-.7-.8.4-.8.7.1.9.7 4.8 2.7 3.6 2.3-1.5.4-4.3-.2-5.5-.3.3-.5.7-.8 1 .5 1.1.9 2.4 1.9 3.2.8.7 1.8-.2 2.2-1.1.5-.8-.2-.8-.6-.1zM5.9 156.5c-.9.9-1.5 2.1-1.9 3.3-.5 1.6 1.4 1.1 2.3.5.7-.4-.5-.5-.8-.3-.5.3-.4.4-.3-.1.1-.4.3-.8.4-1.2.3-.7.7-1.5 1.3-2 .5-.5-.7-.5-1-.2zM1.1 157.6c.5.1 1.6.3 1.5.9-.1.6-.6.1-.7-.3-.3-1.1 1.1-2.5 1.8-3.2.5-.5-.7-.5-1-.3-.8.7-3.8 4-1 4.6.8.2 1.8-.2 2.1-.8.4-1-1.2-1.4-2-1.6-.3-.1-.7 0-.9.1-.1.3-.1.5.2.6z"/><g><path class="st0" d="M-11 139.4c-1.2 1.2-2.8 1.8-4.2 2.6-.5.2.6.9.9.7.7-.3 1.4-.6 2.1-.8.4-.1 1.5-.6 1.4.2.4.1.7.2 1.1.3 0-2.1-2.7-1.4-3.7-1.1-.3.1 0 .4.1.5.6.5 0 1-.4 1.3-.4.3-.7.6-.4 1.2.3.8 1.7 1.1 2.3 1 .7 0-.1-.7-.5-.7-.7 0-.9-.5-.4-.9.3-.2.5-.5.7-.8.4-.6-.2-1.1-.6-1.5 0 .2.1.3.1.5.4-.2 1.7-.8 1.7.1 0 .5 1.1.7 1.1.3.1-2.8-4.6-.8-5.5-.4.3.2.6.5.9.7 1.5-.8 3-1.6 4.3-2.8.3-.2-.7-.7-1-.4z"/></g><g><path class="st0" d="M-15.5 139c-.9-.5-.3-1.3.1-1.6.8-.6 1.8-1 2.7-1.3.5-.2-.5-.9-.9-.8-.6.2-1.3.5-1.9.7-.3.1-.7.2-1.1.3-.4.1-.5.1-.5-.4.1-1.3 2.5-1.6 3.3-1.6.7-.1-.3-.9-.7-.9-.9 0-4.8.5-3.7 2.6 1.2 2.5 4.1.6 5.4.1-.3-.3-.6-.5-.9-.8-1.1.4-2.8.8-3.5 2-.6 1 .7 2.1 1.4 2.4.8.3 1-.4.3-.7z"/></g><g><path class="st0" d="M33.9 160.3c-.4-1-1.2-1.6-2.1-.5-.6.8-.6 2-.5 2.8.1.7.5 1.9 1.5 1.7 1.1-.2 2.3-1.8 2.4-2.7.1-.7-.8.2-.9.6-.1.4-.8 1.2-1.3 1-.4-.2-.6-.7-.7-1.1-.2-.5-.2-1.1-.1-1.6 0-.1 0-.2.1-.3.1-.3 0 0 .1 0 .4.1.6.6.7 1 .1.4.9-.5.8-.9z"/><path class="st0" d="M29.5 164c.2 1 1.4 1.1 2.1.2.7-.8.7-1.8.6-2.7-.1-.7-.4-1.7-1.2-2-.4-.1-.8.3-1.1.5-.5.5-.7 1.2-.7 1.8 0 .5 1-.3.9-.6-.1-.7.2-.8.6-.3.2.3.3.7.4 1.1.1.4.2.9.1 1.4 0 .2-.1.4-.2.5 0-.1 0-.1-.1 0-.3 0-.5-.2-.5-.5.1-.6-.9.2-.9.6z"/></g></g></svg>