<svg id="Layer_1" xmlns="http://www.w3.org/2000/svg" xmlns:xlink="http://www.w3.org/1999/xlink" viewBox="-256 258 86 86"><style>.st0{fill:#B82927;} .st1{fill:#FFFFFF;} .st2{fill:#FFFFFF;stroke:#000000;stroke-width:1.0201;stroke-miterlimit:10;} .st3{clip-path:url(#SVGID_2_);}</style><path class="st0" d="M-189 265.5c-3.5-2.6-18-7-28.1 6-8.3 10.7-36.9 6.5-36.9 26.7 0 22.6 18.3 41 41 41 22.6 0 41-18.3 41-41 0-13.7-6.8-25.1-17-32.7zm-5 20.2c-3.8 0-7-3.1-7-7 0-3.8 3.1-7 7-7 3.8 0 7 3.1 7 7s-3.2 7-7 7z"/><path class="st1" d="M-223.3 297c-.4-.1-.7-.1-1.1 0 .4-1.1.7-2.3 1-3.6.3-1.5.9-3.9 0-5.3-1-1.6-2.8.1-3.5 1.2-.9 1.5-1.2 3.4-1.2 5-.1.2-.2.5-.3.7-.2.8-.3 1.5-1.2 1.5-.4 0-.7-.1-1-.3-.1 0-.1-.1-.2-.1-.4-.3-.8-.5-1.4-.4h-.2-.1c-2.6.8-2.7 4.5-2.4 6.4 0 .2.1.4.1.7-.3.3-.4.6-.6.9-.6 1.4-2.3 1.7-3.5 1.1-2-1.1-1-3.9-.2-5.5 1.1-2.1 2.9-6 .9-8.2-.8-.8-2.1-1.1-3.2-.8-1.6.4-2.7 1.7-3.6 2.9-.5.7-1.2 2-.7 2.7.5.8 1.6-.3 2-.7.3-.4.5-.7.7-.8.4-.3 1.1-.3 1.6-.1.9.2 1.4 1 1.3 1.9-.1 1.7-1.2 3.2-1.8 4.7-.6 1.5-.8 3.1-.6 4.6.3 1.8 1.7 3.1 3.5 3.2 2.1.2 4-1.6 5.2-3.4.6 1.1 1.4 1.9 2.5 1.7 1.1-.2 1.9-1.5 2.2-2.6.4-1.2.4-2.5.2-3.7-.1-.6-.2-1.5-.5-2.3.5-.3 1-.7 1.4-1.1.1 1.8.4 3.5.9 5.2.3 1.2.9 3.6 2.5 3.3 1.6-.3 2.5-2.2 2.7-3.6.1-1.3.4-4.5-1.4-5.2zm-7.4 7.2c0 .2 0 .4-.1.6 0 0 0 .2-.1.3-1.3.3-2-2.5-2.2-3.3-.2-.9-.3-1.8-.2-2.8 0-.3.1-.6.2-.9 1.3-.1 2 2.6 2.2 3.4.2.8.3 1.8.2 2.7zm4.4-9.3c0-1.5.1-3.2.6-4.7 0-.1.1-.2.1-.3.4.1.5.6.6 1 .3 1.5-.1 3.2-.5 4.6-.2.8-.4 1.6-.6 2.3-.1-1-.2-1.9-.2-2.9zm2.6 6.7c0 .7 0 1.5-.1 2.2v.1h-.2c-.9-.1-1.3-2.5-1.5-3.2v-.1-.1c.2-.4.3-.7.4-1.1.2-.3.5-.3.8 0 .5.5.5 1.5.6 2.2zM-181.2 307.5c-.2-.3-.7-.3-1.1-.2-.7-.2-.4-1.9-.4-2.3.1-1.6.6-3.2 1-4.9v-.1c.2-1.2-.7-2.1-2.1-2.2-1.3-.1-2.4.6-3.2 1.4-1.5 1.4-2.1 3.7-2.1 5.7-.3 0-.6.2-.7.3-.6.4-.6-.2-.6-.7-.1-.8 0-1.6.1-2.4.2-1.2.4-2.6.9-3.8.2-.4.4-.7.6-1.1.2-.4 0-.8-.6-.8s-1.3.4-1.5.9c-.3.5-.5.9-.7 1.4-.3.5-.6 1-1 1.4-.4.4-.6.5-1.2.8l-.1.1c.2-1.7.3-3.4.4-5.2.1-1.2-2.2-.1-2.2.7-.1 2.1-.2 4.1-.5 6l-.2.2c-.4.5-1 .9-1.6 1.1-.7.2-.9-1.6-.9-2-.2-2.2.2-4.5.6-6.8.1-.6-.6-.6-.9-.4-.5.2-1.1.7-1.2 1.2-.3 1.8-.5 3.5-.8 5.2-.2.8-.4 1.5-.7 2.2 0 0 0 .1-.1.1s-.3-.1-.4-.2c-1.1-.6-.9-2.8-.8-3.7v-.2c0-.1.1-.2 0-.3.1-1.3.4-2.7.9-3.9.2-.5-.1-.8-.6-.7-.6.1-1.2.6-1.4 1.2-.5 1.4-.8 2.8-.9 4.2l-1.9 1.9c0-1.1.1-2.2.1-3.3 0-1.3.1-2.6.2-4 0-.7-.7-.5-1.4 0-.3-.3-.6-.5-1.1-.5h-.2-.1c-2.6.1-3.5 3.8-3.6 5.8 0 .8 0 2.1.2 3.2l-.6.6h-.2c-.1 0-.2-.1-.3-.1-.3-.2-.4-.6-.5-.9-.3-1-.4-2.1-.4-3.1v-.3-.1c0-.8 0-1.6.1-2.5v-.2-.1c0-.6.1-1.1.2-1.7.1-.6-.6-.5-1-.3-.1 0-.1.1-.2.1-.5-.3-1.3-.2-2 .2-1.9 1.1-2.5 3.7-2.2 5.7.2 1.2 1.2 2 2.3 1.8.2 0 .4-.1.6-.2-.1.5-.2 1-.5 1.5-.2.5-1-.2-1.2-.6-.3-.8-2 .8-1.8 1.6.6 1.8 2.7 1.1 3.6 0 .2-.2.3-.4.4-.6.1.4.3.8.6 1.1 1 1 2.5 0 3.3-.9.4.6.9 1 1.6 1.1.3 0 .6-.1.9-.2-1.1 1.3-2 2.9-2.5 4.6-.3 1.1-.6 3.2.3 4.1 1.5 1.4 3.4-1.2 4-2.7.8-2 .8-4.3.9-6.3v-1c.4-.5.9-.9 1.3-1.4l.5-.5c0 1.4.2 3.2 1.7 3.6 1.1.2 2-.3 2.7-1.1 0 .1.1.3.1.4.7 1.9 2.7 1.2 4.2.1-.1.4-.1.7-.2 1.1-.1.5.5.5.9.4.5-.2 1.1-.6 1.2-1.1.2-.9.5-1.8 1-2.5.3-.4.5-.4 1-.8l-.3 2.4c-.1.8-.1 1.7.2 2.4.5 1.2 2.8.1 3.4-.2h.1c.1.5.3.9.7 1.3.9.7 2.3.3 3.1-.1 0 0 .1 0 .1-.1 0 .4.1.8.4 1.1.8.8 1.9.5 2.7.2 1.1-.2 1.9-.7 1.6-1.1zm-36.8-8.8c-.2-.7-.2-2.2.2-2.8-.1.1.3 0 .5.1.4.2.5.6.5 1-.1.9-.1 1.9-.1 2.8-.6 0-.9-.5-1.1-1.1zm4.5 4.4c.1 0 .1 0 0 0zm2.3-3.9c0-.9.1-1.8.3-2.7.1-.3.2-.6.3-.8 1.3.2 1.5 3 1.5 3.8 0 .9-.1 1.8-.3 2.7-.1.2-.1.4-.2.5l-.1.2c-1.4 0-1.5-2.9-1.5-3.7zm1.3 12.3zm0-.1c0 .1-.1.1 0 0l-.1.1h-.2s-.2 0-.2-.1l-.1-.1c-.1-.1-.2-.2-.2-.3-.3-.5-.2-1.4-.1-2 .3-1.3.9-2.4 1.7-3.5v.4c-.1 1.8 0 3.9-.8 5.5zm7.8-8c-.1 0-.1 0 0 0zm16.1 2.8c-.1 0-.2 0-.3-.1-.4-.3-.5-.9-.5-1.3-.2-1.4.2-2.9.8-4.1.2-.4.6-1 .8-1.2h.1c.1 0 .3.1.3.1.5.1.7.6.6 1-.5 1.8-.8 3.7-1.7 5.3.1 0 0 .1-.1.3z"/><g><defs><path id="SVGID_1_" d="M-222.1 331.6c-.2 0-.4 0-.6-.1h-.2c-.4-.1-.6-.4-.7-.6 0 0 0-.1-.1-.1v-.1c-.6-.2-.6-.7-.6-.9v-.1c0-1-.1-2.1-.3-3.5 0-.2-.1-.5 0-.8-.2 0-.4-.2-.4-.6 0-1.7-.1-3.3-.3-4.9 0-.5-.1-1-.1-1.4-.1-1.3.4-2.3 1.6-2.9h.1c.5-.2 1.1-.2 1.6-.2.2 0 .5 0 .7-.1h.8c.4 0 .8 0 1.2.2.6.1 1.2.2 1.8.2H-214.2c.7-.1 1.3-.1 2-.2h.1c.3 0 1-.1 1.4-.1.4-.1.7-.1.9-.1.6 0 1.5-.1 2.2-.1.7 0 1.1 0 1.3.1h1.9c.7 0 1.3 0 1.8-.1h.3c.1 0 .2 0 .4-.1.4-.1.7-.2 1.1-.3l.2-.1c.6-.2 1.2-.2 1.7.1.3.2.5.2.9 0 .1-.1.3-.2.5-.2s.3.1.4.2c.1.2.1.3.1.4 0 .3-.3.4-.4.5-.5.3-.9.4-1.4.4.3.5.5 1.1.7 1.7.1.5.4.9.6 1.4.1.1.2.3.2.4.3.5.2 1.1-.2 1.6-.1.1-.3.4-.6.4-.1 0-.2 0-.3-.1-.2.3-.5.3-.8.2-.1 0-.2-.1-.3-.2-.3-.3-.7-.5-1.2-.4-.2 0-.3-.1-.4-.1h-.1c-.2-.1-.3-.2-.3-.2-.1.1-.3.2-.4.3l-.2.2c-.3.2-.6.5-.9.9 0 .1-.1.2-.2.3-.3.4-.7.8-1 1.4-.6 1.1-1.5 1.5-2.3 1.7-.2.1-.4.1-.6.1h-.3v.1c0 .2 0 .4-.1.6-.1.3-.1.5-.2.8-.1.3-.1.6-.2.9-.1.6.1 1.1.5 1.6.2.2.5.4.3.9-.1.2-.4.4-.6.4v.2c0 .2-.2.5-.6.5-.5.1-.9 0-1.3-.1-.3-.1-.5-.3-.6-.5 0-.1-.1-.2-.2-.2-.4-.2-.4-.6-.4-.8v-.6c0-.3.1-.7 0-1v-.2-.7c-.1-.4-.1-.8-.1-1.3v-.7-.1h-.5c-1.6 0-3.2 0-4.7-.3-.4-.1-.5-.1-.6-.1h-.1c-.9-.2-1.7-.5-2.5-.9-.8 1.4-.8 2.7-.2 3.9.3.5.6 1 1 1.5l.3.4.1.1c.1.2.4.5.2.9s-.6.4-.8.4h-.1l-.2-.4v.4h-.2c-.6 0-.8-.3-.9-.8l-.1-.2c-.2 0-.3-.1-.4-.2-.1-.1-.2-.2-.1-.4 0-.6-.2-1-.6-1.6-.1-.2-.2-.3-.3-.5-.1-.1-.1-.2-.3-.3-.2-.2-.3-.4-.4-.6-.1.2-.2.4-.2.6v.1c-.1.5-.1 1-.1 1.5 0 .2.1.4.1.5l.1.1.9.9c.1.1.4.4.2.8s-.5.4-.6.4c-.1-.1-.1-.1-.2-.1zm-1.7-11.9l.2.7c.2.7.5 1.5.7 2.2.1.2.1.4.1.6 0 .4-.1.7-.2 1l-.1.3s-.1.1-.1.2c-.1.1-.2.3-.4.4-.3.2-.3.5-.3 1 .2 1.4.3 2.6.3 3.6V330c.3.1.4.3.5.5v.1c.1.1.1.2.2.2h.7l-.9-.9-.1-.1c-.1-.2-.2-.5-.3-.9 0-.6 0-1.1.1-1.7v-.1c0-.4.5-1.3.6-1.4.1-.2.2-.3.5-.4l.5-.1-.1.6c-.1.4 0 .7.3.9.2.2.3.3.4.5.1.2.2.3.3.5.3.5.7 1.1.7 1.9.4.1.6.5.6.6.1.2.1.3.1.3h.5l-.1-.1-.1-.1-.3-.4c-.4-.5-.7-1-1-1.6-.8-1.5-.7-3.1.2-4.7.1-.1.2-.4.6-.4.1 0 .3 0 .4.1.7.4 1.5.7 2.3.9l.2.1c.1 0 .1 0 .5.1 1.5.2 3.1.3 4.6.3h.9l.1.1c.2.1.2.3.2.4v1.1c0 .4 0 .8.1 1.2v.2c0 .2.1.4.1.5v2c.2.1.4.3.5.6.3.1.5.1.7.1-.1-.1-.3-.2-.4-.4l-.1-.3.4-.3h.2l.3.1c.1 0 .3.1.4.1-.6-.7-.8-1.4-.6-2.2.1-.3.1-.6.2-.9.1-.3.1-.5.2-.8 0-.2 0-.4.1-.5v-.2c0-.5.5-.6.6-.6l.3-.1c.2 0 .4-.1.5-.1.9-.3 1.5-.7 1.8-1.3.4-.7.8-1.2 1.2-1.6l.1-.1s0-.1.1-.1c.3-.4.7-.7 1-1l.2-.1c.2-.2.4-.4.8-.5h.1c.2 0 .4.1.5.2l.1.1s.1 0 .1.1h.3c.7 0 1.2.2 1.6.7v-.6l.5.2c.1 0 .2.1.3.2v-.1c.2-.3.3-.5.1-.8-.1-.1-.2-.3-.2-.4-.3-.5-.6-1-.7-1.5-.2-.7-.5-1.3-.9-1.9-.1-.2-.3-.4-.2-.7-.1 0-.3 0-.5.1l-.2.1c-.4.2-.8.3-1.3.4l-.3.1c-.1 0-.3 0-.4.1-.6.1-1.2.1-1.9.1h-2.2l-.1-.1c-.1 0-.3-.1-.9-.1-.7 0-1.6 0-2.1.1h-.1s-.2 0-.7.1h-.1c-.3 0-1.1.1-1.4.1h-.1c-.7.1-1.4.1-2 .2H-217.9c-.6 0-1.3 0-2-.2-.5-.1-1-.2-1.6-.1h-.2c-.2 0-.4 0-.7.1-.5 0-.9 0-1.4.2h-.1c-.9.4-1.2 1.1-1.2 2.1 0 .4.1 5.5.1 5.9l.3-4.2.9-.8zm0 2.6c0 .7-.1 1.4-.1 2.1l.1-.1c0-.1.1-.1.1-.2v-.1c.1-.2.2-.5.1-.7 0-.1 0-.2-.1-.4 0-.2-.1-.4-.1-.6z"/></defs><use xlink:href="#SVGID_1_" overflow="visible" fill="#FFF"/><clipPath id="SVGID_2_"><use xlink:href="#SVGID_1_" overflow="visible"/></clipPath></g></svg>