<svg id="Layer_1" xmlns="http://www.w3.org/2000/svg" viewBox="0 0 86 86"><style>.st0{fill:#009373;} .st1{fill:#62BA47;} .st2{fill:#FFFFFF;}</style><circle id="XMLID_111_" class="st0" cx="45.2" cy="39" r="39"/><circle id="XMLID_110_" class="st1" cx="14" cy="73.7" r="12.3"/><g id="XMLID_87_"><path id="XMLID_94_" class="st2" d="M5.8 71.8c.5-1.2 1.3-.4 1.6.2.4.8-.1 1.7-.6 2.4-.4.6-1 1.1-1.6 1.4-.3.2-.6.3-.8.7-.1.1-.2.4 0 .5.4.4 1.3.3 1.8.3.9.1 1.9 0 2.7-.4.5-.2.9-1.4.1-1-.6.3-1.5.3-2.2.2-.3 0-1.2 0-1.4-.2v.5c-.4.7-.1.3.2.1.3-.2.5-.4.8-.6.5-.4.8-.8 1.2-1.3.8-.9 1.2-2 1-3.2-.5-2.7-3.4-.7-3.9.8-.3.7.9 0 1.1-.4z"/><path id="XMLID_93_" class="st2" d="M12.6 76.2c.9 2.9 5.4.9 4.7-1.7-.4-1.3-1.9-1.1-2.9-1.5-.6-.2-.6-.7-.6-1.2.2-.6.2-.7-.2-.3.2-.1.3-.1.5-.1.9-.2 1.9-.1 2.7.3.4.2 1.3-.8.8-1.1-1.1-.5-2.4-.4-3.5-.2-1.1.3-1.4 1.3-1.4 2.3-.1 1.3 1.1 1.4 2.1 1.6.8.1 1.4.3 1.5 1.2.1 1.4-1.3 1.2-2 .8-.3-.2-.5-.6-.6-.9-.2-.5-1.2.3-1.1.8z"/><g id="XMLID_89_"><path id="XMLID_92_" class="st2" d="M22.9 70.8c-1.2 2.1-2.8 4-4.3 5.9-.6.9.4.9.9.3 1.5-2 3.2-4.1 4.5-6.3.5-.8-.8-.4-1.1.1z"/><path id="XMLID_91_" class="st2" d="M20.6 70.2c-.8 0-1.3.7-1.5 1.5-.1.7.3 1.2 1 1.3 1.5 0 2.2-2.7.5-2.8-.3 0-.9.8-.5.8s.5.3.6.7v.4c-.1.1 0 0 0 0h-.2c-.3 0-.6-.3-.6-.6 0-.1 0-.3.1-.4 0-.1.1 0 0 0h.2c.3 0 .9-.9.4-.9z"/><path id="XMLID_90_" class="st2" d="M22.8 74.7c-.8 0-1.3.7-1.5 1.5-.1.7.3 1.2 1 1.3 1.4 0 2.2-2.7.5-2.8-.3 0-.9.8-.5.8s.5.3.6.7v.4c0 .1 0 0 0 0h-.2c-.3 0-.6-.3-.6-.6 0-.1 0-.3.1-.4 0-.1.1 0 0 0h.2c.3-.1.8-.9.4-.9z"/></g><path id="XMLID_88_" class="st2" d="M10.8 78.9c.5-.5.9-1.2 1-1.9 0-.2 0-.5-.2-.7-.3-.3-.7 0-1 .1-.3.1-.6.5-.7.9 0 .4.4.3.6.2 0 0 .1 0 0 0 .1.1 0 .2 0 .3 0 .2-.1.3-.2.4 0 0 0 .1-.1.1 0-.1 0-.1 0 0l-.1.1c.1-.2 0 0 0 0-.2.1-.5.6-.3.8.4.2.9-.2 1-.3z"/></g><g id="XMLID_7_"><g id="XMLID_73_"><g id="XMLID_74_"><path id="XMLID_75_" class="st2" d="M76.6 44.2c.4-2.1.6-4.7-.9-6.4-.8-.9-2.3-.9-3.4-.6.1-.9.1-1.7.1-2.6 0-.7-1.4-.5-1.7-.4-.7.2-1.4.7-1.4 1.4-.1 2.9-.4 5.7-.8 8.6v.1c-.2.9-.6 2.2-1.4 2.6-.9.4-1.2-2.5-1.2-2.8.1-2.9.5-5.7 1.1-8.6.1-.7-.8-.8-1.3-.7-.7.2-1.6.7-1.8 1.4-.4 2.2-.8 4.4-1.3 6.6-.2 1-.5 1.9-1 2.8 0 0 0 .1-.1.1l-.6-.3c-1.5-.9-1.1-3.7-1-4.9.2-1.9.7-3.8 1.4-5.5.3-.6-.1-1-.8-.9-.4 0-.8.2-1.2.4-.2.1-.8.5-.9.5-.2.1-.4.2-.7.2-1.6.5-2.7-.2-3.6-1.4-.2-.3-.5-.6-.9-.8-1.1-.7-2.5-.2-3.5.3-.1-.8-.2-1.7-.3-2.5-.1-.7-1.5-.1-1.8 0-.6.4-1.3 1-1.2 1.7-.9.1-1.8.6-2.3 1.1-1.7 1.5-2.5 3.8-2.4 6.1-.3 2-1.3 5-3.6 4.8-.5 0-.9-.7-1.2-1.3.8-1 1.5-2.2 2.1-3.2 1.2-1.9 2-4.6.5-6.4-.9-1.2-3.4-.1-4.4.8-1.4 1.3-1.8 3.2-1.9 4.9-.1 1.2 0 3.3.6 5.1-.3.5-.9 1.1-1.4.8-.5-.2-.7-.9-.8-1.4-.5-1.6-.5-3.3-1.2-4.8-.9-2.2-3.2-2.3-5.4-1.2-.3-1.9-.4-4 .5-5.9 1-2.1 3.4-1.3 4.8-.4 1 .6 3.5-1.9 2.5-2.6-1.4-.9-3.1-1.7-5-1-1.6.6-2.9 1.9-3.8 3.1-.2.2-.3.5-.5.7-.5-1.5-1-2.9-1.5-4.3-.2-.5-1.1 0-1.4.3-3 2.1-8.1 6.4-6.1 10.5.4.9 2.9-1.8 2.4-2.8-.8-1.5 1-3.5 2.7-4.8 1.2 3.4 2.1 6.8 2.9 10.2.5 2.1.8 4.6-.2 6.5-1.1 2-3.7.7-4-.9-.2-1.4-2.5 1.3-2.3 2.3.2 1.2.9 2.1 2 2.5 1.1.4 2.3-.1 3.3-.8 2.4-1.6 3.8-4.3 4.1-7.1.1-1.1.1-2.3 0-3.5.8-.2 1.5-.1 2.1.5 1.2 1.3 1.2 3.4 1.6 5 .3 1.2.9 2.6 2.5 2.4 1.2-.2 2.3-1.1 3.1-2.1.5.7 1.2 1.2 2.1 1.3 1.6.1 3.4-1.1 4.5-2.1l1.2-1.2c.3.8.7 1.5 1.2 2.1.6.7 1.6.9 2.5.7.4-.1.7-.2 1.1-.3-.1 2.7-.3 5.4-.6 8.1-.1.7.8.6 1.2.4.6-.3 1.3-.9 1.4-1.7.3-2.1.5-4.3.6-6.5 1 0 2.2-.3 3-1 2-1.6 2.7-4.2 2.7-6.7v-1.4c.9 0 1.8-.1 2.6-.4-.5 1.7-.8 3.5-.9 5.3-.1 1.7 0 4.6 2.3 5.3 1.5.5 2.8-.1 3.8-1.1.1.3.2.7.3 1 .8 1.9 2.9 1.5 4.3.9-.6 2.9-1.3 5.8-2 8.7-.2.7.6.8 1.1.7.6-.1 1.4-.6 1.6-1.3.6-2.1 1.2-4.1 1.7-6.2.9.3 2.1.3 3-.2 1.8-1 2.8-3.5 3.2-5.8zm-40.8-5.4c0-1.1.1-2.1.4-3.2.2 0 .4.1.5.2 1.3.8.4 3-.1 4-.2.4-.4.8-.6 1.3-.1-.7-.2-1.5-.2-2.3zm11 5.3c-.1 0-.4-.1-.5-.1-.5-.3-.8-.7-1.1-1.2-.7-1.3-.8-2.9-.8-4.3 0-1.2.2-2.5.7-3.6.1 0 .2.1.3.2 1 .7 1.4 2.1 1.5 3.1 0 1.9.1 3.9 0 5.9h-.1zm4.7 0c0 .1-.1.1-.1.2-1.1 0-1.6-.8-1.6-1.7.1-2 .1-4.1.1-6.1 0-1.1.3-1.5.3-1.5.2.1.7.2 1 .6.9 1.1 1.1 2.8 1.1 4.1 0 1.5-.1 3.2-.8 4.4zm20.8 4.3s-.1.1-.2.1c-1-.2-1.3-1.4-1.2-2.2 0 0 .7-3.7 1-5.6 0-.2.3-1.3.6-1.7.4.1.6.5.8.9.7 1.3.6 3.1.4 4.4-.2 1.4-.5 3.1-1.4 4.1z"/></g></g></g></svg>