<svg id="Layer_1" xmlns="http://www.w3.org/2000/svg" viewBox="0 0 86 86"><style>.st0{fill:#F37A20;} .st1{fill:#62BA47;} .st2{fill:#FFFFFF;}</style><circle id="XMLID_112_" class="st0" cx="44.4" cy="39" r="39"/><circle id="XMLID_111_" class="st1" cx="13.2" cy="73.7" r="12.3"/><g id="XMLID_88_"><path id="XMLID_110_" class="st2" d="M4.7 71.8c.2-.6 1-.7 1.4-.4.7.5-.3 1.2-.6 1.5-.4.3-1 .9-.8 1.4.1.4 1.2.4 1.5.5.6.1.8.4.7 1.1-.3 1.1-1.6.4-2 0-.3-.3-1.3.6-1 1 1.3 1.3 3.1.4 3.9-1 .3-.5.4-1.4 0-1.9-.4-.4-1.3-.3-1.8-.4-.1-.1-.2 0-.2.2.2-.2.5-.4.7-.6.3-.3.6-.5.8-.9.3-.6.4-1.5-.2-1.9-1.3-.9-2.9.7-3.3 1.8-.4.6.7 0 .9-.4z"/><path id="XMLID_94_" class="st2" d="M11.2 76.1c1 3 5.5.9 4.8-1.8-.4-1.3-1.9-1.2-3-1.5-.6-.2-.6-.7-.6-1.2.2-.6.2-.7-.2-.3.2-.1.3-.1.5-.1.9-.2 1.9-.1 2.8.3.4.2 1.3-.8.8-1.1-1.1-.5-2.4-.5-3.6-.2-1.1.3-1.4 1.3-1.4 2.3-.1 1.3 1.2 1.5 2.2 1.6.8.1 1.4.3 1.5 1.2.1 1.4-1.3 1.2-2 .8-.3-.2-.5-.6-.6-.9-.3-.4-1.3.5-1.2.9z"/><g id="XMLID_90_"><path id="XMLID_93_" class="st2" d="M21.7 70.7c-1.3 2.1-2.9 4.1-4.3 6-.6.9.4.8.8.2 1.6-2.1 3.2-4.1 4.6-6.4.5-.8-.8-.3-1.1.2z"/><path id="XMLID_92_" class="st2" d="M19.3 70.1c-.8 0-1.3.8-1.5 1.5-.1.7.3 1.3 1 1.3 1.5 0 2.3-2.7.5-2.8-.3 0-.9.8-.5.8s.6.3.6.7v.4c0 .1 0 0 0 0h-.2c-.4 0-.6-.3-.6-.6 0-.1 0-.3.1-.4 0-.1.1 0 0 0h.2c.3-.1.9-.9.4-.9z"/><path id="XMLID_91_" class="st2" d="M21.5 74.6c-.8 0-1.3.8-1.5 1.5-.1.7.3 1.3 1 1.3 1.5 0 2.3-2.7.5-2.8-.3 0-.9.8-.5.8s.6.3.6.7v.4c0 .1 0 0 0 0h-.2c-.4 0-.6-.3-.6-.6 0-.1 0-.3.1-.4 0-.1.1 0 0 0h.2c.3 0 .9-.9.4-.9z"/></g><path id="XMLID_89_" class="st2" d="M9 78.9c.6-.5.9-1.2 1.1-2 0-.2 0-.5-.2-.7-.3-.3-.7 0-1 .1-.3.1-.6.5-.7.9 0 .4.4.3.6.2 0 0 .1 0 0 0 .1.1 0 .2 0 .3 0 .2-.1.3-.2.4 0 0 0 .1-.1.1 0-.1 0-.1 0 0l-.1.1c.1-.2 0 0 0 0-.2.2-.5.6-.3.8.3.3.8-.1.9-.2z"/></g><g id="XMLID_7_"><g id="XMLID_73_"><g id="XMLID_74_"><path id="XMLID_82_" class="st2" d="M74.5 47c-.5 0-.9.2-1.3.5 0 0-.1-.1-.1-.2-.2-.5-.2-1.3-.2-1.8.1-2 .5-3.9 1.1-5.8v-.1c.2-1.3-.7-2.2-2-2.3-1.3-.1-2.4.5-3.3 1.4-1 1.1-1.6 2.6-1.9 4.2-.1.5-.6 2.2-1.2 2.2h-.1c-.5-.1-.4-1-.4-1.5 0-.9.1-1.9-.3-2.8-.3-.7-1.1-.9-1.8-.9 0-.1.1-.2.1-.3.1-.1.1-.3.2-.4.3-.7.7-1.4 1.2-1.9.3.1.7.5.8.6.7.7 2.8-.6 2.2-1.3-.9-1-1.8-1.2-2.8-.9-.6.1-1.2.5-1.8 1l-.3.3c.1-1.2.1-2.4-.1-3.6 0-.1-.1-.2-.2-.3-.6-.3-2.2.7-2.2 1.4.1 2.6-.1 4.8-1 7.2-.2.7-1.3 1.9-1.3 1.9l-.1.1c-.2-.3-.1-.9-.2-1.2-.1-.9 0-1.7.1-2.6.1-1.2.2-2.6.6-3.7.2-.4.3-.8.5-1.2.2-.5 0-.8-.6-.8-.6.1-1.3.5-1.5 1.1l-.6 1.5c-.3.6-.5 1.1-.9 1.6-.3.4-.6.6-1.1 1l-.1.1c.1-1.8.1-3.6.1-5.4.1-.3-.1-.4-.3-.5h-.2c-.2 0-.4 0-.5.1-.4.1-.8.4-1 .8-.1.2-.2.4-.2.5-.6 2.2-1.4 4.2-2.4 6.2-.4.8-1.1 2.2-2 1.1-.2-.3-.4-.6-.6-1 1.5-1.4 2.7-3.2 3.1-5.2.3-1.3-.2-2.7-1.8-2.9-1.5-.2-2.7 1.4-3.2 2.5-.8 1.6-.7 3.5-.6 5.2 0 .2.1.5.1.8-.2.2-.5.4-.7.5-1.1.8-1.6.3-2.1-.7-.5-1.3-.6-2.8-.5-4.2 0-.5.1-.9.2-1.4.1-.2.1-.3.2-.5 0-.1 0-.1.1-.2.3.1.5.5.7.7.5.7 2.5-1 2-1.8-1.1-1.7-3-.8-4 .5-.5.7-.8 1.5-1 2.3-.1.4-.3.8-.4 1.2v-4.5c0-1.2-2 .5-2.1 1.1-.1.7-.3 1.4-.6 2.1-.2-.7-.4-1.3-.8-1.9-.9-1.5-2.6-1.2-3.8.2-.3.3-.8 1.1-.4 1.4.4.3 1-.2 1.3-.5h.1c.1 0 .3.1.4.2.3.2.5.5.6.9.4.9.6 1.9.7 2.8.1 1 .1 2-.1 2.9v.2c0 .1-.1.2-.1.3-.2 0-.5-.3-.6-.5 0-.1-.1-.1-.1-.2-.3-.3-1 .2-1.4.8 0 .1-.1.1-.1.2h-.2c-.1 0-.3 0-.4-.1-.3-.2-.5-.5-.7-.8-.5-1-.6-2.1-.7-3.1-.2-1.6-.2-3.2-.2-4.8 0-.6-.7-.3-1.1-.1-.1 0-.1.1-.2.2-.6-.2-1.4 0-2.2.5-1.9 1.4-2.4 4-1.8 6.2.3 1.2 1.5 1.9 2.7 1.5l.6-.3c-.1.6-.2 1.1-.4 1.7-.2.6-1.2-.1-1.3-.4-.4-.8-2.2 1.2-1.8 2 .9 1.8 3 .6 4-.7.2-.2.3-.4.4-.7.2.4.4.7.8 1 .8.6 1.8.2 2.6-.5 1.3.9 2.9-.4 3.6-1.8.3-.6.5-1.3.6-1.9.1-.5.3-1.1.5-1.6 0 1.6.1 3.1 0 4.7 0 .6.6.4 1 .2.5-.3 1-.9 1-1.5.1-.6.2-1.2.4-1.7.3 1.6.9 3.2 2.5 3.2.8 0 1.6-.5 2.2-.9.4-.2.7-.5 1-.7.3.7.8 1.4 1.5 1.6 2 .4 3.6-1.6 4.6-3.1.3-.5.6-.9.9-1.4 0 1.5-.1 3-.3 4.4-.1.6.6.5 1 .4.5-.2 1.1-.7 1.2-1.3.2-.9.4-1.9.9-2.8.3-.5.5-.5 1-.9l.1-.1c0 .5-.1 1.1-.1 1.6 0 .8-.4 4.1 1.2 4.1 1.1 0 2.1-.7 2.8-1.6-.1.5-.2 1-.3 1.6-.1.6.5.6.9.5.5-.2 1.1-.6 1.3-1.2.2-1 .5-2 .8-3 1.2.6.2 3.7 1 4.6.7.7 1.8.5 2.6.2.3-.1.6-.3.8-.5.1.6.3 1.2.8 1.6.9.8 2.2.4 3-.1.1-.1.2-.1.3-.2 0 .2.1.4.1.6.6 2.2 3.3 1.2 4.2 0 .2-.7-.1-1.2-.6-1.2zm-48.1-7.5c-.3-.7-.4-2.2 0-2.9-.1.1.3-.1.5 0 .4.1.6.5.7.9 0 1 .1 1.9.2 2.9-.7.1-1.1-.4-1.4-.9zM46.6 36c.1-.3.2-.8.4-1.1.1 0 .2.1.3.1.6.4.5 1.4.4 2-.2.8-.6 1.6-1.2 2.3v-1.2c-.1-.7 0-1.4.1-2.1zm23.1 10.2c-.1 0-.2 0-.3-.1-.4-.3-.4-1-.5-1.4-.2-1.6.2-3.2.9-4.6.2-.4.6-1.1.9-1.3h.1c.1 0 .3.1.3.1.5.1.7.7.6 1.1-.4 2-.9 4-1.7 5.8-.1.1-.2.3-.3.4zm3.3 1.5z"/><path id="XMLID_75_" class="st2" d="M23.8 36.5c.7-2.3.4-4.2-.8-5.9-1.2-1.7-4.3-1.6-6.2-.6-2.7 1.3-4.7 4-5 7 0 .5.3.7.8.4.5-.4 1-1.1 1.1-1.8.2-1.7 1.3-2.9 3.1-3.6 1.5-.6 3.3-.4 4.1.5 1.3 1.4 2.4 5.6-.7 5.8-.9-1.6-1.9-3.3-2.2-5.1-.2-1.1-2.1 1-2 1.8.7 3.1 3.1 5.7 3.5 8.8.1 1.1.1 2.7-1.3 2.9-.9.2-2.1-.3-2.2-1.3-.2-1.1-1.9 1.1-1.7 1.9.3 1.4 1.6 2.1 2.7 1.9 1.9-.3 3.3-1.9 3.9-3.7.6-1.7.7-3.6.1-5.4 1.3-.7 2.4-2.3 2.8-3.6z"/></g></g></g></svg>