<svg id="Layer_1" xmlns="http://www.w3.org/2000/svg" viewBox="-580 396.7 86 86"><style>.st0{fill:#5C308F;} .st1{fill:#62BA47;} .st2{fill:#FFFFFF;}</style><circle class="st0" cx="-534.8" cy="435.8" r="39"/><circle class="st1" cx="-566" cy="470.5" r="12.3"/><path class="st2" d="M-560.5 467c-1.5 2.5-3.4 4.8-5.1 7.1-.8 1 .5 1 1 .3 1.8-2.4 3.8-4.9 5.3-7.5.7-1-.8-.5-1.2.1zM-563.2 466.3c-.9 0-1.6.9-1.7 1.7-.2.8.3 1.5 1.1 1.5 1.7.1 2.6-3.1.6-3.2-.4 0-1.1 1-.5 1 .4 0 .7.4.7.8 0 .1 0 .3-.1.5-.1.1 0 0 0 0h-.2c-.4 0-.7-.4-.7-.8 0-.2 0-.4.1-.5.1-.1.1 0 0 0h.2c.4 0 1.1-1 .5-1zM-560.6 471.6c-.9 0-1.6.9-1.7 1.7-.2.8.3 1.5 1.1 1.5 1.7.1 2.6-3.1.6-3.2-.4 0-1.1 1-.5 1 .4 0 .7.4.7.8 0 .1 0 .3-.1.5-.1.1 0 0 0 0h-.2c-.4 0-.7-.4-.7-.8 0-.2 0-.4.1-.5.1-.1.1 0 0 0h.2c.4 0 1.1-1 .5-1zM-570.1 469.8c-.6-.3-2-1.6-1-2.3.4-.3 1-.2 1.4 0 1.1.3.3 1.3-.2 1.7-.3.2-2.1 1.7-1.3 2.3.9.7 2.7-.1 2.7 1.5 0 1.1-1.7 1.1-2.3.7-1.1-.7-1-1.7.2-2.5.5-.3 1.1-1.8.1-1.2-1.2.7-2.5 1.7-2.5 3.2 0 .9.9 2 1.9 2.1 1.4.1 2.8-.8 3.6-1.9.7-1.1.6-2.5-.7-2.8-.4-.1-1.5-.4-1.8-.1.5-.6 1.3-1 1.8-1.7 1-1.3.6-2.6-1-2.8-1.3-.2-2.6.8-3.2 1.9-.8 1.4.1 2.7 1.3 3.4.4.1 1.6-1.2 1-1.5z"/><g><path class="st2" d="M-535.3 424.5h-.2-.1c-2.2.2-2.8 3.2-2.8 4.8 0 1.4.3 4.4 2.2 4.4 1 0 1.8-1 2.2-1.8.5-.9.6-2 .7-3 .1-1.3-.1-4.2-2-4.4zm.3 6.9c0 .2-.1.3-.1.5 0 0-.1.1-.1.2-1.1.1-1.4-2.3-1.4-3-.1-.7 0-1.5.1-2.2.1-.2.1-.5.2-.7 1.1.1 1.4 2.3 1.4 3 .1.7 0 1.5-.1 2.2zM-540.7 425c-.7-.3-1.5.1-2.1.5-.1-.5-.3-1.1-.4-1.6-.1-.4-.9 0-1.1.2-.2.2-.5.5-.6.7v.2c-.1.4-.1.7-.3 1-.1.1 0 .1-.1.1-.4.2-1.1-.1-1.5-.2-.3-.1-.6-.2-.9-.2h-.2-.1c-2.4.6-2.4 3.6-2.2 5.2.2 1.4.9 4.3 3 4 1-.2 1.8-1.3 2.1-2.1.4-1 .4-2 .3-3-.1-.6-.2-1.5-.5-2.3.3-.2.7-.4 1-.7.5 2.1.8 4.3 1.1 6.5.2 2 .4 4 .5 6 0 .5.5.3.8.1.4-.3.7-.7.7-1.2 0-1.4-.1-2.8-.2-4.2.6-.1 1.2-.4 1.7-1 1.1-1.2 1.2-3.1 1-4.6-.5-1-.8-2.9-2-3.4zm-5.8 7.5c0 .2 0 .3-.1.5 0 0 0 .1-.1.2-1.2.3-1.8-2.1-1.9-2.8-.2-.7-.2-1.5-.2-2.2 0-.2.1-.5.1-.7h.3l.1.1c.1 0 .2.1.3.1.8.5 1.2 2 1.3 2.6.2.7.2 1.5.2 2.2zm4.2-6zm1.6 5.9zm0-.1s0 .1-.1.1c-.6.1-1-.4-1.1-1v-.2c-.1-1.2-.3-2.4-.4-3.5v-.1c0-.4-.1-.7 0-1.1.2-.1.5.1.7.3.6.6.9 1.7 1 2.5.1 1 .2 2.1-.1 3zM-553.4 429c.2-.8.3-1.6.4-2.4.2-1.3.4-3-.4-4.2-.8-1.1-2.3-.1-2.9.8-.9 1.4-.8 3.1-.7 4.6.2 1.8.6 3.4 1.3 5.1-.2.8-.3 1.7-.6 2.5 0 .1-.1.1-.1.2-.1-.1-.2-.2-.2-.3-.2-.3-.3-.6-.4-.9-.9-2.5-1.3-5.2-2.6-7.6-.4-.8-1.2-1.9-2.4-1.3-.9.4-1.3 1.2-1.6 2.1-.6-.7-1.4-1.2-2.5-.4-.5.3-.8.7-1 1.1-.2-.4-.3-.8-.7-1-.7-.5-2 1.5-1.4 1.9.4.2.6.8.8 1.2.4.9.8 1.8 1.1 2.7.2.5.4.9.6 1.4.6 2 1.5 3.9 2.3 5.7.1.2.2.2.3.2.5-.1 1.1-1.3 1-1.7-.6-1.7-1.3-3.3-1.9-5-.2-.7-.5-1.5-.7-2.2-.2-.8-.4-1.6-.4-2.4v-.3c1.2-.4 2.1 2.2 2.3 2.7.4 1 .8 1.9 1.1 2.9.5 1.5 1 3 1.5 4.4.1.2.2.3.3.2.4-.1 1.1-1.2.9-1.7-.5-1.6-1-3.1-1.5-4.7-.1-.4-.2-.8-.3-1.1-.4-1.3-.7-2.7-.6-4.1v-.1c.3 0 .6.3.8.5 1.1 1.2 1.6 3 2.1 4.5.3 1 .6 2.1 1 3.1.2.6.5 1.4.9 1.9.6.6 1.2.1 1.7-.5.4-.6.7-1.3 1-2 .4.9 1.1 1.8 1.9 1.6 1.3-.3 2-1.8 2.2-3 .2-1.3 0-3.7-1.4-4.4-.5-.3-.9-.2-1.2 0zm-2-1.7c-.2-1.1-.3-2.4.1-3.6h.1c.4.1.5.5.6.9.3 1.2.1 2.5 0 3.7-.1.5-.1 1-.2 1.4-.3-.7-.5-1.5-.6-2.4zm3 5.2c.1.6.2 1.2.1 1.8v.1h-.2c-.4 0-.7-.5-.8-.8-.4-.6-.6-1.2-.9-1.8.1-.3.2-.7.3-1 .2-.3.4-.3.7-.1.6.5.7 1.3.8 1.8z"/><path class="st2" d="M-504.7 437.7c-.2-.3-.7-.3-1-.2 0 0-.1 0-.1-.1-.1-.1-.1-.2-.2-.3-.1-.3-.1-.7-.1-1 .1-.8.3-1.6.6-2.4.2-.6.5-1.3.8-1.9v-.1l.6-1.2c.2-.4-.4-.6-.8-.5h-.2c-.4-.4-1-.6-1.8-.5-1.9.1-3.1 1.9-3.4 3.5-.2 1 .4 1.9 1.4 2.2.2 0 .3.1.5.1-.2.4-.5.7-.8 1-.4.3-.8-.5-.8-.9 0-.2-.2-.3-.4-.3h-.1c-.4 0-.8.2-1.1.4 0 0-.1-.1-.1-.2-.2-.4-.1-1 0-1.4.1-1.5.6-3.1 1.1-4.5v-.1c.2-1-.5-1.7-1.6-1.8-1.1-.1-2 .5-2.7 1.1-1 .9-1.5 2.3-1.8 3.7-.2.3-.3 1-.7 1.4v.1h-.2c-.3-.3-.1-1.3-.1-1.7.1-1.4.4-2.9 1-4.3.2-.3.4-.7.5-1 .2-.4 0-.7-.4-.6-.5 0-1.1.4-1.3.8-.2.3-.4.7-.5 1.1-.3.5-.5.9-.9 1.3-.3.3-.5.4-1 .7 0 0-.1 0-.1.1.2-1.4.3-2.8.4-4.2.1-.2 0-.3-.2-.4h-.5c-.4.1-.8.3-1 .6-.1.1-.1.2-.1.3-.5 2-1.1 4.1-2.5 5.7-.1.1-.1.2-.2.2 0 0-.1 0-.1.1h-.1c-.4-.1-.6-.6-.7-.9-.4-1.2-.2-2.5 0-3.7.1-.2.1-.5.2-.7.1-.2.2-.3.2-.5.2.1.4.4.5.6.3.6 2.2-.5 1.9-1.2-.5-1-1.7-1.2-2.7-.6-.7.4-1.1.9-1.5 1.5l-.1.1v.1c-.1.1-.1.2-.2.3v.1c-.2.3-.3.7-.5 1 .1-1.2.2-2.4.4-3.5.1-.9-1.7.1-1.8.6-.2.5-.4 1-.6 1.6-.1-.5-.2-1.1-.4-1.6-.6-1.3-1.9-1.3-3-.3-.2.2-.7.8-.4 1.1.3.2.7 0 1-.2h.1c.1 0 .2.1.3.2.2.2.3.5.4.8.3.7.3 1.5.3 2.3 0 .8-.1 1.6-.3 2.3v.1c0 .1-.1.2-.1.2-.2-.1-.4-.4-.5-.6-.3-.5-1.8.8-1.4 1.4.9 1.4 2.4.5 3.1-.6.3-.4.5-.9.7-1.4.2-.4.3-.8.5-1.2-.1 1.2-.2 2.4-.4 3.7-.1.5.5.4.7.3.4-.2.8-.6 1-1 .1-.5.3-.9.5-1.4 0 .5.1 1 .2 1.4.2.6.5 1.2 1.1 1.4.9.3 1.9-.4 2.5-.9.5-.4.9-.9 1.3-1.5-.1.8-.2 1.6-.4 2.4-.1.5.4.5.7.4.4-.1.9-.5 1-.9.2-.7.4-1.5.9-2.1.3-.3.4-.4.9-.7h.1c-.2 1.1-.4 2.3-.3 3.4.1 1 .7 1.3 1.7 1.1.4-.1.8-.3 1.1-.5.1.4.2.8.5 1.1.6.6 1.7.2 2.4-.1.1 0 .1-.1.2-.1 0 .2 0 .3.1.5.2 1 1 1.1 1.8.9.5.9 1.9.9 2.8.5.2-.1.4-.2.5-.3 0 .2 0 .4.1.6.3 1.2 1.4 1.4 2.5.9.6-.5 1.3-.8 1.1-1.2zm-9.4-3.1s-.2 0-.2-.1c-.3-.2-.3-.8-.3-1.1 0-.5 0-1 .1-1.4v-.2c.2-.7.4-1.3.7-1.9.2-.3.5-.8.7-1h.1c.1 0 .2 0 .3.1.4.1.5.5.5.8-.5 1.5-.9 3.2-1.6 4.5l-.3.3zm2.6 1.1zm3.5-3c0-.6.5-1.7 1-2-.1.1.2.1.4.2.3.3.2.7.1 1-.3.7-.6 1.4-.8 2.1-.6-.3-.8-.9-.7-1.3zm2.3 4.8c.1 0 .1 0 0 0zM-521.8 448.4l-.2-.2c-.1-.1-.1-.2-.1-.3-.1-.5-.1-1-.1-1.4 0-1.4.2-2.8.4-4.2v-.1c.1-1-.7-1.6-1.7-1.5-1 .1-1.8.7-2.4 1.5-.7.9-1 2-1.1 3.1-.1.5-.3 1-.5 1.5-.1.2-.2.3-.3.4-.1.1-.2.1-.2.1H-528.3c-.5 0-.9-.3-1.2-.6-.7-.9-.5-2.4-.4-3.4.1-.6.2-1.2.5-1.8l.2.2c.3.3.4.8.5 1.2.2.7 1.9-.3 1.7-1-.2-.7-.5-1.9-1.6-1.9-1 0-1.9.8-2.3 1.6-.5 1-.7 2-.7 3.1-.1.6-.3 1.2-.5 1.7-.1.2-.2.3-.3.5l-.2.2h-.1c-.2.1 0 0-.2 0-.5 0-.9-.2-1.3-.6-.8-.8-.6-2.4-.6-3.4 0-.6.1-1.3.4-1.8.1 0 .1.1.2.2.3.3.4.8.5 1.2.2.7 1.8-.4 1.7-1.1-.2-.7-.6-1.9-1.6-1.8-1 .1-1.8.9-2.2 1.7-.5 1.1-.6 2.3-.6 3.4v.4c-.1.6-.2 1.3-.5 1.9-.5-.2-.5-1.5-.6-1.8-.2-1.4-.2-2.8-.1-4.2v-.1c0-1-.9-1.4-1.9-1.1-1 .3-1.7 1.1-2.2 1.9-.5 1-.8 2.2-.7 3.3-.1.6-.1 1.3-.3 1.9 0 .1-.1.2-.1.3-.2-.1-.3-.3-.4-.4-.3-.6-.5-1.3-.6-2-.2-1.2-.4-2.8-.1-4 .1-.3 0-.6-.4-.5-.5.1-.9.6-1.1 1 0 .1-.1.1-.1.2-.3.8-.5 1.5-.6 2.3-.2-.9-.5-2.1-.2-3 .1-.3 0-.6-.4-.5-.4.1-.8.5-1 .8-.7 1.4-.7 3.1-.7 4.7 0 .7-.1 1.5-.3 2.2h-.1c-.4-.2-.5-.9-.6-1.4-.1-.4-.8.1-.9.2-.3.3-.6.8-.5 1.2.2 1.1.9 2.3 2.2 1.5.8-.5 1.2-1.5 1.4-2.4.2.6.3 1.3.4 1.9.1.9 1.5-.5 1.5-1.1V447c.4 1.6 1.1 2.7 2.5 1.8.3-.2.6-.5.7-.8.2.4.4.7.8.9.8.3 1.7-.3 2.2-.9 0 0 0-.1.1-.1.1.3.2.5.4.7.2.3.7.3 1 .3.7-.1 1.2-.7 1.5-1.2.7 1.2 2.2 1.4 3.3.8.5-.3.9-.6 1.2-1 0 .1.1.2.1.3.6 1.3 2.1 1.6 3.3 1 .4-.2.8-.5 1.1-.8.1.5.3 1 .8 1.3.7.5 1.7 0 2.3-.4l.1-.1c0 .3.1.6.3.8.5.6 1.4.4 1.9.1.3-.2.8-.5.7-1 .1-.6-.8-.3-.8-.3zm-17.8-1.7c0 .1-.1.3-.1.4h-.3c-.3-.1-.5-.6-.6-.9-.4-1.1-.4-2.4-.1-3.6.1-.3.3-.9.4-1.1 0 0 .1 0 .1-.1h.3c.4 0 .6.3.6.6 0 1.6 0 3.2-.3 4.7zm15.2.8c0 .1-.1.2-.2.4 0 0-.2 0-.3-.1-.3-.2-.4-.7-.5-1-.2-1.2-.1-2.5.3-3.6.1-.3.4-.9.6-1.1h.4c.4 0 .6.4.6.7-.2 1.6-.3 3.2-.9 4.7z"/></g><g><path class="st2" d="M-533.9 461.9c-1.1.2-1.5 1.6-1.6 2.6-.1.8-.2 2.9 1.1 2.9 1.4.1 1.8-1.6 1.8-2.5 0-.7-.1-2.9-1.3-3-.3 0-1 .9-.6 1 1.1.1 1 3 .6 3.7.1-.2.2-.1-.1-.2-.2-.1-.2-.3-.3-.4-.2-.3-.2-.8-.3-1.1v-1.2c0-.2.1-.3.1-.5 0-.1.1-.2.1-.3.1-.2.1-.2-.1 0 .5 0 1.1-1.1.6-1z"/><path class="st2" d="M-537.1 462.7c.2 1.5-.1 3-.3 4.5-.1.6 1.1-.1 1.2-.4.2-1.2 1.3-2 1.8-3.2.2-.6-.8 0-.9.3-.3.7-.8 1.1-1.2 1.6-.4.5-.6 1.1-.8 1.7.4-.1.8-.3 1.2-.4.1-1.6.4-3.1.1-4.7-.2-.5-1.1.1-1.1.6zM-532.7 466c.1.5.5 1.5 1.4 1.1.6-.2.9-.8 1.1-1.3.2-.7.2-1.4.2-2.1 0-.6-.2-1.3 0-1.9l-.9.3c-.3 1.5.7 3.2 1.1 4.6.1.6 1.1-.4 1.1-.7-.2-1.3-.1-3 .2-4.3-.3.1-.5.3-.8.4-.1.9.6 5.7 2.6 4 .4-.3.5-1.4-.1-.8-.4.4-1.1-1.3-1.1-1.4-.2-.7-.5-1.5-.5-2.3 0-.7-.8.1-.8.4-.3 1.5-.6 3.3-.4 4.8.4-.2.7-.5 1.1-.7-.2-.7-.5-1.4-.8-2.1-.2-.7-.6-1.4-.5-2.1.1-.7-.8.1-.9.3-.3.7-.2 1.6-.2 2.4 0 .5 0 1.1-.1 1.6 0 .1-.1.2-.1.3.3-.1.3-.2-.1-.2-.3-.1-.3-.6-.4-.8-.2-.7-1.2.1-1.1.5zM-524.1 463.9c.3.5.9 1.2 1.6.6.5-.4.6-1.1.6-1.6 0-.7-.3-1.4-.5-2.1-.2-.5-.6-1.2-.5-1.8-.2.2-.5.4-.7.6.2 1.5 1.6 2.8 2.4 4 .3.5.9-.7.8-1.1-.6-1.2-1-2.8-1.1-4.2-.2.2-.5.4-.7.7.2.9 2.2 5.3 3.7 3 .3-.5.1-1.5-.4-.7-.3.5-1.4-.9-1.5-1-.5-.6-.9-1.3-1.1-2.1-.2-.7-.7.3-.7.7.1 1.5.4 3.4 1.1 4.7.3-.3.5-.7.8-1.1-.4-.6-.9-1.2-1.4-1.8-.4-.5-1-1.2-1.1-1.9-.1-.7-.7.3-.7.6-.1.8.3 1.6.5 2.3.2.5.3 1 .3 1.6v.3c.2-.2.2-.3-.1-.2-.3 0-.5-.5-.6-.7-.2-.3-.9.8-.7 1.2z"/><path class="st2" d="M-526.4 460.2c-1 .5-1 2-.9 3 .1.8.7 2.9 2.1 2.5 1.5-.4 1.4-2.2 1.1-3.2-.3-.7-1.1-2.6-2.3-2.3-.3.1-.6 1.2-.3 1.1.6-.2 1.1.6 1.3 1.1.2.4.3.8.4 1.2 0 .2.1.3.1.5 0 .1-.1.5.1.3-.5.5-1.3-.8-1.4-1.1-.2-.4-.3-.8-.4-1.2 0-.2-.1-.4-.1-.7 0-.2.1-.3 0-.2.5 0 .8-1.2.3-1zM-540.8 466.3c2.1.2 2.8-2 2.7-3.5 0-.6-.2-1.2-.9-1.3-1-.1-1.8.9-2 1.8-.1.5 1.1.1 1.2-.3.1-.3.1-.9.5-.5.2.3.2.7.2 1 0 .5-.3 2-.8 1.9-.5 0-1.5.8-.9.9z"/><path class="st2" d="M-536.6 465.2c-1.5.8-3.4 1.7-4.9 2.8-.7.5-1.7 1.6-1.2 2.4.4.6 1.3.8 2 .6 2.5-.6 3.9-6.2.4-5.5-.5.1-1.2.9-.2.8 1.7-.3 1.3 3.8 0 4-1.2.1-.6-1.2-.4-1.5.4-.6 1-1 1.7-1.3 1-.5 1.9-1.1 2.9-1.6.5-.3.5-1.1-.3-.7zM-542 465.5c-.8.3-.4-1.7-.4-1.8.2-.8.5-1.7.7-2.5.2-.5-1-.1-1.1.2-.3.7-.5 1.4-.8 2.1-.2.4-.3.7-.5 1.1-.2.4-.3.5-.6.1-.8-1 .7-3 1.2-3.8.4-.6-.7-.4-1-.1-.5.7-3 4.2-.9 4.8 2.5.8 3.1-3 3.6-4.4-.4.1-.7.1-1.1.2-.5 1.2-1.1 2.6-1 3.9 0 1.2 1.3 1.1 2.2.7.9-.3.5-.9-.3-.5zM-547.6 459.3c.2-.8.1-1.7-1-1.6-1.2 0-2.1 1-2.7 1.8-.5.7-.9 1.5-.2 2.5s2.4.9 3.2.8c.8-.1.5-.8-.2-.6-.6.1-1.2.1-1.7-.4-.4-.4-.2-1-.1-1.4.2-.5.6-1 1-1.4l.3-.3c.3-.3.4-.3.2-.1.1.3 0 .6-.1.9 0 .3 1.2.2 1.3-.2z"/></g></svg>